<svg xmlns="http://www.w3.org/2000/svg" viewBox="0 0 200 200"><style>.st0{fill:#ef4c30}.st1{fill:#f6f6f6}.st2,.st3{stroke:#fff;stroke-miterlimit:10}.st2{fill:#fff;stroke-width:5}.st3{stroke-width:12}.st3,.st4{fill:#fff}.st5{fill:none;stroke:#000;stroke-width:12;stroke-miterlimit:10}.st6{fill:#00a898}.st7{fill:#a82058}.st8,.st9{fill:#f6f6f6;stroke:#f6f6f6;stroke-width:18;stroke-miterlimit:10}.st9{fill:#a82058;stroke:#a82058;stroke-width:7}.st12{fill:#f2f2f2}.st14{fill:#333}.st16{fill:#424242}.st19{fill:#fff;stroke:#fff;stroke-width:4;stroke-miterlimit:10}.st20{fill:none}</style><g id="Layer_1"><circle class="st0" cx="173.5" cy="-4283" r="112"/><circle class="st0" cx="-112" cy="-4283.5" r="112"/><path class="st1" d="M-24.5-6107h423v223h-423z"/><path d="M383.3-8034H214.5c-20.4 0-37-16.6-37-37s16.6-37 37-37h168.8c20.4 0 37 16.6 37 37s-16.5 37-37 37z"/><path class="st2" d="M403.2-7984v-34.7h-34.7v-31.6h34.7v-34.7h31.6v34.7h34.7v31.6h-34.7v34.7z"/><path d="M459.5-8028.7h-34.7v34.7h-11.6v-34.7h-34.7v-11.6h34.7v-34.7h11.6v34.7h34.7v11.6zM702.3-6157H533.5c-20.4 0-37-16.6-37-37s16.6-37 37-37h168.8c20.4 0 37 16.6 37 37s-16.5 37-37 37z"/><path class="st3" d="M722.2-6107v-34.7h-34.7v-31.6h34.7v-34.7h31.6v34.7h34.7v31.6h-34.7v34.7z"/><path d="M778.5-6151.7h-34.7v34.7h-11.6v-34.7h-34.7v-11.6h34.7v-34.7h11.6v34.7h34.7v11.6zM109.5-6245.2H95.4v14.1h-4.7v-14.1H76.5v-4.7h14.1v-14.1h4.7v14.1h14.1v4.7zM313.5-7747h-163c-26.5 0-48-21.5-48-48s21.5-48 48-48h163c26.5 0 48 21.5 48 48s-21.5 48-48 48zM313.5-7630h-163c-26.5 0-48-21.5-48-48s21.5-48 48-48h163c26.5 0 48 21.5 48 48s-21.5 48-48 48z"/><circle class="st4" cx="173.2" cy="-7678" r="15"/><circle class="st4" cx="231.5" cy="-7678" r="15"/><circle class="st4" cx="289.9" cy="-7678" r="15"/><path class="st5" d="M401-7673.6c35.7 0 64.7-29 64.7-64.7s-29-64.7-64.7-64.7"/><path d="M410-7704.7l-28.8 28.9 29.3 29.3z"/><path class="st5" d="M-277-6497.6c35.7 0 64.7-29 64.7-64.7s-29-64.7-64.7-64.7"/><path d="M-268-6528.7l-28.8 28.9 29.3 29.3z"/><path class="st5" d="M-346.1-6627.9c-35.7 0-64.7 29-64.7 64.7s29 64.7 64.7 64.7"/><path d="M-355.1-6596.9l28.9-28.8-29.4-29.3z"/><path class="st6" d="M860.5-7551h-163c-26.5 0-48-21.5-48-48s21.5-48 48-48h163c26.5 0 48 21.5 48 48s-21.5 48-48 48zM934.5-7434h-138c-26.5 0-48-21.5-48-48s21.5-48 48-48h138c26.5 0 48 21.5 48 48s-21.5 48-48 48z"/><circle class="st4" cx="810.2" cy="-7482" r="15"/><circle class="st4" cx="868.5" cy="-7482" r="15"/><circle class="st4" cx="926.9" cy="-7482" r="15"/><path class="st6" d="M731.7-7479l-29.9-29.9v22.4c-24.7 0-44.8-20.1-44.8-44.8 0-2.7.3-5.4.7-8l-13-9.4c-1.7 5.5-2.6 11.3-2.6 17.4 0 33 26.7 59.7 59.7 59.7v22.4l29.9-29.8zM470-7317H272c-16.8 0-30.5-13.7-30.5-30.5s13.7-30.5 30.5-30.5h198c16.8 0 30.5 13.7 30.5 30.5S486.9-7317 470-7317zM557-7210H359c-16.8 0-30.5-13.7-30.5-30.5s13.7-30.5 30.5-30.5h198c16.8 0 30.5 13.7 30.5 30.5S573.9-7210 557-7210zM307.3-7241l-34.3-34.3v25.7c-28.4 0-51.4-23.1-51.4-51.4 0-3.1.3-6.2.9-9.2l-15-10.8c-1.9 6.3-3 13-3 20 0 37.9 30.7 68.6 68.6 68.6v25.7l34.2-34.3zM766-7048H568c-16.8 0-30.5-13.7-30.5-30.5s13.7-30.5 30.5-30.5h198c16.8 0 30.5 13.7 30.5 30.5S782.9-7048 766-7048zM853-6941H655c-16.8 0-30.5-13.7-30.5-30.5s13.7-30.5 30.5-30.5h198c16.8 0 30.5 13.7 30.5 30.5S869.9-6941 853-6941zM603.3-6972l-34.3-34.3v25.7c-28.4 0-51.4-23.1-51.4-51.4 0-3.1.3-6.2.9-9.2l-15-10.8c-1.9 6.3-3 13-3 20 0 37.9 30.7 68.6 68.6 68.6v25.7l34.2-34.3zM65-7127h-198c-16.8 0-30.5-13.7-30.5-30.5s13.7-30.5 30.5-30.5H65c16.8 0 30.5 13.7 30.5 30.5S81.9-7127 65-7127zM-97.7-7051l-34.3-34.3v25.7c-28.4 0-51.4-23.1-51.4-51.4 0-3.1.3-6.2.9-9.2l-15-10.8c-1.9 6.3-3 13-3 20 0 37.9 30.7 68.6 68.6 68.6v25.7l34.2-34.3z"/><path d="M793.5-7875h-163c-26.5 0-48-21.5-48-48s21.5-48 48-48h163c26.5 0 48 21.5 48 48s-21.5 48-48 48zM863.5-7758h-138c-26.5 0-48-21.5-48-48s21.5-48 48-48h138c26.5 0 48 21.5 48 48s-21.5 48-48 48z"/><circle class="st4" cx="739.2" cy="-7806" r="15"/><circle class="st4" cx="797.5" cy="-7806" r="15"/><circle class="st4" cx="855.9" cy="-7806" r="15"/><path d="M584.4-7887l10.9 10.9c-3.3 6.3-5.2 13.4-5.2 20.9 0 24.7 20.1 44.8 44.8 44.8v-22.4l29.9 29.9-29.9 29.9v-22.4c-33 0-59.7-26.7-59.7-59.7-.1-11.8 3.3-22.7 9.2-31.9z"/><path class="st6" d="M-380.6-7791.5l14.1 14.1c-4.2 8.1-6.7 17.2-6.7 27 0 31.9 25.9 57.8 57.8 57.8v-28.9l38.5 38.5-38.5 38.5v-28.9c-42.6 0-77-34.5-77-77-.1-15.2 4.3-29.3 11.8-41.1z"/><path class="st4" d="M567.5-7894v14l36 26 2-20-30-35z"/><path class="st6" d="M-169-7654h-54c-17.4 0-31.5-14.1-31.5-31.5s14.1-31.5 31.5-31.5h54c17.4 0 31.5 14.1 31.5 31.5s-14.1 31.5-31.5 31.5zM-248-7772h-72c-17.4 0-31.5-14.1-31.5-31.5s14.1-31.5 31.5-31.5h72c17.4 0 31.5 14.1 31.5 31.5s-14.1 31.5-31.5 31.5zM-370.6-8075.5l14.1 14.1c-4.2 8.1-6.7 17.2-6.7 27 0 31.9 25.9 57.8 57.8 57.8v-28.9l38.5 38.5-38.5 38.5v-28.9c-42.6 0-77-34.5-77-77-.1-15.2 4.3-29.3 11.8-41.1zM-248-8065h-72c-17.4 0-31.5-14.1-31.5-31.5s14.1-31.5 31.5-31.5h72c17.4 0 31.5 14.1 31.5 31.5s-14.1 31.5-31.5 31.5zM-349.1-7463.8l10.3 10.3c-3.1 5.9-4.9 12.6-4.9 19.7 0 23.3 18.9 42.3 42.3 42.3v-21.1l28.2 28.2-28.2 28.2v-21.1c-31.1 0-56.3-25.2-56.3-56.3-.1-11.3 3.1-21.5 8.6-30.2z"/><path class="st4" d="M-383.5-7413l11-22 47 11 22-36-53-41-44 26z"/><path class="st6" d="M-253-7451h-72c-17.4 0-31.5-14.1-31.5-31.5s14.1-31.5 31.5-31.5h72c17.4 0 31.5 14.1 31.5 31.5s-14.1 31.5-31.5 31.5zM-8.1-7093.3v11h-19.7v59h-11.5v-59h-19.8v-11h51zM161.9-6287.3v11h-19.7v59h-11.5v-59h-19.8v-11h51zM-181.5-8025.9v13.9h-24.9v74.7H-221v-74.7h-25.1v-13.9h64.6zM529.6-6655v16.9h-30.2v90.6h-17.7v-90.6h-30.4v-16.9h78.3zM-291.5-6593v10h-17.8v53.4h-10.4v-53.4h-17.9v-10h46.1z"/><circle class="st4" cx="701.2" cy="-6971" r="15"/><circle class="st4" cx="759.5" cy="-6971" r="15"/><circle class="st4" cx="817.9" cy="-6971" r="15"/><circle class="st4" cx="568.4" cy="-6195" r="11.9"/><circle class="st4" cx="614.5" cy="-6195" r="11.9"/><circle class="st4" cx="660.7" cy="-6195" r="11.9"/><path d="M702.3-5955H533.5c-20.4 0-37-16.6-37-37s16.6-37 37-37h168.8c20.4 0 37 16.6 37 37s-16.5 37-37 37z"/><path class="st3" d="M722.2-5905v-34.7h-34.7v-31.6h34.7v-34.7h31.6v34.7h34.7v31.6h-34.7v34.7z"/><path d="M776.5-5954.7h-34.7v34.7h-11.6v-34.7h-34.7v-11.6h34.7v-34.7h11.6v34.7h34.7v11.6z"/><path class="st7" d="M208.4-5955h-101c-20.9 0-37.9-17-37.9-37.9v-59.2c0-20.9 17-37.9 37.9-37.9h101c20.9 0 37.9 17 37.9 37.9v59.2c0 20.9-16.9 37.9-37.9 37.9z"/><path class="st8" d="M229.2-5905v-34.7h-34.7v-31.6h34.7v-34.7h31.6v34.7h34.7v31.6h-34.7v34.7z"/><path class="st9" d="M286.5-5951.7h-34.7v34.7h-11.6v-34.7h-34.7v-11.6h34.7v-34.7h11.6v34.7h34.7v11.6z"/><path d="M188.5-6687.2v29.1l38.8-38.8-38.8-38.8v29.1c-42.9 0-77.6 34.7-77.6 77.6 0 15.2 4.5 29.4 12 41.3l14.2-14.2c-4.4-8.1-6.8-17.4-6.8-27.2 0-32 26.1-58.1 58.2-58.1zm65.6 16.8l-14.2 14.2c4.3 8.2 6.8 17.4 6.8 27.2 0 32.1-26.1 58.2-58.2 58.2v-29.1l-38.8 38.8 38.8 38.8v-29.1c42.9 0 77.6-34.7 77.6-77.6.1-15.2-4.4-29.4-12-41.4zM400.1-6622.8c-4.4-8.1-6.8-17.4-6.8-27.2 0-32.1 26.1-58.2 58.2-58.2v29.1l38.8-38.8-38.8-38.8v29.1c-42.9 0-77.6 34.7-77.6 77.6 0 15.2 4.5 29.4 12 41.3l14.2-14.1zM570-6594.2c4.3 8.2 6.8 17.4 6.8 27.2 0 32.1-26.1 58.2-58.2 58.2v-29.1l-38.8 38.8 38.8 38.8v-29.1c42.9 0 77.6-34.7 77.6-77.6 0-15.2-4.5-29.4-12-41.3l-14.2 14.1z"/><path class="st1" d="M187.5-6064.4v13.2h-23.7v70.9H150v-70.9h-23.8v-13.2h61.3zM542.5-5644h423v223h-423z"/><path class="st7" d="M775.4-5492h-101c-20.9 0-37.9-17-37.9-37.9v-59.2c0-20.9 17-37.9 37.9-37.9h101c20.9 0 37.9 17 37.9 37.9v59.2c0 20.9-16.9 37.9-37.9 37.9z"/><path class="st8" d="M796.2-5442v-34.7h-34.7v-31.6h34.7v-34.7h31.6v34.7h34.7v31.6h-34.7v34.7z"/><path class="st9" d="M853.5-5488.7h-34.7v34.7h-11.6v-34.7h-34.7v-11.6h34.7v-34.7h11.6v34.7h34.7v11.6z"/><path class="st1" d="M754.5-5601.4v13.2h-23.7v70.9H717v-70.9h-23.8v-13.2h61.3z"/><path class="st0" d="M513.4-5134h-101c-20.9 0-37.9-17-37.9-37.9v-59.2c0-20.9 17-37.9 37.9-37.9h101c20.9 0 37.9 17 37.9 37.9v59.2c0 20.9-16.9 37.9-37.9 37.9z"/><path class="st1" d="M492.5-5237.4v13.2h-23.7v70.9H455v-70.9h-23.8v-13.2h61.3z"/><path d="M203.5-5555.5v22.5H226l66.3-66.3-22.5-22.5-66.3 66.3zm106.3-61.3c2.3-2.3 2.3-6.1 0-8.5l-14-14c-2.3-2.3-6.1-2.3-8.5 0l-11 11 22.5 22.5 11-11zM175.2-5609.4l5.2 10.5c.3.5.8.9 1.4 1l11.6 1.7c1.5.2 2.1 2.1 1 3.2l-8.4 8.2c-.4.4-.6 1-.5 1.6l2 11.5c.3 1.5-1.3 2.7-2.7 1.9l-10.4-5.4c-.5-.3-1.2-.3-1.7 0l-10.4 5.4c-1.4.7-2.9-.4-2.7-1.9l2-11.5c.1-.6-.1-1.2-.5-1.6l-8.4-8.2c-1.1-1.1-.5-2.9 1-3.2l11.6-1.7c.6-.1 1.1-.5 1.4-1l5.2-10.5c.6-1.4 2.6-1.4 3.3 0z"/><path class="st4" d="M523.1-5246.8l3.3 6.6c.2.3.5.6.9.6l7.3 1.1c1 .1 1.3 1.3.6 2l-5.3 5.2c-.3.3-.4.7-.3 1l1.2 7.3c.2 1-.8 1.7-1.7 1.2l-6.5-3.4c-.3-.2-.7-.2-1.1 0l-6.5 3.4c-.9.4-1.9-.3-1.7-1.2l1.2-7.3c.1-.4-.1-.8-.3-1l-5.3-5.2c-.7-.7-.3-1.9.6-2l7.3-1.1c.4-.1.7-.3.9-.6l3.3-6.6c.4-.9 1.6-.9 2.1 0zM501.4-5197.5l2.5 5c.1.3.4.4.7.5l5.5.8c.7.1 1 1 .5 1.5l-4 3.9c-.2.2-.3.5-.3.8l.9 5.5c.1.7-.6 1.3-1.3.9l-4.9-2.6c-.3-.1-.6-.1-.8 0l-4.9 2.6c-.6.3-1.4-.2-1.3-.9l.9-5.5c0-.3 0-.6-.3-.8l-4-3.9c-.5-.5-.2-1.4.5-1.5l5.5-.8c.3 0 .5-.2.7-.5l2.5-5c.4-.7 1.3-.7 1.6 0zM405.8-5227.3l4.1 8.3c.2.4.6.7 1.1.8l9.2 1.3c1.2.2 1.7 1.7.8 2.5l-6.7 6.5c-.3.3-.5.8-.4 1.3l1.6 9.2c.2 1.2-1.1 2.1-2.1 1.5l-8.2-4.3c-.4-.2-.9-.2-1.4 0l-8.2 4.3c-1.1.6-2.3-.3-2.1-1.5l1.6-9.2c.1-.5-.1-1-.4-1.3l-6.7-6.5c-.9-.8-.4-2.3.8-2.5l9.2-1.3c.5-.1.9-.4 1.1-.8l4.1-8.3c.5-1.1 2.1-1.1 2.6 0z"/><path class="st0" d="M362.4-4864h-101c-20.9 0-37.9-17-37.9-37.9v-59.2c0-20.9 17-37.9 37.9-37.9h101c20.9 0 37.9 17 37.9 37.9v59.2c0 20.9-16.9 37.9-37.9 37.9z"/><path class="st1" d="M347-4979v15.6h-27.9v83.7h-16.3v-83.7h-28.1v-15.6H347z"/><path class="st4" d="M372.1-4976.8l3.3 6.6c.2.3.5.6.9.6l7.3 1.1c1 .1 1.3 1.3.6 2l-5.3 5.2c-.3.3-.4.7-.3 1l1.2 7.3c.2 1-.8 1.7-1.7 1.2l-6.5-3.4c-.3-.2-.7-.2-1.1 0l-6.5 3.4c-.9.4-1.9-.3-1.7-1.2l1.2-7.3c.1-.4-.1-.8-.3-1l-5.3-5.2c-.7-.7-.3-1.9.6-2l7.3-1.1c.4-.1.7-.3.9-.6l3.3-6.6c.4-.9 1.6-.9 2.1 0zM352.4-4922.5l2.5 5c.1.3.4.4.7.5l5.5.8c.7.1 1 1 .5 1.5l-4 3.9c-.2.2-.3.5-.3.8l.9 5.5c.1.7-.6 1.3-1.3.9l-4.9-2.6c-.3-.1-.6-.1-.8 0l-4.9 2.6c-.6.3-1.4-.2-1.3-.9l.9-5.5c0-.3 0-.6-.3-.8l-4-3.9c-.5-.5-.2-1.4.5-1.5l5.5-.8c.3 0 .5-.2.7-.5l2.5-5c.4-.7 1.3-.7 1.6 0zM254.8-4957.3l4.1 8.3c.2.4.6.7 1.1.8l9.2 1.3c1.2.2 1.7 1.7.8 2.5l-6.7 6.5c-.3.3-.5.8-.4 1.3l1.6 9.2c.2 1.2-1.1 2.1-2.1 1.5l-8.2-4.3c-.4-.2-.9-.2-1.4 0l-8.2 4.3c-1.1.6-2.3-.3-2.1-1.5l1.6-9.2c.1-.5-.1-1-.4-1.3l-6.7-6.5c-.9-.8-.4-2.3.8-2.5l9.2-1.3c.5-.1.9-.4 1.1-.8l4.1-8.3c.5-1.1 2.1-1.1 2.6 0z"/><path class="st0" d="M692-4979v15.6h-27.9v83.7h-16.3v-83.7h-28.1v-15.6H692zM734.8-4976.7l3.9 7.8c.2.4.6.7 1 .8l8.7 1.3c1.1.2 1.6 1.6.8 2.4l-6.3 6.1c-.3.3-.5.8-.4 1.2l1.5 8.6c.2 1.1-1 2-2 1.5l-7.7-4.1c-.4-.2-.9-.2-1.3 0l-7.7 4.1c-1 .5-2.2-.3-2-1.5l1.5-8.6c.1-.4-.1-.9-.4-1.2l-6.3-6.1c-.8-.8-.4-2.2.8-2.4l8.7-1.3c.5-.1.8-.3 1-.8l3.9-7.8c.3-1 1.8-1 2.3 0zM703-4935.4l3 6.1c.2.3.5.5.8.6l6.8 1c.9.1 1.2 1.2.6 1.8l-4.9 4.8c-.3.2-.4.6-.3 1l1.2 6.7c.2.9-.8 1.6-1.6 1.1l-6.1-3.2c-.3-.2-.7-.2-1 0l-6.1 3.2c-.8.4-1.7-.3-1.6-1.1l1.2-6.7c.1-.4-.1-.7-.3-1l-4.9-4.8c-.6-.6-.3-1.7.6-1.8l6.8-1c.4-.1.7-.3.8-.6l3-6.1c.4-.8 1.6-.8 2 0zM596.5-4957l5 10.1c.3.5.8.9 1.3 1l11.2 1.6c1.5.2 2 2 1 3l-8.1 7.9c-.4.4-.6 1-.5 1.6l1.9 11.1c.2 1.5-1.3 2.6-2.6 1.9l-10-5.2c-.5-.3-1.1-.3-1.7 0l-10 5.2c-1.3.7-2.8-.4-2.6-1.9l1.9-11.1c.1-.6-.1-1.2-.5-1.6l-8.1-7.9c-1.1-1-.5-2.8 1-3l11.2-1.6c.6-.1 1.1-.4 1.3-1l5-10.1c.8-1.3 2.7-1.3 3.3 0z"/><path class="st4" d="M204-4330v15.6h-27.9v83.7h-16.3v-83.7h-28.1v-15.6H204zM246.8-4327.7l3.9 7.8c.2.4.6.7 1 .8l8.7 1.3c1.1.2 1.6 1.6.8 2.4l-6.3 6.1c-.3.3-.5.8-.4 1.2l1.5 8.6c.2 1.1-1 2-2 1.5l-7.7-4.1c-.4-.2-.9-.2-1.3 0l-7.7 4.1c-1 .5-2.2-.3-2-1.5l1.5-8.6c.1-.4-.1-.9-.4-1.2l-6.3-6.1c-.8-.8-.4-2.2.8-2.4l8.7-1.3c.5-.1.8-.3 1-.8l3.9-7.8c.3-1 1.8-1 2.3 0zM216-4282.4l3 6.1c.2.3.5.5.8.6l6.8 1c.9.1 1.2 1.2.6 1.8l-4.9 4.8c-.3.2-.4.6-.3 1l1.2 6.7c.2.9-.8 1.6-1.6 1.1l-6.1-3.2c-.3-.2-.7-.2-1 0l-6.1 3.2c-.8.4-1.7-.3-1.6-1.1l1.2-6.7c.1-.4-.1-.7-.3-1l-4.9-4.8c-.6-.6-.3-1.7.6-1.8l6.8-1c.4-.1.7-.3.8-.6l3-6.1c.4-.8 1.6-.8 2 0zM108.5-4308l5 10.1c.3.5.8.9 1.3 1l11.2 1.6c1.5.2 2 2 1 3l-8.1 7.9c-.4.4-.6 1-.5 1.6l1.9 11.1c.2 1.5-1.3 2.6-2.6 1.9l-10-5.2c-.5-.3-1.1-.3-1.7 0l-10 5.2c-1.3.7-2.8-.4-2.6-1.9l1.9-11.1c.1-.6-.1-1.2-.5-1.6l-8.1-7.9c-1.1-1-.5-2.8 1-3l11.2-1.6c.6-.1 1.1-.4 1.3-1l5-10.1c.8-1.3 2.7-1.3 3.3 0z"/><path class="st0" d="M245.4-5101h-101c-20.9 0-37.9-17-37.9-37.9v-59.2c0-20.9 17-37.9 37.9-37.9h101c20.9 0 37.9 17 37.9 37.9v59.2c0 20.9-16.9 37.9-37.9 37.9z"/><path class="st1" d="M194.5-5204.4v13.2h-23.7v70.9H157v-70.9h-23.8v-13.2h61.3z"/><path class="st4" d="M261.1-5200.8l3.3 6.6c.2.3.5.6.9.6l7.3 1.1c1 .1 1.3 1.3.6 2l-5.3 5.2c-.3.3-.4.7-.3 1l1.2 7.3c.2 1-.8 1.7-1.7 1.2l-6.5-3.4c-.3-.2-.7-.2-1.1 0l-6.5 3.4c-.9.4-1.9-.3-1.7-1.2l1.2-7.3c.1-.4-.1-.8-.3-1l-5.3-5.2c-.7-.7-.3-1.9.6-2l7.3-1.1c.4-.1.7-.3.9-.6l3.3-6.6c.4-.9 1.6-.9 2.1 0zM220.4-5177.5l2.5 5c.1.3.4.4.7.5l5.5.8c.7.1 1 1 .5 1.5l-4 3.9c-.2.2-.3.5-.3.8l.9 5.5c.1.7-.6 1.3-1.3.9l-4.9-2.6c-.3-.1-.6-.1-.8 0l-4.9 2.6c-.6.3-1.4-.2-1.3-.9l.9-5.5c0-.3 0-.6-.3-.8l-4-3.9c-.5-.5-.2-1.4.5-1.5l5.5-.8c.3 0 .5-.2.7-.5l2.5-5c.4-.7 1.3-.7 1.6 0zM224.8-5224.3l4.1 8.3c.2.4.6.7 1.1.8l9.2 1.3c1.2.2 1.7 1.7.8 2.5l-6.7 6.5c-.3.3-.5.8-.4 1.3l1.6 9.2c.2 1.2-1.1 2.1-2.1 1.5l-8.2-4.3c-.4-.2-.9-.2-1.4 0l-8.2 4.3c-1.1.6-2.3-.3-2.1-1.5l1.6-9.2c.1-.5-.1-1-.4-1.3l-6.7-6.5c-.9-.8-.4-2.3.8-2.5l9.2-1.3c.5-.1.9-.4 1.1-.8l4.1-8.3c.5-1.1 2.1-1.1 2.6 0z"/><path class="st0" d="M461.4-4505h-101c-20.9 0-37.9-17-37.9-37.9v-59.2c0-20.9 17-37.9 37.9-37.9h101c20.9 0 37.9 17 37.9 37.9v59.2c0 20.9-16.9 37.9-37.9 37.9z"/><path class="st1" d="M414.5-4620v14.7h-26.4v79h-15.4v-79h-26.5v-14.7h68.3z"/><path class="st4" d="M471.1-4576.8l3.3 6.6c.2.3.5.6.9.6l7.3 1.1c1 .1 1.3 1.3.6 2l-5.3 5.2c-.3.3-.4.7-.3 1l1.2 7.3c.2 1-.8 1.7-1.7 1.2l-6.5-3.4c-.3-.2-.7-.2-1.1 0l-6.5 3.4c-.9.4-1.9-.3-1.7-1.2l1.2-7.3c.1-.4-.1-.8-.3-1l-5.3-5.2c-.7-.7-.3-1.9.6-2l7.3-1.1c.4-.1.7-.3.9-.6l3.3-6.6c.4-.9 1.6-.9 2.1 0zM431.4-4560.5l2.5 5c.1.3.4.4.7.5l5.5.8c.7.1 1 1 .5 1.5l-4 3.9c-.2.2-.3.5-.3.8l.9 5.5c.1.7-.6 1.3-1.3.9l-4.9-2.6c-.3-.1-.6-.1-.8 0l-4.9 2.6c-.6.3-1.4-.2-1.3-.9l.9-5.5c0-.3 0-.6-.3-.8l-4-3.9c-.5-.5-.2-1.4.5-1.5l5.5-.8c.3 0 .5-.2.7-.5l2.5-5c.4-.7 1.3-.7 1.6 0zM456.1-4629.8l5.1 10.3c.3.5.8.9 1.4 1l11.4 1.7c1.5.2 2.1 2 1 3.1l-8.2 8c-.4.4-.6 1-.5 1.6l1.9 11.3c.3 1.5-1.3 2.6-2.6 1.9l-10.2-5.3c-.5-.3-1.2-.3-1.7 0l-10.2 5.3c-1.3.7-2.9-.4-2.6-1.9l1.9-11.3c.1-.6-.1-1.2-.5-1.6l-8.2-8c-1.1-1-.5-2.9 1-3.1l11.4-1.7c.6-.1 1.1-.5 1.4-1l5.1-10.3c.6-1.3 2.5-1.3 3.1 0z"/><path class="st0" d="M794.4-4505h-101c-20.9 0-37.9-17-37.9-37.9v-59.2c0-20.9 17-37.9 37.9-37.9h101c20.9 0 37.9 17 37.9 37.9v59.2c0 20.9-16.9 37.9-37.9 37.9z"/><path class="st1" d="M747.5-4620v14.7h-26.4v79h-15.4v-79h-26.5v-14.7h68.3z"/><path class="st4" d="M791.2-4623.6l4.4 8.9c.1.2.2.3.4.3l9.9 1.4c.5.1.6.6.3 1l-7.1 7c-.1.1-.2.3-.2.5l1.7 9.8c.1.5-.4.8-.8.6l-8.8-4.6c-.2-.1-.4-.1-.5 0l-8.8 4.6c-.4.2-.9-.1-.8-.6l1.7-9.8c0-.2 0-.4-.2-.5l-7.1-7c-.3-.3-.1-.9.3-1l9.9-1.4c.2 0 .3-.1.4-.3l4.4-8.9c.1-.4.7-.4.9 0zM811-4582.3l3 6c.1.1.2.2.3.2l6.6 1c.4.1.5.5.2.7l-4.8 4.7c-.1.1-.1.2-.1.4l1.1 6.6c.1.3-.3.6-.6.5l-5.9-3.1c-.1-.1-.3-.1-.4 0l-5.9 3.1c-.3.2-.7-.1-.6-.5l1.1-6.6c0-.1 0-.3-.1-.4l-4.8-4.7c-.3-.2-.1-.7.2-.7l6.6-1c.1 0 .3-.1.3-.2l3-6c.2-.4.7-.4.8 0zM765.4-4583.3l6 12.2c.1.3.4.5.7.5l13.5 2c.8.1 1.1 1.1.5 1.7l-9.7 9.5c-.2.2-.3.6-.3.9l2.3 13.4c.1.8-.7 1.4-1.4 1l-12-6.3c-.3-.2-.6-.2-.9 0l-12 6.3c-.7.4-1.6-.2-1.4-1l2.3-13.4c.1-.3-.1-.6-.3-.9l-9.7-9.5c-.6-.6-.3-1.6.5-1.7l13.5-2c.3 0 .6-.2.7-.5l6-12.2c.3-.7 1.3-.7 1.7 0z"/><path class="st0" d="M39.4-4740h-101c-20.9 0-37.9-17-37.9-37.9v-59.2c0-20.9 17-37.9 37.9-37.9h101c20.9 0 37.9 17 37.9 37.9v59.2c0 20.9-16.9 37.9-37.9 37.9z"/><path class="st1" d="M-11.5-4843.4v13.2h-23.7v70.9H-49v-70.9h-23.8v-13.2h61.3z"/><path class="st4" d="M55.1-4839.8l3.3 6.6c.2.3.5.6.9.6l7.3 1.1c1 .1 1.3 1.3.6 2l-5.3 5.2c-.3.3-.4.7-.3 1l1.2 7.3c.2 1-.8 1.7-1.7 1.2l-6.5-3.4c-.3-.2-.7-.2-1.1 0l-6.5 3.4c-.9.4-1.9-.3-1.7-1.2l1.2-7.3c.1-.4-.1-.8-.3-1l-5.3-5.2c-.7-.7-.3-1.9.6-2l7.3-1.1c.4-.1.7-.3.9-.6l3.3-6.6c.4-.9 1.6-.9 2.1 0zM14.4-4816.5l2.5 5c.1.3.4.4.7.5l5.5.8c.7.1 1 1 .5 1.5l-4 3.9c-.2.2-.3.5-.3.8l.9 5.5c.1.7-.6 1.3-1.3.9l-4.9-2.6c-.3-.1-.6-.1-.8 0l-4.9 2.6c-.6.3-1.4-.2-1.3-.9l.9-5.5c0-.3 0-.6-.3-.8l-4-3.9c-.5-.5-.2-1.4.5-1.5l5.5-.8c.3 0 .5-.2.7-.5l2.5-5c.4-.7 1.3-.7 1.6 0zM18.8-4863.3l4.1 8.3c.2.4.6.7 1.1.8l9.2 1.3c1.2.2 1.7 1.7.8 2.5l-6.7 6.5c-.3.3-.5.8-.4 1.3l1.6 9.2c.2 1.2-1.1 2.1-2.1 1.5l-8.2-4.3c-.4-.2-.9-.2-1.4 0l-8.2 4.3c-1.1.6-2.3-.3-2.1-1.5l1.6-9.2c.1-.5-.1-1-.4-1.3l-6.7-6.5c-.9-.8-.4-2.3.8-2.5l9.2-1.3c.5-.1.9-.4 1.1-.8l4.1-8.3c.5-1.1 2.1-1.1 2.6 0z"/><path class="st0" d="M-51.5-5177.4v13.2h-23.7v70.9H-89v-70.9h-23.8v-13.2h61.3zM-26.9-5180.8l3.3 6.6c.2.3.5.6.9.6l7.3 1.1c1 .1 1.3 1.3.6 2l-5.3 5.2c-.3.3-.4.7-.3 1l1.2 7.3c.2 1-.8 1.7-1.7 1.2l-6.5-3.4c-.3-.2-.7-.2-1.1 0l-6.5 3.4c-.9.4-1.9-.3-1.7-1.2l1.2-7.3c.1-.4-.1-.8-.3-1l-5.3-5.2c-.7-.7-.3-1.9.6-2l7.3-1.1c.4-.1.7-.3.9-.6l3.3-6.6c.4-.9 1.6-.9 2.1 0zM-40.6-5137.5l2.5 5c.1.3.4.4.7.5l5.5.8c.7.1 1 1 .5 1.5l-4 3.9c-.2.2-.3.5-.3.8l.9 5.5c.1.7-.6 1.3-1.3.9l-4.9-2.6c-.3-.1-.6-.1-.8 0l-4.9 2.6c-.6.3-1.4-.2-1.3-.9l.9-5.5c0-.3 0-.6-.3-.8l-4-3.9c-.5-.5-.2-1.4.5-1.5l5.5-.8c.3 0 .5-.2.7-.5l2.5-5c.4-.7 1.3-.7 1.6 0zM-138.2-5167.3l4.1 8.3c.2.4.6.7 1.1.8l9.2 1.3c1.2.2 1.7 1.7.8 2.5l-6.7 6.5c-.3.3-.5.8-.4 1.3l1.6 9.2c.2 1.2-1.1 2.1-2.1 1.5l-8.2-4.3c-.4-.2-.9-.2-1.4 0l-8.2 4.3c-1.1.6-2.3-.3-2.1-1.5l1.6-9.2c.1-.5-.1-1-.4-1.3l-6.7-6.5c-.9-.8-.4-2.3.8-2.5l9.2-1.3c.5-.1.9-.4 1.1-.8l4.1-8.3c.5-1.1 2.1-1.1 2.6 0zM-314.5-5177.4v13.2h-23.7v70.9H-352v-70.9h-23.8v-13.2h61.3zM-296.8-5214.7l3.8 7.6c.2.4.6.7 1 .7l8.4 1.2c1.1.2 1.5 1.5.7 2.3l-6.1 5.9c-.3.3-.5.8-.4 1.2l1.4 8.4c.2 1.1-1 1.9-1.9 1.4l-7.5-3.9c-.4-.2-.9-.2-1.2 0l-7.5 3.9c-1 .5-2.1-.3-1.9-1.4l1.4-8.4c.1-.4-.1-.9-.4-1.2l-6.1-5.9c-.8-.8-.4-2.1.7-2.3l8.4-1.2c.4-.1.8-.3 1-.7l3.8-7.6c.5-1 1.9-1 2.4 0zM-291.6-5167.4l2.9 5.9c.2.3.4.5.8.6l6.5.9c.9.1 1.2 1.2.6 1.8l-4.7 4.6c-.2.2-.4.6-.3.9l1.1 6.5c.1.8-.7 1.5-1.5 1.1l-5.8-3.1c-.3-.2-.7-.2-1 0l-5.8 3.1c-.8.4-1.6-.2-1.5-1.1l1.1-6.5c.1-.3-.1-.7-.3-.9l-4.7-4.6c-.6-.6-.3-1.6.6-1.8l6.5-.9c.3 0 .6-.3.8-.6l2.9-5.9c.4-.8 1.5-.8 1.8 0zM-342.8-5201.5l2.2 4.4c.1.2.3.4.6.4l4.9.7c.6.1.9.9.4 1.3l-3.5 3.4c-.2.2-.3.4-.2.7l.8 4.9c.1.6-.6 1.1-1.1.8l-4.4-2.3c-.2-.1-.5-.1-.7 0l-4.4 2.3c-.6.3-1.2-.2-1.1-.8l.8-4.9c0-.3 0-.5-.2-.7l-3.5-3.4c-.5-.4-.2-1.2.4-1.3l4.9-.7c.3 0 .5-.2.6-.4l2.2-4.4c.2-.6 1-.6 1.3 0z"/><path class="st4" d="M-88.5-4313.5v16.1h-28.9v86.5h-16.9v-86.5h-29v-16.1h74.8zM-66.9-4359l4.6 9.3c.2.5.7.8 1.2.9l10.2 1.5c1.3.2 1.9 1.8.9 2.8l-7.4 7.2c-.4.4-.6.9-.5 1.4l1.7 10.2c.2 1.3-1.2 2.4-2.4 1.7l-9.2-4.8c-.5-.2-1-.2-1.5 0l-9.2 4.8c-1.2.6-2.6-.4-2.4-1.7l1.7-10.2c.1-.5-.1-1.1-.5-1.4l-7.4-7.2c-1-.9-.4-2.6.9-2.8l10.2-1.5c.5-.1 1-.4 1.2-.9l4.6-9.3c1-1.2 2.7-1.2 3.3 0zM-60.5-4301.3l3.5 7.2c.2.4.5.6 1 .7l7.9 1.2c1 .2 1.5 1.4.7 2.2l-5.7 5.6c-.3.3-.4.7-.4 1.1l1.4 7.9c.2 1-.9 1.8-1.8 1.3l-7.1-3.7c-.4-.2-.8-.2-1.2 0l-7.1 3.7c-.9.5-2-.3-1.8-1.3l1.4-7.9c.1-.4-.1-.8-.4-1.1l-5.7-5.6c-.8-.7-.3-2 .7-2.2l7.9-1.2c.4-.1.8-.3 1-.7l3.5-7.2c.4-1 1.7-1 2.2 0zM-120-4348.9l2.7 5.4c.1.3.4.5.7.5l5.9.9c.8.1 1.1 1.1.5 1.6l-4.3 4.2c-.2.2-.3.5-.3.8l1 5.9c.1.8-.7 1.4-1.4 1l-5.3-2.8c-.3-.1-.6-.1-.9 0l-5.3 2.8c-.7.4-1.5-.2-1.4-1l1-5.9c.1-.3 0-.6-.3-.8l-4.3-4.2c-.6-.5-.3-1.5.5-1.6l5.9-.9c.3 0 .6-.2.7-.5l2.7-5.4c.5-.7 1.5-.7 1.9 0z"/><circle class="st0" cx="636" cy="-4279.5" r="112"/><path class="st4" d="M659.5-4313.5v16.1h-28.9v86.5h-16.9v-86.5h-29v-16.1h74.8z"/><path d="M662.2-5689.4l5.2 10.5c.3.5.8.9 1.4 1l11.6 1.7c1.5.2 2.1 2.1 1 3.2l-8.4 8.2c-.4.4-.6 1-.5 1.6l2 11.5c.3 1.5-1.3 2.7-2.7 1.9l-10.4-5.4c-.5-.3-1.2-.3-1.7 0l-10.4 5.4c-1.4.7-2.9-.4-2.7-1.9l2-11.5c.1-.6-.1-1.2-.5-1.6l-8.4-8.2c-1.1-1.1-.5-2.9 1-3.2l11.6-1.7c.6-.1 1.1-.5 1.4-1l5.2-10.5c.6-1.4 2.6-1.4 3.3 0zM269.4-5540l2.7 5.4c.1.3.4.5.7.5l6 .9c.8.1 1.1 1.1.5 1.6l-4.3 4.2c-.2.2-.3.5-.3.8l1 5.9c.1.8-.7 1.4-1.4 1l-5.3-2.8c-.3-.1-.6-.1-.9 0l-5.3 2.8c-.7.4-1.5-.2-1.4-1l1-5.9c.1-.3 0-.6-.3-.8l-4.3-4.2c-.6-.5-.3-1.5.5-1.6l6-.9c.3 0 .6-.2.7-.5l2.7-5.4c.3-.7 1.3-.7 1.7 0zM209.8-5518.1l4.4 8.9c.2.5.7.8 1.2.9l9.8 1.4c1.3.2 1.8 1.8.9 2.7l-7.1 6.9c-.4.4-.5.9-.4 1.4l1.7 9.7c.2 1.3-1.1 2.2-2.3 1.6l-8.8-4.6c-.5-.2-1-.2-1.5 0l-8.8 4.6c-1.1.6-2.5-.4-2.3-1.6l1.7-9.7c.1-.5-.1-1-.4-1.4l-7.1-6.9c-.9-.9-.4-2.5.9-2.7l9.8-1.4c.5-.1.9-.4 1.2-.9l4.4-8.9c.5-1.2 2.2-1.2 2.7 0z"/><path fill="#fff" stroke="#fff" stroke-width="18" stroke-miterlimit="10" d="M58.2-4692v-34.7H23.5v-31.6h34.7v-34.7h31.6v34.7h34.7v31.6H89.8v34.7z"/><path d="M115.5-4738.7H80.8v34.7H69.2v-34.7H34.5v-11.6h34.7v-34.7h11.6v34.7h34.7v11.6z" fill="#ef4c30" stroke="#ef4c30" stroke-width="7" stroke-miterlimit="10"/><path class="st4" d="M737.5-3961l19-61 19 61zM775.5-3948l-19 61-19-61z"/><path class="st4" d="M763.5-3973.5l61 19-61 19zM750.5-3935.5l-61-19 61-19z"/><path class="st4" d="M746.5-3963h19v17h-19zM703.1-4330.2l9.1-17.4c.4-.7-.4-1.5-1.1-1.1l-17.4 9.1c-.2.1-.5.1-.8 0l-17.1-9c-.7-.4-1.5.4-1.1 1.1l9 17.2c.1.2.1.5 0 .8l-8.9 16.9c-.4.7.4 1.5 1.1 1.1l16.9-8.9c.2-.1.5-.1.8 0l17.2 9c.7.4 1.5-.4 1.1-1.1l-9-17.1c0-.1 0-.3.2-.6zM-1836.5-3976.5v16.1h-28.9v86.5h-16.9v-86.5h-29v-16.1h74.8zM-1792.9-3993.2l9.1-17.4c.4-.7-.4-1.5-1.1-1.1l-17.4 9.1c-.2.1-.5.1-.8 0l-17.1-9c-.7-.4-1.5.4-1.1 1.1l9 17.2c.1.2.1.5 0 .8l-8.9 16.9c-.4.7.4 1.5 1.1 1.1l16.9-8.9c.2-.1.5-.1.8 0l17.2 9c.7.4 1.5-.4 1.1-1.1l-9-17.1c0-.1 0-.3.2-.6zM-1851.4-4002.9l8.2-5.4c.3-.2.2-.8-.2-.8l-9.8-.2c-.1 0-.3-.1-.3-.2l-5.3-8c-.2-.3-.8-.2-.8.2l-.2 9.7c0 .1-.1.3-.2.3l-8 5.3c-.3.2-.2.8.2.8l9.6.2c.1 0 .3.1.3.2l5.4 8.1c.2.3.8.2.8-.2l.2-9.7c-.1-.1 0-.2.1-.3zM-1808.9-3940.4l9.1-6c.4-.3.2-.8-.2-.8l-10.9-.2c-.2 0-.3-.1-.4-.2l-5.9-8.9c-.3-.4-.8-.2-.8.2l-.2 10.8c0 .2-.1.3-.2.4l-8.9 5.9c-.4.3-.2.8.2.8l10.6.2c.2 0 .3.1.4.2l6 9c.3.4.8.2.8-.2l.2-10.7c-.1-.3 0-.4.2-.5zM-2197.5-3976.5v16.1h-28.9v86.5h-16.9v-86.5h-29v-16.1h74.8zM-2153.9-3993.2l9.1-17.4c.4-.7-.4-1.5-1.1-1.1l-17.4 9.1c-.2.1-.5.1-.8 0l-17.1-9c-.7-.4-1.5.4-1.1 1.1l9 17.2c.1.2.1.5 0 .8l-8.9 16.9c-.4.7.4 1.5 1.1 1.1l16.9-8.9c.2-.1.5-.1.8 0l17.2 9c.7.4 1.5-.4 1.1-1.1l-9-17.1c0-.1 0-.3.2-.6zM-2212.4-4002.9l8.2-5.4c.3-.2.2-.8-.2-.8l-9.8-.2c-.1 0-.3-.1-.3-.2l-5.3-8c-.2-.3-.8-.2-.8.2l-.2 9.7c0 .1-.1.3-.2.3l-8 5.3c-.3.2-.2.8.2.8l9.6.2c.1 0 .3.1.3.2l5.4 8.1c.2.3.8.2.8-.2l.2-9.7c-.1-.1 0-.2.1-.3zM-2169.9-3940.4l9.1-6c.4-.3.2-.8-.2-.8l-10.9-.2c-.2 0-.3-.1-.4-.2l-5.9-8.9c-.3-.4-.8-.2-.8.2l-.2 10.8c0 .2-.1.3-.2.4l-8.9 5.9c-.4.3-.2.8.2.8l10.6.2c.2 0 .3.1.4.2l6 9c.3.4.8.2.8-.2l.2-10.7c-.1-.3 0-.4.2-.5z"/><path class="st0" d="M-1748.5-2285.5v16.1h-28.9v86.5h-16.9v-86.5h-29v-16.1h74.8z"/><circle class="st0" cx="-1562" cy="-3364.5" r="112"/><path class="st4" d="M-1542.5-3395.5v16.1h-28.9v86.5h-16.9v-86.5h-29v-16.1h74.8zM-1498.9-3412.2l9.1-17.4c.4-.7-.4-1.5-1.1-1.1l-17.4 9.1c-.2.1-.5.1-.8 0l-17.1-9c-.7-.4-1.5.4-1.1 1.1l9 17.2c.1.2.1.5 0 .8l-8.9 16.9c-.4.7.4 1.5 1.1 1.1l16.9-8.9c.2-.1.5-.1.8 0l17.2 9c.7.4 1.5-.4 1.1-1.1l-9-17.1c0-.1 0-.3.2-.6zM-1559.4-3421.9l8.2-5.4c.3-.2.2-.8-.2-.8l-9.8-.2c-.1 0-.3-.1-.3-.2l-5.3-8c-.2-.3-.8-.2-.8.2l-.2 9.7c0 .1-.1.3-.2.3l-8 5.3c-.3.2-.2.8.2.8l9.6.2c.1 0 .3.1.3.2l5.4 8.1c.2.3.8.2.8-.2l.2-9.7c-.1-.1 0-.2.1-.3zM-1514.9-3359.4l9.1-6c.4-.3.2-.8-.2-.8l-10.9-.2c-.2 0-.3-.1-.4-.2l-5.9-8.9c-.3-.4-.8-.2-.8.2l-.2 10.8c0 .2-.1.3-.2.4l-8.9 5.9c-.4.3-.2.8.2.8l10.6.2c.2 0 .3.1.4.2l6 9c.3.4.8.2.8-.2l.2-10.7c-.1-.3 0-.4.2-.5z"/><circle class="st12" cx="-1908" cy="-3364.5" r="112"/><path class="st0" d="M-1888.5-3395.5v16.1h-28.9v86.5h-16.9v-86.5h-29v-16.1h74.8zM-1844.9-3412.2l9.1-17.4c.4-.7-.4-1.5-1.1-1.1l-17.4 9.1c-.2.1-.5.1-.8 0l-17.1-9c-.7-.4-1.5.4-1.1 1.1l9 17.2c.1.2.1.5 0 .8l-8.9 16.9c-.4.7.4 1.5 1.1 1.1l16.9-8.9c.2-.1.5-.1.8 0l17.2 9c.7.4 1.5-.4 1.1-1.1l-9-17.1c0-.1 0-.3.2-.6zM-1905.4-3421.9l8.2-5.4c.3-.2.2-.8-.2-.8l-9.8-.2c-.1 0-.3-.1-.3-.2l-5.3-8c-.2-.3-.8-.2-.8.2l-.2 9.7c0 .1-.1.3-.2.3l-8 5.3c-.3.2-.2.8.2.8l9.6.2c.1 0 .3.1.3.2l5.4 8.1c.2.3.8.2.8-.2l.2-9.7c-.1-.1 0-.2.1-.3zM-1860.9-3359.4l9.1-6c.4-.3.2-.8-.2-.8l-10.9-.2c-.2 0-.3-.1-.4-.2l-5.9-8.9c-.3-.4-.8-.2-.8.2l-.2 10.8c0 .2-.1.3-.2.4l-8.9 5.9c-.4.3-.2.8.2.8l10.6.2c.2 0 .3.1.4.2l6 9c.3.4.8.2.8-.2l.2-10.7c-.1-.3 0-.4.2-.5zM-2197.5-3395.5v16.1h-28.9v86.5h-16.9v-86.5h-29v-16.1h74.8zM-2153.9-3412.2l9.1-17.4c.4-.7-.4-1.5-1.1-1.1l-17.4 9.1c-.2.1-.5.1-.8 0l-17.1-9c-.7-.4-1.5.4-1.1 1.1l9 17.2c.1.2.1.5 0 .8l-8.9 16.9c-.4.7.4 1.5 1.1 1.1l16.9-8.9c.2-.1.5-.1.8 0l17.2 9c.7.4 1.5-.4 1.1-1.1l-9-17.1c0-.1 0-.3.2-.6zM-2212.4-3421.9l8.2-5.4c.3-.2.2-.8-.2-.8l-9.8-.2c-.1 0-.3-.1-.3-.2l-5.3-8c-.2-.3-.8-.2-.8.2l-.2 9.7c0 .1-.1.3-.2.3l-8 5.3c-.3.2-.2.8.2.8l9.6.2c.1 0 .3.1.3.2l5.4 8.1c.2.3.8.2.8-.2l.2-9.7c-.1-.1 0-.2.1-.3zM-2169.9-3359.4l9.1-6c.4-.3.2-.8-.2-.8l-10.9-.2c-.2 0-.3-.1-.4-.2l-5.9-8.9c-.3-.4-.8-.2-.8.2l-.2 10.8c0 .2-.1.3-.2.4l-8.9 5.9c-.4.3-.2.8.2.8l10.6.2c.2 0 .3.1.4.2l6 9c.3.4.8.2.8-.2l.2-10.7c-.1-.3 0-.4.2-.5z"/><path class="st4" d="M-1633.6-2249.4h-92.8c-2.8 0-5.1-2.3-5.1-5.1s2.3-5.1 5.1-5.1h92.8c2.8 0 5.1 2.3 5.1 5.1s-2.3 5.1-5.1 5.1zM-1633.6-2220.2h-92.8c-2.8 0-5.1-2.3-5.1-5.1s2.3-5.1 5.1-5.1h92.8c2.8 0 5.1 2.3 5.1 5.1 0 2.9-2.3 5.1-5.1 5.1z"/><path class="st4" d="M-1670.1-2193.1v-92.8c0-2.8 2.3-5.1 5.1-5.1s5.1 2.3 5.1 5.1v92.8c0 2.8-2.3 5.1-5.1 5.1s-5.1-2.3-5.1-5.1zM-1699.3-2193.1v-92.8c0-2.8 2.3-5.1 5.1-5.1s5.1 2.3 5.1 5.1v92.8c0 2.8-2.3 5.1-5.1 5.1-2.9 0-5.1-2.3-5.1-5.1zM-1670.1-2024.1v-85.8c0-2.8 2.3-5.1 5.1-5.1s5.1 2.3 5.1 5.1v85.8c0 2.8-2.3 5.1-5.1 5.1s-5.1-2.3-5.1-5.1zM-1699.3-2024.1v-85.8c0-2.8 2.3-5.1 5.1-5.1s5.1 2.3 5.1 5.1v85.8c0 2.8-2.3 5.1-5.1 5.1-2.9 0-5.1-2.3-5.1-5.1z"/><path class="st4" d="M-1722.5-2057.5h85.8c2.8 0 5.1 2.3 5.1 5.1s-2.3 5.1-5.1 5.1h-85.8c-2.8 0-5.1-2.3-5.1-5.1s2.3-5.1 5.1-5.1zM-1722.5-2086.7h85.8c2.8 0 5.1 2.3 5.1 5.1s-2.3 5.1-5.1 5.1h-85.8c-2.8 0-5.1-2.3-5.1-5.1s2.3-5.1 5.1-5.1z"/><circle class="st0" cx="-1562" cy="-2701.5" r="112"/><path class="st4" d="M-1498.9-2751.2l9.1-17.4c.4-.7-.4-1.5-1.1-1.1l-17.4 9.1c-.2.1-.5.1-.8 0l-17.1-9c-.7-.4-1.5.4-1.1 1.1l9 17.2c.1.2.1.5 0 .8l-8.9 16.9c-.4.7.4 1.5 1.1 1.1l16.9-8.9c.2-.1.5-.1.8 0l17.2 9c.7.4 1.5-.4 1.1-1.1l-9-17.1c0-.1 0-.3.2-.6zM-1559.4-2760.9l8.2-5.4c.3-.2.2-.8-.2-.8l-9.8-.2c-.1 0-.3-.1-.3-.2l-5.3-8c-.2-.3-.8-.2-.8.2l-.2 9.7c0 .1-.1.3-.2.3l-8 5.3c-.3.2-.2.8.2.8l9.6.2c.1 0 .3.1.3.2l5.4 8.1c.2.3.8.2.8-.2l.2-9.7c-.1-.1 0-.2.1-.3zM-1484.9-2693.4l9.1-6c.4-.3.2-.8-.2-.8l-10.9-.2c-.2 0-.3-.1-.4-.2l-5.9-8.9c-.3-.4-.8-.2-.8.2l-.2 10.8c0 .2-.1.3-.2.4l-8.9 5.9c-.4.3-.2.8.2.8l10.6.2c.2 0 .3.1.4.2l6 9c.3.4.8.2.8-.2l.2-10.7c-.1-.3 0-.4.2-.5zM-1557.5-2638.4v-91.1c0-3 2.4-5.4 5.4-5.4 3 0 5.4 2.4 5.4 5.4v91.1c0 3-2.4 5.4-5.4 5.4-3 0-5.4-2.4-5.4-5.4zM-1588.6-2638.4v-91.1c0-3 2.4-5.4 5.4-5.4 3 0 5.4 2.4 5.4 5.4v91.1c0 3-2.4 5.4-5.4 5.4-2.9 0-5.4-2.4-5.4-5.4z"/><path class="st4" d="M-1613.2-2673.9h91.1c3 0 5.4 2.4 5.4 5.4 0 3-2.4 5.4-5.4 5.4h-91.1c-3 0-5.4-2.4-5.4-5.4 0-3 2.4-5.4 5.4-5.4zM-1613.2-2705h91.1c3 0 5.4 2.4 5.4 5.4 0 3-2.4 5.4-5.4 5.4h-91.1c-3 0-5.4-2.4-5.4-5.4 0-2.9 2.4-5.4 5.4-5.4z"/><circle class="st12" cx="-1897" cy="-2701.5" r="112"/><path class="st0" d="M-1833.9-2751.2l9.1-17.4c.4-.7-.4-1.5-1.1-1.1l-17.4 9.1c-.2.1-.5.1-.8 0l-17.1-9c-.7-.4-1.5.4-1.1 1.1l9 17.2c.1.2.1.5 0 .8l-8.9 16.9c-.4.7.4 1.5 1.1 1.1l16.9-8.9c.2-.1.5-.1.8 0l17.2 9c.7.4 1.5-.4 1.1-1.1l-9-17.1c0-.1 0-.3.2-.6zM-1894.4-2760.9l8.2-5.4c.3-.2.2-.8-.2-.8l-9.8-.2c-.1 0-.3-.1-.3-.2l-5.3-8c-.2-.3-.8-.2-.8.2l-.2 9.7c0 .1-.1.3-.2.3l-8 5.3c-.3.2-.2.8.2.8l9.6.2c.1 0 .3.1.3.2l5.4 8.1c.2.3.8.2.8-.2l.2-9.7c-.1-.1 0-.2.1-.3zM-1819.9-2693.4l9.1-6c.4-.3.2-.8-.2-.8l-10.9-.2c-.2 0-.3-.1-.4-.2l-5.9-8.9c-.3-.4-.8-.2-.8.2l-.2 10.8c0 .2-.1.3-.2.4l-8.9 5.9c-.4.3-.2.8.2.8l10.6.2c.2 0 .3.1.4.2l6 9c.3.4.8.2.8-.2l.2-10.7c-.1-.3 0-.4.2-.5zM-1892.5-2638.4v-91.1c0-3 2.4-5.4 5.4-5.4 3 0 5.4 2.4 5.4 5.4v91.1c0 3-2.4 5.4-5.4 5.4-3 0-5.4-2.4-5.4-5.4zM-1923.6-2638.4v-91.1c0-3 2.4-5.4 5.4-5.4 3 0 5.4 2.4 5.4 5.4v91.1c0 3-2.4 5.4-5.4 5.4-2.9 0-5.4-2.4-5.4-5.4z"/><path class="st0" d="M-1948.2-2673.9h91.1c3 0 5.4 2.4 5.4 5.4 0 3-2.4 5.4-5.4 5.4h-91.1c-3 0-5.4-2.4-5.4-5.4 0-3 2.4-5.4 5.4-5.4zM-1948.2-2705h91.1c3 0 5.4 2.4 5.4 5.4 0 3-2.4 5.4-5.4 5.4h-91.1c-3 0-5.4-2.4-5.4-5.4 0-2.9 2.4-5.4 5.4-5.4zM-2155.9-2751.2l9.1-17.4c.4-.7-.4-1.5-1.1-1.1l-17.4 9.1c-.2.1-.5.1-.8 0l-17.1-9c-.7-.4-1.5.4-1.1 1.1l9 17.2c.1.2.1.5 0 .8l-8.9 16.9c-.4.7.4 1.5 1.1 1.1l16.9-8.9c.2-.1.5-.1.8 0l17.2 9c.7.4 1.5-.4 1.1-1.1l-9-17.1c0-.1 0-.3.2-.6zM-2216.4-2760.9l8.2-5.4c.3-.2.2-.8-.2-.8l-9.8-.2c-.1 0-.3-.1-.3-.2l-5.3-8c-.2-.3-.8-.2-.8.2l-.2 9.7c0 .1-.1.3-.2.3l-8 5.3c-.3.2-.2.8.2.8l9.6.2c.1 0 .3.1.3.2l5.4 8.1c.2.3.8.2.8-.2l.2-9.7c-.1-.1 0-.2.1-.3zM-2141.9-2693.4l9.1-6c.4-.3.2-.8-.2-.8l-10.9-.2c-.2 0-.3-.1-.4-.2l-5.9-8.9c-.3-.4-.8-.2-.8.2l-.2 10.8c0 .2-.1.3-.2.4l-8.9 5.9c-.4.3-.2.8.2.8l10.6.2c.2 0 .3.1.4.2l6 9c.3.4.8.2.8-.2l.2-10.7c-.1-.3 0-.4.2-.5zM-2214.5-2638.4v-91.1c0-3 2.4-5.4 5.4-5.4 3 0 5.4 2.4 5.4 5.4v91.1c0 3-2.4 5.4-5.4 5.4-3 0-5.4-2.4-5.4-5.4zM-2245.6-2638.4v-91.1c0-3 2.4-5.4 5.4-5.4 3 0 5.4 2.4 5.4 5.4v91.1c0 3-2.4 5.4-5.4 5.4-2.9 0-5.4-2.4-5.4-5.4z"/><path class="st0" d="M-2270.2-2673.9h91.1c3 0 5.4 2.4 5.4 5.4 0 3-2.4 5.4-5.4 5.4h-91.1c-3 0-5.4-2.4-5.4-5.4 0-3 2.4-5.4 5.4-5.4zM-2270.2-2705h91.1c3 0 5.4 2.4 5.4 5.4 0 3-2.4 5.4-5.4 5.4h-91.1c-3 0-5.4-2.4-5.4-5.4 0-2.9 2.4-5.4 5.4-5.4z"/><path class="st4" d="M-1504.1-2024.1v-85.8c0-2.8 2.3-5.1 5.1-5.1s5.1 2.3 5.1 5.1v85.8c0 2.8-2.3 5.1-5.1 5.1s-5.1-2.3-5.1-5.1zM-1533.3-2024.1v-85.8c0-2.8 2.3-5.1 5.1-5.1s5.1 2.3 5.1 5.1v85.8c0 2.8-2.3 5.1-5.1 5.1-2.9 0-5.1-2.3-5.1-5.1z"/><path class="st4" d="M-1556.5-2057.5h85.8c2.8 0 5.1 2.3 5.1 5.1s-2.3 5.1-5.1 5.1h-85.8c-2.8 0-5.1-2.3-5.1-5.1s2.3-5.1 5.1-5.1zM-1556.5-2086.7h85.8c2.8 0 5.1 2.3 5.1 5.1s-2.3 5.1-5.1 5.1h-85.8c-2.8 0-5.1-2.3-5.1-5.1s2.3-5.1 5.1-5.1zM-1325.5-2234h-127c-3.9 0-7-3.1-7-7s3.1-7 7-7h127c3.9 0 7 3.1 7 7s-3.1 7-7 7zM-1325.5-2194h-127c-3.9 0-7-3.1-7-7s3.1-7 7-7h127c3.9 0 7 3.1 7 7s-3.1 7-7 7z"/><path class="st4" d="M-1375.5-2157v-127c0-3.9 3.1-7 7-7s7 3.1 7 7v127c0 3.9-3.1 7-7 7-3.8 0-7-3.1-7-7zM-1415.5-2157v-127c0-3.9 3.1-7 7-7s7 3.1 7 7v127c0 3.9-3.1 7-7 7-3.8 0-7-3.1-7-7zM-895.9-1910c-4.1-13.7-7.9-26.1-11.6-38.5-4-13.3-11.1-24.8-20.3-35.2-2.8-3.1-5.7-4.3-10.1-3.5-20.3 3.9-40.6 7.4-60.9 11.2-1.1.2-2.6 1.1-2.9 2-2.1 5.5.5 8.5 6.4 8.2 27.1-1.4 44.4 7.7 51.5 33.7 6.1 22.3 11.8 44.7 17.6 67.1.4 1.5 0 3.7-.9 5-11.9 19.3-23.4 38.8-36.1 57.5-7.1 10.6-15.8 20.2-24.5 29.5-7.2 7.7-10.1 7.5-19 1.5-2.9-1.9-5.6-4.2-8.6-6.1-9.8-6.1-22.9-3.3-28.7 5.9-6.1 9.7-3.3 22.7 6.3 29.1 11.4 7.6 23.2 7.1 35 1.1 11.4-5.8 20.3-14.5 28.5-24 18.3-21.3 32.8-45.3 47.6-69 1.7-2.8 3.5-5.6 5.7-9 .5 1.9.9 2.9 1.1 4 4.2 17.5 7.9 35.1 12.6 52.4 3.3 12.3 6.8 24.8 12 36.4 5.9 13 19.5 17.1 32.5 11.3 4.4-1.9 8.6-4.5 12.4-7.4 18.2-13.8 32-31.4 44.2-50.5.7-1.1 1.1-2.3 1.6-3.4-8.2-5.9-8.5-5.8-13.6 2.1-2 3.1-3.9 6.3-6.5 8.8-7.4 7.1-14.8 14.4-23 20.4-6.4 4.7-10.6 2.8-13.6-4.6-2-4.7-3.8-9.6-5.1-14.6-7.8-31-15.2-62-23.3-92.9-1.9-7.1-.9-12.4 3.3-18.4 10.5-15 20.4-30.4 33.6-43.4 8.2-8.1 17.2-10.9 28.2-7.4 2.4.8 4.8 1.5 7.3 1.8 5.1.6 10.3 1.6 15.3 1.3 10.6-.7 16.5-6.9 17.4-17.1.8-10.1-5.7-20-15-22-10.5-2.3-20.9-2.5-30.3 3.8-4.6 3-9.3 6-13.5 9.4-15.1 12.1-26.8 27.3-37.8 43.1-4.9 6.7-9.5 13-14.8 20.4z"/><path d="M-895.9-1910c5.3-7.4 9.9-13.7 14.3-20.1 11-15.8 22.7-30.9 37.8-43.1 4.3-3.4 9-6.3 13.5-9.4 9.5-6.3 19.8-6.1 30.3-3.8 9.3 2 15.8 12 15 22-.8 10.2-6.8 16.4-17.4 17.1-5.1.3-10.2-.6-15.3-1.3-2.5-.3-4.9-1.1-7.3-1.8-11-3.5-20-.7-28.2 7.4-13.1 13-23 28.4-33.6 43.4-4.2 6-5.2 11.2-3.3 18.4 8.1 30.9 15.5 62 23.3 92.9 1.3 5 3.1 9.8 5.1 14.6 3.1 7.3 7.2 9.2 13.6 4.6 8.3-6 15.6-13.4 23-20.4 2.6-2.5 4.5-5.7 6.5-8.8 5.1-7.9 5.4-8 13.6-2.1-.5 1.1-.9 2.3-1.6 3.4-12.1 19.1-26 36.7-44.2 50.5-3.8 2.9-8 5.5-12.4 7.4-13.1 5.8-26.7 1.7-32.5-11.3-5.2-11.6-8.7-24.1-12-36.4-4.6-17.3-8.4-34.9-12.6-52.4-.3-1.1-.6-2.1-1.1-4-2.2 3.5-3.9 6.2-5.7 9-14.8 23.7-29.3 47.7-47.6 69-8.2 9.5-17.1 18.2-28.5 24-11.9 6-23.6 6.5-35-1.1-9.5-6.4-12.3-19.5-6.3-29.1 5.8-9.2 19-12 28.7-5.9 3 1.8 5.7 4.1 8.6 6.1 8.8 5.9 11.7 6.2 19-1.5 8.7-9.3 17.4-19 24.5-29.5 12.7-18.7 24.2-38.2 36.1-57.5.8-1.4 1.2-3.5.9-5-5.7-22.4-11.5-44.8-17.6-67.1-7.1-26-24.4-35.1-51.5-33.7-5.9.3-8.5-2.6-6.4-8.2.3-.9 1.8-1.8 2.9-2 20.3-3.8 40.6-7.3 60.9-11.2 4.4-.8 7.3.4 10.1 3.5 9.2 10.3 16.3 21.8 20.3 35.2 4.3 12.1 8 24.5 12.1 38.2z"/><circle class="st0" cx="-1555" cy="-1626.5" r="112"/><path class="st4" d="M-1501.9-1686.2l9.1-17.4c.4-.7-.4-1.5-1.1-1.1l-17.4 9.1c-.2.1-.5.1-.8 0l-17.1-9c-.7-.4-1.5.4-1.1 1.1l9 17.2c.1.2.1.5 0 .8l-8.9 16.9c-.4.7.4 1.5 1.1 1.1l16.9-8.9c.2-.1.5-.1.8 0l17.2 9c.7.4 1.5-.4 1.1-1.1l-9-17.1c0-.1 0-.3.2-.6zM-1561.4-1683.9l8.2-5.4c.3-.2.2-.8-.2-.8l-9.8-.2c-.1 0-.3-.1-.3-.2l-5.3-8c-.2-.3-.8-.2-.8.2l-.2 9.7c0 .1-.1.3-.2.3l-8 5.3c-.3.2-.2.8.2.8l9.6.2c.1 0 .3.1.3.2l5.4 8.1c.2.3.8.2.8-.2l.2-9.7c-.1-.1 0-.2.1-.3zM-1481.9-1631.4l9.1-6c.4-.3.2-.8-.2-.8l-10.9-.2c-.2 0-.3-.1-.4-.2l-5.9-8.9c-.3-.4-.8-.2-.8.2l-.2 10.8c0 .2-.1.3-.2.4l-8.9 5.9c-.4.3-.2.8.2.8l10.6.2c.2 0 .3.1.4.2l6 9c.3.4.8.2.8-.2l.2-10.7c-.1-.3 0-.4.2-.5zM-1560.2-1618.9c-1.4-4.8-2.7-9.1-4.1-13.4-1.4-4.6-3.9-8.7-7.1-12.3-1-1.1-2-1.5-3.5-1.2-7.1 1.4-14.2 2.6-21.2 3.9-.4.1-.9.4-1 .7-.7 1.9.2 3 2.2 2.9 9.5-.5 15.5 2.7 18 11.8 2.1 7.8 4.1 15.6 6.1 23.4.1.5 0 1.3-.3 1.8-4.1 6.7-8.2 13.5-12.6 20.1-2.5 3.7-5.5 7-8.6 10.3-2.5 2.7-3.5 2.6-6.6.5-1-.7-2-1.5-3-2.1-3.4-2.1-8-1.2-10 2.1-2.1 3.4-1.1 7.9 2.2 10.2 4 2.7 8.1 2.5 12.2.4 4-2 7.1-5 9.9-8.4 6.4-7.4 11.4-15.8 16.6-24.1.6-1 1.2-1.9 2-3.1.2.7.3 1 .4 1.4 1.4 6.1 2.8 12.2 4.4 18.3 1.2 4.3 2.4 8.7 4.2 12.7 2 4.5 6.8 6 11.3 4 1.5-.7 3-1.6 4.3-2.6 6.3-4.8 11.2-11 15.4-17.6.2-.4.4-.8.5-1.2-2.8-2.1-3-2-4.7.7-.7 1.1-1.4 2.2-2.3 3.1-2.6 2.5-5.2 5-8 7.1-2.2 1.6-3.7 1-4.8-1.6-.7-1.7-1.3-3.4-1.8-5.1-2.7-10.8-5.3-21.6-8.1-32.4-.7-2.5-.3-4.3 1.1-6.4 3.7-5.2 7.1-10.6 11.7-15.1 2.9-2.8 6-3.8 9.8-2.6.8.3 1.7.5 2.5.6 1.8.2 3.6.6 5.4.4 3.7-.2 5.8-2.4 6.1-6 .3-3.5-2-7-5.2-7.7-3.7-.8-7.3-.9-10.6 1.3-1.6 1.1-3.2 2.1-4.7 3.3-5.3 4.2-9.3 9.5-13.2 15-1.5 2.1-3.1 4.3-4.9 6.9z"/><path class="st4" d="M-1560.2-1618.9c1.8-2.6 3.4-4.8 5-7 3.8-5.5 7.9-10.8 13.2-15 1.5-1.2 3.1-2.2 4.7-3.3 3.3-2.2 6.9-2.1 10.6-1.3 3.2.7 5.5 4.2 5.2 7.7-.3 3.6-2.4 5.7-6.1 6-1.8.1-3.6-.2-5.4-.4-.9-.1-1.7-.4-2.5-.6-3.8-1.2-7-.3-9.8 2.6-4.6 4.5-8 9.9-11.7 15.1-1.5 2.1-1.8 3.9-1.1 6.4 2.8 10.8 5.4 21.6 8.1 32.4.4 1.7 1.1 3.4 1.8 5.1 1.1 2.6 2.5 3.2 4.8 1.6 2.9-2.1 5.4-4.7 8-7.1.9-.9 1.6-2 2.3-3.1 1.8-2.7 1.9-2.8 4.7-.7-.2.4-.3.8-.5 1.2-4.2 6.7-9.1 12.8-15.4 17.6-1.3 1-2.8 1.9-4.3 2.6-4.6 2-9.3.6-11.3-4-1.8-4-3-8.4-4.2-12.7-1.6-6.1-2.9-12.2-4.4-18.3-.1-.4-.2-.7-.4-1.4-.8 1.2-1.4 2.2-2 3.1-5.2 8.3-10.2 16.6-16.6 24.1-2.9 3.3-6 6.4-9.9 8.4-4.1 2.1-8.2 2.3-12.2-.4-3.3-2.2-4.3-6.8-2.2-10.2 2-3.2 6.6-4.2 10-2.1 1 .6 2 1.4 3 2.1 3.1 2.1 4.1 2.2 6.6-.5 3-3.3 6.1-6.6 8.6-10.3 4.4-6.5 8.4-13.3 12.6-20.1.3-.5.4-1.2.3-1.8-2-7.8-4-15.6-6.1-23.4-2.5-9.1-8.5-12.3-18-11.8-2.1.1-3-.9-2.2-2.9.1-.3.6-.6 1-.7 7.1-1.3 14.2-2.5 21.2-3.9 1.5-.3 2.6.1 3.5 1.2 3.2 3.6 5.7 7.6 7.1 12.3 1.2 4.4 2.5 8.7 4 13.5z"/><circle class="st12" cx="-1866.5" cy="-1626" r="112"/><path class="st0" d="M-1813.4-1685.7l9.1-17.4c.4-.7-.4-1.5-1.1-1.1l-17.4 9.1c-.2.1-.5.1-.8 0l-17.1-9c-.7-.4-1.5.4-1.1 1.1l9 17.2c.1.2.1.5 0 .8l-8.9 16.9c-.4.7.4 1.5 1.1 1.1l16.9-8.9c.2-.1.5-.1.8 0l17.2 9c.7.4 1.5-.4 1.1-1.1l-9-17.1c0-.1 0-.3.2-.6zM-1872.9-1683.4l8.2-5.4c.3-.2.2-.8-.2-.8l-9.8-.2c-.1 0-.3-.1-.3-.2l-5.3-8c-.2-.3-.8-.2-.8.2l-.2 9.7c0 .1-.1.3-.2.3l-8 5.3c-.3.2-.2.8.2.8l9.6.2c.1 0 .3.1.3.2l5.4 8.1c.2.3.8.2.8-.2l.2-9.7c-.1-.1 0-.2.1-.3zM-1793.4-1630.9l9.1-6c.4-.3.2-.8-.2-.8l-10.9-.2c-.2 0-.3-.1-.4-.2l-5.9-8.9c-.3-.4-.8-.2-.8.2l-.2 10.8c0 .2-.1.3-.2.4l-8.9 5.9c-.4.3-.2.8.2.8l10.6.2c.2 0 .3.1.4.2l6 9c.3.4.8.2.8-.2l.2-10.7c-.1-.3 0-.4.2-.5zM-1871.7-1618.4c-1.4-4.8-2.7-9.1-4.1-13.4-1.4-4.6-3.9-8.7-7.1-12.3-1-1.1-2-1.5-3.5-1.2-7.1 1.4-14.2 2.6-21.2 3.9-.4.1-.9.4-1 .7-.7 1.9.2 3 2.2 2.9 9.5-.5 15.5 2.7 18 11.8 2.1 7.8 4.1 15.6 6.1 23.4.1.5 0 1.3-.3 1.8-4.1 6.7-8.2 13.5-12.6 20.1-2.5 3.7-5.5 7-8.6 10.3-2.5 2.7-3.5 2.6-6.6.5-1-.7-2-1.5-3-2.1-3.4-2.1-8-1.2-10 2.1-2.1 3.4-1.1 7.9 2.2 10.2 4 2.7 8.1 2.5 12.2.4 4-2 7.1-5 9.9-8.4 6.4-7.4 11.4-15.8 16.6-24.1.6-1 1.2-1.9 2-3.1.2.7.3 1 .4 1.4 1.4 6.1 2.8 12.2 4.4 18.3 1.2 4.3 2.4 8.7 4.2 12.7 2 4.5 6.8 6 11.3 4 1.5-.7 3-1.6 4.3-2.6 6.3-4.8 11.2-11 15.4-17.6.2-.4.4-.8.5-1.2-2.8-2.1-3-2-4.7.7-.7 1.1-1.4 2.2-2.3 3.1-2.6 2.5-5.2 5-8 7.1-2.2 1.6-3.7 1-4.8-1.6-.7-1.7-1.3-3.4-1.8-5.1-2.7-10.8-5.3-21.6-8.1-32.4-.7-2.5-.3-4.3 1.1-6.4 3.7-5.2 7.1-10.6 11.7-15.1 2.9-2.8 6-3.8 9.8-2.6.8.3 1.7.5 2.5.6 1.8.2 3.6.6 5.4.4 3.7-.2 5.8-2.4 6.1-6 .3-3.5-2-7-5.2-7.7-3.7-.8-7.3-.9-10.6 1.3-1.6 1.1-3.2 2.1-4.7 3.3-5.3 4.2-9.3 9.5-13.2 15-1.5 2.1-3.1 4.3-4.9 6.9z"/><path class="st0" d="M-1871.7-1618.4c1.8-2.6 3.4-4.8 5-7 3.8-5.5 7.9-10.8 13.2-15 1.5-1.2 3.1-2.2 4.7-3.3 3.3-2.2 6.9-2.1 10.6-1.3 3.2.7 5.5 4.2 5.2 7.7-.3 3.6-2.4 5.7-6.1 6-1.8.1-3.6-.2-5.4-.4-.9-.1-1.7-.4-2.5-.6-3.8-1.2-7-.3-9.8 2.6-4.6 4.5-8 9.9-11.7 15.1-1.5 2.1-1.8 3.9-1.1 6.4 2.8 10.8 5.4 21.6 8.1 32.4.4 1.7 1.1 3.4 1.8 5.1 1.1 2.6 2.5 3.2 4.8 1.6 2.9-2.1 5.4-4.7 8-7.1.9-.9 1.6-2 2.3-3.1 1.8-2.7 1.9-2.8 4.7-.7-.2.4-.3.8-.5 1.2-4.2 6.7-9.1 12.8-15.4 17.6-1.3 1-2.8 1.9-4.3 2.6-4.6 2-9.3.6-11.3-4-1.8-4-3-8.4-4.2-12.7-1.6-6.1-2.9-12.2-4.4-18.3-.1-.4-.2-.7-.4-1.4-.8 1.2-1.4 2.2-2 3.1-5.2 8.3-10.2 16.6-16.6 24.1-2.9 3.3-6 6.4-9.9 8.4-4.1 2.1-8.2 2.3-12.2-.4-3.3-2.2-4.3-6.8-2.2-10.2 2-3.2 6.6-4.2 10-2.1 1 .6 2 1.4 3 2.1 3.1 2.1 4.1 2.2 6.6-.5 3-3.3 6.1-6.6 8.6-10.3 4.4-6.5 8.4-13.3 12.6-20.1.3-.5.4-1.2.3-1.8-2-7.8-4-15.6-6.1-23.4-2.5-9.1-8.5-12.3-18-11.8-2.1.1-3-.9-2.2-2.9.1-.3.6-.6 1-.7 7.1-1.3 14.2-2.5 21.2-3.9 1.5-.3 2.6.1 3.5 1.2 3.2 3.6 5.7 7.6 7.1 12.3 1.2 4.4 2.5 8.7 4 13.5zM-2149.4-1685.7l9.1-17.4c.4-.7-.4-1.5-1.1-1.1l-17.4 9.1c-.2.1-.5.1-.8 0l-17.1-9c-.7-.4-1.5.4-1.1 1.1l9 17.2c.1.2.1.5 0 .8l-8.9 16.9c-.4.7.4 1.5 1.1 1.1l16.9-8.9c.2-.1.5-.1.8 0l17.2 9c.7.4 1.5-.4 1.1-1.1l-9-17.1c0-.1 0-.3.2-.6zM-2208.9-1683.4l8.2-5.4c.3-.2.2-.8-.2-.8l-9.8-.2c-.1 0-.3-.1-.3-.2l-5.3-8c-.2-.3-.8-.2-.8.2l-.2 9.7c0 .1-.1.3-.2.3l-8 5.3c-.3.2-.2.8.2.8l9.6.2c.1 0 .3.1.3.2l5.4 8.1c.2.3.8.2.8-.2l.2-9.7c-.1-.1 0-.2.1-.3zM-2129.4-1630.9l9.1-6c.4-.3.2-.8-.2-.8l-10.9-.2c-.2 0-.3-.1-.4-.2l-5.9-8.9c-.3-.4-.8-.2-.8.2l-.2 10.8c0 .2-.1.3-.2.4l-8.9 5.9c-.4.3-.2.8.2.8l10.6.2c.2 0 .3.1.4.2l6 9c.3.4.8.2.8-.2l.2-10.7c-.1-.3 0-.4.2-.5zM-2207.7-1618.4c-1.4-4.8-2.7-9.1-4.1-13.4-1.4-4.6-3.9-8.7-7.1-12.3-1-1.1-2-1.5-3.5-1.2-7.1 1.4-14.2 2.6-21.2 3.9-.4.1-.9.4-1 .7-.7 1.9.2 3 2.2 2.9 9.5-.5 15.5 2.7 18 11.8 2.1 7.8 4.1 15.6 6.1 23.4.1.5 0 1.3-.3 1.8-4.1 6.7-8.2 13.5-12.6 20.1-2.5 3.7-5.5 7-8.6 10.3-2.5 2.7-3.5 2.6-6.6.5-1-.7-2-1.5-3-2.1-3.4-2.1-8-1.2-10 2.1-2.1 3.4-1.1 7.9 2.2 10.2 4 2.7 8.1 2.5 12.2.4 4-2 7.1-5 9.9-8.4 6.4-7.4 11.4-15.8 16.6-24.1.6-1 1.2-1.9 2-3.1.2.7.3 1 .4 1.4 1.4 6.1 2.8 12.2 4.4 18.3 1.2 4.3 2.4 8.7 4.2 12.7 2 4.5 6.8 6 11.3 4 1.5-.7 3-1.6 4.3-2.6 6.3-4.8 11.2-11 15.4-17.6.2-.4.4-.8.5-1.2-2.8-2.1-3-2-4.7.7-.7 1.1-1.4 2.2-2.3 3.1-2.6 2.5-5.2 5-8 7.1-2.2 1.6-3.7 1-4.8-1.6-.7-1.7-1.3-3.4-1.8-5.1-2.7-10.8-5.3-21.6-8.1-32.4-.7-2.5-.3-4.3 1.1-6.4 3.7-5.2 7.1-10.6 11.7-15.1 2.9-2.8 6-3.8 9.8-2.6.8.3 1.7.5 2.5.6 1.8.2 3.6.6 5.4.4 3.7-.2 5.8-2.4 6.1-6 .3-3.5-2-7-5.2-7.7-3.7-.8-7.3-.9-10.6 1.3-1.6 1.1-3.2 2.1-4.7 3.3-5.3 4.2-9.3 9.5-13.2 15-1.5 2.1-3.1 4.3-4.9 6.9z"/><path class="st0" d="M-2207.7-1618.4c1.8-2.6 3.4-4.8 5-7 3.8-5.5 7.9-10.8 13.2-15 1.5-1.2 3.1-2.2 4.7-3.3 3.3-2.2 6.9-2.1 10.6-1.3 3.2.7 5.5 4.2 5.2 7.7-.3 3.6-2.4 5.7-6.1 6-1.8.1-3.6-.2-5.4-.4-.9-.1-1.7-.4-2.5-.6-3.8-1.2-7-.3-9.8 2.6-4.6 4.5-8 9.9-11.7 15.1-1.5 2.1-1.8 3.9-1.1 6.4 2.8 10.8 5.4 21.6 8.1 32.4.4 1.7 1.1 3.4 1.8 5.1 1.1 2.6 2.5 3.2 4.8 1.6 2.9-2.1 5.4-4.7 8-7.1.9-.9 1.6-2 2.3-3.1 1.8-2.7 1.9-2.8 4.7-.7-.2.4-.3.8-.5 1.2-4.2 6.7-9.1 12.8-15.4 17.6-1.3 1-2.8 1.9-4.3 2.6-4.6 2-9.3.6-11.3-4-1.8-4-3-8.4-4.2-12.7-1.6-6.1-2.9-12.2-4.4-18.3-.1-.4-.2-.7-.4-1.4-.8 1.2-1.4 2.2-2 3.1-5.2 8.3-10.2 16.6-16.6 24.1-2.9 3.3-6 6.4-9.9 8.4-4.1 2.1-8.2 2.3-12.2-.4-3.3-2.2-4.3-6.8-2.2-10.2 2-3.2 6.6-4.2 10-2.1 1 .6 2 1.4 3 2.1 3.1 2.1 4.1 2.2 6.6-.5 3-3.3 6.1-6.6 8.6-10.3 4.4-6.5 8.4-13.3 12.6-20.1.3-.5.4-1.2.3-1.8-2-7.8-4-15.6-6.1-23.4-2.5-9.1-8.5-12.3-18-11.8-2.1.1-3-.9-2.2-2.9.1-.3.6-.6 1-.7 7.1-1.3 14.2-2.5 21.2-3.9 1.5-.3 2.6.1 3.5 1.2 3.2 3.6 5.7 7.6 7.1 12.3 1.2 4.4 2.5 8.7 4 13.5zM-5223.4-1675.7l9.1-17.4c.4-.7-.4-1.5-1.1-1.1l-17.4 9.1c-.2.1-.5.1-.8 0l-17.1-9c-.7-.4-1.5.4-1.1 1.1l9 17.2c.1.2.1.5 0 .8l-8.9 16.9c-.4.7.4 1.5 1.1 1.1l16.9-8.9c.2-.1.5-.1.8 0l17.2 9c.7.4 1.5-.4 1.1-1.1l-9-17.1c0-.1 0-.3.2-.6zM-5282.9-1673.4l8.2-5.4c.3-.2.2-.8-.2-.8l-9.8-.2c-.1 0-.3-.1-.3-.2l-5.3-8c-.2-.3-.8-.2-.8.2l-.2 9.7c0 .1-.1.3-.2.3l-8 5.3c-.3.2-.2.8.2.8l9.6.2c.1 0 .3.1.3.2l5.4 8.1c.2.3.8.2.8-.2l.2-9.7c-.1-.1 0-.2.1-.3zM-5203.4-1620.9l9.1-6c.4-.3.2-.8-.2-.8l-10.9-.2c-.2 0-.3-.1-.4-.2l-5.9-8.9c-.3-.4-.8-.2-.8.2l-.2 10.8c0 .2-.1.3-.2.4l-8.9 5.9c-.4.3-.2.8.2.8l10.6.2c.2 0 .3.1.4.2l6 9c.3.4.8.2.8-.2l.2-10.7c-.1-.3 0-.4.2-.5zM-5281.7-1608.4c-1.4-4.8-2.7-9.1-4.1-13.4-1.4-4.6-3.9-8.7-7.1-12.3-1-1.1-2-1.5-3.5-1.2-7.1 1.4-14.2 2.6-21.2 3.9-.4.1-.9.4-1 .7-.7 1.9.2 3 2.2 2.9 9.5-.5 15.5 2.7 18 11.8 2.1 7.8 4.1 15.6 6.1 23.4.1.5 0 1.3-.3 1.8-4.1 6.7-8.2 13.5-12.6 20.1-2.5 3.7-5.5 7-8.6 10.3-2.5 2.7-3.5 2.6-6.6.5-1-.7-2-1.5-3-2.1-3.4-2.1-8-1.2-10 2.1-2.1 3.4-1.1 7.9 2.2 10.2 4 2.7 8.1 2.5 12.2.4 4-2 7.1-5 9.9-8.4 6.4-7.4 11.4-15.8 16.6-24.1.6-1 1.2-1.9 2-3.1.2.7.3 1 .4 1.4 1.4 6.1 2.8 12.2 4.4 18.3 1.2 4.3 2.4 8.7 4.2 12.7 2 4.5 6.8 6 11.3 4 1.5-.7 3-1.6 4.3-2.6 6.3-4.8 11.2-11 15.4-17.6.2-.4.4-.8.5-1.2-2.8-2.1-3-2-4.7.7-.7 1.1-1.4 2.2-2.3 3.1-2.6 2.5-5.2 5-8 7.1-2.2 1.6-3.7 1-4.8-1.6-.7-1.7-1.3-3.4-1.8-5.1-2.7-10.8-5.3-21.6-8.1-32.4-.7-2.5-.3-4.3 1.1-6.4 3.7-5.2 7.1-10.6 11.7-15.1 2.9-2.8 6-3.8 9.8-2.6.8.3 1.7.5 2.5.6 1.8.2 3.6.6 5.4.4 3.7-.2 5.8-2.4 6.1-6 .3-3.5-2-7-5.2-7.7-3.7-.8-7.3-.9-10.6 1.3-1.6 1.1-3.2 2.1-4.7 3.3-5.3 4.2-9.3 9.5-13.2 15-1.5 2.1-3.1 4.3-4.9 6.9z"/><path class="st0" d="M-5281.7-1608.4c1.8-2.6 3.4-4.8 5-7 3.8-5.5 7.9-10.8 13.2-15 1.5-1.2 3.1-2.2 4.7-3.3 3.3-2.2 6.9-2.1 10.6-1.3 3.2.7 5.5 4.2 5.2 7.7-.3 3.6-2.4 5.7-6.1 6-1.8.1-3.6-.2-5.4-.4-.9-.1-1.7-.4-2.5-.6-3.8-1.2-7-.3-9.8 2.6-4.6 4.5-8 9.9-11.7 15.1-1.5 2.1-1.8 3.9-1.1 6.4 2.8 10.8 5.4 21.6 8.1 32.4.4 1.7 1.1 3.4 1.8 5.1 1.1 2.6 2.5 3.2 4.8 1.6 2.9-2.1 5.4-4.7 8-7.1.9-.9 1.6-2 2.3-3.1 1.8-2.7 1.9-2.8 4.7-.7-.2.4-.3.8-.5 1.2-4.2 6.7-9.1 12.8-15.4 17.6-1.3 1-2.8 1.9-4.3 2.6-4.6 2-9.3.6-11.3-4-1.8-4-3-8.4-4.2-12.7-1.6-6.1-2.9-12.2-4.4-18.3-.1-.4-.2-.7-.4-1.4-.8 1.2-1.4 2.2-2 3.1-5.2 8.3-10.2 16.6-16.6 24.1-2.9 3.3-6 6.4-9.9 8.4-4.1 2.1-8.2 2.3-12.2-.4-3.3-2.2-4.3-6.8-2.2-10.2 2-3.2 6.6-4.2 10-2.1 1 .6 2 1.4 3 2.1 3.1 2.1 4.1 2.2 6.6-.5 3-3.3 6.1-6.6 8.6-10.3 4.4-6.5 8.4-13.3 12.6-20.1.3-.5.4-1.2.3-1.8-2-7.8-4-15.6-6.1-23.4-2.5-9.1-8.5-12.3-18-11.8-2.1.1-3-.9-2.2-2.9.1-.3.6-.6 1-.7 7.1-1.3 14.2-2.5 21.2-3.9 1.5-.3 2.6.1 3.5 1.2 3.2 3.6 5.7 7.6 7.1 12.3 1.2 4.4 2.5 8.7 4 13.5z"/><circle class="st0" cx="-2913" cy="-1626.5" r="112"/><path class="st4" d="M-2859.9-1680.2l9.1-17.4c.4-.7-.4-1.5-1.1-1.1l-17.4 9.1c-.2.1-.5.1-.8 0l-17.1-9c-.7-.4-1.5.4-1.1 1.1l9 17.2c.1.2.1.5 0 .8l-8.9 16.9c-.4.7.4 1.5 1.1 1.1l16.9-8.9c.2-.1.5-.1.8 0l17.2 9c.7.4 1.5-.4 1.1-1.1l-9-17.1c0-.1 0-.3.2-.6zM-2919.4-1677.9l8.2-5.4c.3-.2.2-.8-.2-.8l-9.8-.2c-.1 0-.3-.1-.3-.2l-5.3-8c-.2-.3-.8-.2-.8.2l-.2 9.7c0 .1-.1.3-.2.3l-8 5.3c-.3.2-.2.8.2.8l9.6.2c.1 0 .3.1.3.2l5.4 8.1c.2.3.8.2.8-.2l.2-9.7c-.1-.1 0-.2.1-.3zM-2839.9-1625.4l9.1-6c.4-.3.2-.8-.2-.8l-10.9-.2c-.2 0-.3-.1-.4-.2l-5.9-8.9c-.3-.4-.8-.2-.8.2l-.2 10.8c0 .2-.1.3-.2.4l-8.9 5.9c-.4.3-.2.8.2.8l10.6.2c.2 0 .3.1.4.2l6 9c.3.4.8.2.8-.2l.2-10.7c-.1-.3 0-.4.2-.5zM-2875.5-1567.2v-69.2c0-5.4-4.4-9.9-9.9-9.9h-69.2c-5.4 0-9.9 4.4-9.9 9.9v69.2c0 5.4 4.4 9.9 9.9 9.9h69.2c5.5-.1 9.9-4.5 9.9-9.9zm-61.8-27.2l12.4 14.9 17.3-22.3 22.2 29.7h-69.2l17.3-22.3z"/><circle class="st12" cx="-3225" cy="-1626.5" r="112"/><path class="st0" d="M-3171.9-1680.2l9.1-17.4c.4-.7-.4-1.5-1.1-1.1l-17.4 9.1c-.2.1-.5.1-.8 0l-17.1-9c-.7-.4-1.5.4-1.1 1.1l9 17.2c.1.2.1.5 0 .8l-8.9 16.9c-.4.7.4 1.5 1.1 1.1l16.9-8.9c.2-.1.5-.1.8 0l17.2 9c.7.4 1.5-.4 1.1-1.1l-9-17.1c0-.1 0-.3.2-.6zM-3231.4-1677.9l8.2-5.4c.3-.2.2-.8-.2-.8l-9.8-.2c-.1 0-.3-.1-.3-.2l-5.3-8c-.2-.3-.8-.2-.8.2l-.2 9.7c0 .1-.1.3-.2.3l-8 5.3c-.3.2-.2.8.2.8l9.6.2c.1 0 .3.1.3.2l5.4 8.1c.2.3.8.2.8-.2l.2-9.7c-.1-.1 0-.2.1-.3zM-3151.9-1625.4l9.1-6c.4-.3.2-.8-.2-.8l-10.9-.2c-.2 0-.3-.1-.4-.2l-5.9-8.9c-.3-.4-.8-.2-.8.2l-.2 10.8c0 .2-.1.3-.2.4l-8.9 5.9c-.4.3-.2.8.2.8l10.6.2c.2 0 .3.1.4.2l6 9c.3.4.8.2.8-.2l.2-10.7c-.1-.3 0-.4.2-.5zM-3187.5-1567.2v-69.2c0-5.4-4.4-9.9-9.9-9.9h-69.2c-5.4 0-9.9 4.4-9.9 9.9v69.2c0 5.4 4.4 9.9 9.9 9.9h69.2c5.5-.1 9.9-4.5 9.9-9.9zm-61.8-27.2l12.4 14.9 17.3-22.3 22.2 29.7h-69.2l17.3-22.3zM-3504.9-1680.2l9.1-17.4c.4-.7-.4-1.5-1.1-1.1l-17.4 9.1c-.2.1-.5.1-.8 0l-17.1-9c-.7-.4-1.5.4-1.1 1.1l9 17.2c.1.2.1.5 0 .8l-8.9 16.9c-.4.7.4 1.5 1.1 1.1l16.9-8.9c.2-.1.5-.1.8 0l17.2 9c.7.4 1.5-.4 1.1-1.1l-9-17.1c0-.1 0-.3.2-.6zM-3564.4-1677.9l8.2-5.4c.3-.2.2-.8-.2-.8l-9.8-.2c-.1 0-.3-.1-.3-.2l-5.3-8c-.2-.3-.8-.2-.8.2l-.2 9.7c0 .1-.1.3-.2.3l-8 5.3c-.3.2-.2.8.2.8l9.6.2c.1 0 .3.1.3.2l5.4 8.1c.2.3.8.2.8-.2l.2-9.7c-.1-.1 0-.2.1-.3zM-3484.9-1625.4l9.1-6c.4-.3.2-.8-.2-.8l-10.9-.2c-.2 0-.3-.1-.4-.2l-5.9-8.9c-.3-.4-.8-.2-.8.2l-.2 10.8c0 .2-.1.3-.2.4l-8.9 5.9c-.4.3-.2.8.2.8l10.6.2c.2 0 .3.1.4.2l6 9c.3.4.8.2.8-.2l.2-10.7c-.1-.3 0-.4.2-.5zM-3520.5-1567.2v-69.2c0-5.4-4.4-9.9-9.9-9.9h-69.2c-5.4 0-9.9 4.4-9.9 9.9v69.2c0 5.4 4.4 9.9 9.9 9.9h69.2c5.5-.1 9.9-4.5 9.9-9.9zm-61.8-27.2l12.4 14.9 17.3-22.3 22.2 29.7h-69.2l17.3-22.3z"/><path d="M-3965.9-1670.2l9.1-17.4c.4-.7-.4-1.5-1.1-1.1l-17.4 9.1c-.2.1-.5.1-.8 0l-17.1-9c-.7-.4-1.5.4-1.1 1.1l9 17.2c.1.2.1.5 0 .8l-8.9 16.9c-.4.7.4 1.5 1.1 1.1l16.9-8.9c.2-.1.5-.1.8 0l17.2 9c.7.4 1.5-.4 1.1-1.1l-9-17.1c0-.1 0-.3.2-.6zM-4025.4-1667.9l8.2-5.4c.3-.2.2-.8-.2-.8l-9.8-.2c-.1 0-.3-.1-.3-.2l-5.3-8c-.2-.3-.8-.2-.8.2l-.2 9.7c0 .1-.1.3-.2.3l-8 5.3c-.3.2-.2.8.2.8l9.6.2c.1 0 .3.1.3.2l5.4 8.1c.2.3.8.2.8-.2l.2-9.7c-.1-.1 0-.2.1-.3zM-3945.9-1615.4l9.1-6c.4-.3.2-.8-.2-.8l-10.9-.2c-.2 0-.3-.1-.4-.2l-5.9-8.9c-.3-.4-.8-.2-.8.2l-.2 10.8c0 .2-.1.3-.2.4l-8.9 5.9c-.4.3-.2.8.2.8l10.6.2c.2 0 .3.1.4.2l6 9c.3.4.8.2.8-.2l.2-10.7c-.1-.3 0-.4.2-.5zM-3981.5-1557.2v-69.2c0-5.4-4.4-9.9-9.9-9.9h-69.2c-5.4 0-9.9 4.4-9.9 9.9v69.2c0 5.4 4.4 9.9 9.9 9.9h69.2c5.5-.1 9.9-4.5 9.9-9.9zm-61.8-27.2l12.4 14.9 17.3-22.3 22.2 29.7h-69.2l17.3-22.3z"/><path class="st0" d="M-4253.9-1657.2l9.1-17.4c.4-.7-.4-1.5-1.1-1.1l-17.4 9.1c-.2.1-.5.1-.8 0l-17.1-9c-.7-.4-1.5.4-1.1 1.1l9 17.2c.1.2.1.5 0 .8l-8.9 16.9c-.4.7.4 1.5 1.1 1.1l16.9-8.9c.2-.1.5-.1.8 0l17.2 9c.7.4 1.5-.4 1.1-1.1l-9-17.1c0-.1 0-.3.2-.6zM-4313.4-1654.9l8.2-5.4c.3-.2.2-.8-.2-.8l-9.8-.2c-.1 0-.3-.1-.3-.2l-5.3-8c-.2-.3-.8-.2-.8.2l-.2 9.7c0 .1-.1.3-.2.3l-8 5.3c-.3.2-.2.8.2.8l9.6.2c.1 0 .3.1.3.2l5.4 8.1c.2.3.8.2.8-.2l.2-9.7c-.1-.1 0-.2.1-.3zM-4233.9-1602.4l9.1-6c.4-.3.2-.8-.2-.8l-10.9-.2c-.2 0-.3-.1-.4-.2l-5.9-8.9c-.3-.4-.8-.2-.8.2l-.2 10.8c0 .2-.1.3-.2.4l-8.9 5.9c-.4.3-.2.8.2.8l10.6.2c.2 0 .3.1.4.2l6 9c.3.4.8.2.8-.2l.2-10.7c-.1-.3 0-.4.2-.5zM-4319.6-1627.6c-23.5 0-43.6 14.6-51.7 35.3 8.1 20.6 28.2 35.3 51.7 35.3s43.6-14.6 51.7-35.3c-8.1-20.6-28.2-35.3-51.7-35.3zm0 58.8c-13 0-23.5-10.5-23.5-23.5s10.5-23.5 23.5-23.5 23.5 10.5 23.5 23.5-10.5 23.5-23.5 23.5zm0-37.6c-7.8 0-14.1 6.3-14.1 14.1s6.3 14.1 14.1 14.1 14.1-6.3 14.1-14.1-6.3-14.1-14.1-14.1zM-3825.2-971.7l8.7-16.6c.4-.7-.4-1.4-1.1-1.1l-16.6 8.7c-.2.1-.5.1-.7 0l-16.3-8.6c-.7-.4-1.4.4-1.1 1.1l8.6 16.4c.1.2.1.5 0 .7l-8.5 16.2c-.4.7.4 1.4 1.1 1.1l16.2-8.5c.2-.1.5-.1.7 0l16.4 8.6c.7.4 1.4-.4 1.1-1.1l-8.6-16.3c0-.1 0-.4.1-.6zM-3883.9-970.5l7.8-5.2c.3-.2.2-.7-.2-.7l-9.4-.2c-.1 0-.3-.1-.3-.2l-5.1-7.7c-.2-.3-.7-.2-.7.2l-.2 9.3c0 .1-.1.3-.2.3l-7.6 5.1c-.3.2-.2.7.2.7l9.1.2c.1 0 .3.1.3.2l5.1 7.7c.2.3.7.2.7-.2l.2-9.2c.1-.1.1-.2.3-.3zM-3813.1-918.4l8.7-5.8c.4-.2.2-.8-.2-.8l-10.4-.2c-.1 0-.3-.1-.4-.2l-5.7-8.5c-.2-.4-.8-.2-.8.2l-.2 10.3c0 .1-.1.3-.2.4l-8.5 5.6c-.4.2-.2.8.2.8l10.1.2c.1 0 .3.1.4.2l5.7 8.6c.2.4.8.2.8-.2l.2-10.2c.1-.2.2-.3.3-.4zM-4515.9-1677.2l9.1-17.4c.4-.7-.4-1.5-1.1-1.1l-17.4 9.1c-.2.1-.5.1-.8 0l-17.1-9c-.7-.4-1.5.4-1.1 1.1l9 17.2c.1.2.1.5 0 .8l-8.9 16.9c-.4.7.4 1.5 1.1 1.1l16.9-8.9c.2-.1.5-.1.8 0l17.2 9c.7.4 1.5-.4 1.1-1.1l-9-17.1c0-.1 0-.3.2-.6zM-4575.4-1674.9l8.2-5.4c.3-.2.2-.8-.2-.8l-9.8-.2c-.1 0-.3-.1-.3-.2l-5.3-8c-.2-.3-.8-.2-.8.2l-.2 9.7c0 .1-.1.3-.2.3l-8 5.3c-.3.2-.2.8.2.8l9.6.2c.1 0 .3.1.3.2l5.4 8.1c.2.3.8.2.8-.2l.2-9.7c-.1-.1 0-.2.1-.3zM-4495.9-1622.4l9.1-6c.4-.3.2-.8-.2-.8l-10.9-.2c-.2 0-.3-.1-.4-.2l-5.9-8.9c-.3-.4-.8-.2-.8.2l-.2 10.8c0 .2-.1.3-.2.4l-8.9 5.9c-.4.3-.2.8.2.8l10.6.2c.2 0 .3.1.4.2l6 9c.3.4.8.2.8-.2l.2-10.7c-.1-.3 0-.4.2-.5zM-4627.4-1615.3h23.8v-23.8h-23.8v23.8zm35.6 71.3h23.8v-23.8h-23.8v23.8zm-35.6 0h23.8v-23.8h-23.8v23.8zm0-35.6h23.8v-23.8h-23.8v23.8zm35.6 0h23.8v-23.8h-23.8v23.8zm35.7-59.4v23.8h23.8v-23.8h-23.8zm-35.7 23.7h23.8v-23.8h-23.8v23.8zm35.7 35.7h23.8v-23.8h-23.8v23.8zm0 35.6h23.8v-23.8h-23.8v23.8zM-4874.6-502.3h-49.2c-9 0-16.3 7.4-16.3 16.4l-.1 98.4c0 9 7.4 16.4 16.4 16.4h131.2c9 0 16.4-7.4 16.4-16.4v-82c0-9-7.4-16.4-16.4-16.4h-65.6l-16.4-16.4zM-4388.4-502.3h-49.2c-9 0-16.3 7.4-16.3 16.4l-.1 98.4c0 9 7.4 16.4 16.4 16.4h131.2c9 0 16.4-7.4 16.4-16.4v-82c0-9-7.4-16.4-16.4-16.4h-65.6l-16.4-16.4zM-4388.4-206.7h-49.2c-9 0-16.3 7.4-16.3 16.4l-.1 98.4c0 9 7.4 16.4 16.4 16.4h131.2c9 0 16.4-7.4 16.4-16.4v-82c0-9-7.4-16.4-16.4-16.4h-65.6l-16.4-16.4zM-4804.9-200.6l9.1-17.4c.4-.7-.4-1.5-1.1-1.1l-17.4 9.1c-.2.1-.5.1-.8 0l-17.1-9c-.7-.4-1.5.4-1.1 1.1l9 17.2c.1.2.1.5 0 .8l-8.9 16.9c-.4.7.4 1.5 1.1 1.1l16.9-8.9c.2-.1.5-.1.8 0l17.2 9c.7.4 1.5-.4 1.1-1.1l-9-17.1c0-.1 0-.4.2-.6zM-4864.4-198.3l8.2-5.4c.3-.2.2-.8-.2-.8l-9.8-.2c-.1 0-.3-.1-.3-.2l-5.3-8c-.2-.3-.8-.2-.8.2l-.2 9.7c0 .1-.1.3-.2.3l-8 5.3c-.3.2-.2.8.2.8l9.6.2c.1 0 .3.1.3.2l5.4 8.1c.2.3.8.2.8-.2l.2-9.7c-.1-.1 0-.2.1-.3zM-4784.9-145.8l9.1-6c.4-.3.2-.8-.2-.8l-10.9-.2c-.2 0-.3-.1-.4-.2l-5.9-8.9c-.3-.4-.8-.2-.8.2l-.2 10.8c0 .2-.1.3-.2.4l-8.9 5.9c-.4.3-.2.8.2.8l10.6.2c.2 0 .3.1.4.2l6 9c.3.4.8.2.8-.2l.2-10.7c-.1-.3 0-.5.2-.5zM-4889.4-171.5h-36c-6.6 0-11.9 5.4-11.9 12l-.1 72c0 6.6 5.4 12 12 12h96c6.6 0 12-5.4 12-12v-60c0-6.6-5.4-12-12-12h-48l-12-12zM-4804.9-1673.2l9.1-17.4c.4-.7-.4-1.5-1.1-1.1l-17.4 9.1c-.2.1-.5.1-.8 0l-17.1-9c-.7-.4-1.5.4-1.1 1.1l9 17.2c.1.2.1.5 0 .8l-8.9 16.9c-.4.7.4 1.5 1.1 1.1l16.9-8.9c.2-.1.5-.1.8 0l17.2 9c.7.4 1.5-.4 1.1-1.1l-9-17.1c0-.1 0-.3.2-.6zM-4864.4-1670.9l8.2-5.4c.3-.2.2-.8-.2-.8l-9.8-.2c-.1 0-.3-.1-.3-.2l-5.3-8c-.2-.3-.8-.2-.8.2l-.2 9.7c0 .1-.1.3-.2.3l-8 5.3c-.3.2-.2.8.2.8l9.6.2c.1 0 .3.1.3.2l5.4 8.1c.2.3.8.2.8-.2l.2-9.7c-.1-.1 0-.2.1-.3zM-4784.9-1618.4l9.1-6c.4-.3.2-.8-.2-.8l-10.9-.2c-.2 0-.3-.1-.4-.2l-5.9-8.9c-.3-.4-.8-.2-.8.2l-.2 10.8c0 .2-.1.3-.2.4l-8.9 5.9c-.4.3-.2.8.2.8l10.6.2c.2 0 .3.1.4.2l6 9c.3.4.8.2.8-.2l.2-10.7c-.1-.3 0-.4.2-.5zM-4889.4-1644h-36c-6.6 0-11.9 5.4-11.9 12l-.1 72c0 6.6 5.4 12 12 12h96c6.6 0 12-5.4 12-12v-60c0-6.6-5.4-12-12-12h-48l-12-12z"/><path d="M-4538.4-967.7h-68.6c-7.1 0-12.9-5.8-12.9-12.9V-1111c0-7.1 5.8-12.9 12.9-12.9h68.6c7.1 0 12.9 5.8 12.9 12.9v130.4c0 7.1-5.8 12.9-12.9 12.9zm-68.6-149.8c-3.5 0-6.4 2.9-6.4 6.4v130.4c0 3.5 2.9 6.4 6.4 6.4h68.6c3.5 0 6.4-2.9 6.4-6.4v-130.4c0-3.5-2.9-6.4-6.4-6.4h-68.6z" stroke="#000" stroke-width="3" stroke-miterlimit="10"/><path d="M-4512-1102.3v141.7c0 3.5-2.9 6.4-6.4 6.4h-79.8c2.2 3.9 6.4 6.5 11.2 6.5h68.6c7.1 0 12.9-5.8 12.9-12.9V-1091c0-4.9-2.6-9.1-6.5-11.3zM-4562.1-1145.3h-22.7c-4.8 0-8.6-3.3-8.6-7.3v-5c0-1.7 1.6-3.1 3.6-3.1h32.7c2 0 3.6 1.4 3.6 3.1v5c0 4-3.9 7.3-8.6 7.3zm-24.1-9.3v1.9c0 .6.6 1.2 1.4 1.2h22.7c.8 0 1.4-.5 1.4-1.2v-1.9h-25.5zM-4538.4-1240.7h-68.6c-7.1 0-12.9-5.8-12.9-12.9V-1384c0-7.1 5.8-12.9 12.9-12.9h68.6c7.1 0 12.9 5.8 12.9 12.9v130.4c0 7.1-5.8 12.9-12.9 12.9zm-68.6-149.8c-3.5 0-6.4 2.9-6.4 6.4v130.4c0 3.5 2.9 6.4 6.4 6.4h68.6c3.5 0 6.4-2.9 6.4-6.4v-130.4c0-3.5-2.9-6.4-6.4-6.4h-68.6z"/><path d="M-4519-1380.5c.3 1.1.5 2.2.5 3.4v4c1.5 1.1 2.5 3 2.5 5v130.4c0 3.5-2.9 6.4-6.4 6.4h-68.6c-2.1 0-3.9-1-5-2.5h-4c-1.2 0-2.4-.2-3.5-.5 1.5 5.5 6.5 9.5 12.5 9.5h68.6c7.1 0 12.9-5.8 12.9-12.9v-130.4c0-5.9-4-10.9-9.5-12.4zM-4562.1-1381.3h-22.7c-4.8 0-8.6-3.3-8.6-7.3v-5c0-1.7 1.6-3.1 3.6-3.1h32.7c2 0 3.6 1.4 3.6 3.1v5c0 4-3.9 7.3-8.6 7.3zm-24.1-9.3v1.9c0 .6.6 1.2 1.4 1.2h22.7c.8 0 1.4-.5 1.4-1.2v-1.9h-25.5z"/><circle cx="-4553" cy="-996.5" r="12.5"/><path d="M-4615.5-1117h85v14.7h-85zM-4368.2-2647.7l.8-.4.9 1.4-1.7 1-36.3-20.8v-20.9l22.9 13.2 12.5-11.1v37.2z"/><path d="M-4332-2687.6v21.1l-34.5 19.8-.9-1.4v-37.2l12.3 11z"/><path d="M-4319.7-2695.9l-35.3 20.3-12.4-11.1 24.2-14c6.1 2.9 13.1 3.3 19.4 1.1l4.1 3.7zM-4354.7-2739.6l2.1 1.2c-3.3 4.5-5 10-4.9 15.6l-9.9-5.7 12.7-11.1zM-4369.1-2728.5l-35.3 20.3-12.4-11.1 35.3-20.3zM-4369.1-2686.6l-12.6 11.1-35.3-20.3 12.6-11.1zM-4322.5-2718l-9.6 8.5-9.6-8.5h3.7v-19.5h11.9v19.5z"/><circle cx="-4332.1" cy="-2723.9" r="22"/><path class="st4" d="M-4344.6-2713.9h26.1c1.2 0 2-1.3 1.4-2.4l-13.1-22.6c-.6-1-2.1-1-2.7 0l-13.1 22.6c-.5 1.1.2 2.4 1.4 2.4zm14.5-4.3h-2.9v-2.9h2.9v2.9zm0-5.7h-2.9v-5.7h2.9v5.7z"/><path class="st14" d="M-3795.2-2699.9c0 49.7-40.3 90-90 90s-90-40.3-90-90 40.3-90 90-90 90 40.3 90 90zm-65.2-.7l-24.3 14 12.4 11.1 35.3-20.3-4-3.6c-6.4 2.1-13.3 1.7-19.4-1.2zm-73.7-18.7l12.4 11.1 35.3-20.3-12.4-11.1-35.3 20.3zm64.2-19.1l-2.1-1.2-12.6 11.1 9.9 5.7c-.2-5.6 1.5-11.1 4.8-15.6zm-64.4 42.6l35.3 20.3 12.6-11.1-35.3-20.3-12.6 11.1zm35.4 21.6l-22.8-13.2v20.9l36.2 20.9 36.2-20.9v-21.1l-23.1 13.3-12.3-11v37.1l-.9.5-.8-.5v-37.2l-12.5 11.2zm70.6-49.3c0-11.6-9.4-21-21.1-21-11.6 0-21 9.4-21 21s9.4 21 21 21c11.7.1 21.1-9.4 21.1-21zm-21.1-14h-5.9v19.4h-3.7l9.6 8.6 9.6-8.6h-3.7v-19.4h-5.9z"/><circle cx="-3849.3" cy="-2723.9" r="22" fill="#fabe14"/><path class="st14" d="M-3852.6-2739.6h6.6v17.4h-6.6zM-3852.6-2716.4h6.6v6.6h-6.6zM-4272-3608.9h26.6v26.6h-26.6z"/><path class="st6" d="M-2685.3-969.7l29.9 29.9v-22.4c24.7 0 44.8 20.1 44.8 44.8 0 2.7-.3 5.4-.7 8l13 9.4c1.7-5.5 2.6-11.3 2.6-17.4 0-33-26.7-59.7-59.7-59.7v-22.4l-29.9 29.8z"/><path d="M-2169.8-929.7c0-7.7 6.2-13.9 13.9-13.9h18v-8.5h-18c-12.4 0-22.4 10.1-22.4 22.4 0 12.4 10.1 22.4 22.4 22.4h18v-8.5h-18c-7.6.1-13.9-6.2-13.9-13.9zm18.4 4.5h35.9v-9h-35.9v9zm40.4-26.9h-18v8.5h18c7.7 0 13.9 6.2 13.9 13.9s-6.2 13.9-13.9 13.9h-18v8.5h18c12.4 0 22.4-10.1 22.4-22.4.1-12.3-10-22.4-22.4-22.4z"/><path class="st0" d="M-3050.2 39.3l8.7-16.6c.4-.7-.4-1.4-1.1-1.1l-16.6 8.7c-.2.1-.5.1-.7 0l-16.3-8.6c-.7-.4-1.4.4-1.1 1.1l8.6 16.4c.1.2.1.5 0 .7l-8.5 16.2c-.4.7.4 1.4 1.1 1.1l16.2-8.5c.2-.1.5-.1.7 0l16.4 8.6c.7.4 1.4-.4 1.1-1.1l-8.6-16.3c0-.1 0-.4.1-.6zM-3108.9 40.5l7.8-5.2c.3-.2.2-.7-.2-.7l-9.4-.2c-.1 0-.3-.1-.3-.2l-5.1-7.7c-.2-.3-.7-.2-.7.2l-.2 9.3c0 .1-.1.3-.2.3l-7.6 5.1c-.3.2-.2.7.2.7l9.1.2c.1 0 .3.1.3.2l5.1 7.7c.2.3.7.2.7-.2l.2-9.2c.1-.1.1-.2.3-.3zM-3038.1 92.6l8.7-5.8c.4-.2.2-.8-.2-.8l-10.4-.2c-.1 0-.3-.1-.4-.2l-5.7-8.5c-.2-.4-.8-.2-.8.2l-.2 10.3c0 .1-.1.3-.2.4l-8.5 5.6c-.4.2-.2.8.2.8l10.1.2c.1 0 .3.1.4.2l5.7 8.6c.2.4.8.2.8-.2l.2-10.2c.1-.2.2-.3.3-.4z"/></g><g id="Layer_2"><path class="st16" d="M-1867.1-921.6l-24.4-24.5c-2-2-4.5-3-7.3-3h-44c-2.8 0-5.4 1-7.3 3-2 2-3 4.5-3 7.3v89.7c0 5.7 4.7 10.4 10.4 10.4h68.5c5.7 0 10.4-4.7 10.4-10.4v-65.1c-.1-2.9-1.3-5.4-3.3-7.4zm-28.1-15.4l19.1 19.1h-17.1c-1.2 0-2-.9-2-2V-937zm20.8 89.2h-68.4c-.7 0-1.3-.6-1.3-1.3v-89.8c0-.5.2-.8.3-.9.2-.2.5-.3.9-.3h38.5v20.2c0 6.2 5 11 11 11h20.1v59.8c.3.8-.3 1.3-1.1 1.3z"/><path class="st16" d="M-1922.4-865.3h-10.8c-.9 0-1.7.8-1.7 1.7v5.5c0 .9.8 1.7 1.7 1.7h10.8c.9 0 1.7-.8 1.7-1.7v-5.5c0-.9-.7-1.7-1.7-1.7zM-1922.4-882.8h-10.8c-.9 0-1.7.8-1.7 1.7v5.5c0 .9.8 1.7 1.7 1.7h10.8c.9 0 1.7-.8 1.7-1.7v-5.5c0-1-.7-1.7-1.7-1.7zM-1922.4-900.3h-10.8c-.9 0-1.7.8-1.7 1.7v5.5c0 .9.8 1.7 1.7 1.7h10.8c.9 0 1.7-.8 1.7-1.7v-5.5c0-.9-.7-1.7-1.7-1.7zM-1903.1-865.3h-10.8c-.9 0-1.7.8-1.7 1.7v5.5c0 .9.8 1.7 1.7 1.7h10.8c.9 0 1.7-.8 1.7-1.7v-5.5c0-.9-.8-1.7-1.7-1.7zM-1903.1-882.8h-10.8c-.9 0-1.7.8-1.7 1.7v5.5c0 .9.8 1.7 1.7 1.7h10.8c.9 0 1.7-.8 1.7-1.7v-5.5c0-1-.8-1.7-1.7-1.7zM-1903.1-900.3h-10.8c-.9 0-1.7.8-1.7 1.7v5.5c0 .9.8 1.7 1.7 1.7h10.8c.9 0 1.7-.8 1.7-1.7v-5.5c0-.9-.8-1.7-1.7-1.7zM-1883.9-865.3h-10.8c-.9 0-1.7.8-1.7 1.7v5.5c0 .9.8 1.7 1.7 1.7h10.8c.9 0 1.7-.8 1.7-1.7v-5.5c.1-.9-.7-1.7-1.7-1.7zM-1883.9-882.8h-10.8c-.9 0-1.7.8-1.7 1.7v5.5c0 .9.8 1.7 1.7 1.7h10.8c.9 0 1.7-.8 1.7-1.7v-5.5c.1-1-.7-1.7-1.7-1.7zM-1883.9-900.3h-10.8c-.9 0-1.7.8-1.7 1.7v5.5c0 .9.8 1.7 1.7 1.7h10.8c.9 0 1.7-.8 1.7-1.7v-5.5c.1-.9-.7-1.7-1.7-1.7z"/><path class="st0" d="M-598.5-908.3l-22.9-23c-1.9-1.9-4.2-2.8-6.9-2.8h-5.1v27.5c0 5.8 4.7 10.3 10.3 10.3h18.8v56c.1.6-.4 1.2-1.2 1.2h-64c-.7 0-1.2-.6-1.2-1.2V-934c-.9.1-1.7.3-2.5.6-1.2.5-2.2 1.2-3.1 2.1-1.9 1.8-2.8 4.2-2.8 6.9v84c0 5.3 4.3 9.7 9.7 9.7h64.1c5.3 0 9.7-4.4 9.7-9.7v-61c.1-2.7-1-5.1-2.9-6.9zm-24.5 3.4c-1.1 0-1.9-.9-1.9-1.9v-16l17.9 17.9h-16z"/><path class="st0" d="M-648.7-854v5.1c0 .9-.8 1.6-1.6 1.6h-10.1c-.9 0-1.6-.8-1.6-1.6v-5.1c0-.9.8-1.6 1.6-1.6h10.1c1 0 1.6.7 1.6 1.6zM-648.7-870.3v5.1c0 .9-.8 1.6-1.6 1.6h-10.1c-.9 0-1.6-.8-1.6-1.6v-5.1c0-.9.8-1.6 1.6-1.6h10.1c1-.1 1.6.6 1.6 1.6zM-648.7-886.8v5.1c0 .9-.8 1.6-1.6 1.6h-10.1c-.9 0-1.6-.8-1.6-1.6v-5.1c0-.9.8-1.6 1.6-1.6h10.1c1 0 1.6.8 1.6 1.6zM-630.6-854v5.1c0 .9-.8 1.6-1.6 1.6h-10.1c-.9 0-1.6-.8-1.6-1.6v-5.1c0-.9.8-1.6 1.6-1.6h10.1c.9 0 1.6.7 1.6 1.6zM-630.6-870.3v5.1c0 .9-.8 1.6-1.6 1.6h-10.1c-.9 0-1.6-.8-1.6-1.6v-5.1c0-.9.8-1.6 1.6-1.6h10.1c.9-.1 1.6.6 1.6 1.6zM-630.6-886.8v5.1c0 .9-.8 1.6-1.6 1.6h-10.1c-.9 0-1.6-.8-1.6-1.6v-5.1c0-.9.8-1.6 1.6-1.6h10.1c.9 0 1.6.8 1.6 1.6zM-612.6-854v5.1c0 .9-.8 1.6-1.6 1.6h-10.1c-.9 0-1.6-.8-1.6-1.6v-5.1c0-.9.8-1.6 1.6-1.6h10.1c.9 0 1.7.7 1.6 1.6zM-612.6-870.3v5.1c0 .9-.8 1.6-1.6 1.6h-10.1c-.9 0-1.6-.8-1.6-1.6v-5.1c0-.9.8-1.6 1.6-1.6h10.1c.9-.1 1.7.6 1.6 1.6zM-612.6-886.8v5.1c0 .9-.8 1.6-1.6 1.6h-10.1c-.9 0-1.6-.8-1.6-1.6v-5.1c0-.9.8-1.6 1.6-1.6h10.1c.9 0 1.7.8 1.6 1.6z"/><path class="st16" d="M-2550.2-908.3l-22.9-23c-1.9-1.9-4.2-2.8-6.9-2.8h-41.2c-2.6 0-5 1-6.9 2.8s-2.8 4.2-2.8 6.9v84c0 5.3 4.4 9.7 9.7 9.7h64.1c5.3 0 9.7-4.4 9.7-9.7v-61c.2-2.7-.9-5.1-2.8-6.9zm-26.3-14.4l17.9 17.9h-16c-1.1 0-1.9-.9-1.9-1.9v-16zm19.5 83.5h-64c-.7 0-1.2-.5-1.2-1.2v-84.1c0-.4.2-.8.3-.9.2-.2.4-.3.9-.3h36v18.9c0 5.8 4.7 10.3 10.3 10.3h18.8v56c.2.8-.4 1.3-1.1 1.3z"/><path class="st16" d="M-2602-855.6h-10.1c-.9 0-1.6.8-1.6 1.6v5.1c0 .9.8 1.6 1.6 1.6h10.1c.9 0 1.6-.8 1.6-1.6v-5.1c0-.9-.6-1.6-1.6-1.6zM-2602-872h-10.1c-.9 0-1.6.8-1.6 1.6v5.1c0 .9.8 1.6 1.6 1.6h10.1c.9 0 1.6-.8 1.6-1.6v-5.1c0-.9-.6-1.6-1.6-1.6zM-2602-888.4h-10.1c-.9 0-1.6.8-1.6 1.6v5.1c0 .9.8 1.6 1.6 1.6h10.1c.9 0 1.6-.8 1.6-1.6v-5.1c0-.8-.6-1.6-1.6-1.6zM-2583.9-855.6h-10.1c-.9 0-1.6.8-1.6 1.6v5.1c0 .9.8 1.6 1.6 1.6h10.1c.9 0 1.6-.8 1.6-1.6v-5.1c0-.9-.8-1.6-1.6-1.6zM-2583.9-872h-10.1c-.9 0-1.6.8-1.6 1.6v5.1c0 .9.8 1.6 1.6 1.6h10.1c.9 0 1.6-.8 1.6-1.6v-5.1c0-.9-.8-1.6-1.6-1.6zM-2583.9-888.4h-10.1c-.9 0-1.6.8-1.6 1.6v5.1c0 .9.8 1.6 1.6 1.6h10.1c.9 0 1.6-.8 1.6-1.6v-5.1c0-.8-.8-1.6-1.6-1.6zM-2566-855.6h-10.1c-.9 0-1.6.8-1.6 1.6v5.1c0 .9.8 1.6 1.6 1.6h10.1c.9 0 1.6-.8 1.6-1.6v-5.1c.2-.9-.6-1.6-1.6-1.6zM-2566-872h-10.1c-.9 0-1.6.8-1.6 1.6v5.1c0 .9.8 1.6 1.6 1.6h10.1c.9 0 1.6-.8 1.6-1.6v-5.1c.2-.9-.6-1.6-1.6-1.6zM-2566-888.4h-10.1c-.9 0-1.6.8-1.6 1.6v5.1c0 .9.8 1.6 1.6 1.6h10.1c.9 0 1.6-.8 1.6-1.6v-5.1c.2-.8-.6-1.6-1.6-1.6zM-3143.2-945.2l-33.7-33.9c-2.7-2.7-6.3-4.2-10.1-4.2h-60.7c-3.9 0-7.4 1.4-10.1 4.2-2.7 2.7-4.2 6.3-4.2 10.1v123.9c0 7.9 6.4 14.3 14.3 14.3h94.6c7.9 0 14.3-6.4 14.3-14.3v-90c-.1-3.8-1.7-7.3-4.4-10.1zm-38.9-21.2l26.3 26.3h-23.6c-1.6 0-2.7-1.3-2.7-2.7v-23.6zm28.7 123.2h-94.5c-1 0-1.8-.8-1.8-1.8v-124c0-.6.3-1.1.5-1.3.3-.3.6-.5 1.3-.5h53.2v28c0 8.5 6.9 15.3 15.3 15.3h27.8v82.6c.2.9-.6 1.7-1.8 1.7z"/><path class="st16" d="M-3219.7-867.4h-14.9c-1.3 0-2.4 1.1-2.4 2.4v7.6c0 1.3 1.1 2.4 2.4 2.4h14.9c1.3 0 2.4-1.1 2.4-2.4v-7.6c0-1.3-1-2.4-2.4-2.4zM-3219.7-891.5h-14.9c-1.3 0-2.4 1.1-2.4 2.4v7.6c0 1.3 1.1 2.4 2.4 2.4h14.9c1.3 0 2.4-1.1 2.4-2.4v-7.6c0-1.5-1-2.4-2.4-2.4zM-3219.7-915.8h-14.9c-1.3 0-2.4 1.1-2.4 2.4v7.6c0 1.3 1.1 2.4 2.4 2.4h14.9c1.3 0 2.4-1.1 2.4-2.4v-7.6c0-1.3-1-2.4-2.4-2.4zM-3193-867.4h-14.9c-1.3 0-2.4 1.1-2.4 2.4v7.6c0 1.3 1.1 2.4 2.4 2.4h14.9c1.3 0 2.4-1.1 2.4-2.4v-7.6c0-1.3-1.1-2.4-2.4-2.4zM-3193-891.5h-14.9c-1.3 0-2.4 1.1-2.4 2.4v7.6c0 1.3 1.1 2.4 2.4 2.4h14.9c1.3 0 2.4-1.1 2.4-2.4v-7.6c0-1.5-1.1-2.4-2.4-2.4zM-3193-915.8h-14.9c-1.3 0-2.4 1.1-2.4 2.4v7.6c0 1.3 1.1 2.4 2.4 2.4h14.9c1.3 0 2.4-1.1 2.4-2.4v-7.6c0-1.3-1.1-2.4-2.4-2.4zM-3166.5-867.4h-14.9c-1.3 0-2.4 1.1-2.4 2.4v7.6c0 1.3 1.1 2.4 2.4 2.4h14.9c1.3 0 2.4-1.1 2.4-2.4v-7.6c.1-1.3-1-2.4-2.4-2.4zM-3166.5-891.5h-14.9c-1.3 0-2.4 1.1-2.4 2.4v7.6c0 1.3 1.1 2.4 2.4 2.4h14.9c1.3 0 2.4-1.1 2.4-2.4v-7.6c.1-1.5-1-2.4-2.4-2.4zM-3166.5-915.8h-14.9c-1.3 0-2.4 1.1-2.4 2.4v7.6c0 1.3 1.1 2.4 2.4 2.4h14.9c1.3 0 2.4-1.1 2.4-2.4v-7.6c.1-1.3-1-2.4-2.4-2.4z"/><path class="st0" d="M-2625.5-390.4l-33.7-33.9c-2.7-2.7-6.3-4.2-10.1-4.2h-60.7c-1.9 0-3.8.4-5.5 1.1-1.7.7-3.3 1.8-4.6 3.1-2.7 2.7-4.2 6.3-4.2 10.1v123.9c0 7.9 6.4 14.3 14.3 14.3h94.6c7.9 0 14.3-6.4 14.3-14.3v-90c-.1-3.9-1.7-7.4-4.4-10.1zm-38.9-21.2zm2.8 26.3c-1.2 0-2.1-.7-2.5-1.7.3 1 1.3 1.7 2.5 1.7h23.6-23.6z"/><g id="XMLID_2_"><path class="st0" d="M-3454.4-568.3v90c0 7.9-6.4 14.3-14.3 14.3h-94.6c-7.9 0-14.3-6.4-14.3-14.3v-123.9c0-3.9 1.5-7.4 4.2-10.1 1.4-1.4 2.9-2.4 4.6-3.1 1.7-.7 3.6-1.1 5.5-1.1h60.7c3.9 0 7.4 1.4 10.1 4.2l33.7 33.9c2.8 2.7 4.4 6.3 4.4 10.1zm-14.5 91.9c1.1 0 1.9-.8 1.8-1.8v-82.6h-27.8c-8.4 0-15.3-6.8-15.3-15.3v-28h-53.2c-.6 0-1 .2-1.3.5-.2.2-.5.6-.5 1.3v124c0 1 .8 1.8 1.8 1.8h94.5zm-26-96.9h23.6l-26.4-26.3v23.6c.1 1.5 1.2 2.7 2.8 2.7z"/><path class="st0" d="M-3467.1-478.2c.2 1-.6 1.8-1.8 1.8h-94.5c-1 0-1.8-.8-1.8-1.8v-124c0-.6.3-1.1.5-1.3.3-.3.6-.5 1.3-.5h53.2v28c0 8.5 6.9 15.3 15.3 15.3h27.8v82.5zm-12.5-68.4c.2-1.3-1-2.4-2.4-2.4h-14.9c-1.3 0-2.4 1.1-2.4 2.4v7.6c0 1.3 1.1 2.4 2.4 2.4h14.9c1.3 0 2.4-1.1 2.4-2.4v-7.6zm0 24.3c.2-1.4-1-2.4-2.4-2.4h-14.9c-1.3 0-2.4 1.1-2.4 2.4v7.6c0 1.3 1.1 2.4 2.4 2.4h14.9c1.3 0 2.4-1.1 2.4-2.4v-7.6zm0 24.1c.2-1.3-1-2.4-2.4-2.4h-14.9c-1.3 0-2.4 1.1-2.4 2.4v7.5c0 1.3 1.1 2.4 2.4 2.4h14.9c1.3 0 2.4-1.1 2.4-2.4v-7.5zm-26.5 7.5v-7.5c0-1.3-1.1-2.4-2.4-2.4h-14.9c-1.3 0-2.4 1.1-2.4 2.4v7.5c0 1.3 1.1 2.4 2.4 2.4h14.9c1.2 0 2.4-1.1 2.4-2.4zm0-24.1v-7.6c0-1.4-1.1-2.4-2.4-2.4h-14.9c-1.3 0-2.4 1.1-2.4 2.4v7.6c0 1.3 1.1 2.4 2.4 2.4h14.9c1.2 0 2.4-1.1 2.4-2.4zm0-24.2v-7.6c0-1.3-1.1-2.4-2.4-2.4h-14.9c-1.3 0-2.4 1.1-2.4 2.4v7.6c0 1.3 1.1 2.4 2.4 2.4h14.9c1.2 0 2.4-1.2 2.4-2.4zm-26.7 48.3v-7.5c0-1.3-1-2.4-2.4-2.4h-14.9c-1.3 0-2.4 1.1-2.4 2.4v7.5c0 1.3 1.1 2.4 2.4 2.4h14.9c1.3 0 2.4-1.1 2.4-2.4zm0-24.1v-7.6c0-1.4-1-2.4-2.4-2.4h-14.9c-1.3 0-2.4 1.1-2.4 2.4v7.6c0 1.3 1.1 2.4 2.4 2.4h14.9c1.3 0 2.4-1.1 2.4-2.4zm0-24.2v-7.6c0-1.3-1-2.4-2.4-2.4h-14.9c-1.3 0-2.4 1.1-2.4 2.4v7.6c0 1.3 1.1 2.4 2.4 2.4h14.9c1.3 0 2.4-1.2 2.4-2.4z"/><path class="st4" d="M-3471.3-573.3h-23.6c-1.6 0-2.7-1.3-2.7-2.7v-23.6l26.3 26.3zM-3482.1-549c1.4 0 2.6 1.1 2.4 2.4v7.6c0 1.3-1.1 2.4-2.4 2.4h-14.9c-1.3 0-2.4-1.1-2.4-2.4v-7.6c0-1.3 1.1-2.4 2.4-2.4h14.9zM-3482.1-524.7c1.4 0 2.6 1 2.4 2.4v7.6c0 1.3-1.1 2.4-2.4 2.4h-14.9c-1.3 0-2.4-1.1-2.4-2.4v-7.6c0-1.3 1.1-2.4 2.4-2.4h14.9zM-3482.1-500.6c1.4 0 2.6 1.1 2.4 2.4v7.5c0 1.3-1.1 2.4-2.4 2.4h-14.9c-1.3 0-2.4-1.1-2.4-2.4v-7.5c0-1.3 1.1-2.4 2.4-2.4h14.9zM-3506.1-498.2v7.5c0 1.3-1.1 2.4-2.4 2.4h-14.9c-1.3 0-2.4-1.1-2.4-2.4v-7.5c0-1.3 1.1-2.4 2.4-2.4h14.9c1.2 0 2.4 1.1 2.4 2.4zM-3506.1-522.3v7.6c0 1.3-1.1 2.4-2.4 2.4h-14.9c-1.3 0-2.4-1.1-2.4-2.4v-7.6c0-1.3 1.1-2.4 2.4-2.4h14.9c1.2 0 2.4.9 2.4 2.4zM-3506.1-546.6v7.6c0 1.3-1.1 2.4-2.4 2.4h-14.9c-1.3 0-2.4-1.1-2.4-2.4v-7.6c0-1.3 1.1-2.4 2.4-2.4h14.9c1.2 0 2.4 1.1 2.4 2.4zM-3532.8-498.2v7.5c0 1.3-1.1 2.4-2.4 2.4h-14.9c-1.3 0-2.4-1.1-2.4-2.4v-7.5c0-1.3 1.1-2.4 2.4-2.4h14.9c1.4 0 2.4 1.1 2.4 2.4zM-3532.8-522.3v7.6c0 1.3-1.1 2.4-2.4 2.4h-14.9c-1.3 0-2.4-1.1-2.4-2.4v-7.6c0-1.3 1.1-2.4 2.4-2.4h14.9c1.4 0 2.4.9 2.4 2.4zM-3532.8-546.6v7.6c0 1.3-1.1 2.4-2.4 2.4h-14.9c-1.3 0-2.4-1.1-2.4-2.4v-7.6c0-1.3 1.1-2.4 2.4-2.4h14.9c1.4 0 2.4 1.1 2.4 2.4z"/></g><path class="st0" d="M-2950.5-390.4l-33.7-33.9c-2.7-2.7-6.3-4.2-10.1-4.2h-60.7c-3.9 0-7.4 1.4-10.1 4.2s-4.2 6.3-4.2 10.1v123.9c0 7.9 6.4 14.3 14.3 14.3h94.6c7.9 0 14.3-6.4 14.3-14.3v-90c-.1-3.9-1.7-7.4-4.4-10.1zm-38.9-21.2l26.3 26.3h-23.6c-1.6 0-2.7-1.3-2.7-2.7v-23.6zm28.7 123.2h-94.5c-1 0-1.8-.8-1.8-1.8v-124c0-.6.3-1.1.5-1.3.3-.3.6-.5 1.3-.5h53.2v28c0 8.5 6.9 15.3 15.3 15.3h27.8v82.6c.2.9-.6 1.7-1.8 1.7zM-3458.8-936.2l-33.7-33.9c-2.7-2.7-6.3-4.2-10.1-4.2h-60.7c-3.9 0-7.4 1.4-10.1 4.2-2.7 2.7-4.2 6.3-4.2 10.1v123.9c0 7.9 6.4 14.3 14.3 14.3h94.6c7.9 0 14.3-6.4 14.3-14.3v-90c0-3.8-1.6-7.3-4.4-10.1zm-38.8-21.2l26.3 26.3h-23.6c-1.6 0-2.7-1.3-2.7-2.7v-23.6zm28.7 123.2h-94.5c-1 0-1.8-.8-1.8-1.8v-124c0-.6.3-1.1.5-1.3.3-.3.6-.5 1.3-.5h53.2v28c0 8.5 6.9 15.3 15.3 15.3h27.8v82.6c.2.9-.7 1.7-1.8 1.7z"/><path class="st0" d="M-3535.2-858.4h-14.9c-1.3 0-2.4 1.1-2.4 2.4v7.6c0 1.3 1.1 2.4 2.4 2.4h14.9c1.3 0 2.4-1.1 2.4-2.4v-7.6c0-1.3-1-2.4-2.4-2.4zM-3535.2-882.5h-14.9c-1.3 0-2.4 1.1-2.4 2.4v7.6c0 1.3 1.1 2.4 2.4 2.4h14.9c1.3 0 2.4-1.1 2.4-2.4v-7.6c0-1.5-1-2.4-2.4-2.4zM-3535.2-906.8h-14.9c-1.3 0-2.4 1.1-2.4 2.4v7.6c0 1.3 1.1 2.4 2.4 2.4h14.9c1.3 0 2.4-1.1 2.4-2.4v-7.6c0-1.3-1-2.4-2.4-2.4zM-3508.6-858.4h-14.9c-1.3 0-2.4 1.1-2.4 2.4v7.6c0 1.3 1.1 2.4 2.4 2.4h14.9c1.3 0 2.4-1.1 2.4-2.4v-7.6c.1-1.3-1.1-2.4-2.4-2.4zM-3508.6-882.5h-14.9c-1.3 0-2.4 1.1-2.4 2.4v7.6c0 1.3 1.1 2.4 2.4 2.4h14.9c1.3 0 2.4-1.1 2.4-2.4v-7.6c.1-1.5-1.1-2.4-2.4-2.4zM-3508.6-906.8h-14.9c-1.3 0-2.4 1.1-2.4 2.4v7.6c0 1.3 1.1 2.4 2.4 2.4h14.9c1.3 0 2.4-1.1 2.4-2.4v-7.6c.1-1.3-1.1-2.4-2.4-2.4zM-3482-858.4h-14.9c-1.3 0-2.4 1.1-2.4 2.4v7.6c0 1.3 1.1 2.4 2.4 2.4h14.9c1.3 0 2.4-1.1 2.4-2.4v-7.6c.1-1.3-1-2.4-2.4-2.4zM-3482-882.5h-14.9c-1.3 0-2.4 1.1-2.4 2.4v7.6c0 1.3 1.1 2.4 2.4 2.4h14.9c1.3 0 2.4-1.1 2.4-2.4v-7.6c.1-1.5-1-2.4-2.4-2.4zM-3482-906.8h-14.9c-1.3 0-2.4 1.1-2.4 2.4v7.6c0 1.3 1.1 2.4 2.4 2.4h14.9c1.3 0 2.4-1.1 2.4-2.4v-7.6c.1-1.3-1-2.4-2.4-2.4zM-3845-914.9l-27.5-27.6c-2.2-2.2-5.1-3.4-8.2-3.4h-49.4c-3.1 0-6 1.2-8.2 3.4-2.2 2.2-3.4 5.1-3.4 8.2v100.8c0 6.4 5.2 11.6 11.6 11.6h77c6.4 0 11.6-5.2 11.6-11.6v-73.2c0-3.1-1.3-6-3.5-8.2zm-31.7-17.3l21.4 21.4h-19.2c-1.3 0-2.2-1-2.2-2.2v-19.2zm23.4 100.3h-76.9c-.8 0-1.4-.7-1.4-1.4v-101c0-.5.3-.9.4-1 .3-.3.5-.4 1-.4h43.3v22.8c0 6.9 5.6 12.4 12.4 12.4h22.6v67.2c.2.8-.4 1.4-1.4 1.4z"/><path class="st0" d="M-3907.3-851.6h-12.2c-1 0-2 .9-2 2v6.1c0 1 .9 2 2 2h12.2c1 0 2-.9 2-2v-6.1c0-1.1-.8-2-2-2zM-3907.3-871.2h-12.2c-1 0-2 .9-2 2v6.1c0 1 .9 2 2 2h12.2c1 0 2-.9 2-2v-6.1c0-1.2-.8-2-2-2zM-3907.3-891h-12.2c-1 0-2 .9-2 2v6.1c0 1 .9 2 2 2h12.2c1 0 2-.9 2-2v-6.1c0-1.1-.8-2-2-2zM-3885.6-851.6h-12.2c-1 0-2 .9-2 2v6.1c0 1 .9 2 2 2h12.2c1 0 2-.9 2-2v-6.1c0-1.1-.9-2-2-2zM-3885.6-871.2h-12.2c-1 0-2 .9-2 2v6.1c0 1 .9 2 2 2h12.2c1 0 2-.9 2-2v-6.1c0-1.2-.9-2-2-2zM-3885.6-891h-12.2c-1 0-2 .9-2 2v6.1c0 1 .9 2 2 2h12.2c1 0 2-.9 2-2v-6.1c0-1.1-.9-2-2-2zM-3864-851.6h-12.2c-1 0-2 .9-2 2v6.1c0 1 .9 2 2 2h12.2c1 0 2-.9 2-2v-6.1c.1-1.1-.8-2-2-2zM-3864-871.2h-12.2c-1 0-2 .9-2 2v6.1c0 1 .9 2 2 2h12.2c1 0 2-.9 2-2v-6.1c.1-1.2-.8-2-2-2zM-3864-891h-12.2c-1 0-2 .9-2 2v6.1c0 1 .9 2 2 2h12.2c1 0 2-.9 2-2v-6.1c.1-1.1-.8-2-2-2z"/><path fill="none" stroke="#424242" stroke-width="12" stroke-miterlimit="10" d="M-2235.2-838.9l-47.8-47.8"/><path class="st16" d="M-2266.6-895.7l-34.6-9.3 9.3 34.7z"/><path class="st4" d="M-1939.3-907.2h-53c-17 0-30.7-13.8-30.7-30.7v-4.3c0-17 13.8-30.7 30.7-30.7h53c17 0 30.7 13.8 30.7 30.7v4.3c.1 16.9-13.7 30.7-30.7 30.7z"/><path class="st4" d="M-1915.7-960.2h11.4v26h-11.4z"/><path class="st16" d="M-2003.6-944.4c0-8.2 6.7-14.9 14.9-14.9h19.2v-9.1h-19.2c-13.2 0-24 10.7-24 24s10.7 24 24 24h19.2v-9.1h-19.2c-8.2 0-14.9-6.7-14.9-14.9zm19.7 4.8h38.4v-9.6h-38.4v9.6zm43.1-28.8h-19.2v9.1h19.2c8.2 0 14.9 6.7 14.9 14.9s-6.7 14.9-14.9 14.9h-19.2v9.1h19.2c13.2 0 24-10.7 24-24s-10.8-24-24-24z"/><path class="st0" d="M-642.7-914.2c0 .8 0 1.6-.1 2.4h-13.8c0-.8.1-1.6.1-2.4 0-4-.6-7.9-1.6-11.5-.9-3-2-5.8-3.5-8.5-.6-1.1-1.2-2.1-1.9-3.2-7.4-11-20.1-18.3-34.3-18.3v20.7l-5.8-5.8-21.8-21.9 27.6-27.6v20.7c23.5 0 43.5 14.6 51.5 35.3.1.2.1.3.2.5 1 2.6 1.8 5.2 2.3 8 .7 3.9 1.1 7.7 1.1 11.6z"/><path class="st4" d="M-943.9-908.3l-22.9-23c-1.9-1.9-4.2-2.8-6.9-2.8h-5.1v27.5c0 5.8 4.7 10.3 10.3 10.3h18.8v56c.1.6-.4 1.2-1.2 1.2h-64c-.7 0-1.2-.6-1.2-1.2V-934c-.9.1-1.7.3-2.5.6-1.2.5-2.2 1.2-3.1 2.1-1.9 1.8-2.8 4.2-2.8 6.9v84c0 5.3 4.3 9.7 9.7 9.7h64.1c5.3 0 9.7-4.4 9.7-9.7v-61c0-2.7-1.1-5.1-2.9-6.9zm-24.6 3.4c-1.1 0-1.9-.9-1.9-1.9v-16l17.9 17.9h-16z"/><path class="st4" d="M-994.2-854v5.1c0 .9-.8 1.6-1.6 1.6h-10.1c-.9 0-1.6-.8-1.6-1.6v-5.1c0-.9.8-1.6 1.6-1.6h10.1c1 0 1.6.7 1.6 1.6zM-994.2-870.3v5.1c0 .9-.8 1.6-1.6 1.6h-10.1c-.9 0-1.6-.8-1.6-1.6v-5.1c0-.9.8-1.6 1.6-1.6h10.1c1-.1 1.6.6 1.6 1.6zM-994.2-886.8v5.1c0 .9-.8 1.6-1.6 1.6h-10.1c-.9 0-1.6-.8-1.6-1.6v-5.1c0-.9.8-1.6 1.6-1.6h10.1c1 0 1.6.8 1.6 1.6zM-976.1-854v5.1c0 .9-.8 1.6-1.6 1.6h-10.1c-.9 0-1.6-.8-1.6-1.6v-5.1c0-.9.8-1.6 1.6-1.6h10.1c.9 0 1.6.7 1.6 1.6zM-976.1-870.3v5.1c0 .9-.8 1.6-1.6 1.6h-10.1c-.9 0-1.6-.8-1.6-1.6v-5.1c0-.9.8-1.6 1.6-1.6h10.1c.9-.1 1.6.6 1.6 1.6zM-976.1-886.8v5.1c0 .9-.8 1.6-1.6 1.6h-10.1c-.9 0-1.6-.8-1.6-1.6v-5.1c0-.9.8-1.6 1.6-1.6h10.1c.9 0 1.6.8 1.6 1.6zM-958.1-854v5.1c0 .9-.8 1.6-1.6 1.6h-10.1c-.9 0-1.6-.8-1.6-1.6v-5.1c0-.9.8-1.6 1.6-1.6h10.1c.9 0 1.7.7 1.6 1.6zM-958.1-870.3v5.1c0 .9-.8 1.6-1.6 1.6h-10.1c-.9 0-1.6-.8-1.6-1.6v-5.1c0-.9.8-1.6 1.6-1.6h10.1c.9-.1 1.7.6 1.6 1.6zM-958.1-886.8v5.1c0 .9-.8 1.6-1.6 1.6h-10.1c-.9 0-1.6-.8-1.6-1.6v-5.1c0-.9.8-1.6 1.6-1.6h10.1c.9 0 1.7.8 1.6 1.6zM-988.2-914.2c0 .8 0 1.6-.1 2.4h-13.8c0-.8.1-1.6.1-2.4 0-4-.6-7.9-1.6-11.5-.9-3-2-5.8-3.5-8.5-.6-1.1-1.2-2.1-1.9-3.2-7.4-11-20.1-18.3-34.3-18.3v20.7l-5.8-5.8-21.8-21.9 27.6-27.6v20.7c23.5 0 43.5 14.6 51.5 35.3.1.2.1.3.2.5 1 2.6 1.8 5.2 2.3 8 .7 3.9 1.1 7.7 1.1 11.6z"/><g><path class="st16" d="M-1312.7-908.3l-22.9-23c-1.9-1.9-4.2-2.8-6.9-2.8h-41.2c-2.6 0-5 1-6.9 2.8s-2.8 4.2-2.8 6.9v84c0 5.3 4.4 9.7 9.7 9.7h64.1c5.3 0 9.7-4.4 9.7-9.7v-61c.1-2.7-.9-5.1-2.8-6.9zm-26.4-14.4l17.9 17.9h-16c-1.1 0-1.9-.9-1.9-1.9v-16zm19.5 83.5h-64c-.7 0-1.2-.5-1.2-1.2v-84.1c0-.4.2-.8.3-.9.2-.2.4-.3.9-.3h36v18.9c0 5.8 4.7 10.3 10.3 10.3h18.8v56c.2.8-.3 1.3-1.1 1.3z"/><path class="st16" d="M-1364.5-855.6h-10.1c-.9 0-1.6.8-1.6 1.6v5.1c0 .9.8 1.6 1.6 1.6h10.1c.9 0 1.6-.8 1.6-1.6v-5.1c0-.9-.7-1.6-1.6-1.6zM-1364.5-872h-10.1c-.9 0-1.6.8-1.6 1.6v5.1c0 .9.8 1.6 1.6 1.6h10.1c.9 0 1.6-.8 1.6-1.6v-5.1c0-.9-.7-1.6-1.6-1.6zM-1364.5-888.4h-10.1c-.9 0-1.6.8-1.6 1.6v5.1c0 .9.8 1.6 1.6 1.6h10.1c.9 0 1.6-.8 1.6-1.6v-5.1c0-.8-.7-1.6-1.6-1.6zM-1346.5-855.6h-10.1c-.9 0-1.6.8-1.6 1.6v5.1c0 .9.8 1.6 1.6 1.6h10.1c.9 0 1.6-.8 1.6-1.6v-5.1c.1-.9-.7-1.6-1.6-1.6zM-1346.5-872h-10.1c-.9 0-1.6.8-1.6 1.6v5.1c0 .9.8 1.6 1.6 1.6h10.1c.9 0 1.6-.8 1.6-1.6v-5.1c.1-.9-.7-1.6-1.6-1.6zM-1346.5-888.4h-10.1c-.9 0-1.6.8-1.6 1.6v5.1c0 .9.8 1.6 1.6 1.6h10.1c.9 0 1.6-.8 1.6-1.6v-5.1c.1-.8-.7-1.6-1.6-1.6zM-1328.5-855.6h-10.1c-.9 0-1.6.8-1.6 1.6v5.1c0 .9.8 1.6 1.6 1.6h10.1c.9 0 1.6-.8 1.6-1.6v-5.1c.2-.9-.6-1.6-1.6-1.6zM-1328.5-872h-10.1c-.9 0-1.6.8-1.6 1.6v5.1c0 .9.8 1.6 1.6 1.6h10.1c.9 0 1.6-.8 1.6-1.6v-5.1c.2-.9-.6-1.6-1.6-1.6zM-1328.5-888.4h-10.1c-.9 0-1.6.8-1.6 1.6v5.1c0 .9.8 1.6 1.6 1.6h10.1c.9 0 1.6-.8 1.6-1.6v-5.1c.2-.8-.6-1.6-1.6-1.6z"/></g><path d="M-1447.8-969.7l29.9 29.9v-22.4c24.7 0 44.8 20.1 44.8 44.8 0 2.7-.3 5.4-.7 8l13 9.4c1.7-5.5 2.6-11.3 2.6-17.4 0-33-26.7-59.7-59.7-59.7v-22.4l-29.9 29.8z" fill="#fff" stroke="#fff" stroke-width="11" stroke-miterlimit="10"/><path class="st16" d="M-1439.8-962.5l27.6 27.6v-20.7c22.9 0 41.4 18.6 41.4 41.4 0 2.5-.2 5-.7 7.4l12.1 8.7c1.6-5.1 2.4-10.5 2.4-16.1 0-30.5-24.7-55.2-55.2-55.2v-20.7l-27.6 27.6z"/><path class="st4" d="M-1378.4-911.8h25.4v17h-25.4zM-1355.9-937.5h8.3v17h-8.3zM-1384.8-935.2h7.6v14.7h-7.6z"/><path class="st19" d="M-2640-383.3h-23.6c-1.6 0-2.7-1.3-2.7-2.7v-23.6l26.3 26.3z"/><path class="st0" d="M-3934.8-174.6l-33.7-33.9c-2.7-2.7-6.3-4.2-10.1-4.2h-60.7c-1.9 0-3.8.4-5.5 1.1-1.7.7-3.3 1.8-4.6 3.1-2.7 2.7-4.2 6.3-4.2 10.1v123.9c0 7.9 6.4 14.3 14.3 14.3h94.6c7.9 0 14.3-6.4 14.3-14.3v-90c-.1-3.8-1.7-7.4-4.4-10.1zm-38.9-21.2zm2.7 26.3c-1.2 0-2.1-.7-2.5-1.7.4 1 1.3 1.7 2.5 1.7h23.6-23.6z"/><path class="st19" d="M-3949.3-167.5h-23.6c-1.6 0-2.7-1.3-2.7-2.7v-23.6l26.3 26.3z"/><g><path class="st20" d="M-176.4 59.6c0 3.6 2.9 6.5 6.5 6.5h37.1l-43.6-43.6v37.1zM-188.4 88.4h-62.3v84.7H-134.6V88.4h-53.8zm-8.7 76H-242v-31h44.9v31zm0-38.1H-242V97.1h44.9v29.2zm53.8 38.1h-45.1v-31h45.1v31zm0-38.1h-45.1V97.1h45.1v29.2z"/><path d="M-188.4 133.4h45.1v31h-45.1zM-242 133.4h44.9v31H-242zM-188.4 97.1h45.1v29.2h-45.1zM-242 97.1h44.9v29.2H-242z"/><path d="M-161.9 10.4c-3.4-3.4-7.8-5.2-12.6-5.2h-75.9c-2.4 0-4.7.5-6.8 1.3-2.1.9-4.1 2.2-5.8 3.9-3.4 3.4-5.2 7.8-5.2 12.6v154.8c0 9.8 8 17.9 17.9 17.9H-132c9.8 0 17.9-8 17.9-17.9V65.4c0-4.8-2-9.2-5.4-12.6l-42.4-42.4zm27.3 86.7v76H-250.7V88.4H-134.6v8.7zm-35.3-31c-3.6 0-6.5-2.9-6.5-6.5V22.5l43.6 43.6h-37.1z"/></g><g><path d="M-477.1 43l-9.8-18.7c-.1-.3-.1-.6 0-.9l10-19c.4-.8-.4-1.7-1.2-1.2l-19 10c-.3.1-.6.1-.8 0l-18.7-9.8c-.8-.4-1.7.4-1.2 1.2l9.9 18.9c.1.3.1.6 0 .9l-9.8 18.6c-.4.8.4 1.7 1.2 1.2l18.6-9.8c.3-.1.6-.1.8 0l18.9 9.9c.6.4 1.5-.5 1.1-1.3zM-572.5 26.8l10.5.2c.2 0 .3.1.4.2l5.9 8.9c.2.4.8.2.8-.2l.2-10.6c0-.2.1-.3.2-.4l9-6c.4-.2.2-.8-.2-.8l-10.8-.2c-.2 0-.3-.1-.4-.2l-5.9-8.8c-.2-.4-.8-.2-.8.2l-.2 10.7c0 .2-.1.3-.2.4l-8.8 5.8c-.4.2-.2.8.3.8zM-463.4 77.1l-12-.2c-.2 0-.3-.1-.4-.2l-6.5-9.8c-.3-.4-.9-.2-.9.3l-.2 11.9c0 .2-.1.3-.2.4l-9.7 6.5c-.4.3-.2.9.3.9l11.7.2c.2 0 .3.1.4.2l6.6 9.9c.3.4.9.2.9-.3l.2-11.8c0-.2.1-.3.2-.4l10-6.6c.3-.3.1-.9-.4-1zM-564.5 149.2h33.7v23.1h-33.7zM-604.5 149.2h33.5v23.1h-33.5zM-564.5 122.1h33.7v21.8h-33.7zM-604.5 122.1h33.5v21.8h-33.5z"/><path d="M-544.7 57.4c-2.5-2.5-5.8-3.9-9.4-3.9h-56.6c-1.8 0-3.5.3-5.1 1-1.6.7-3.1 1.6-4.3 2.9-2.5 2.5-3.9 5.8-3.9 9.4v115.5c0 7.3 6 13.3 13.3 13.3h88.3c7.3 0 13.3-6 13.3-13.3V98.5c0-3.6-1.5-6.9-4-9.4l-31.6-31.7zm20.4 64.7v56.7H-611v-63.2h86.7v6.5zM-550.7 99c-2.7 0-4.9-2.2-4.9-4.9V66.4L-523 99h-27.7z"/></g><path class="st0" d="M-3073 96.4l-27.4-27.5c-2.2-2.2-5.1-3.4-8.2-3.4h-49.3c-1.6 0-3.1.3-4.4.9-1.4.6-2.7 1.4-3.8 2.5-2.2 2.2-3.4 5.1-3.4 8.2v100.6c0 6.4 5.2 11.6 11.6 11.6h76.8c6.4 0 11.6-5.2 11.6-11.6v-73c0-3.2-1.3-6.1-3.5-8.3zm-31.6-17.2zm2.3 21.4c-1 0-1.7-.6-2.1-1.4.3.8 1.1 1.4 2.1 1.4h19.2-19.2z"/><path class="st4" d="M-3157.6 120h74.4v4.6h-74.4zM-3157.6 144.1h74.4v4.6h-74.4zM-3157.6 169.4h74.4v4.6h-74.4z"/><path transform="rotate(90 -3085.489 147.0347)" class="st4" d="M-3112.5 144.7h54v4.6h-54z"/><path transform="rotate(90 -3120.455 147.0347)" class="st4" d="M-3147.5 144.7h54v4.6h-54z"/><path transform="rotate(90 -3155.2878 147.0347)" class="st4" d="M-3182.3 144.7h54v4.6h-54z"/><path class="st4" d="M-3109.8 76.7v24.1c0 2.3 1.9 4.2 4.2 4.2h24.1l-28.3-28.3z"/><path class="st16" d="M-1784.3 74.9L-1818 41c-2.7-2.7-6.3-4.2-10.1-4.2h-60.7c-1.9 0-3.8.4-5.5 1.1-1.7.7-3.3 1.8-4.6 3.1-2.7 2.7-4.2 6.3-4.2 10.1V175c0 7.9 6.4 14.3 14.3 14.3h94.6c7.9 0 14.3-6.4 14.3-14.3V85c-.1-3.9-1.7-7.4-4.4-10.1zm-38.9-21.2zm2.7 26.3c-1.2 0-2.1-.7-2.5-1.7.4 1 1.3 1.7 2.5 1.7h23.6-23.6z"/><path class="st4" d="M-1888.5 104h91.7v5.7h-91.7zM-1888.5 133.7h91.7v5.7h-91.7zM-1888.5 164.8h91.7v5.7h-91.7z"/><path transform="rotate(90 -1799.6999 137.2475)" class="st4" d="M-1833 134.4h66.5v5.7h-66.5z"/><path transform="rotate(90 -1842.7709 137.2475)" class="st4" d="M-1876 134.4h66.5v5.7h-66.5z"/><path transform="rotate(90 -1885.678 137.2475)" class="st4" d="M-1918.9 134.4h66.5v5.7h-66.5z"/><path class="st2" d="M-1800.8 83h-23.6c-1.6 0-2.7-1.3-2.7-2.7V56.7l26.3 26.3z"/><path class="st0" d="M-2799 74.9l-33.7-33.9c-2.7-2.7-6.3-4.2-10.1-4.2h-60.7c-1.9 0-3.8.4-5.5 1.1-1.7.7-3.3 1.8-4.6 3.1-2.7 2.7-4.2 6.3-4.2 10.1V175c0 7.9 6.4 14.3 14.3 14.3h94.6c7.9 0 14.3-6.4 14.3-14.3V85c-.1-3.9-1.7-7.4-4.4-10.1zm-38.9-21.2zm2.8 26.3c-1.2 0-2.1-.7-2.5-1.7.3 1 1.3 1.7 2.5 1.7h23.6-23.6z"/><path class="st4" d="M-2903.2 104h91.7v5.7h-91.7zM-2903.2 133.7h91.7v5.7h-91.7zM-2903.2 164.8h91.7v5.7h-91.7z"/><path transform="rotate(90 -2814.3774 137.2476)" class="st4" d="M-2847.6 134.4h66.5v5.7h-66.5z"/><path transform="rotate(90 -2857.4484 137.2476)" class="st4" d="M-2890.7 134.4h66.5v5.7h-66.5z"/><path transform="rotate(90 -2900.3556 137.2474)" class="st4" d="M-2933.6 134.4h66.5v5.7h-66.5z"/><path class="st2" d="M-2815.5 83h-23.6c-1.6 0-2.7-1.3-2.7-2.7V56.7l26.3 26.3z"/><path class="st0" d="M-3458.8-174.6l-33.7-33.9c-2.7-2.7-6.3-4.2-10.1-4.2h-60.7c-1.9 0-3.8.4-5.5 1.1-1.7.7-3.3 1.8-4.6 3.1-2.7 2.7-4.2 6.3-4.2 10.1v123.9c0 7.9 6.4 14.3 14.3 14.3h94.6c7.9 0 14.3-6.4 14.3-14.3v-90c0-3.8-1.6-7.4-4.4-10.1zm-38.8-21.2zm2.7 26.3c-1.2 0-2.1-.7-2.5-1.7.4 1 1.3 1.7 2.5 1.7h23.6-23.6z"/><path class="st4" d="M-3563-145.5h91.7v5.7h-91.7zM-3563-115.8h91.7v5.7h-91.7zM-3563-84.7h91.7v5.7h-91.7z"/><path transform="rotate(90 -3474.1406 -112.221)" class="st4" d="M-3507.4-115.1h66.5v5.7h-66.5z"/><path transform="rotate(90 -3517.2116 -112.221)" class="st4" d="M-3550.5-115.1h66.5v5.7h-66.5z"/><path transform="rotate(90 -3560.1188 -112.221)" class="st4" d="M-3593.4-115.1h66.5v5.7h-66.5z"/><path class="st2" d="M-3475.3-166.5h-23.6c-1.6 0-2.7-1.3-2.7-2.7v-23.6l26.3 26.3z"/><path class="st4" d="M-4029.6-112.9c0-7.7 6.2-13.9 13.9-13.9h18v-8.5h-18c-12.4 0-22.4 10.1-22.4 22.4s10.1 22.4 22.4 22.4h18V-99h-18c-7.7 0-13.9-6.3-13.9-13.9zm18.4 4.4h35.9v-9h-35.9v9zm40.4-26.9h-18v8.5h18c7.7 0 13.9 6.2 13.9 13.9s-6.2 13.9-13.9 13.9h-18v8.5h18c12.4 0 22.4-10.1 22.4-22.4s-10-22.4-22.4-22.4z"/><g><path class="st4" d="M-1298.9 74.9l-33.7-33.9c-2.7-2.7-6.3-4.2-10.1-4.2h-60.7c-1.9 0-3.8.4-5.5 1.1-1.7.7-3.3 1.8-4.6 3.1-2.7 2.7-4.2 6.3-4.2 10.1V175c0 7.9 6.4 14.3 14.3 14.3h94.6c7.9 0 14.3-6.4 14.3-14.3V85c-.1-3.9-1.7-7.4-4.4-10.1zm-78.9 67.5l-12.7-12.7c-8.8-8.8-8.8-23 0-31.7 8.8-8.8 23-8.8 31.7 0l12.7 12.7-6 6-12.7-12.7c-5.4-5.4-14.3-5.4-19.7 0s-5.4 14.3 0 19.7l12.7 12.7-6 6zm34.9-3.2l-6.3 6.3-25.4-25.4 6.3-6.3 25.4 25.4zm15.9 22.2c-8.8 8.8-23 8.8-31.7 0l-12.7-12.7 6-6 12.7 12.7c5.4 5.4 14.3 5.4 19.7 0s5.4-14.3 0-19.7l-12.7-12.7 6-6 12.7 12.7c8.8 8.7 8.8 22.9 0 31.7zm-12.1-75.9c-2.9 0-5.2-2.3-5.2-5.2V50.6l34.9 34.9h-29.7z"/></g><path class="st16" d="M-2223.3 74.9L-2257 41c-2.7-2.7-6.3-4.2-10.1-4.2h-60.7c-1.9 0-3.8.4-5.5 1.1-1.7.7-3.3 1.8-4.6 3.1-2.7 2.7-4.2 6.3-4.2 10.1V175c0 7.9 6.4 14.3 14.3 14.3h94.6c7.9 0 14.3-6.4 14.3-14.3V85c-.1-3.9-1.7-7.4-4.4-10.1zm-38.9-21.2zm2.7 26.3c-1.2 0-2.1-.7-2.5-1.7.4 1 1.3 1.7 2.5 1.7h23.6-23.6z"/><path class="st2" d="M-2239.9 83h-23.6c-1.6 0-2.7-1.3-2.7-2.7V56.7l26.3 26.3z"/><path class="st4" d="M-2308.9 104c5.4-5.4 14.3-5.4 19.7 0l12.7 12.7 6-6-12.7-12.7c-8.8-8.8-23-8.8-31.7 0-8.8 8.8-8.8 23 0 31.7l12.7 12.7 6-6-12.7-12.7c-5.4-5.5-5.4-14.3 0-19.7zm9.9 16.1l25.4 25.4 6.3-6.3-25.4-25.4-6.3 6.3zm47.6 9.6l-12.7-12.7-6 6 12.7 12.7c5.4 5.4 5.4 14.3 0 19.7s-14.3 5.4-19.7 0l-12.7-12.7-6 6 12.7 12.7c8.8 8.8 23 8.8 31.7 0s8.7-23 0-31.7z"/><path class="st0" d="M-2529.5 74.9l-33.7-33.9c-2.7-2.7-6.3-4.2-10.1-4.2h-60.7c-1.9 0-3.8.4-5.5 1.1-1.7.7-3.3 1.8-4.6 3.1-2.7 2.7-4.2 6.3-4.2 10.1V175c0 7.9 6.4 14.3 14.3 14.3h94.6c7.9 0 14.3-6.4 14.3-14.3V85c0-3.9-1.6-7.4-4.4-10.1zm-38.9-21.2zm2.8 26.3c-1.2 0-2.1-.7-2.5-1.7.3 1 1.3 1.7 2.5 1.7h23.6-23.6z"/><path class="st2" d="M-2546 83h-23.6c-1.6 0-2.7-1.3-2.7-2.7V56.7L-2546 83z"/><path class="st4" d="M-2615 104c5.4-5.4 14.3-5.4 19.7 0l12.7 12.7 6-6-12.7-12.7c-8.8-8.8-23-8.8-31.7 0s-8.8 23 0 31.7l12.7 12.7 6-6-12.7-12.7c-5.5-5.5-5.5-14.3 0-19.7zm9.8 16.1l25.4 25.4 6.3-6.3-25.4-25.4-6.3 6.3zm47.6 9.6l-12.7-12.7-6 6 12.7 12.7c5.4 5.4 5.4 14.3 0 19.7-5.4 5.4-14.3 5.4-19.7 0l-12.7-12.7-6 6 12.7 12.7c8.8 8.8 23 8.8 31.7 0 8.8-8.8 8.8-23 0-31.7zM-4892.5-427.9c0-7.7 6.2-13.9 13.9-13.9h18v-8.5h-18c-12.4 0-22.4 10.1-22.4 22.4 0 12.4 10.1 22.4 22.4 22.4h18v-8.5h-18c-7.6.1-13.9-6.2-13.9-13.9zm18.4 4.5h35.9v-9h-35.9v9zm40.4-26.9h-18v8.5h18c7.7 0 13.9 6.2 13.9 13.9s-6.2 13.9-13.9 13.9h-18v8.5h18c12.4 0 22.4-10.1 22.4-22.4.1-12.3-10-22.4-22.4-22.4zM-4365.9-395.3c-5.4-5.4-5.4-14.3 0-19.7l12.7-12.7-6-6-12.7 12.7c-8.8 8.8-8.8 23 0 31.7 8.8 8.8 23 8.8 31.7 0l12.7-12.7-6-6-12.7 12.7c-5.5 5.4-14.3 5.4-19.7 0zm16.2-9.9l25.4-25.4-6.3-6.3-25.4 25.4 6.3 6.3zm9.5-47.6l-12.7 12.7 6 6 12.7-12.7c5.4-5.4 14.3-5.4 19.7 0s5.4 14.3 0 19.7l-12.7 12.7 6 6 12.7-12.7c8.8-8.8 8.8-23 0-31.7-8.7-8.7-22.9-8.7-31.7 0zM-4381.6-109.4c0-7.7 6.2-13.9 13.9-13.9h18v-8.5h-18c-12.4 0-22.4 10.1-22.4 22.4S-4380-87-4367.6-87h18v-8.5h-18c-7.7 0-14-6.3-14-13.9zm18.4 4.5h35.9v-9h-35.9v9zm40.4-27h-18v8.5h18c7.7 0 13.9 6.2 13.9 13.9s-6.2 13.9-13.9 13.9h-18v8.5h18c12.4 0 22.4-10.1 22.4-22.4s-10-22.4-22.4-22.4z"/><path d="M171.6 52.8l-42.2-42.4c-3.4-3.4-7.8-5.2-12.6-5.2H40.9c-2.4 0-4.7.5-6.8 1.3-2.1.9-4.1 2.2-5.8 3.9-3.4 3.4-5.2 7.8-5.2 12.6v154.8c0 9.8 8 17.9 17.9 17.9h118.3c9.8 0 17.9-8 17.9-17.9V65.5c-.2-4.9-2.2-9.3-5.6-12.7zm-96.6 90l-16.7-16.7c-11.5-11.5-11.5-30.2 0-41.7C69.8 73 88.5 73 100 84.5l16.7 16.7-7.9 7.9-16.7-16.7c-7.1-7.1-18.7-7.1-25.8 0-7.1 7.1-7.1 18.7 0 25.8L83 134.9l-8 7.9zm45.8-4.1l-8.3 8.3-33.3-33.3 8.3-8.3 33.3 33.3zm20.9 29.1c-11.5 11.5-30.2 11.5-41.7 0l-16.7-16.7 7.9-7.9 16.7 16.7c7.1 7.1 18.7 7.1 25.8 0 7.1-7.1 7.1-18.7 0-25.8L117 117.4l7.9-7.9 16.7 16.7c11.6 11.5 11.6 30.1.1 41.6zM121.4 66.1c-3.6 0-6.5-2.9-6.5-6.5V22.5l43.6 43.6h-37.1z"/></g><g id="Layer_3"><path class="st0" d="M-2934.9-347.5v81.3c.2 1-.6 1.8-1.8 1.8h-94.5c-.4 0-.7-.1-1-.3v12.6h95.6c7.9 0 14.3-6.4 14.3-14.3v-81.1h-12.6zM-2608.8-347.5v81.3c.2 1-.6 1.8-1.8 1.8h-94.5c-.4 0-.7-.1-1-.3v12.6h95.6c7.9 0 14.3-6.4 14.3-14.3v-81.1h-12.6z"/></g></svg>