<?xml version="1.0" standalone="no"?>
<!DOCTYPE svg PUBLIC "-//W3C//DTD SVG 1.1//EN" "http://www.w3.org/Graphics/SVG/1.1/DTD/svg11.dtd" >
<svg xmlns="http://www.w3.org/2000/svg" xmlns:xlink="http://www.w3.org/1999/xlink" version="1.1">
<metadata>
Created by FontForge 20200427 at Fri Nov  6 22:08:23 2015
 By www
Copyright (c) Autodesk, Inc. 2015. All rights reserved.
</metadata>
<defs>
<font id="ArtifaktElement-Regular" horiz-adv-x="600" >
  <font-face 
    font-family="Artifakt Element"
    font-weight="400"
    font-stretch="normal"
    units-per-em="1000"
    panose-1="2 11 5 3 5 0 0 2 0 4"
    ascent="780"
    descent="-220"
    x-height="527"
    cap-height="700"
    bbox="-578 -350 1223 1050"
    underline-thickness="50"
    underline-position="-100"
    unicode-range="U+000D-1F5D8"
  />
<missing-glyph horiz-adv-x="666" 
d="M123 -200v940h420v-940h-420zM315 149q10 0 17.5 6.5t7.5 17.5v45q95 14 95 118q0 115 -111 115q-34 0 -63.5 -10t-29.5 -29q0 -23 24 -23q5 0 13 3q23 11 52 11q35 0 48 -18t13 -51q0 -41 -19 -57.5t-72 -19.5v-84q0 -11 7.5 -17.5t17.5 -6.5zM315 48q15 0 25 10.5
t10 26.5q0 15 -10 25t-25 10t-25 -10t-10 -25q0 -16 10 -26.5t25 -10.5z" />
    <glyph glyph-name="fi" unicode="fi" horiz-adv-x="634" 
d="M531 527v-527h-74v469h-262v-469h-74v469h-73v58h73v42q0 84 56 133.5t170 49.5q77 0 164 -34l-20 -54q-81 29 -147 29q-149 0 -149 -118v-48h336z" />
    <glyph glyph-name="fl" unicode="fl" horiz-adv-x="663" 
d="M606 53l9 -53q-29 -12 -59 -12q-45 0 -71 25.5t-26 72.5v597q-104 11 -135 11q-65 0 -97 -26.5t-32 -90.5v-50h144v-58h-144v-470h-74v470h-73v58h73v45q0 180 195 180q51 0 147 -12h70v-643q0 -48 41 -48q17 0 32 4z" />
    <glyph glyph-name=".notdef" horiz-adv-x="666" 
d="M123 -200v940h420v-940h-420zM315 149q10 0 17.5 6.5t7.5 17.5v45q95 14 95 118q0 115 -111 115q-34 0 -63.5 -10t-29.5 -29q0 -23 24 -23q5 0 13 3q23 11 52 11q35 0 48 -18t13 -51q0 -41 -19 -57.5t-72 -19.5v-84q0 -11 7.5 -17.5t17.5 -6.5zM315 48q15 0 25 10.5
t10 26.5q0 15 -10 25t-25 10t-25 -10t-10 -25q0 -16 10 -26.5t25 -10.5z" />
    <glyph glyph-name=".null" horiz-adv-x="0" 
 />
    <glyph glyph-name="nonmarkingreturn" horiz-adv-x="333" 
 />
    <glyph glyph-name="CR" unicode="&#xd;" horiz-adv-x="265" 
 />
    <glyph glyph-name="space" unicode=" " horiz-adv-x="265" 
 />
    <glyph glyph-name="exclam" unicode="!" horiz-adv-x="282" 
d="M100 700h82l-11 -479h-60zM141 -8q-21 0 -36.5 15t-15.5 36q0 22 15.5 37t36.5 15q22 0 37 -15t15 -37t-15 -36.5t-37 -14.5z" />
    <glyph glyph-name="quotedbl" unicode="&#x22;" horiz-adv-x="394" 
d="M80 446l-11 254h70l-11 -254h-48zM267 446l-11 254h69l-10 -254h-48z" />
    <glyph glyph-name="numbersign" unicode="#" 
d="M565 466h-86l-25 -233h87l-6 -60h-87l-19 -178l-72 5l18 173h-188l-19 -178l-72 5l18 173h-86l6 60h87l24 233h-87l7 61h87l18 173l72 -5l-17 -168h187l19 173l72 -5l-18 -168h87zM381 233l25 233h-188l-24 -233h187z" />
    <glyph glyph-name="dollar" unicode="$" horiz-adv-x="584" 
d="M360 353q78 -24 120 -60.5t42 -102.5v-22q0 -65 -54 -112t-147 -55v-111h-64v110q-125 6 -205 79l39 43q31 -22 51.5 -33.5t57.5 -21.5t84 -10q82 0 124.5 34t42.5 77v15q0 44 -28 68t-96 46l-95 30q-82 26 -118 63t-36 89v20q0 53 47 96t132 53v104h64v-101
q116 -6 199 -82l-39 -39q-79 66 -180 66q-75 0 -113 -30t-38 -68v-18q0 -32 29 -56t94 -44z" />
    <glyph glyph-name="percent" unicode="%" horiz-adv-x="912" 
d="M254 0l348 763l52 -23l-347 -763zM229 338q-74 0 -117 40t-43 108v115q0 70 43 110.5t117 40.5q70 0 112 -40.5t42 -110.5v-115q0 -67 -42 -107.5t-112 -40.5zM229 387q43 0 69.5 26.5t26.5 72.5v116q0 47 -28 74.5t-68 27.5q-47 0 -74.5 -26.5t-27.5 -75.5v-116
q0 -47 27.5 -73t74.5 -26zM689 -12q-74 0 -116.5 40t-42.5 109v115q0 70 42.5 110t116.5 40q71 0 112.5 -40.5t41.5 -109.5v-115q0 -68 -41.5 -108.5t-112.5 -40.5zM689 37q43 0 69.5 26.5t26.5 72.5v117q0 47 -28 74t-68 27q-47 0 -74 -26.5t-27 -74.5v-117q0 -47 27 -73
t74 -26z" />
    <glyph glyph-name="ampersand" unicode="&#x26;" horiz-adv-x="693" 
d="M667 0h-90l-82 84q-49 -54 -97.5 -75t-123.5 -21q-100 0 -161.5 51t-61.5 135v45q0 62 33.5 103.5t106.5 73.5q-33 34 -47.5 51t-26 42t-11.5 54v31q0 61 50.5 99.5t134.5 38.5q81 0 129 -39t48 -96v-29q0 -54 -37 -92.5t-133 -75.5l190 -196l102 206l60 -26l-115 -228z
M179 570v-20q0 -33 16 -57.5t62 -71.5q81 30 110 58t29 72v22q0 37 -28.5 60t-77.5 23q-52 0 -81.5 -22.5t-29.5 -63.5zM275 49q60 0 100 18t77 62l-221 225q-54 -23 -80 -54.5t-26 -86.5v-34q0 -60 41.5 -95t108.5 -35z" />
    <glyph glyph-name="quotesingle" unicode="'" horiz-adv-x="207" 
d="M80 446l-11 254h70l-11 -254h-48z" />
    <glyph glyph-name="parenleft" unicode="(" horiz-adv-x="400" 
d="M157 170q0 -109 32.5 -179.5t126.5 -162.5l-44 -40q-105 92 -147 174.5t-42 207.5v200q0 125 42 207.5t147 174.5l44 -40q-94 -92 -126.5 -162.5t-32.5 -179.5v-200z" />
    <glyph glyph-name="parenright" unicode=")" horiz-adv-x="400" 
d="M128 752q105 -92 147 -174.5t42 -207.5v-200q0 -125 -42 -207.5t-147 -174.5l-44 40q94 92 126.5 162.5t32.5 179.5v200q0 109 -32.5 179.5t-126.5 162.5z" />
    <glyph glyph-name="asterisk" unicode="*" horiz-adv-x="435" 
d="M410 579l-152 -42l97 -124l-50 -37l-88 130l-87 -130l-50 36l97 125l-151 42l19 57l147 -53l-6 157h63l-6 -157l147 54z" />
    <glyph glyph-name="plus" unicode="+" 
d="M482 373v-61h-150v-152h-64v152h-150v61h150v151h64v-151h150z" />
    <glyph glyph-name="comma" unicode="," horiz-adv-x="254" 
d="M84 -165l-30 23q47 66 52 139q-29 15 -29 47q0 21 15.5 36t36.5 15q22 0 36.5 -14.5t14.5 -36.5q0 -101 -96 -209z" />
    <glyph glyph-name="hyphen" unicode="-" horiz-adv-x="435" 
d="M361 373v-61h-287v61h287z" />
    <glyph glyph-name="period" unicode="." horiz-adv-x="251" 
d="M126 -8q-22 0 -37 14.5t-15 36.5t15.5 37t36.5 15q22 0 36.5 -15t14.5 -37t-14.5 -36.5t-36.5 -14.5z" />
    <glyph glyph-name="slash" unicode="/" horiz-adv-x="400" 
d="M68 -160l-63 20l326 900l64 -20z" />
    <glyph glyph-name="zero" unicode="0" horiz-adv-x="635" 
d="M322 -12q-115 0 -180 64t-65 178v237q0 116 65 180.5t180 64.5q109 0 172.5 -64.5t63.5 -180.5v-237q0 -114 -64 -178t-172 -64zM322 50q72 0 116.5 46t44.5 133v240q0 89 -44.5 136t-116.5 47q-79 0 -124.5 -47t-45.5 -136v-240q0 -88 45.5 -133.5t124.5 -45.5z" />
    <glyph glyph-name="one" unicode="1" horiz-adv-x="450" 
d="M284 60h129v-60h-201h-148v60h148v553l-131 -73l-29 52l178 108h54v-640z" />
    <glyph glyph-name="two" unicode="2" horiz-adv-x="518" 
d="M119 63h348v-63h-421v44q0 89 32.5 144.5t99.5 103.5l104 75q59 41 82 69.5t23 71.5v27q0 47 -38 81.5t-105 34.5q-93 0 -180 -66l-35 46q96 81 217 81q97 0 156.5 -52t59.5 -124v-29q0 -54 -34 -99t-113 -99l-88 -61q-62 -42 -84 -82.5t-24 -102.5z" />
    <glyph glyph-name="three" unicode="3" horiz-adv-x="579" 
d="M272 -12q-87 0 -142.5 27.5t-98.5 76.5l45 43q77 -86 192 -86q75 0 123.5 35.5t48.5 102.5v30q0 44 -27.5 73.5t-62.5 40.5t-74 11h-69v59h69q58 0 99 27t41 81v25q0 59 -42 88.5t-107 29.5q-98 0 -186 -81l-42 43q100 98 232 98q93 0 155.5 -47t62.5 -124v-35
q0 -49 -37.5 -85.5t-87.5 -44.5q54 -6 102.5 -48t48.5 -104v-41q0 -84 -69 -139.5t-174 -55.5z" />
    <glyph glyph-name="four" unicode="4" horiz-adv-x="581" 
d="M374 0v156h-337v53l263 491h75l-258 -483h258l14 206l59 1v-207h99v-61h-99v-156h-74z" />
    <glyph glyph-name="five" unicode="5" horiz-adv-x="564" 
d="M286 436q101 0 161 -53.5t60 -132.5v-66q0 -83 -67.5 -139.5t-170.5 -56.5q-84 0 -138.5 29t-99.5 84l48 40q40 -46 82 -68.5t106 -22.5q73 0 119.5 37t46.5 102v54q0 62 -47 97t-124 35q-54 0 -117 -21h-53v346h378v-64h-304v-220q52 20 120 20z" />
    <glyph glyph-name="six" unicode="6" horiz-adv-x="575" 
d="M331 459q93 0 145 -57.5t52 -145.5v-43q0 -95 -60.5 -160t-171.5 -65q-108 0 -173 74.5t-65 192.5v51q0 195 101.5 296.5t292.5 109.5v-62q-301 -14 -319 -287q71 96 198 96zM454 215v39q0 66 -34 105.5t-102 39.5q-59 0 -103 -26t-83 -81v-35q0 -98 44.5 -152.5
t120.5 -54.5q78 0 117.5 45t39.5 120z" />
    <glyph glyph-name="seven" unicode="7" horiz-adv-x="504" 
d="M468 700v-66l-279 -634h-78l284 637h-376v63h449z" />
    <glyph glyph-name="eight" unicode="8" horiz-adv-x="611" 
d="M396 381q75 -23 116 -61.5t41 -106.5v-48q0 -78 -69.5 -127.5t-178.5 -49.5q-111 0 -178.5 49.5t-67.5 129.5v49q0 55 39.5 90.5t116.5 59.5q-64 20 -94 53.5t-30 90.5v44q0 68 59.5 113t153.5 45q95 0 156 -44.5t61 -113.5v-44q0 -47 -30 -78t-95 -51zM164 514
q0 -42 28.5 -64.5t88.5 -38.5l41 -10h1q65 22 95 45t30 62v39q0 52 -43 80t-102 28q-58 0 -98.5 -26t-40.5 -76v-39zM478 167v47q0 48 -36.5 74t-103.5 45l-47 12l-5 -2q-37 -12 -59.5 -21t-46.5 -23.5t-35 -34.5t-11 -46v-48q0 -57 47 -89t125 -32q76 0 124 32t48 86z" />
    <glyph glyph-name="nine" unicode="9" horiz-adv-x="574" 
d="M282 712q111 0 173 -73.5t62 -193.5v-51q0 -196 -103.5 -297t-304.5 -109v63q316 14 332 287q-72 -97 -196 -97q-93 0 -145.5 57.5t-52.5 145.5v43q0 95 61 160t174 65zM256 300q61 0 104 26t82 82v35q0 100 -41 153.5t-121 53.5q-79 0 -119 -45t-40 -120v-39
q0 -65 34.5 -105.5t100.5 -40.5z" />
    <glyph glyph-name="colon" unicode=":" horiz-adv-x="251" 
d="M126 405q-22 0 -37 15t-15 37q0 21 15.5 36t36.5 15q22 0 36.5 -15t14.5 -36q0 -22 -14.5 -37t-36.5 -15zM126 -8q-22 0 -37 14.5t-15 36.5t15.5 37t36.5 15q22 0 36.5 -15t14.5 -37t-14.5 -36.5t-36.5 -14.5z" />
    <glyph glyph-name="semicolon" unicode=";" horiz-adv-x="254" 
d="M126 405q-22 0 -37 15t-15 37q0 21 15.5 36t36.5 15q22 0 36.5 -15t14.5 -36q0 -22 -14.5 -37t-36.5 -15zM84 -165l-30 23q47 66 52 139q-29 15 -29 47q0 21 15.5 36t36.5 15q22 0 36.5 -14.5t14.5 -36.5q0 -101 -96 -209z" />
    <glyph glyph-name="less" unicode="&#x3c;" 
d="M454 141l-336 168v68l336 168l29 -58l-294 -144l294 -147z" />
    <glyph glyph-name="equal" unicode="=" 
d="M482 469v-58h-364v58h364zM482 273v-59h-364v59h364z" />
    <glyph glyph-name="greater" unicode="&#x3e;" 
d="M146 141l-29 55l294 147l-294 144l29 58l336 -168v-68z" />
    <glyph glyph-name="question" unicode="?" horiz-adv-x="471" 
d="M170 221v34q0 41 19.5 74t47 54.5t55 40.5t47 43.5t19.5 52.5v27q0 46 -34.5 75t-91.5 29q-48 0 -85 -15t-84 -50l-36 46q96 80 211 80q88 0 142.5 -46t54.5 -115v-29q0 -39 -20 -69.5t-48.5 -50.5t-56.5 -39.5t-48 -47t-20 -62.5v-32h-72zM207 -8q-22 0 -37 14.5
t-15 36.5t15.5 37t36.5 15q22 0 36.5 -15t14.5 -37t-14.5 -36.5t-36.5 -14.5z" />
    <glyph glyph-name="at" unicode="@" horiz-adv-x="1024" 
d="M525 712q184 0 287.5 -101.5t103.5 -246.5v-91q0 -81 -42.5 -136.5t-113.5 -55.5q-49 0 -80 21.5t-43 55.5q-62 -71 -154 -71q-71 0 -111.5 46t-40.5 127v58q0 94 49.5 145t143.5 51q85 0 154 -45l-1 -225q0 -53 18 -80t64 -27q43 0 67 39t24 106v75q0 134 -84 217
t-241 83q-159 0 -250.5 -88t-91.5 -213v-130q0 -144 88.5 -219.5t235.5 -75.5q98 0 188 35l19 -52q-102 -38 -208 -38q-175 0 -282.5 90t-107.5 254v136q0 145 112 250.5t297 105.5zM490 142q72 0 123 55l1 242q-38 21 -88 21q-66 0 -97 -35.5t-31 -110.5v-51
q0 -63 22.5 -92t69.5 -29z" />
    <glyph glyph-name="A" unicode="A" horiz-adv-x="632" 
d="M522 0l-72 216h-273l-68 -216h-77l229 700h103l236 -700h-78zM312 645l-115 -367h233z" />
    <glyph glyph-name="B" unicode="B" horiz-adv-x="645" 
d="M429 360q55 -6 97.5 -42t42.5 -103v-43q0 -79 -69.5 -125.5t-190.5 -46.5h-112h-74v700h76h117q106 0 168.5 -43.5t62.5 -123.5v-44q0 -54 -34.5 -88t-84.5 -41h1zM318 641h-119v-258h148q57 0 91 28.5t34 78.5v39q0 55 -41.5 83.5t-112.5 28.5zM494 175v40
q0 51 -39.5 80t-103.5 29h-152v-265h112q89 0 136 29.5t47 86.5z" />
    <glyph glyph-name="C" unicode="C" horiz-adv-x="580" 
d="M340 -12q-123 0 -191 71t-68 190v185q0 127 70.5 202.5t193.5 75.5q113 0 199 -75l-40 -45q-72 59 -157 59q-91 0 -141 -57t-50 -158v-185q0 -96 47.5 -149t137.5 -53t163 56l33 -48q-85 -69 -197 -69z" />
    <glyph glyph-name="D" unicode="D" horiz-adv-x="685" 
d="M322 700q138 0 210.5 -75.5t72.5 -204.5v-122q0 -139 -80 -218.5t-228 -79.5h-128h-46v700h75h124zM530 296v126q0 102 -54 159.5t-158 57.5h-120v-578h99q115 0 174 60t59 175z" />
    <glyph glyph-name="E" unicode="E" horiz-adv-x="582" 
d="M502 639h-304v-248h282v-62h-282v-268h304v-61h-377h-2v700h75h304v-61z" />
    <glyph glyph-name="F" unicode="F" horiz-adv-x="537" 
d="M513 639h-315v-258h273v-61h-273v-320h-75v700h75h315v-61z" />
    <glyph glyph-name="G" unicode="G" horiz-adv-x="667" 
d="M579 373v-373h-61l-6 74q-76 -86 -196 -86q-105 0 -170 67t-65 182v191q0 128 70.5 206t195.5 78q145 0 222 -104l-50 -37q-30 40 -70 60t-102 20q-94 0 -142.5 -59t-48.5 -162v-190q0 -89 45.5 -140t129.5 -51q117 0 175 98v165h-185v61h258z" />
    <glyph glyph-name="H" unicode="H" horiz-adv-x="745" 
d="M621 700v-700h-75v332h-348v-332h-75v700h75v-305h348v305h75z" />
    <glyph glyph-name="I" unicode="I" horiz-adv-x="409" 
d="M326 639h-84v-578h84v-61h-159h-83v61h83v578h-83v61h158h84v-61z" />
    <glyph glyph-name="J" unicode="J" horiz-adv-x="523" 
d="M424 700v-501q0 -98 -53 -154.5t-148 -56.5q-111 0 -182 65l37 45q66 -49 140 -49q60 0 95.5 37.5t35.5 110.5v442h-271v61h346z" />
    <glyph glyph-name="K" unicode="K" horiz-adv-x="641" 
d="M538 0l-249 331l-94 -118v-213h-72v700h72v-385l307 385h82l-249 -316l290 -384h-87z" />
    <glyph glyph-name="L" unicode="L" horiz-adv-x="513" 
d="M198 64h303v-64h-376h-2v700h75v-636z" />
    <glyph glyph-name="M" unicode="M" horiz-adv-x="873" 
d="M655 700h94v-700h-72v587l-200 -486l1 -1h-85l-201 495v-595h-69v700h99l216 -537l218 536z" />
    <glyph glyph-name="N" unicode="N" horiz-adv-x="741" 
d="M550 700h68v-700h-90l-337 606v-606h-68v700h91l336 -605v605z" />
    <glyph glyph-name="O" unicode="O" horiz-adv-x="706" 
d="M353 712q136 0 204 -79t68 -208v-154q0 -125 -68.5 -204t-203.5 -79t-203.5 79t-68.5 204v154q0 130 68.5 208.5t203.5 78.5zM353 651q-99 0 -148 -61t-49 -164v-157q0 -98 49 -159t148 -61t148 61t49 159v157q0 102 -48.5 163.5t-148.5 61.5z" />
    <glyph glyph-name="P" unicode="P" horiz-adv-x="608" 
d="M326 700q110 0 174.5 -51t64.5 -144v-54q0 -93 -68 -145t-188 -52h-111v-254h-75v700h75h128zM490 454v47q0 68 -44 103t-122 35h-126v-324h109q183 0 183 139z" />
    <glyph glyph-name="Q" unicode="Q" horiz-adv-x="709" 
d="M635 -62l-51 -39l-93 119q-56 -30 -137 -30q-136 0 -204.5 77t-68.5 206v156q0 132 69 208.5t204 76.5q137 0 205.5 -77t68.5 -208v-163q0 -139 -85 -211zM354 48q58 0 100 17l-71 90l50 37l73 -92q47 51 47 151v178q0 103 -49 162.5t-150 59.5q-100 0 -149 -59t-49 -163
v-163q0 -101 49 -159.5t149 -58.5z" />
    <glyph glyph-name="R" unicode="R" horiz-adv-x="657" 
d="M594 0h-83l-160 297q-3 0 -9.5 -0.5t-10.5 -0.5h-133v-296h-75v700h75h131q109 0 173.5 -48.5t64.5 -131.5v-46q0 -61 -37.5 -103.5t-103.5 -61.5zM330 357q76 0 118.5 31t42.5 88v42q0 57 -44 89t-119 32h-130v-282h132z" />
    <glyph glyph-name="S" unicode="S" horiz-adv-x="607" 
d="M289 -12q-155 0 -244 89l40 47q33 -25 54.5 -37.5t60.5 -23.5t89 -11q86 0 130.5 38t44.5 86v16q0 49 -29 76t-101 51l-100 33q-86 29 -124 70.5t-38 98.5v22q0 67 62 118t172 51q139 0 230 -91l-40 -44q-44 39 -87.5 56.5t-101.5 17.5q-79 0 -119.5 -33.5t-40.5 -74.5
v-21q0 -35 30.5 -62t99.5 -49l91 -29q83 -27 127 -68t44 -114v-25q0 -79 -67.5 -133t-182.5 -54z" />
    <glyph glyph-name="T" unicode="T" horiz-adv-x="538" 
d="M515 700v-62h-209v-638h-75v638h-208v62h492z" />
    <glyph glyph-name="U" unicode="U" horiz-adv-x="704" 
d="M605 700v-474q0 -105 -63.5 -171.5t-190.5 -66.5q-126 0 -189.5 66.5t-63.5 171.5v474h75v-475q0 -80 43.5 -128t134.5 -48q92 0 135.5 48t43.5 128v475h75z" />
    <glyph glyph-name="V" unicode="V" horiz-adv-x="625" 
d="M265 0l-233 700h79l205 -636l199 636h78l-225 -700h-103z" />
    <glyph glyph-name="W" unicode="W" horiz-adv-x="878" 
d="M751 700h75l-129 -700h-108l-152 633l-151 -633h-109l-130 700h77l111 -638l154 638h98h1l155 -638z" />
    <glyph glyph-name="X" unicode="X" horiz-adv-x="620" 
d="M598 0h-85l-203 321l-204 -321h-84l240 374l-216 326h85l180 -273l182 273h82l-218 -322z" />
    <glyph glyph-name="Y" unicode="Y" horiz-adv-x="564" 
d="M548 700l-228 -408v-292h-75v292l-229 408h80l188 -345l187 345h77z" />
    <glyph glyph-name="Z" unicode="Z" horiz-adv-x="559" 
d="M504 700v-57l-369 -581h377v-62h-460v59l369 580h-353v61h436z" />
    <glyph glyph-name="bracketleft" unicode="[" horiz-adv-x="400" 
d="M98 -200v940h203v-61h-129v-818h129v-61h-203z" />
    <glyph glyph-name="backslash" unicode="\" horiz-adv-x="400" 
d="M332 -160l-327 900l64 20l326 -900z" />
    <glyph glyph-name="bracketright" unicode="]" horiz-adv-x="400" 
d="M302 -200h-203v61h129v818h-129v61h203v-940z" />
    <glyph glyph-name="asciicircum" unicode="^" 
d="M336 700l176 -304h-75l-138 245l-136 -245h-74l176 304h71z" />
    <glyph glyph-name="underscore" unicode="_" 
d="M555 -75v-60h-485v60h485z" />
    <glyph glyph-name="grave" unicode="`" horiz-adv-x="400" 
d="M288 611l-196 89l26 53l191 -99z" />
    <glyph glyph-name="a" unicode="a" horiz-adv-x="556" 
d="M276 539q93 0 140 -47t47 -130v-362h-61l-5 62q-67 -74 -173 -74q-70 0 -120 40t-50 107v33q0 69 57.5 110.5t155.5 41.5h122v44q0 115 -118 115q-77 0 -159 -42l-24 50q88 52 188 52zM236 46q97 0 153 74v147h-117q-69 0 -106.5 -27t-37.5 -78v-22q0 -43 29.5 -68.5
t78.5 -25.5z" />
    <glyph glyph-name="b" unicode="b" horiz-adv-x="597" 
d="M334 539q91 0 145 -68t54 -180v-52q0 -107 -61.5 -179t-153.5 -72q-87 0 -148 64l-7 -52h-60v740h74v-270q60 69 157 69zM459 237v55q0 90 -35.5 138.5t-100.5 48.5q-91 0 -146 -78v-291q53 -63 132 -63q67 0 108.5 51.5t41.5 138.5z" />
    <glyph glyph-name="c" unicode="c" horiz-adv-x="492" 
d="M285 -12q-106 0 -165 70t-59 184v44q0 113 58.5 183t166.5 70q96 0 165 -66l-38 -42q-54 48 -125 48q-73 0 -113 -51t-40 -140v-47q0 -91 39 -142t112 -51q63 0 126 46l34 -48q-72 -58 -161 -58z" />
    <glyph glyph-name="d" unicode="d" horiz-adv-x="599" 
d="M422 740h74v-740h-60l-8 67q-60 -79 -157 -79q-94 0 -150.5 69t-56.5 180v51q0 107 58 179t154 72q88 0 146 -59v260zM281 47q86 0 141 84v284q-49 64 -136 64q-70 0 -109 -52t-39 -137v-55q0 -89 38 -138.5t105 -49.5z" />
    <glyph glyph-name="e" unicode="e" horiz-adv-x="557" 
d="M497 241h-364v-2q0 -92 45 -142t126 -50q69 0 144 49l29 -48q-77 -60 -177 -60q-110 0 -174.5 70.5t-64.5 180.5v52q0 106 61 177t163 71q101 0 158 -66.5t57 -184.5q0 -29 -3 -47zM285 480q-71 0 -111 -49.5t-41 -135.5h300v7q0 83 -38.5 130.5t-109.5 47.5z" />
    <glyph glyph-name="f" unicode="f" horiz-adv-x="369" 
d="M288 693q-93 0 -93 -88v-78h144v-58h-144v-469h-74v469h-73v58h73v72q0 73 41 113t118 40q48 0 86 -12l-10 -56q-36 9 -68 9z" />
    <glyph glyph-name="g" unicode="g" horiz-adv-x="597" 
d="M431 530h62v-543q0 -93 -57.5 -146t-154.5 -53q-104 0 -182 48l26 48q72 -37 151 -37q71 0 108.5 36t37.5 107v86q-64 -76 -158 -76q-87 0 -143.5 60.5t-56.5 184.5v47q0 120 60.5 183.5t147.5 63.5q93 0 153 -69zM273 59q89 0 146 83v263q-49 74 -136 74
q-65 0 -105 -43.5t-40 -141.5v-48q0 -187 135 -187z" />
    <glyph glyph-name="h" unicode="h" horiz-adv-x="606" 
d="M344 539q76 0 122.5 -46t46.5 -130v-363h-74v357q0 122 -111 122q-94 0 -151 -94v-385h-74v740h74v-280q59 79 167 79z" />
    <glyph glyph-name="i" unicode="i" horiz-adv-x="296" 
d="M152 630q-20 0 -33.5 14t-13.5 34t13.5 33.5t33.5 13.5t34 -13.5t14 -33.5t-14 -34t-34 -14zM36 527h157v-527h-74v469h-83v58z" />
    <glyph glyph-name="j" unicode="j" horiz-adv-x="305" 
d="M163 630q-20 0 -33.5 14t-13.5 34t14 33.5t33 13.5q20 0 34 -13.5t14 -33.5t-14 -34t-34 -14zM202 527v-629q0 -53 -29.5 -81.5t-81.5 -28.5q-36 0 -60 12l7 51q22 -6 38 -6q28 0 40 13t12 44v567h-75v58h149z" />
    <glyph glyph-name="k" unicode="k" horiz-adv-x="532" 
d="M441 0l-195 271l-69 -75v-196h-74v740h74v-455l225 242h87l-194 -208l231 -319h-85z" />
    <glyph glyph-name="l" unicode="l" horiz-adv-x="298" 
d="M167 740v-643q0 -48 42 -48q16 0 31 4l10 -53q-29 -12 -60 -12q-45 0 -71 25.5t-26 72.5v654h74z" />
    <glyph glyph-name="m" unicode="m" horiz-adv-x="879" 
d="M630 539q66 0 111 -45.5t45 -126.5v-367h-74v360q0 61 -27 90.5t-71 29.5q-79 0 -133 -94v-386h-74v366q0 56 -26.5 85t-70.5 29q-80 0 -133 -94v-386h-74v527h63l6 -69q58 81 153 81q47 0 85 -23.5t56 -67.5q62 91 164 91z" />
    <glyph glyph-name="n" unicode="n" horiz-adv-x="606" 
d="M344 539q76 0 122.5 -46t46.5 -130v-363h-74v357q0 122 -111 122q-93 0 -151 -93v-386h-74v527h63l6 -70q63 82 172 82z" />
    <glyph glyph-name="o" unicode="o" horiz-adv-x="591" 
d="M295 539q112 0 174 -69t62 -179v-52q0 -112 -62 -181.5t-174 -69.5t-173 69t-61 182v52q0 110 61 179t173 69zM295 479q-78 0 -119 -49.5t-41 -137.5v-52q0 -91 41 -142t119 -51q77 0 119.5 51t42.5 142v52q0 87 -42.5 137t-119.5 50z" />
    <glyph glyph-name="p" unicode="p" horiz-adv-x="597" 
d="M333 539q90 0 145 -69t55 -182v-48q0 -108 -61 -180t-155 -72q-81 0 -140 53v-241h-74v730h63l6 -64q59 73 161 73zM459 238v52q0 90 -36.5 139.5t-102.5 49.5q-93 0 -143 -78v-299q55 -55 130 -55q70 0 111 51.5t41 139.5z" />
    <glyph glyph-name="q" unicode="q" horiz-adv-x="599" 
d="M433 527h63v-727h-74v259q-60 -71 -152 -71t-149 69.5t-57 180.5v53q0 106 58 177t155 71q91 0 151 -63zM282 47q82 0 140 78v291q-47 63 -135 63q-70 0 -109.5 -51.5t-39.5 -135.5v-56q0 -89 38 -139t106 -50z" />
    <glyph glyph-name="r" unicode="r" horiz-adv-x="398" 
d="M317 536q29 0 58 -9l-13 -70q-13 4 -36 4q-110 0 -149 -128v-333h-74v527h56l12 -95q22 53 61 78.5t85 25.5z" />
    <glyph glyph-name="s" unicode="s" horiz-adv-x="507" 
d="M248 -12q-118 0 -203 68l38 48q70 -57 159 -57q61 0 94.5 21.5t33.5 62.5v8q0 36 -21.5 55.5t-80.5 39.5l-70 25q-67 23 -98 53t-31 78v17q0 58 52 95t131 37q111 0 187 -64l-37 -44q-70 48 -149 48q-51 0 -80.5 -19t-29.5 -52v-8q0 -30 22 -49t79 -39l70 -25
q66 -23 98 -53.5t32 -86.5v-17q0 -66 -55.5 -104t-140.5 -38z" />
    <glyph glyph-name="t" unicode="t" horiz-adv-x="391" 
d="M338 55l9 -55q-42 -12 -81 -12q-136 0 -136 123v358h-84v58h86l6 125h66v-125h127v-58h-127v-355q0 -67 75 -67q27 0 59 8z" />
    <glyph glyph-name="u" unicode="u" horiz-adv-x="605" 
d="M428 527h74v-527h-63l-6 74q-70 -86 -174 -86q-72 0 -119 43.5t-47 115.5v380h74v-377q0 -49 28 -76t78 -27q95 0 155 94v386z" />
    <glyph glyph-name="v" unicode="v" horiz-adv-x="546" 
d="M503 527l-185 -527h-90l-185 527h78l153 -465l154 465h75z" />
    <glyph glyph-name="w" unicode="w" horiz-adv-x="782" 
d="M657 527h74l-120 -527h-98l-121 462l-124 -462h-96l-121 527h74l99 -463l124 463h90l124 -463z" />
    <glyph glyph-name="x" unicode="x" horiz-adv-x="529" 
d="M492 0h-84l-144 220l-147 -220h-80l180 264l-173 263h82l138 -221h1l139 221h80l-173 -262z" />
    <glyph glyph-name="y" unicode="y" horiz-adv-x="540" 
d="M141 -212q-36 0 -60 11l11 51q26 -6 50 -6q36 0 58 19.5t39 71.5l21 65h-34l-183 527h78l157 -472l145 472h74l-193 -597q-27 -82 -65.5 -112t-97.5 -30z" />
    <glyph glyph-name="z" unicode="z" horiz-adv-x="457" 
d="M408 527v-55l-282 -412h290v-60h-372v56l282 411h-268v60h350z" />
    <glyph glyph-name="braceleft" unicode="{" horiz-adv-x="400" 
d="M330 -212q-86 10 -130 44.5t-44 108.5v211q0 87 -101 88v61q101 1 101 88v210q0 74 44 108.5t130 44.5l9 -54q-54 -10 -81 -33t-27 -69v-209q0 -51 -31.5 -81.5t-81.5 -35.5q50 -5 81.5 -35.5t31.5 -81.5v-209q0 -46 27 -69t81 -33z" />
    <glyph glyph-name="bar" unicode="|" horiz-adv-x="400" 
d="M163 -80v820h74v-820h-74z" />
    <glyph glyph-name="braceright" unicode="}" horiz-adv-x="400" 
d="M87 -212l-10 54q55 9 81.5 32.5t26.5 69.5v209q0 51 31.5 81.5t81.5 35.5q-50 5 -81.5 35.5t-31.5 81.5v209q0 46 -26.5 69.5t-81.5 32.5l10 54q85 -10 129 -44.5t44 -108.5v-210q0 -87 102 -88v-61q-102 -1 -102 -88v-211q0 -74 -44 -108.5t-129 -44.5z" />
    <glyph glyph-name="asciitilde" unicode="~" 
d="M378 281q-39 0 -85.5 31t-68.5 31q-42 0 -74 -52l-45 21q43 82 120 82q37 0 84 -30t70 -30q45 0 72 47l44 -22q-40 -78 -117 -78z" />
    <glyph glyph-name="uni00A0" unicode="&#xa0;" horiz-adv-x="265" 
 />
    <glyph glyph-name="exclamdown" unicode="&#xa1;" horiz-adv-x="282" 
d="M141 508q21 0 36.5 -15t15.5 -36q0 -22 -15.5 -37t-36.5 -15q-22 0 -37 15t-15 37t15 36.5t37 14.5zM181 -200h-82l12 479h60z" />
    <glyph glyph-name="cent" unicode="&#xa2;" horiz-adv-x="583" 
d="M446 94l33 -48q-60 -48 -136 -57v-99h-65v101q-88 13 -136 81t-48 170v44q0 101 47.5 168.5t136.5 81.5v103h65v-101q80 -7 142 -65l-38 -42q-54 48 -125 48q-74 0 -114 -51t-40 -140v-47q0 -91 39.5 -142t112.5 -51q62 0 126 46z" />
    <glyph glyph-name="sterling" unicode="&#xa3;" horiz-adv-x="589" 
d="M232 261q0 -92 -72 -199h364v-62h-436v62q71 98 71 195q0 28 -7 63h-59v43h47q-3 10 -10.5 32.5t-10.5 34t-6.5 28.5t-3.5 31v32q0 73 60.5 132t159.5 59q106 0 203 -77l-36 -47q-47 35 -83.5 49t-80.5 14q-69 0 -108 -41.5t-39 -90.5v-29q0 -16 3.5 -34t6.5 -29
t10.5 -33t10.5 -31h252v-43h-241q5 -30 5 -59z" />
    <glyph glyph-name="currency" unicode="&#xa4;" 
d="M501 341q0 -73 -44 -126l76 -74l-40 -39l-77 75q-50 -33 -118 -33q-65 0 -115 35l-76 -77l-40 39l76 76q-43 53 -43 124q0 70 42 121l-75 78l40 39l75 -78q52 36 116 36q68 0 119 -35l76 77l40 -39l-74 -76q42 -55 42 -123zM300 202q59 0 96 37.5t37 101.5
q0 63 -36.5 101.5t-96.5 38.5q-59 0 -96 -38.5t-37 -101.5q0 -64 37.5 -101.5t95.5 -37.5z" />
    <glyph glyph-name="yen" unicode="&#xa5;" horiz-adv-x="564" 
d="M536 700l-202 -378h136v-43h-152v-87h152v-43h-152v-149h-71v149h-152v43h152v87h-152v43h135l-202 378h79l177 -347l176 347h76z" />
    <glyph glyph-name="brokenbar" unicode="&#xa6;" horiz-adv-x="400" 
d="M163 420v320h74v-320h-74zM163 -80v320h74v-320h-74z" />
    <glyph glyph-name="section" unicode="&#xa7;" 
d="M498 343q0 -96 -104 -134q82 -39 82 -112v-18q0 -58 -51.5 -94.5t-131.5 -36.5q-110 0 -186 64l35 44q70 -50 150 -50q51 0 80.5 19.5t29.5 52.5v9q0 30 -22 49t-79 40l-70 24q-65 23 -97 53.5t-32 85.5v18q0 96 104 134q-82 39 -82 112v18q0 58 51.5 94.5t131.5 36.5
q110 0 186 -64l-36 -43q-69 49 -149 49q-51 0 -80.5 -19.5t-29.5 -52.5v-9q0 -30 22 -49t79 -40l70 -24q65 -23 97 -53.5t32 -85.5v-18zM427 337v15q0 36 -22 56t-80 40l-50 17q-48 -9 -75 -38t-27 -64v-15q0 -36 22 -56t80 -40l50 -17q47 9 74.5 38.5t27.5 63.5z" />
    <glyph glyph-name="dieresis" unicode="&#xa8;" horiz-adv-x="400" 
d="M91 630q-19 0 -31 12.5t-12 30.5t12 30.5t31 12.5q18 0 30.5 -12.5t12.5 -30.5t-12.5 -30.5t-30.5 -12.5zM308 630q-18 0 -30.5 12.5t-12.5 30.5t12.5 30.5t30.5 12.5q19 0 31 -12.5t12 -30.5t-12 -30.5t-31 -12.5z" />
    <glyph glyph-name="copyright" unicode="&#xa9;" horiz-adv-x="920" 
d="M459 -12q-153 0 -255 88.5t-102 224.5v108q0 124 104.5 213.5t254.5 89.5q158 0 257.5 -88.5t99.5 -214.5v-108q0 -139 -98.5 -226t-260.5 -87zM460 34q140 0 223 73.5t83 192.5v110q0 107 -84.5 181.5t-221.5 74.5q-128 0 -216.5 -75.5t-88.5 -180.5v-110
q0 -118 86.5 -192t218.5 -74zM461 133q-74 0 -115.5 42.5t-41.5 113.5v111q0 77 42.5 122t117.5 45q69 0 119 -45l-29 -39q-40 35 -88 35t-76.5 -31.5t-28.5 -84.5v-111q0 -50 26.5 -79t75.5 -29q53 0 91 31l25 -40q-51 -41 -118 -41z" />
    <glyph glyph-name="ordfeminine" unicode="&#xaa;" horiz-adv-x="441" 
d="M234 712q79 0 117.5 -36.5t38.5 -101.5v-269h-54l-7 48q-57 -59 -139 -59q-59 0 -99 31t-40 82v24q0 54 46.5 86t124.5 32h99v29q0 83 -94 83q-64 0 -128 -32l-21 43q70 40 156 40zM205 345q74 0 116 53v107h-90q-53 0 -82 -19.5t-29 -56.5v-16q0 -32 23 -50t62 -18z" />
    <glyph glyph-name="guillemotleft" unicode="&#xab;" horiz-adv-x="598" 
d="M469 52l-164 217v36l162 214l42 -27l-136 -205l137 -208zM262 52l-165 217v36l163 214l41 -27l-136 -205l138 -208z" />
    <glyph glyph-name="logicalnot" unicode="&#xac;" 
d="M118 373h364v-61v-152h-61v152h-303v61z" />
    <glyph glyph-name="uni00AD" unicode="&#xad;" horiz-adv-x="435" 
d="M361 373v-61h-287v61h287z" />
    <glyph glyph-name="registered" unicode="&#xae;" horiz-adv-x="920" 
d="M461 712q158 0 257.5 -88.5t99.5 -214.5v-108q0 -139 -98.5 -226t-260.5 -87q-153 0 -255 88.5t-102 224.5v108q0 124 104.5 213.5t254.5 89.5zM766 300v110q0 107 -84.5 181.5t-221.5 74.5q-128 0 -216.5 -75.5t-88.5 -180.5v-110q0 -118 86.5 -192t218.5 -74
q140 0 223 73.5t83 192.5zM607 427q0 -76 -78 -103l97 -184h-63l-89 174h-17h-60v-174h-56v420h56h66q65 0 104.5 -30.5t39.5 -79.5v-23zM455 360q44 0 70 17.5t26 51.5v19q0 32 -25 49t-65 17h-64v-154h58z" />
    <glyph glyph-name="macron" unicode="&#xaf;" horiz-adv-x="400" 
d="M76 641v51h248v-51h-248z" />
    <glyph glyph-name="degree" unicode="&#xb0;" horiz-adv-x="545" 
d="M219 397q-62 0 -105.5 42.5t-43.5 115.5q0 71 43.5 114t105.5 43q67 0 109 -42.5t42 -115.5t-42 -115t-109 -42zM219 450q44 0 66.5 28t22.5 76q0 105 -89 105q-41 0 -64 -28t-23 -76t23 -76.5t64 -28.5z" />
    <glyph glyph-name="plusminus" unicode="&#xb1;" 
d="M332 373h150v-61h-150v-152h-64v152h-150v61h150v151h64v-151zM118 0v60h364v-60h-364z" />
    <glyph glyph-name="uni00B2" unicode="&#xb2;" horiz-adv-x="500" 
d="M84 415v39q0 66 25.5 108t79.5 77l84 57q48 32 64.5 51.5t16.5 49.5v18q0 34 -29.5 56.5t-80.5 22.5q-75 0 -142 -49l-32 44q81 61 179 61q80 0 128 -38t48 -94v-23q0 -41 -26 -72.5t-88 -72.5l-75 -50q-47 -31 -64.5 -58.5t-18.5 -69.5h275v-57h-344z" />
    <glyph glyph-name="uni00B3" unicode="&#xb3;" horiz-adv-x="500" 
d="M248 404q-120 0 -195 81l41 37q63 -63 150 -63q58 0 95 26t37 72v22q0 45 -39 67.5t-90 22.5h-51v51h51q47 0 77.5 19t30.5 57v18q0 41 -31.5 62t-80.5 21q-78 0 -145 -59l-37 38q82 75 189 75q74 0 125 -36t51 -92v-26q0 -37 -31 -65t-71 -34q44 -5 83 -36.5t39 -79.5
v-31q0 -63 -56.5 -105t-141.5 -42z" />
    <glyph glyph-name="acute" unicode="&#xb4;" horiz-adv-x="400" 
d="M112 611l-21 43l191 99l27 -53z" />
    <glyph glyph-name="uni00B5" unicode="&#xb5;" horiz-adv-x="615" 
d="M438 527h74v-527h-63l-6 74q-68 -86 -160 -86q-60 0 -106 39v-227h-74v727h74v-377q0 -48 28.5 -75.5t77.5 -27.5q95 0 155 94v386z" />
    <glyph glyph-name="paragraph" unicode="&#xb6;" horiz-adv-x="718" 
d="M338 699l225 1v-900h-58v849l-124 -1v-848h-59v505q-111 4 -165.5 57.5t-54.5 139.5q0 93 63.5 145t172.5 52z" />
    <glyph glyph-name="periodcentered" unicode="&#xb7;" horiz-adv-x="251" 
d="M126 279q-22 0 -37 15t-15 37q0 21 15.5 36t36.5 15q22 0 36.5 -15t14.5 -36q0 -22 -14.5 -37t-36.5 -15z" />
    <glyph glyph-name="cedilla" unicode="&#xb8;" horiz-adv-x="400" 
d="M187 -229q-39 0 -74 14l10 39q35 -9 62 -9q54 0 54 37v8q0 23 -19.5 31t-69.5 9l5 108h49l-2 -72q92 -6 92 -76v-12q0 -39 -31 -58t-76 -19z" />
    <glyph glyph-name="uni00B9" unicode="&#xb9;" horiz-adv-x="500" 
d="M96 415v54h134v394l-120 -61l-25 46l164 92h52v-471h115v-54h-320z" />
    <glyph glyph-name="ordmasculine" unicode="&#xba;" horiz-adv-x="441" 
d="M220 289q-91 0 -137.5 52.5t-46.5 140.5v36q0 86 47 137.5t137 51.5q91 0 138 -51.5t47 -137.5v-36q0 -88 -47 -140.5t-138 -52.5zM220 343q115 0 115 139v37q0 137 -115 137q-114 0 -114 -137v-37q0 -139 114 -139z" />
    <glyph glyph-name="guillemotright" unicode="&#xbb;" horiz-adv-x="598" 
d="M138 52l-41 27l138 208l-136 205l41 27l163 -214v-36zM346 52l-41 27l137 208l-136 205l42 27l162 -214v-36z" />
    <glyph glyph-name="onequarter" unicode="&#xbc;" horiz-adv-x="1198" 
d="M476 -10l-59 21l306 740l58 -21zM96 215v54h134v394l-120 -61l-25 46l164 92h52v-471h115v-54h-320zM1005 0v113h-258v44l199 368h69l-192 -356h183l14 147l55 1v-148h73v-56h-73v-113h-70z" />
    <glyph glyph-name="onehalf" unicode="&#xbd;" horiz-adv-x="1198" 
d="M476 -10l-59 21l306 740l58 -21zM96 215v54h134v394l-120 -61l-25 46l164 92h52v-471h115v-54h-320zM782 0v39q0 66 25.5 108t79.5 77l84 57q48 32 64.5 51.5t16.5 49.5v18q0 34 -29.5 56.5t-80.5 22.5q-75 0 -142 -49l-32 44q81 61 179 61q80 0 128 -38t48 -94v-23
q0 -41 -26 -72.5t-88 -72.5l-75 -50q-47 -31 -64.5 -58.5t-18.5 -69.5h275v-57h-344z" />
    <glyph glyph-name="threequarters" unicode="&#xbe;" horiz-adv-x="1198" 
d="M248 204q-120 0 -195 81l41 37q63 -63 150 -63q58 0 95 26t37 72v22q0 45 -39 67.5t-90 22.5h-51v51h51q47 0 77.5 19t30.5 57v18q0 41 -31.5 62t-80.5 21q-78 0 -145 -59l-37 38q82 75 189 75q74 0 125 -36t51 -92v-26q0 -37 -31 -65t-71 -34q44 -5 83 -36.5t39 -79.5
v-31q0 -63 -56.5 -105t-141.5 -42zM476 -10l-59 21l306 740l58 -21zM1005 0v113h-258v44l199 368h69l-192 -356h183l14 147l55 1v-148h73v-56h-73v-113h-70z" />
    <glyph glyph-name="questiondown" unicode="&#xbf;" horiz-adv-x="471" 
d="M264 508q22 0 37 -14.5t15 -36.5t-15.5 -37t-36.5 -15q-22 0 -36.5 15t-14.5 37t14.5 36.5t36.5 14.5zM301 279v-34q0 -41 -19.5 -74t-47 -54.5t-55 -40.5t-47 -43.5t-19.5 -52.5v-27q0 -46 34.5 -75t91.5 -29q48 0 85.5 15t83.5 50l37 -46q-98 -80 -212 -80
q-88 0 -142 46t-54 115v29q0 39 20 69.5t48 50.5t56 39.5t48 47t20 62.5v32h72z" />
    <glyph glyph-name="Agrave" unicode="&#xc0;" horiz-adv-x="632" 
d="M423 793l-19 -44l-197 85l24 53zM522 0l-72 216h-273l-68 -216h-77l229 700h103l236 -700h-78zM312 645l-115 -367h233z" />
    <glyph glyph-name="Aacute" unicode="&#xc1;" horiz-adv-x="632" 
d="M423 834l-197 -85l-19 44l192 94zM522 0l-72 216h-273l-68 -216h-77l229 700h103l236 -700h-78zM312 645l-115 -367h233z" />
    <glyph glyph-name="Acircumflex" unicode="&#xc2;" horiz-adv-x="632" 
d="M314 834l-120 -88l-28 37l126 104h45l126 -104l-28 -37zM522 0l-72 216h-273l-68 -216h-77l229 700h103l236 -700h-78zM312 645l-115 -367h233z" />
    <glyph glyph-name="Atilde" unicode="&#xc3;" horiz-adv-x="632" 
d="M257 808q-28 0 -56 -42l-43 22q39 70 99 70q27 0 63 -24t52 -24q30 0 56 43l44 -22q-37 -70 -100 -70q-28 0 -64 23.5t-51 23.5zM522 0l-72 216h-273l-68 -216h-77l229 700h103l236 -700h-78zM312 645l-115 -367h233z" />
    <glyph glyph-name="Adieresis" unicode="&#xc4;" horiz-adv-x="632" 
d="M207 783q-19 0 -31.5 12.5t-12.5 30.5t12.5 30.5t31.5 12.5q18 0 30 -12.5t12 -30.5t-12 -30.5t-30 -12.5zM423 783q-18 0 -30 12.5t-12 30.5t12 30.5t30 12.5q19 0 31.5 -12.5t12.5 -30.5t-12.5 -30.5t-31.5 -12.5zM522 0l-72 216h-273l-68 -216h-77l229 700h103
l236 -700h-78zM312 645l-115 -367h233z" />
    <glyph glyph-name="Aring" unicode="&#xc5;" horiz-adv-x="632" 
d="M315 729q-44 0 -75 27t-31 67v15q0 40 31 67.5t75 27.5t75.5 -27.5t31.5 -67.5v-15q0 -40 -31.5 -67t-75.5 -27zM257 837v-13q0 -24 16.5 -38.5t41.5 -14.5t42 14.5t17 38.5v13q0 24 -17 39.5t-42 15.5q-24 0 -41 -15.5t-17 -39.5zM522 0l-72 216h-273l-68 -216h-77
l229 700h103l236 -700h-78zM312 645l-115 -367h233z" />
    <glyph glyph-name="AE" unicode="&#xc6;" horiz-adv-x="968" 
d="M584 62h320v-62h-350h-32l-56 216h-276l-81 -216h-77l277 700h103h454v-60h-438l67 -250h343v-60h-326zM357 643l-142 -365h235z" />
    <glyph glyph-name="Ccedilla" unicode="&#xc7;" horiz-adv-x="580" 
d="M537 57q-79 -64 -182 -69l-1 -52q92 -6 92 -76v-12q0 -39 -31 -58t-76 -19q-38 0 -75 14l11 39q33 -9 62 -9q54 0 54 37v8q0 23 -19.5 31t-69.5 9l4 90q-107 10 -166 79.5t-59 179.5v185q0 127 70.5 202.5t193.5 75.5q113 0 199 -75l-40 -45q-72 59 -157 59
q-91 0 -141 -57t-50 -158v-185q0 -96 47.5 -149t137.5 -53t163 56z" />
    <glyph glyph-name="Egrave" unicode="&#xc8;" horiz-adv-x="582" 
d="M424 793l-19 -44l-197 85l24 53zM502 639h-304v-248h282v-62h-282v-268h304v-61h-377h-2v700h75h304v-61z" />
    <glyph glyph-name="Eacute" unicode="&#xc9;" horiz-adv-x="582" 
d="M424 834l-197 -85l-19 44l192 94zM502 639h-304v-248h282v-62h-282v-268h304v-61h-377h-2v700h75h304v-61z" />
    <glyph glyph-name="Ecircumflex" unicode="&#xca;" horiz-adv-x="582" 
d="M316 834l-120 -88l-28 37l126 104h45l126 -104l-28 -37zM502 639h-304v-248h282v-62h-282v-268h304v-61h-377h-2v700h75h304v-61z" />
    <glyph glyph-name="Edieresis" unicode="&#xcb;" horiz-adv-x="582" 
d="M208 783q-19 0 -31.5 12.5t-12.5 30.5t12.5 30.5t31.5 12.5q18 0 30 -12.5t12 -30.5t-12 -30.5t-30 -12.5zM424 783q-18 0 -30 12.5t-12 30.5t12 30.5t30 12.5q19 0 31.5 -12.5t12.5 -30.5t-12.5 -30.5t-31.5 -12.5zM502 639h-304v-248h282v-62h-282v-268h304v-61h-377
h-2v700h75h304v-61z" />
    <glyph glyph-name="Igrave" unicode="&#xcc;" horiz-adv-x="409" 
d="M312 793l-19 -44l-197 85l24 53zM326 639h-84v-578h84v-61h-159h-83v61h83v578h-83v61h158h84v-61z" />
    <glyph glyph-name="Iacute" unicode="&#xcd;" horiz-adv-x="409" 
d="M312 834l-197 -85l-19 44l192 94zM326 639h-84v-578h84v-61h-159h-83v61h83v578h-83v61h158h84v-61z" />
    <glyph glyph-name="Icircumflex" unicode="&#xce;" horiz-adv-x="409" 
d="M204 834l-120 -88l-28 37l126 104h45l126 -104l-28 -37zM326 700v-61h-84v-578h84v-61h-159h-83v61h83v578h-83v61h242z" />
    <glyph glyph-name="Idieresis" unicode="&#xcf;" horiz-adv-x="409" 
d="M139 826q0 -18 -12 -30.5t-30 -12.5q-19 0 -31.5 12.5t-12.5 30.5t12.5 30.5t31.5 12.5q18 0 30 -12.5t12 -30.5zM313 869q19 0 31.5 -12.5t12.5 -30.5t-12.5 -30.5t-31.5 -12.5q-18 0 -30 12.5t-12 30.5t12 30.5t30 12.5zM326 700v-61h-84v-578h84v-61h-159h-83v61h83
v578h-83v61h242z" />
    <glyph glyph-name="Eth" unicode="&#xd0;" horiz-adv-x="685" 
d="M322 700q138 0 210.5 -75.5t72.5 -204.5v-122q0 -139 -80 -218.5t-228 -79.5h-128h-46v324h-48v51h48v325h75h124zM530 296v126q0 102 -54 159.5t-158 57.5h-120v-264h167v-51h-167v-263h99q115 0 174 60t59 175z" />
    <glyph glyph-name="Ntilde" unicode="&#xd1;" horiz-adv-x="741" 
d="M322 808q-28 0 -56 -42l-43 22q39 70 99 70q27 0 63 -24t52 -24q30 0 56 43l44 -22q-37 -70 -100 -70q-27 0 -63 23.5t-52 23.5zM550 700h68v-700h-90l-337 606v-606h-68v700h91l336 -605v605z" />
    <glyph glyph-name="Ograve" unicode="&#xd2;" horiz-adv-x="706" 
d="M441 749l-197 85l24 53l192 -94zM353 712q136 0 204 -79t68 -208v-154q0 -125 -68.5 -204t-203.5 -79t-203.5 79t-68.5 204v154q0 130 68.5 208.5t203.5 78.5zM353 651q-99 0 -148 -61t-49 -164v-157q0 -98 49 -159t148 -61t148 61t49 159v157q0 102 -48.5 163.5
t-148.5 61.5z" />
    <glyph glyph-name="Oacute" unicode="&#xd3;" horiz-adv-x="706" 
d="M263 749l-19 44l192 94l24 -53zM353 712q136 0 204 -79t68 -208v-154q0 -125 -68.5 -204t-203.5 -79t-203.5 79t-68.5 204v154q0 130 68.5 208.5t203.5 78.5zM353 651q-99 0 -148 -61t-49 -164v-157q0 -98 49 -159t148 -61t148 61t49 159v157q0 102 -48.5 163.5
t-148.5 61.5z" />
    <glyph glyph-name="Ocircumflex" unicode="&#xd4;" horiz-adv-x="706" 
d="M232 746l-28 37l126 104h45l126 -104l-28 -37l-121 88zM353 712q136 0 204 -79t68 -208v-154q0 -125 -68.5 -204t-203.5 -79t-203.5 79t-68.5 204v154q0 130 68.5 208.5t203.5 78.5zM353 651q-99 0 -148 -61t-49 -164v-157q0 -98 49 -159t148 -61t148 61t49 159v157
q0 102 -48.5 163.5t-148.5 61.5z" />
    <glyph glyph-name="Otilde" unicode="&#xd5;" horiz-adv-x="706" 
d="M410 761q-28 0 -64 23.5t-51 23.5q-28 0 -56 -42l-43 22q39 70 99 70q27 0 63 -24t52 -24q30 0 56 43l44 -22q-37 -70 -100 -70zM353 712q136 0 204 -79t68 -208v-154q0 -125 -68.5 -204t-203.5 -79t-203.5 79t-68.5 204v154q0 130 68.5 208.5t203.5 78.5zM353 651
q-99 0 -148 -61t-49 -164v-157q0 -98 49 -159t148 -61t148 61t49 159v157q0 102 -48.5 163.5t-148.5 61.5z" />
    <glyph glyph-name="Odieresis" unicode="&#xd6;" horiz-adv-x="706" 
d="M245 783q-19 0 -31.5 12.5t-12.5 30.5t12.5 30.5t31.5 12.5q18 0 30 -12.5t12 -30.5t-12 -30.5t-30 -12.5zM461 783q-18 0 -30 12.5t-12 30.5t12 30.5t30 12.5q19 0 31.5 -12.5t12.5 -30.5t-12.5 -30.5t-31.5 -12.5zM353 712q136 0 204 -79t68 -208v-154
q0 -125 -68.5 -204t-203.5 -79t-203.5 79t-68.5 204v154q0 130 68.5 208.5t203.5 78.5zM353 651q-99 0 -148 -61t-49 -164v-157q0 -98 49 -159t148 -61t148 61t49 159v157q0 102 -48.5 163.5t-148.5 61.5z" />
    <glyph glyph-name="multiply" unicode="&#xd7;" 
d="M461 461l-118 -119l118 -118l-42 -43l-119 119l-118 -119l-43 43l119 118l-119 119l43 42l118 -118l119 118z" />
    <glyph glyph-name="Oslash" unicode="&#xd8;" horiz-adv-x="706" 
d="M548 642q77 -76 77 -217v-154q0 -125 -68.5 -204t-203.5 -79q-84 0 -143 32l-44 -81l-54 28l49 88q-80 76 -80 216v154q0 130 68.5 208.5t203.5 78.5q85 0 147 -34l46 83l54 -28zM156 269q0 -97 45 -154l271 502q-46 34 -119 34q-99 0 -148 -61t-49 -164v-157zM550 269
v157q0 98 -42 156l-270 -502q45 -31 115 -31q99 0 148 61t49 159z" />
    <glyph glyph-name="Ugrave" unicode="&#xd9;" horiz-adv-x="704" 
d="M440 749l-197 85l24 53l192 -94zM605 700v-474q0 -105 -63.5 -171.5t-190.5 -66.5q-126 0 -189.5 66.5t-63.5 171.5v474h75v-475q0 -80 43.5 -128t134.5 -48q92 0 135.5 48t43.5 128v475h75z" />
    <glyph glyph-name="Uacute" unicode="&#xda;" horiz-adv-x="704" 
d="M262 749l-19 44l192 94l24 -53zM605 700v-474q0 -105 -63.5 -171.5t-190.5 -66.5q-126 0 -189.5 66.5t-63.5 171.5v474h75v-475q0 -80 43.5 -128t134.5 -48q92 0 135.5 48t43.5 128v475h75z" />
    <glyph glyph-name="Ucircumflex" unicode="&#xdb;" horiz-adv-x="704" 
d="M231 746l-28 37l126 104h45l126 -104l-28 -37l-121 88zM605 700v-474q0 -105 -63.5 -171.5t-190.5 -66.5q-126 0 -189.5 66.5t-63.5 171.5v474h75v-475q0 -80 43.5 -128t134.5 -48q92 0 135.5 48t43.5 128v475h75z" />
    <glyph glyph-name="Udieresis" unicode="&#xdc;" horiz-adv-x="704" 
d="M243 783q-19 0 -31.5 12.5t-12.5 30.5t12.5 30.5t31.5 12.5q18 0 30 -12.5t12 -30.5t-12 -30.5t-30 -12.5zM459 783q-18 0 -30 12.5t-12 30.5t12 30.5t30 12.5q19 0 31.5 -12.5t12.5 -30.5t-12.5 -30.5t-31.5 -12.5zM605 700v-474q0 -105 -63.5 -171.5t-190.5 -66.5
q-126 0 -189.5 66.5t-63.5 171.5v474h75v-475q0 -80 43.5 -128t134.5 -48q92 0 135.5 48t43.5 128v475h75z" />
    <glyph glyph-name="Yacute" unicode="&#xdd;" horiz-adv-x="564" 
d="M390 834l-197 -85l-19 44l192 94zM548 700l-228 -408v-292h-75v292l-229 408h80l188 -345l187 345h77z" />
    <glyph glyph-name="Thorn" unicode="&#xde;" horiz-adv-x="620" 
d="M326 574q110 0 174.5 -51.5t64.5 -143.5v-54q0 -93 -68 -145.5t-188 -52.5h-111v-127h-75v700h75v-126h128zM490 328v48q0 67 -44.5 102t-121.5 35h-126v-324h109q183 0 183 139z" />
    <glyph glyph-name="germandbls" unicode="&#xdf;" horiz-adv-x="628" 
d="M376 -12q-78 0 -140 36l24 52q53 -29 115 -29q59 0 93.5 27t34.5 76v28q0 43 -21.5 66.5t-78.5 47.5q-81 34 -108 58t-27 69v24q0 38 33.5 64t137.5 65q-2 56 -38 88.5t-96 32.5q-63 0 -100.5 -36t-37.5 -106v-551h-74v545q0 94 57.5 150.5t153.5 56.5q94 0 150 -55.5
t56 -157.5q-108 -40 -140.5 -58t-32.5 -38v-21q0 -17 23.5 -33t89.5 -46t96.5 -62.5t30.5 -93.5v-38q0 -74 -57 -117.5t-144 -43.5z" />
    <glyph glyph-name="agrave" unicode="&#xe0;" horiz-adv-x="556" 
d="M386 654l-21 -43l-196 89l26 53zM276 539q93 0 140 -47t47 -130v-362h-61l-5 62q-67 -74 -173 -74q-70 0 -120 40t-50 107v33q0 69 57.5 110.5t155.5 41.5h122v44q0 115 -118 115q-77 0 -159 -42l-24 50q88 52 188 52zM236 46q97 0 153 74v147h-117q-69 0 -106.5 -27
t-37.5 -78v-22q0 -43 29.5 -68.5t78.5 -25.5z" />
    <glyph glyph-name="aacute" unicode="&#xe1;" horiz-adv-x="556" 
d="M386 700l-197 -89l-21 43l190 99zM276 539q93 0 140 -47t47 -130v-362h-61l-5 62q-67 -74 -173 -74q-70 0 -120 40t-50 107v33q0 69 57.5 110.5t155.5 41.5h122v44q0 115 -118 115q-77 0 -159 -42l-24 50q88 52 188 52zM236 46q97 0 153 74v147h-117q-69 0 -106.5 -27
t-37.5 -78v-22q0 -43 29.5 -68.5t78.5 -25.5z" />
    <glyph glyph-name="acircumflex" unicode="&#xe2;" horiz-adv-x="556" 
d="M277 691l-120 -88l-28 37l126 104h45l126 -104l-28 -37zM276 539q93 0 140 -47t47 -130v-362h-61l-5 62q-67 -74 -173 -74q-70 0 -120 40t-50 107v33q0 69 57.5 110.5t155.5 41.5h122v44q0 115 -118 115q-77 0 -159 -42l-24 50q88 52 188 52zM236 46q97 0 153 74v147
h-117q-69 0 -106.5 -27t-37.5 -78v-22q0 -43 29.5 -68.5t78.5 -25.5z" />
    <glyph glyph-name="atilde" unicode="&#xe3;" horiz-adv-x="556" 
d="M220 682q-28 0 -56 -42l-43 22q39 70 99 70q27 0 63 -24t52 -24q30 0 56 43l44 -22q-37 -70 -100 -70q-27 0 -63 23.5t-52 23.5zM276 539q93 0 140 -47t47 -130v-362h-61l-5 62q-67 -74 -173 -74q-70 0 -120 40t-50 107v33q0 69 57.5 110.5t155.5 41.5h122v44
q0 115 -118 115q-77 0 -159 -42l-24 50q88 52 188 52zM236 46q97 0 153 74v147h-117q-69 0 -106.5 -27t-37.5 -78v-22q0 -43 29.5 -68.5t78.5 -25.5z" />
    <glyph glyph-name="adieresis" unicode="&#xe4;" horiz-adv-x="556" 
d="M169 630q-19 0 -31.5 12.5t-12.5 30.5t12.5 30.5t31.5 12.5q18 0 30 -12.5t12 -30.5t-12 -30.5t-30 -12.5zM385 630q-18 0 -30 12.5t-12 30.5t12 30.5t30 12.5q19 0 31.5 -12.5t12.5 -30.5t-12.5 -30.5t-31.5 -12.5zM276 539q93 0 140 -47t47 -130v-362h-61l-5 62
q-67 -74 -173 -74q-70 0 -120 40t-50 107v33q0 69 57.5 110.5t155.5 41.5h122v44q0 115 -118 115q-77 0 -159 -42l-24 50q88 52 188 52zM236 46q97 0 153 74v147h-117q-69 0 -106.5 -27t-37.5 -78v-22q0 -43 29.5 -68.5t78.5 -25.5z" />
    <glyph glyph-name="aring" unicode="&#xe5;" horiz-adv-x="556" 
d="M277 603q-44 0 -75 27t-31 67v15q0 40 31 67.5t75 27.5t75.5 -27.5t31.5 -67.5v-15q0 -40 -31.5 -67t-75.5 -27zM219 711v-13q0 -24 16.5 -38.5t41.5 -14.5t42 14.5t17 38.5v13q0 24 -17 39.5t-42 15.5q-24 0 -41 -15.5t-17 -39.5zM276 539q93 0 140 -47t47 -130v-362
h-61l-5 62q-67 -74 -173 -74q-70 0 -120 40t-50 107v33q0 69 57.5 110.5t155.5 41.5h122v44q0 115 -118 115q-77 0 -159 -42l-24 50q88 52 188 52zM236 46q97 0 153 74v147h-117q-69 0 -106.5 -27t-37.5 -78v-22q0 -43 29.5 -68.5t78.5 -25.5z" />
    <glyph glyph-name="ae" unicode="&#xe6;" horiz-adv-x="885" 
d="M825 255h-369v-16q0 -92 47 -142t129 -50q70 0 144 48l29 -47q-79 -60 -177 -60q-139 0 -202 107q-76 -107 -202 -107q-70 0 -120 40.5t-50 106.5v33q0 62 58 101.5t155 39.5h122v42q0 68 -28 98t-90 30q-78 0 -159 -43l-24 51q89 52 188 52q137 0 157 -121q21 53 69 87
t111 34q100 0 157.5 -64t57.5 -173q0 -28 -3 -47zM613 482q-69 0 -110.5 -46.5t-46.5 -126.5h305v8q0 76 -39 120.5t-109 44.5zM236 47q104 0 166 100q-13 42 -13 92v16h-117q-68 0 -106 -24.5t-38 -68.5v-22q0 -43 29 -68t79 -25z" />
    <glyph glyph-name="ccedilla" unicode="&#xe7;" horiz-adv-x="492" 
d="M446 46q-64 -52 -147 -58l-1 -52q92 -6 92 -76v-12q0 -39 -31 -58t-76 -19q-38 0 -75 14l11 39q33 -9 62 -9q54 0 54 37v8q0 23 -19.5 31t-69.5 9l4 90q-90 12 -139.5 80t-49.5 172v44q0 113 58.5 183t166.5 70q96 0 165 -66l-38 -42q-54 48 -125 48q-73 0 -113 -51
t-40 -140v-47q0 -91 39 -142t112 -51q63 0 126 46z" />
    <glyph glyph-name="egrave" unicode="&#xe8;" horiz-adv-x="557" 
d="M393 654l-21 -43l-196 89l26 53zM497 241h-364v-2q0 -92 45 -142t126 -50q69 0 144 49l29 -48q-77 -60 -177 -60q-110 0 -174.5 70.5t-64.5 180.5v52q0 106 61 177t163 71q101 0 158 -66.5t57 -184.5q0 -29 -3 -47zM285 480q-71 0 -111 -49.5t-41 -135.5h300v7
q0 83 -38.5 130.5t-109.5 47.5z" />
    <glyph glyph-name="eacute" unicode="&#xe9;" horiz-adv-x="557" 
d="M393 700l-197 -89l-21 43l190 99zM497 241h-364v-2q0 -92 45 -142t126 -50q69 0 144 49l29 -48q-77 -60 -177 -60q-110 0 -174.5 70.5t-64.5 180.5v52q0 106 61 177t163 71q101 0 158 -66.5t57 -184.5q0 -29 -3 -47zM285 480q-71 0 -111 -49.5t-41 -135.5h300v7
q0 83 -38.5 130.5t-109.5 47.5z" />
    <glyph glyph-name="ecircumflex" unicode="&#xea;" horiz-adv-x="557" 
d="M284 691l-120 -88l-28 37l126 104h45l126 -104l-28 -37zM497 241h-364v-2q0 -92 45 -142t126 -50q69 0 144 49l29 -48q-77 -60 -177 -60q-110 0 -174.5 70.5t-64.5 180.5v52q0 106 61 177t163 71q101 0 158 -66.5t57 -184.5q0 -29 -3 -47zM285 480q-71 0 -111 -49.5
t-41 -135.5h300v7q0 83 -38.5 130.5t-109.5 47.5z" />
    <glyph glyph-name="edieresis" unicode="&#xeb;" horiz-adv-x="557" 
d="M176 630q-19 0 -31.5 12.5t-12.5 30.5t12.5 30.5t31.5 12.5q18 0 30 -12.5t12 -30.5t-12 -30.5t-30 -12.5zM392 630q-18 0 -30 12.5t-12 30.5t12 30.5t30 12.5q19 0 31.5 -12.5t12.5 -30.5t-12.5 -30.5t-31.5 -12.5zM497 241h-364v-2q0 -92 45 -142t126 -50q69 0 144 49
l29 -48q-77 -60 -177 -60q-110 0 -174.5 70.5t-64.5 180.5v52q0 106 61 177t163 71q101 0 158 -66.5t57 -184.5q0 -29 -3 -47zM285 480q-71 0 -111 -49.5t-41 -135.5h300v7q0 83 -38.5 130.5t-109.5 47.5z" />
    <glyph glyph-name="igrave" unicode="&#xec;" horiz-adv-x="296" 
d="M69 753l191 -99l-21 -43l-196 89zM36 527h157v-527h-74v469h-83v58z" />
    <glyph glyph-name="iacute" unicode="&#xed;" horiz-adv-x="296" 
d="M260 700l-197 -89l-21 43l190 99zM36 527h157v-527h-74v469h-83v58z" />
    <glyph glyph-name="icircumflex" unicode="&#xee;" horiz-adv-x="296" 
d="M174 744l126 -104l-28 -37l-121 88l-120 -88l-28 37l126 104h45zM36 527h157v-527h-74v469h-83v58z" />
    <glyph glyph-name="idieresis" unicode="&#xef;" horiz-adv-x="296" 
d="M85 673q0 -18 -12 -30.5t-30 -12.5q-19 0 -31.5 12.5t-12.5 30.5t12.5 30.5t31.5 12.5q18 0 30 -12.5t12 -30.5zM259 716q19 0 31.5 -12.5t12.5 -30.5t-12.5 -30.5t-31.5 -12.5q-18 0 -30 12.5t-12 30.5t12 30.5t30 12.5zM36 527h157v-527h-74v469h-83v58z" />
    <glyph glyph-name="eth" unicode="&#xf0;" horiz-adv-x="597" 
d="M355 687q85 -55 130 -153t45 -228v-51q0 -118 -65 -192.5t-173 -74.5q-111 0 -171 65t-60 160v43q0 88 52 145.5t145 57.5q129 0 199 -101q-2 193 -132 277l-51 -87l-54 27l51 88q-59 24 -135 27v62q90 -3 166 -36l52 90l54 -28zM291 47q78 0 122 54.5t44 155.5v31
q-40 58 -83 85t-105 27q-67 0 -100.5 -40t-33.5 -106v-39q0 -77 39 -122.5t117 -45.5z" />
    <glyph glyph-name="ntilde" unicode="&#xf1;" horiz-adv-x="606" 
d="M245 682q-28 0 -56 -42l-43 22q39 70 99 70q27 0 63 -24t52 -24q30 0 56 43l44 -22q-37 -70 -100 -70q-28 0 -64 23.5t-51 23.5zM344 539q76 0 122.5 -46t46.5 -130v-363h-74v357q0 122 -111 122q-93 0 -151 -93v-386h-74v527h63l6 -70q63 82 172 82z" />
    <glyph glyph-name="ograve" unicode="&#xf2;" horiz-adv-x="591" 
d="M383 611l-196 89l26 53l191 -99zM295 539q112 0 174 -69t62 -179v-52q0 -112 -62 -181.5t-174 -69.5t-173 69t-61 182v52q0 110 61 179t173 69zM295 479q-78 0 -119 -49.5t-41 -137.5v-52q0 -91 41 -142t119 -51q77 0 119.5 51t42.5 142v52q0 87 -42.5 137t-119.5 50z
" />
    <glyph glyph-name="oacute" unicode="&#xf3;" horiz-adv-x="591" 
d="M207 611l-21 43l190 99l28 -53zM295 539q112 0 174 -69t62 -179v-52q0 -112 -62 -181.5t-174 -69.5t-173 69t-61 182v52q0 110 61 179t173 69zM295 479q-78 0 -119 -49.5t-41 -137.5v-52q0 -91 41 -142t119 -51q77 0 119.5 51t42.5 142v52q0 87 -42.5 137t-119.5 50z" />
    <glyph glyph-name="ocircumflex" unicode="&#xf4;" horiz-adv-x="591" 
d="M175 603l-28 37l126 104h45l126 -104l-28 -37l-121 88zM295 539q112 0 174 -69t62 -179v-52q0 -112 -62 -181.5t-174 -69.5t-173 69t-61 182v52q0 110 61 179t173 69zM295 479q-78 0 -119 -49.5t-41 -137.5v-52q0 -91 41 -142t119 -51q77 0 119.5 51t42.5 142v52
q0 87 -42.5 137t-119.5 50z" />
    <glyph glyph-name="otilde" unicode="&#xf5;" horiz-adv-x="591" 
d="M353 635q-27 0 -63 23.5t-52 23.5q-28 0 -56 -42l-43 22q39 70 99 70q27 0 63 -24t52 -24q30 0 56 43l44 -22q-37 -70 -100 -70zM295 539q112 0 174 -69t62 -179v-52q0 -112 -62 -181.5t-174 -69.5t-173 69t-61 182v52q0 110 61 179t173 69zM295 479q-78 0 -119 -49.5
t-41 -137.5v-52q0 -91 41 -142t119 -51q77 0 119.5 51t42.5 142v52q0 87 -42.5 137t-119.5 50z" />
    <glyph glyph-name="odieresis" unicode="&#xf6;" horiz-adv-x="591" 
d="M187 630q-19 0 -31.5 12.5t-12.5 30.5t12.5 30.5t31.5 12.5q18 0 30 -12.5t12 -30.5t-12 -30.5t-30 -12.5zM403 630q-18 0 -30 12.5t-12 30.5t12 30.5t30 12.5q19 0 31.5 -12.5t12.5 -30.5t-12.5 -30.5t-31.5 -12.5zM295 539q112 0 174 -69t62 -179v-52
q0 -112 -62 -181.5t-174 -69.5t-173 69t-61 182v52q0 110 61 179t173 69zM295 479q-78 0 -119 -49.5t-41 -137.5v-52q0 -91 41 -142t119 -51q77 0 119.5 51t42.5 142v52q0 87 -42.5 137t-119.5 50z" />
    <glyph glyph-name="divide" unicode="&#xf7;" 
d="M311 593q22 0 37 -15t15 -37q0 -21 -15 -36t-37 -15q-21 0 -36 15t-15 36q0 22 15 37t36 15zM482 313h-364v61h364v-61zM311 93q-21 0 -36 15t-15 37q0 21 15 36t36 15q22 0 37 -15t15 -36q0 -22 -15 -37t-37 -15z" />
    <glyph glyph-name="oslash" unicode="&#xf8;" horiz-adv-x="591" 
d="M449 488q82 -67 82 -197v-52q0 -112 -62 -181.5t-174 -69.5q-61 0 -107 21l-37 -67l-53 27l40 72q-77 68 -77 198v52q0 110 61 179t173 69q56 0 102 -19l40 70l54 -26zM135 292v-52q0 -91 41 -141l197 363q-31 17 -78 17q-78 0 -119 -49.5t-41 -137.5zM457 240v52
q0 90 -45 140l-198 -366q36 -19 81 -19q77 0 119.5 51.5t42.5 141.5z" />
    <glyph glyph-name="ugrave" unicode="&#xf9;" horiz-adv-x="605" 
d="M411 654l-21 -43l-196 89l26 53zM428 527h74v-527h-63l-6 74q-70 -86 -174 -86q-72 0 -119 43.5t-47 115.5v380h74v-377q0 -49 28 -76t78 -27q95 0 155 94v386z" />
    <glyph glyph-name="uacute" unicode="&#xfa;" horiz-adv-x="605" 
d="M411 700l-197 -89l-21 43l190 99zM428 527h74v-527h-63l-6 74q-70 -86 -174 -86q-72 0 -119 43.5t-47 115.5v380h74v-377q0 -49 28 -76t78 -27q95 0 155 94v386z" />
    <glyph glyph-name="ucircumflex" unicode="&#xfb;" horiz-adv-x="605" 
d="M302 691l-120 -88l-28 37l126 104h45l126 -104l-28 -37zM428 527h74v-527h-63l-6 74q-70 -86 -174 -86q-72 0 -119 43.5t-47 115.5v380h74v-377q0 -49 28 -76t78 -27q95 0 155 94v386z" />
    <glyph glyph-name="udieresis" unicode="&#xfc;" horiz-adv-x="605" 
d="M194 630q-19 0 -31.5 12.5t-12.5 30.5t12.5 30.5t31.5 12.5q18 0 30 -12.5t12 -30.5t-12 -30.5t-30 -12.5zM410 630q-18 0 -30 12.5t-12 30.5t12 30.5t30 12.5q19 0 31.5 -12.5t12.5 -30.5t-12.5 -30.5t-31.5 -12.5zM428 527h74v-527h-63l-6 74q-70 -86 -174 -86
q-72 0 -119 43.5t-47 115.5v380h74v-377q0 -49 28 -76t78 -27q95 0 155 94v386z" />
    <glyph glyph-name="yacute" unicode="&#xfd;" horiz-adv-x="540" 
d="M182 611l-21 43l190 99l28 -53zM141 -212q-36 0 -60 11l11 51q26 -6 50 -6q36 0 58 19.5t39 71.5l21 65h-34l-183 527h78l157 -472l145 472h74l-193 -597q-27 -82 -65.5 -112t-97.5 -30z" />
    <glyph glyph-name="thorn" unicode="&#xfe;" horiz-adv-x="597" 
d="M333 539q92 0 146 -69t54 -182v-49q0 -107 -61.5 -179t-155.5 -72q-80 0 -139 56v-244h-74v940h74v-268q59 67 156 67zM459 238v52q0 91 -35.5 140t-102.5 49q-91 0 -144 -78v-294q51 -59 131 -59q69 0 110 51t41 139z" />
    <glyph glyph-name="ydieresis" unicode="&#xff;" horiz-adv-x="540" 
d="M162 630q-19 0 -31.5 12.5t-12.5 30.5t12.5 30.5t31.5 12.5q18 0 30 -12.5t12 -30.5t-12 -30.5t-30 -12.5zM378 630q-18 0 -30 12.5t-12 30.5t12 30.5t30 12.5q19 0 31.5 -12.5t12.5 -30.5t-12.5 -30.5t-31.5 -12.5zM141 -212q-36 0 -60 11l11 51q26 -6 50 -6
q36 0 58 19.5t39 71.5l21 65h-34l-183 527h78l157 -472l145 472h74l-193 -597q-27 -82 -65.5 -112t-97.5 -30z" />
    <glyph glyph-name="Amacron" unicode="&#x100;" horiz-adv-x="632" 
d="M439 838v-51h-248v51h248zM522 0l-72 216h-273l-68 -216h-77l229 700h103l236 -700h-78zM312 645l-115 -367h233z" />
    <glyph glyph-name="amacron" unicode="&#x101;" horiz-adv-x="556" 
d="M402 692v-51h-248v51h248zM276 539q93 0 140 -47t47 -130v-362h-61l-5 62q-67 -74 -173 -74q-70 0 -120 40t-50 107v33q0 69 57.5 110.5t155.5 41.5h122v44q0 115 -118 115q-77 0 -159 -42l-24 50q88 52 188 52zM236 46q97 0 153 74v147h-117q-69 0 -106.5 -27t-37.5 -78
v-22q0 -43 29.5 -68.5t78.5 -25.5z" />
    <glyph glyph-name="Abreve" unicode="&#x102;" horiz-adv-x="632" 
d="M314 763q-54 0 -91 30.5t-50 82.5l51 10q22 -73 90 -73q69 0 91 73l51 -10q-13 -52 -50.5 -82.5t-91.5 -30.5zM522 0l-72 216h-273l-68 -216h-77l229 700h103l236 -700h-78zM312 645l-115 -367h233z" />
    <glyph glyph-name="abreve" unicode="&#x103;" horiz-adv-x="556" 
d="M277 620q-54 0 -91 31t-48 84l49 10q22 -75 90 -75q69 0 91 75l50 -10q-12 -53 -49.5 -84t-91.5 -31zM276 539q93 0 140 -47t47 -130v-362h-61l-5 62q-67 -74 -173 -74q-70 0 -120 40t-50 107v33q0 69 57.5 110.5t155.5 41.5h122v44q0 115 -118 115q-77 0 -159 -42
l-24 50q88 52 188 52zM236 46q97 0 153 74v147h-117q-69 0 -106.5 -27t-37.5 -78v-22q0 -43 29.5 -68.5t78.5 -25.5z" />
    <glyph glyph-name="Aogonek" unicode="&#x104;" horiz-adv-x="632" 
d="M599 0q-134 -40 -134 -120q0 -50 60 -50q25 0 59 7l-6 -50q-37 -7 -61 -7q-50 0 -80 25.5t-30 68.5q0 42 29.5 76.5t83.5 55.5l-70 210h-273l-68 -216h-77l229 700h103l236 -700h-1zM312 645l-115 -367h233z" />
    <glyph glyph-name="aogonek" unicode="&#x105;" horiz-adv-x="556" 
d="M329 -120q0 -50 60 -50q25 0 59 7l-6 -50q-37 -7 -61 -7q-50 0 -80 25.5t-30 68.5q0 45 34.5 81.5t95.5 56.5l-4 50q-67 -74 -173 -74q-70 0 -120 40t-50 107v33q0 69 57.5 110.5t155.5 41.5h122v44q0 115 -118 115q-77 0 -159 -42l-24 50q88 52 188 52q93 0 140 -47
t47 -130v-362q-134 -40 -134 -120zM236 46q97 0 153 74v147h-117q-69 0 -106.5 -27t-37.5 -78v-22q0 -43 29.5 -68.5t78.5 -25.5z" />
    <glyph glyph-name="Cacute" unicode="&#x106;" horiz-adv-x="580" 
d="M252 749l-19 44l192 94l24 -53zM340 -12q-123 0 -191 71t-68 190v185q0 127 70.5 202.5t193.5 75.5q113 0 199 -75l-40 -45q-72 59 -157 59q-91 0 -141 -57t-50 -158v-185q0 -96 47.5 -149t137.5 -53t163 56l33 -48q-85 -69 -197 -69z" />
    <glyph glyph-name="cacute" unicode="&#x107;" horiz-adv-x="492" 
d="M195 611l-21 43l190 99l28 -53zM285 -12q-106 0 -165 70t-59 184v44q0 113 58.5 183t166.5 70q96 0 165 -66l-38 -42q-54 48 -125 48q-73 0 -113 -51t-40 -140v-47q0 -91 39 -142t112 -51q63 0 126 46l34 -48q-72 -58 -161 -58z" />
    <glyph glyph-name="Ccircumflex" unicode="&#x108;" horiz-adv-x="580" 
d="M221 746l-28 37l126 104h45l126 -104l-28 -37l-121 88zM340 -12q-123 0 -191 71t-68 190v185q0 127 70.5 202.5t193.5 75.5q113 0 199 -75l-40 -45q-72 59 -157 59q-91 0 -141 -57t-50 -158v-185q0 -96 47.5 -149t137.5 -53t163 56l33 -48q-85 -69 -197 -69z" />
    <glyph glyph-name="ccircumflex" unicode="&#x109;" horiz-adv-x="492" 
d="M163 603l-28 37l126 104h45l126 -104l-28 -37l-121 88zM285 -12q-106 0 -165 70t-59 184v44q0 113 58.5 183t166.5 70q96 0 165 -66l-38 -42q-54 48 -125 48q-73 0 -113 -51t-40 -140v-47q0 -91 39 -142t112 -51q63 0 126 46l34 -48q-72 -58 -161 -58z" />
    <glyph glyph-name="Cdotaccent" unicode="&#x10a;" horiz-adv-x="580" 
d="M342 766q-20 0 -33.5 14t-13.5 34t13.5 33.5t33.5 13.5t34 -13.5t14 -33.5t-14 -34t-34 -14zM340 -12q-123 0 -191 71t-68 190v185q0 127 70.5 202.5t193.5 75.5q113 0 199 -75l-40 -45q-72 59 -157 59q-91 0 -141 -57t-50 -158v-185q0 -96 47.5 -149t137.5 -53t163 56
l33 -48q-85 -69 -197 -69z" />
    <glyph glyph-name="cdotaccent" unicode="&#x10b;" horiz-adv-x="492" 
d="M284 630q-20 0 -33.5 14t-13.5 34t13.5 33.5t33.5 13.5t34 -13.5t14 -33.5t-14 -34t-34 -14zM285 -12q-106 0 -165 70t-59 184v44q0 113 58.5 183t166.5 70q96 0 165 -66l-38 -42q-54 48 -125 48q-73 0 -113 -51t-40 -140v-47q0 -91 39 -142t112 -51q63 0 126 46l34 -48
q-72 -58 -161 -58z" />
    <glyph glyph-name="Ccaron" unicode="&#x10c;" horiz-adv-x="580" 
d="M319 747l-126 104l28 37l120 -88l121 88l28 -37l-126 -104h-45zM340 -12q-123 0 -191 71t-68 190v185q0 127 70.5 202.5t193.5 75.5q113 0 199 -75l-40 -45q-72 59 -157 59q-91 0 -141 -57t-50 -158v-185q0 -96 47.5 -149t137.5 -53t163 56l33 -48q-85 -69 -197 -69z" />
    <glyph glyph-name="ccaron" unicode="&#x10d;" horiz-adv-x="492" 
d="M261 604l-126 103l28 37l120 -88l121 88l28 -37l-126 -103h-45zM285 -12q-106 0 -165 70t-59 184v44q0 113 58.5 183t166.5 70q96 0 165 -66l-38 -42q-54 48 -125 48q-73 0 -113 -51t-40 -140v-47q0 -91 39 -142t112 -51q63 0 126 46l34 -48q-72 -58 -161 -58z" />
    <glyph glyph-name="Dcaron" unicode="&#x10e;" horiz-adv-x="685" 
d="M344 747h-45l-126 104l28 37l120 -88l121 88l28 -37zM322 700q138 0 210.5 -75.5t72.5 -204.5v-122q0 -139 -80 -218.5t-228 -79.5h-128h-46v700h75h124zM530 296v126q0 102 -54 159.5t-158 57.5h-120v-578h99q115 0 174 60t59 175z" />
    <glyph glyph-name="dcaron" unicode="&#x10f;" horiz-adv-x="662" 
d="M607 750l63 -9l-44 -179l-47 6zM422 480v260h74v-740h-60l-8 67q-60 -79 -157 -79q-94 0 -150.5 69t-56.5 180v51q0 107 58 179t154 72q88 0 146 -59zM281 47q86 0 141 84v284q-49 64 -136 64q-70 0 -109 -52t-39 -137v-55q0 -89 38 -138.5t105 -49.5z" />
    <glyph glyph-name="Dcroat" unicode="&#x110;" horiz-adv-x="685" 
d="M322 700q138 0 210.5 -75.5t72.5 -204.5v-122q0 -139 -80 -218.5t-228 -79.5h-128h-46v324h-48v51h48v325h75h124zM530 296v126q0 102 -54 159.5t-158 57.5h-120v-264h167v-51h-167v-263h99q115 0 174 60t59 175z" />
    <glyph glyph-name="dcroat" unicode="&#x111;" horiz-adv-x="614" 
d="M545 659v-50h-49v-609h-60l-8 67q-60 -79 -157 -79q-94 0 -150.5 69t-56.5 180v51q0 107 58 179t154 72q88 0 146 -59v129h-137v50h137v81h74v-81h49zM281 47q86 0 141 84v284q-49 64 -136 64q-70 0 -109 -52t-39 -137v-55q0 -89 38 -138.5t105 -49.5z" />
    <glyph glyph-name="Emacron" unicode="&#x112;" horiz-adv-x="582" 
d="M440 838v-51h-248v51h248zM502 639h-304v-248h282v-62h-282v-268h304v-61h-377h-2v700h75h304v-61z" />
    <glyph glyph-name="emacron" unicode="&#x113;" horiz-adv-x="557" 
d="M408 692v-51h-248v51h248zM497 241h-364v-2q0 -92 45 -142t126 -50q69 0 144 49l29 -48q-77 -60 -177 -60q-110 0 -174.5 70.5t-64.5 180.5v52q0 106 61 177t163 71q101 0 158 -66.5t57 -184.5q0 -29 -3 -47zM285 480q-71 0 -111 -49.5t-41 -135.5h300v7
q0 83 -38.5 130.5t-109.5 47.5z" />
    <glyph glyph-name="Edotaccent" unicode="&#x116;" horiz-adv-x="582" 
d="M317 766q-20 0 -33.5 14t-13.5 34t14 33.5t33 13.5q20 0 34 -13.5t14 -33.5t-14 -34t-34 -14zM502 639h-304v-248h282v-62h-282v-268h304v-61h-377h-2v700h75h304v-61z" />
    <glyph glyph-name="edotaccent" unicode="&#x117;" horiz-adv-x="557" 
d="M285 630q-20 0 -33.5 14t-13.5 34t14 33.5t33 13.5q20 0 34 -13.5t14 -33.5t-14 -34t-34 -14zM497 241h-364v-2q0 -92 45 -142t126 -50q69 0 144 49l29 -48q-77 -60 -177 -60q-110 0 -174.5 70.5t-64.5 180.5v52q0 106 61 177t163 71q101 0 158 -66.5t57 -184.5
q0 -29 -3 -47zM285 480q-71 0 -111 -49.5t-41 -135.5h300v7q0 83 -38.5 130.5t-109.5 47.5z" />
    <glyph glyph-name="Eogonek" unicode="&#x118;" horiz-adv-x="582" 
d="M369 -120q0 -50 60 -50q25 0 59 7l-6 -50q-37 -7 -61 -7q-50 0 -80 25.5t-30 68.5q0 80 99 126h-285h-2v700h75h304v-61h-304v-248h282v-62h-282v-268h304v-58l1 -3q-134 -40 -134 -120z" />
    <glyph glyph-name="eogonek" unicode="&#x119;" horiz-adv-x="557" 
d="M497 241h-364v-2q0 -92 45 -142t126 -50q69 0 144 49l29 -48q-31 -25 -74 -41q-126 -55 -126 -127q0 -50 59 -50q27 0 59 7l-6 -50q-37 -7 -61 -7q-49 0 -79 25.5t-30 68.5q0 68 84 114h-3q-110 0 -174.5 70.5t-64.5 180.5v52q0 106 61 177t163 71q101 0 158 -66.5
t57 -184.5q0 -29 -3 -47zM285 480q-71 0 -111 -49.5t-41 -135.5h300v7q0 83 -38.5 130.5t-109.5 47.5z" />
    <glyph glyph-name="Ecaron" unicode="&#x11a;" horiz-adv-x="582" 
d="M339 747h-45l-126 104l28 37l120 -88l121 88l28 -37zM502 639h-304v-248h282v-62h-282v-268h304v-61h-377h-2v700h75h304v-61z" />
    <glyph glyph-name="ecaron" unicode="&#x11b;" horiz-adv-x="557" 
d="M307 604h-45l-126 103l28 37l120 -88l121 88l28 -37zM497 241h-364v-2q0 -92 45 -142t126 -50q69 0 144 49l29 -48q-77 -60 -177 -60q-110 0 -174.5 70.5t-64.5 180.5v52q0 106 61 177t163 71q101 0 158 -66.5t57 -184.5q0 -29 -3 -47zM285 480q-71 0 -111 -49.5
t-41 -135.5h300v7q0 83 -38.5 130.5t-109.5 47.5z" />
    <glyph glyph-name="Gcircumflex" unicode="&#x11c;" horiz-adv-x="667" 
d="M350 834l-120 -88l-28 37l126 104h45l126 -104l-28 -37zM579 373v-373h-61l-6 74q-76 -86 -196 -86q-105 0 -170 67t-65 182v191q0 128 70.5 206t195.5 78q145 0 222 -104l-50 -37q-30 40 -70 60t-102 20q-94 0 -142.5 -59t-48.5 -162v-190q0 -89 45.5 -140t129.5 -51
q117 0 175 98v165h-185v61h258z" />
    <glyph glyph-name="gcircumflex" unicode="&#x11d;" horiz-adv-x="597" 
d="M288 691l-120 -88l-28 37l126 104h45l126 -104l-28 -37zM431 530h62v-543q0 -93 -57.5 -146t-154.5 -53q-104 0 -182 48l26 48q72 -37 151 -37q71 0 108.5 36t37.5 107v86q-64 -76 -158 -76q-87 0 -143.5 60.5t-56.5 184.5v47q0 120 60.5 183.5t147.5 63.5q93 0 153 -69z
M273 59q89 0 146 83v263q-49 74 -136 74q-65 0 -105 -43.5t-40 -141.5v-48q0 -187 135 -187z" />
    <glyph glyph-name="Gbreve" unicode="&#x11e;" horiz-adv-x="667" 
d="M350 763q-54 0 -91 30.5t-50 82.5l51 10q22 -73 90 -73q69 0 91 73l51 -10q-13 -52 -50.5 -82.5t-91.5 -30.5zM579 373v-373h-61l-6 74q-76 -86 -196 -86q-105 0 -170 67t-65 182v191q0 128 70.5 206t195.5 78q145 0 222 -104l-50 -37q-30 40 -70 60t-102 20
q-94 0 -142.5 -59t-48.5 -162v-190q0 -89 45.5 -140t129.5 -51q117 0 175 98v165h-185v61h258z" />
    <glyph glyph-name="gbreve" unicode="&#x11f;" horiz-adv-x="597" 
d="M288 620q-54 0 -91 31t-48 84l49 10q22 -75 90 -75q69 0 91 75l50 -10q-12 -53 -49.5 -84t-91.5 -31zM431 530h62v-543q0 -93 -57.5 -146t-154.5 -53q-104 0 -182 48l26 48q72 -37 151 -37q71 0 108.5 36t37.5 107v86q-64 -76 -158 -76q-87 0 -143.5 60.5t-56.5 184.5v47
q0 120 60.5 183.5t147.5 63.5q93 0 153 -69zM273 59q89 0 146 83v263q-49 74 -136 74q-65 0 -105 -43.5t-40 -141.5v-48q0 -187 135 -187z" />
    <glyph glyph-name="Gdotaccent" unicode="&#x120;" horiz-adv-x="667" 
d="M352 766q-20 0 -33.5 14t-13.5 34t13.5 33.5t33.5 13.5t34 -13.5t14 -33.5t-14 -34t-34 -14zM579 373v-373h-61l-6 74q-76 -86 -196 -86q-105 0 -170 67t-65 182v191q0 128 70.5 206t195.5 78q145 0 222 -104l-50 -37q-30 40 -70 60t-102 20q-94 0 -142.5 -59t-48.5 -162
v-190q0 -89 45.5 -140t129.5 -51q117 0 175 98v165h-185v61h258z" />
    <glyph glyph-name="gdotaccent" unicode="&#x121;" horiz-adv-x="597" 
d="M289 630q-20 0 -33.5 14t-13.5 34t14 33.5t33 13.5q20 0 34 -13.5t14 -33.5t-14 -34t-34 -14zM431 530h62v-543q0 -93 -57.5 -146t-154.5 -53q-104 0 -182 48l26 48q72 -37 151 -37q71 0 108.5 36t37.5 107v86q-64 -76 -158 -76q-87 0 -143.5 60.5t-56.5 184.5v47
q0 120 60.5 183.5t147.5 63.5q93 0 153 -69zM273 59q89 0 146 83v263q-49 74 -136 74q-65 0 -105 -43.5t-40 -141.5v-48q0 -187 135 -187z" />
    <glyph glyph-name="Gcommaaccent" unicode="&#x122;" horiz-adv-x="667" 
d="M579 373v-373h-61l-6 74q-76 -86 -196 -86q-105 0 -170 67t-65 182v191q0 128 70.5 206t195.5 78q145 0 222 -104l-50 -37q-30 40 -70 60t-102 20q-94 0 -142.5 -59t-48.5 -162v-190q0 -89 45.5 -140t129.5 -51q117 0 175 98v165h-185v61h258zM334 -79q20 0 33 -13
t13 -32q0 -71 -69 -169l-34 16q33 64 34 115q-24 12 -24 38q0 19 13.5 32t33.5 13z" />
    <glyph glyph-name="gcommaaccent" unicode="&#x123;" horiz-adv-x="597" 
d="M283 613q-20 0 -33 13t-13 32q0 71 69 169l34 -16q-33 -64 -34 -115q24 -12 24 -38q0 -19 -13.5 -32t-33.5 -13zM431 530h62v-543q0 -93 -57.5 -146t-154.5 -53q-104 0 -182 48l26 48q72 -37 151 -37q71 0 108.5 36t37.5 107v86q-64 -76 -158 -76q-87 0 -143.5 60.5
t-56.5 184.5v47q0 120 60.5 183.5t147.5 63.5q93 0 153 -69zM273 59q89 0 146 83v263q-49 74 -136 74q-65 0 -105 -43.5t-40 -141.5v-48q0 -187 135 -187z" />
    <glyph glyph-name="Hcircumflex" unicode="&#x124;" horiz-adv-x="745" 
d="M252 746l-28 37l126 104h45l126 -104l-28 -37l-121 88zM621 700v-700h-75v332h-348v-332h-75v700h75v-305h348v305h75z" />
    <glyph glyph-name="hcircumflex" unicode="&#x125;" horiz-adv-x="606" 
d="M260 786l-121 88l-120 -88l-28 37l126 104h45l126 -104zM344 539q76 0 122.5 -46t46.5 -130v-363h-74v357q0 122 -111 122q-94 0 -151 -94v-385h-74v740h74v-280q59 79 167 79z" />
    <glyph glyph-name="Hbar" unicode="&#x126;" horiz-adv-x="745" 
d="M657 568v-51h-36v-517h-75v332h-348v-332h-75v517h-34v51h34v132h75v-132h348v132h75v-132h36zM546 395v122h-348v-122h348z" />
    <glyph glyph-name="hbar" unicode="&#x127;" horiz-adv-x="605" 
d="M342 539q76 0 123 -46.5t47 -129.5v-363h-74v357q0 122 -111 122q-93 0 -151 -94v-385h-74v606h-50v51h50v83h74v-83h136v-51h-136v-145q59 78 166 78z" />
    <glyph glyph-name="Itilde" unicode="&#x128;" horiz-adv-x="409" 
d="M318 853l44 -22q-37 -70 -100 -70q-28 0 -64 23.5t-51 23.5q-28 0 -56 -42l-43 22q39 70 99 70q27 0 63 -24t52 -24q30 0 56 43zM326 700v-61h-84v-578h84v-61h-159h-83v61h83v578h-83v61h242z" />
    <glyph glyph-name="itilde" unicode="&#x129;" horiz-adv-x="296" 
d="M264 727l44 -22q-37 -70 -100 -70q-28 0 -63.5 23.5t-51.5 23.5q-28 0 -56 -42l-43 22q39 70 99 70q27 0 63 -24t52 -24q30 0 56 43zM36 527h157v-527h-74v469h-83v58z" />
    <glyph glyph-name="Imacron" unicode="&#x12a;" horiz-adv-x="409" 
d="M81 838h248v-51h-248v51zM326 700v-61h-84v-578h84v-61h-159h-83v61h83v578h-83v61h242z" />
    <glyph glyph-name="imacron" unicode="&#x12b;" horiz-adv-x="296" 
d="M27 692h248v-51h-248v51zM36 527h157v-527h-74v469h-83v58z" />
    <glyph glyph-name="Iogonek" unicode="&#x12e;" horiz-adv-x="409" 
d="M326 639h-84v-578h84v-61h-79q-134 -40 -134 -120q0 -50 60 -50q25 0 59 7l-6 -50q-37 -7 -61 -7q-50 0 -80 25.5t-30 68.5q0 80 99 126h-70v61h83v578h-83v61h158h84v-61z" />
    <glyph glyph-name="iogonek" unicode="&#x12f;" horiz-adv-x="296" 
d="M152 630q-20 0 -33.5 14t-13.5 34t13.5 33.5t33.5 13.5t34 -13.5t14 -33.5t-14 -34t-34 -14zM193 0q-134 -40 -134 -120q0 -50 60 -50q25 0 59 7l-6 -50q-37 -7 -61 -7q-50 0 -80 25.5t-30 68.5t31 78t87 56v461h-83v58h157v-526v-1z" />
    <glyph glyph-name="Idotaccent" unicode="&#x130;" horiz-adv-x="409" 
d="M206 766q-20 0 -33.5 14t-13.5 34t13.5 33.5t33.5 13.5t34 -13.5t14 -33.5t-14 -34t-34 -14zM326 639h-84v-578h84v-61h-159h-83v61h83v578h-83v61h158h84v-61z" />
    <glyph glyph-name="dotlessi" unicode="&#x131;" horiz-adv-x="296" 
d="M193 527v-527h-74v469h-83v58h157z" />
    <glyph glyph-name="IJ" unicode="&#x132;" horiz-adv-x="913" 
d="M326 700v-61h-84v-578h84v-61h-159h-83v61h83v578h-83v61h242zM813 700v-501q0 -98 -53 -154.5t-148 -56.5q-111 0 -182 65l37 45q66 -49 140 -49q60 0 95.5 37.5t35.5 110.5v442h-271v61h346z" />
    <glyph glyph-name="ij" unicode="&#x133;" horiz-adv-x="601" 
d="M152 725q20 0 34 -13.5t14 -33.5t-14 -34t-34 -14t-33.5 14t-13.5 34t13.5 33.5t33.5 13.5zM459 630q-20 0 -33.5 14t-13.5 34t14 33.5t33 13.5q20 0 34 -13.5t14 -33.5t-14 -34t-34 -14zM349 469v58h149v-629q0 -53 -29.5 -81.5t-81.5 -28.5q-36 0 -60 12l7 51
q22 -6 38 -6q28 0 40 13t12 44v567h-75zM36 527h157v-527h-74v469h-83v58z" />
    <glyph glyph-name="Jcircumflex" unicode="&#x134;" horiz-adv-x="523" 
d="M262 834l-120 -88l-28 37l126 104h45l126 -104l-28 -37zM424 700v-501q0 -98 -53 -154.5t-148 -56.5q-111 0 -182 65l37 45q66 -49 140 -49q60 0 95.5 37.5t35.5 110.5v442h-271v61h346z" />
    <glyph glyph-name="jcircumflex" unicode="&#x135;" horiz-adv-x="305" 
d="M42 603l-28 37l126 104h45l126 -104l-28 -37l-121 88zM202 527v-629q0 -53 -29.5 -81.5t-81.5 -28.5q-36 0 -60 12l7 51q22 -6 38 -6q28 0 40 13t12 44v567h-75v58h149z" />
    <glyph glyph-name="Kcommaaccent" unicode="&#x136;" horiz-adv-x="641" 
d="M335 384l290 -384h-87l-249 331l-94 -118v-213h-72v700h72v-385l307 385h82zM350 -79q20 0 33 -13t13 -32q0 -71 -69 -169l-34 16q33 64 34 115q-24 12 -24 38q0 19 13.5 32t33.5 13z" />
    <glyph glyph-name="kcommaaccent" unicode="&#x137;" horiz-adv-x="532" 
d="M295 319l231 -319h-85l-195 271l-69 -75v-196h-74v740h74v-455l225 242h87zM298 -79q20 0 33 -13t13 -32q0 -71 -69 -169l-34 16q33 64 34 115q-24 12 -24 38q0 19 13.5 32t33.5 13z" />
    <glyph glyph-name="kgreenlandic" unicode="&#x138;" horiz-adv-x="532" 
d="M438 0l-194 268l-67 -72v-196h-74v527h74v-242l225 242h87l-194 -208l231 -319h-88z" />
    <glyph glyph-name="Lacute" unicode="&#x139;" horiz-adv-x="513" 
d="M244 887l24 -53l-197 -85l-19 44zM198 64h303v-64h-376h-2v700h75v-636z" />
    <glyph glyph-name="lacute" unicode="&#x13a;" horiz-adv-x="298" 
d="M41 789l-19 44l192 94l24 -53zM167 740v-643q0 -48 42 -48q16 0 31 4l10 -53q-29 -12 -60 -12q-45 0 -71 25.5t-26 72.5v654h74z" />
    <glyph glyph-name="Lcommaaccent" unicode="&#x13b;" horiz-adv-x="513" 
d="M198 64h303v-64h-376h-2v700h75v-636zM305 -79q20 0 33 -13t13 -32q0 -71 -69 -169l-34 16q33 64 34 115q-24 12 -24 38q0 19 13.5 32t33.5 13z" />
    <glyph glyph-name="lcommaaccent" unicode="&#x13c;" horiz-adv-x="298" 
d="M167 740v-643q0 -48 42 -48q16 0 31 4l10 -53q-29 -12 -60 -12q-45 0 -71 25.5t-26 72.5v654h74zM157 -293l-34 16q33 64 34 115q-24 12 -24 38q0 19 13.5 32t33.5 13t33 -13t13 -32q0 -71 -69 -169z" />
    <glyph glyph-name="Lcaron" unicode="&#x13d;" horiz-adv-x="514" 
d="M403 701l-44 -179l-47 6l28 182zM198 64h303v-64h-376h-2v700h75v-636z" />
    <glyph glyph-name="lcaron" unicode="&#x13e;" horiz-adv-x="333" 
d="M297 562l-47 6l28 182l63 -9zM167 740v-643q0 -48 42 -48q16 0 31 4l10 -53q-29 -12 -60 -12q-45 0 -71 25.5t-26 72.5v654h74z" />
    <glyph glyph-name="Ldot" unicode="&#x13f;" horiz-adv-x="516" 
d="M198 64h303v-64h-376h-2v700h75v-636zM419 354q-20 0 -33.5 14t-13.5 34t14 33.5t33 13.5q20 0 34 -14t14 -33q0 -21 -14 -34.5t-34 -13.5z" />
    <glyph glyph-name="ldot" unicode="&#x140;" horiz-adv-x="322" 
d="M167 740v-643q0 -48 42 -48q16 0 31 4l10 -53q-29 -12 -60 -12q-45 0 -71 25.5t-26 72.5v654h74zM289 354q-20 0 -34 14t-14 34q0 19 14 33t34 14t34 -14t14 -33q0 -21 -14 -34.5t-34 -13.5z" />
    <glyph glyph-name="Lslash" unicode="&#x141;" horiz-adv-x="523" 
d="M208 64h303v-64h-376h-2v351l-67 -20l-14 52l81 24v293h75v-271l140 41l15 -51l-155 -46v-309z" />
    <glyph glyph-name="lslash" unicode="&#x142;" horiz-adv-x="302" 
d="M217 49q16 0 32 4l9 -53q-29 -12 -60 -12q-44 0 -70.5 25.5t-26.5 72.5v276l-64 -15l-13 53l77 18v322h74v-304l80 20l12 -53l-92 -22v-284q0 -48 42 -48z" />
    <glyph glyph-name="Nacute" unicode="&#x143;" horiz-adv-x="741" 
d="M488 834l-197 -85l-19 44l192 94zM550 700h68v-700h-90l-337 606v-606h-68v700h91l336 -605v605z" />
    <glyph glyph-name="nacute" unicode="&#x144;" horiz-adv-x="606" 
d="M412 700l-197 -89l-21 43l190 99zM344 539q76 0 122.5 -46t46.5 -130v-363h-74v357q0 122 -111 122q-93 0 -151 -93v-386h-74v527h63l6 -70q63 82 172 82z" />
    <glyph glyph-name="Ncommaaccent" unicode="&#x145;" horiz-adv-x="741" 
d="M550 700h68v-700h-90l-337 606v-606h-68v700h91l336 -605v605zM372 -79q20 0 33 -13t13 -32q0 -71 -69 -169l-34 16q33 64 34 115q-24 12 -24 38q0 19 13.5 32t33.5 13z" />
    <glyph glyph-name="ncommaaccent" unicode="&#x146;" horiz-adv-x="606" 
d="M344 539q76 0 122.5 -46t46.5 -130v-363h-74v357q0 122 -111 122q-93 0 -151 -93v-386h-74v527h63l6 -70q63 82 172 82zM305 -79q20 0 33 -13t13 -32q0 -71 -69 -169l-34 16q33 64 34 115q-24 12 -24 38q0 19 13.5 32t33.5 13z" />
    <glyph glyph-name="Ncaron" unicode="&#x147;" horiz-adv-x="741" 
d="M402 747h-45l-126 104l28 37l120 -88l121 88l28 -37zM550 700h68v-700h-90l-337 606v-606h-68v700h91l336 -605v605z" />
    <glyph glyph-name="ncaron" unicode="&#x148;" horiz-adv-x="606" 
d="M326 604h-45l-126 103l28 37l120 -88l121 88l28 -37zM344 539q76 0 122.5 -46t46.5 -130v-363h-74v357q0 122 -111 122q-93 0 -151 -93v-386h-74v527h63l6 -70q63 82 172 82z" />
    <glyph glyph-name="Eng" unicode="&#x14a;" horiz-adv-x="741" 
d="M550 700h68v-700v-102q0 -53 -29.5 -81.5t-81.5 -28.5q-38 0 -60 12l6 51q19 -7 39 -7q58 0 58 58v98h-22l-337 606v-606h-68v700h91l336 -605v605z" />
    <glyph glyph-name="eng" unicode="&#x14b;" horiz-adv-x="606" 
d="M344 539q76 0 122.5 -46t46.5 -130v-363v-102q0 -53 -29 -81.5t-81 -28.5q-37 0 -61 12l7 51q22 -6 39 -6q28 0 39.5 13t11.5 44v339v116q0 122 -111 122q-93 0 -151 -93v-386h-74v527h63l6 -70q63 82 172 82z" />
    <glyph glyph-name="Omacron" unicode="&#x14c;" horiz-adv-x="706" 
d="M229 787v51h248v-51h-248zM353 712q136 0 204 -79t68 -208v-154q0 -125 -68.5 -204t-203.5 -79t-203.5 79t-68.5 204v154q0 130 68.5 208.5t203.5 78.5zM353 651q-99 0 -148 -61t-49 -164v-157q0 -98 49 -159t148 -61t148 61t49 159v157q0 102 -48.5 163.5t-148.5 61.5z
" />
    <glyph glyph-name="omacron" unicode="&#x14d;" horiz-adv-x="591" 
d="M172 641v51h248v-51h-248zM295 539q112 0 174 -69t62 -179v-52q0 -112 -62 -181.5t-174 -69.5t-173 69t-61 182v52q0 110 61 179t173 69zM295 479q-78 0 -119 -49.5t-41 -137.5v-52q0 -91 41 -142t119 -51q77 0 119.5 51t42.5 142v52q0 87 -42.5 137t-119.5 50z" />
    <glyph glyph-name="Ohungarumlaut" unicode="&#x150;" horiz-adv-x="706" 
d="M435 737l-46 20l80 156l53 -26zM293 741l-47 19l72 152l55 -23zM353 712q136 0 204 -79t68 -208v-154q0 -125 -68.5 -204t-203.5 -79t-203.5 79t-68.5 204v154q0 130 68.5 208.5t203.5 78.5zM353 651q-99 0 -148 -61t-49 -164v-157q0 -98 49 -159t148 -61t148 61t49 159
v157q0 102 -48.5 163.5t-148.5 61.5z" />
    <glyph glyph-name="ohungarumlaut" unicode="&#x151;" horiz-adv-x="591" 
d="M381 611l-46 20l80 156l53 -26zM239 615l-47 19l72 152l55 -23zM295 539q112 0 174 -69t62 -179v-52q0 -112 -62 -181.5t-174 -69.5t-173 69t-61 182v52q0 110 61 179t173 69zM295 479q-78 0 -119 -49.5t-41 -137.5v-52q0 -91 41 -142t119 -51q77 0 119.5 51t42.5 142v52
q0 87 -42.5 137t-119.5 50z" />
    <glyph glyph-name="OE" unicode="&#x152;" horiz-adv-x="1012" 
d="M932 700v-61h-379q75 -76 75 -214v-34h282v-62h-282v-58q0 -134 -75 -210h379v-61h-485q-42 -12 -93 -12q-135 0 -204 79t-69 204v154q0 130 69.5 208.5t203.5 78.5q52 0 93 -12h485zM156 269q0 -99 49 -159.5t149 -60.5q101 0 150 60.5t49 159.5v157q0 102 -49 163.5
t-150 61.5q-99 0 -148.5 -61t-49.5 -164v-157z" />
    <glyph glyph-name="oe" unicode="&#x153;" horiz-adv-x="952" 
d="M892 241h-364v-2q0 -94 44.5 -143t126.5 -49q71 0 144 49l29 -48q-79 -60 -177 -60q-143 0 -201 129q-56 -129 -199 -129q-112 0 -173 69t-61 182v52q0 110 61 179t173 69q144 0 198 -126q57 126 187 126q100 0 157.5 -66.5t57.5 -184.5q0 -11 -3 -47zM680 482
q-73 0 -112 -48.5t-40 -138.5h300v7q0 84 -39 132t-109 48zM457 240v52q0 90 -42 138.5t-120 48.5t-119 -49.5t-41 -137.5v-52q0 -91 41 -142t119 -51t120 50.5t42 142.5z" />
    <glyph glyph-name="Racute" unicode="&#x154;" horiz-adv-x="657" 
d="M427 834l-197 -85l-19 44l192 94zM594 0h-83l-160 297q-3 0 -9.5 -0.5t-10.5 -0.5h-133v-296h-75v700h75h131q109 0 173.5 -48.5t64.5 -131.5v-46q0 -61 -37.5 -103.5t-103.5 -61.5zM330 357q76 0 118.5 31t42.5 88v42q0 57 -44 89t-119 32h-130v-282h132z" />
    <glyph glyph-name="racute" unicode="&#x155;" horiz-adv-x="398" 
d="M344 700l-197 -89l-21 43l190 99zM317 536q29 0 58 -9l-13 -70q-13 4 -36 4q-110 0 -149 -128v-333h-74v527h56l12 -95q22 53 61 78.5t85 25.5z" />
    <glyph glyph-name="Rcommaaccent" unicode="&#x156;" horiz-adv-x="657" 
d="M426 309l168 -309h-83l-160 297q-3 0 -9.5 -0.5t-10.5 -0.5h-133v-296h-75v700h75h131q109 0 173.5 -48.5t64.5 -131.5v-46q0 -61 -37.5 -103.5t-103.5 -61.5zM330 357q76 0 118.5 31t42.5 88v42q0 57 -44 89t-119 32h-130v-282h132zM342 -79q20 0 33 -13t13 -32
q0 -71 -69 -169l-34 16q33 64 34 115q-24 12 -24 38q0 19 13.5 32t33.5 13z" />
    <glyph glyph-name="rcommaaccent" unicode="&#x157;" horiz-adv-x="398" 
d="M317 536q29 0 58 -9l-13 -70q-13 4 -36 4q-110 0 -149 -128v-333h-74v527h56l12 -95q22 53 61 78.5t85 25.5zM141 -79q20 0 33 -13t13 -32q0 -71 -69 -169l-34 16q33 64 34 115q-24 12 -24 38q0 19 13.5 32t33.5 13z" />
    <glyph glyph-name="Rcaron" unicode="&#x158;" horiz-adv-x="657" 
d="M341 747h-45l-126 104l28 37l120 -88l121 88l28 -37zM594 0h-83l-160 297q-3 0 -9.5 -0.5t-10.5 -0.5h-133v-296h-75v700h75h131q109 0 173.5 -48.5t64.5 -131.5v-46q0 -61 -37.5 -103.5t-103.5 -61.5zM330 357q76 0 118.5 31t42.5 88v42q0 57 -44 89t-119 32h-130v-282
h132z" />
    <glyph glyph-name="rcaron" unicode="&#x159;" horiz-adv-x="398" 
d="M258 604h-45l-126 103l28 37l120 -88l121 88l28 -37zM171 432q22 53 61 78.5t85 25.5q29 0 58 -9l-13 -70q-13 4 -36 4q-110 0 -149 -128v-333h-74v527h56z" />
    <glyph glyph-name="Sacute" unicode="&#x15a;" horiz-adv-x="607" 
d="M212 749l-19 44l192 94l24 -53zM289 -12q-155 0 -244 89l40 47q33 -25 54.5 -37.5t60.5 -23.5t89 -11q86 0 130.5 38t44.5 86v16q0 49 -29 76t-101 51l-100 33q-86 29 -124 70.5t-38 98.5v22q0 67 62 118t172 51q139 0 230 -91l-40 -44q-44 39 -87.5 56.5t-101.5 17.5
q-79 0 -119.5 -33.5t-40.5 -74.5v-21q0 -35 30.5 -62t99.5 -49l91 -29q83 -27 127 -68t44 -114v-25q0 -79 -67.5 -133t-182.5 -54z" />
    <glyph glyph-name="sacute" unicode="&#x15b;" horiz-adv-x="507" 
d="M163 611l-21 43l190 99l28 -53zM248 -12q-118 0 -203 68l38 48q70 -57 159 -57q61 0 94.5 21.5t33.5 62.5v8q0 36 -21.5 55.5t-80.5 39.5l-70 25q-67 23 -98 53t-31 78v17q0 58 52 95t131 37q111 0 187 -64l-37 -44q-70 48 -149 48q-51 0 -80.5 -19t-29.5 -52v-8
q0 -30 22 -49t79 -39l70 -25q66 -23 98 -53.5t32 -86.5v-17q0 -66 -55.5 -104t-140.5 -38z" />
    <glyph glyph-name="Scircumflex" unicode="&#x15c;" horiz-adv-x="607" 
d="M180 746l-28 37l126 104h45l126 -104l-28 -37l-121 88zM289 -12q-155 0 -244 89l40 47q33 -25 54.5 -37.5t60.5 -23.5t89 -11q86 0 130.5 38t44.5 86v16q0 49 -29 76t-101 51l-100 33q-86 29 -124 70.5t-38 98.5v22q0 67 62 118t172 51q139 0 230 -91l-40 -44
q-44 39 -87.5 56.5t-101.5 17.5q-79 0 -119.5 -33.5t-40.5 -74.5v-21q0 -35 30.5 -62t99.5 -49l91 -29q83 -27 127 -68t44 -114v-25q0 -79 -67.5 -133t-182.5 -54z" />
    <glyph glyph-name="scircumflex" unicode="&#x15d;" horiz-adv-x="507" 
d="M130 603l-28 37l126 104h45l126 -104l-28 -37l-121 88zM248 -12q-118 0 -203 68l38 48q70 -57 159 -57q61 0 94.5 21.5t33.5 62.5v8q0 36 -21.5 55.5t-80.5 39.5l-70 25q-67 23 -98 53t-31 78v17q0 58 52 95t131 37q111 0 187 -64l-37 -44q-70 48 -149 48
q-51 0 -80.5 -19t-29.5 -52v-8q0 -30 22 -49t79 -39l70 -25q66 -23 98 -53.5t32 -86.5v-17q0 -66 -55.5 -104t-140.5 -38z" />
    <glyph glyph-name="Scedilla" unicode="&#x15e;" horiz-adv-x="607" 
d="M368 382q83 -27 127 -68t44 -114v-25q0 -74 -59 -126.5t-162 -59.5l-1 -53q92 -6 92 -76v-12q0 -39 -31 -58t-76 -19q-38 0 -75 14l11 39q33 -9 62 -9q54 0 54 37v8q0 23 -19.5 31t-69.5 9l4 88q-140 5 -224 89l40 47q33 -25 54.5 -37.5t60.5 -23.5t89 -11q86 0 130.5 38
t44.5 86v16q0 49 -29 76t-101 51l-100 33q-86 29 -124 70.5t-38 98.5v22q0 67 62 118t172 51q139 0 230 -91l-40 -44q-44 39 -87.5 56.5t-101.5 17.5q-79 0 -119.5 -33.5t-40.5 -74.5v-21q0 -35 30.5 -62t99.5 -49z" />
    <glyph glyph-name="scedilla" unicode="&#x15f;" horiz-adv-x="507" 
d="M314 287q66 -23 98 -53.5t32 -86.5v-17q0 -61 -47 -98t-122 -43l-1 -53q92 -6 92 -76v-12q0 -39 -31 -58t-76 -19q-38 0 -75 14l11 39q33 -9 62 -9q54 0 54 37v8q0 23 -19.5 31t-69.5 9l4 89q-105 6 -181 67l38 48q70 -57 159 -57q61 0 94.5 21.5t33.5 62.5v8
q0 36 -21.5 55.5t-80.5 39.5l-70 25q-67 23 -98 53t-31 78v17q0 58 52 95t131 37q111 0 187 -64l-37 -44q-70 48 -149 48q-51 0 -80.5 -19t-29.5 -52v-8q0 -30 22 -49t79 -39z" />
    <glyph glyph-name="Scaron" unicode="&#x160;" horiz-adv-x="607" 
d="M278 747l-126 104l28 37l120 -88l121 88l28 -37l-126 -104h-45zM289 -12q-155 0 -244 89l40 47q33 -25 54.5 -37.5t60.5 -23.5t89 -11q86 0 130.5 38t44.5 86v16q0 49 -29 76t-101 51l-100 33q-86 29 -124 70.5t-38 98.5v22q0 67 62 118t172 51q139 0 230 -91l-40 -44
q-44 39 -87.5 56.5t-101.5 17.5q-79 0 -119.5 -33.5t-40.5 -74.5v-21q0 -35 30.5 -62t99.5 -49l91 -29q83 -27 127 -68t44 -114v-25q0 -79 -67.5 -133t-182.5 -54z" />
    <glyph glyph-name="scaron" unicode="&#x161;" horiz-adv-x="507" 
d="M228 604l-126 103l28 37l120 -88l121 88l28 -37l-126 -103h-45zM248 -12q-118 0 -203 68l38 48q70 -57 159 -57q61 0 94.5 21.5t33.5 62.5v8q0 36 -21.5 55.5t-80.5 39.5l-70 25q-67 23 -98 53t-31 78v17q0 58 52 95t131 37q111 0 187 -64l-37 -44q-70 48 -149 48
q-51 0 -80.5 -19t-29.5 -52v-8q0 -30 22 -49t79 -39l70 -25q66 -23 98 -53.5t32 -86.5v-17q0 -66 -55.5 -104t-140.5 -38z" />
    <glyph glyph-name="uni0162" unicode="&#x162;" horiz-adv-x="538" 
d="M306 0h-12l-1 -64q92 -6 92 -76v-12q0 -39 -31 -58t-76 -19q-38 0 -75 14l11 39q33 -9 62 -9q54 0 54 37v8q0 23 -19.5 31t-69.5 9l5 100h-15v638h-208v62h492v-62h-209v-638z" />
    <glyph glyph-name="uni0163" unicode="&#x163;" horiz-adv-x="391" 
d="M269 -64q92 -6 92 -76v-12q0 -39 -31 -58t-76 -19q-38 0 -75 14l11 39q33 -9 62 -9q54 0 54 37v8q0 23 -19.5 31t-69.5 9l4 92q-91 20 -91 119v358h-84v58h86l6 125h66v-125h127v-58h-127v-355q0 -67 75 -67q27 0 59 8l9 -55q-40 -12 -77 -12z" />
    <glyph glyph-name="Tcaron" unicode="&#x164;" horiz-adv-x="538" 
d="M291 747h-45l-126 104l28 37l120 -88l121 88l28 -37zM515 700v-62h-209v-638h-75v638h-208v62h492z" />
    <glyph glyph-name="tcaron" unicode="&#x165;" horiz-adv-x="383" 
d="M366 740l-36 -153l-46 6l22 154zM279 47q27 0 59 8l9 -55q-42 -12 -81 -12q-136 0 -136 123v358h-84v58h86l6 125h66v-125h127v-58h-127v-355q0 -67 75 -67z" />
    <glyph glyph-name="Tbar" unicode="&#x166;" horiz-adv-x="538" 
d="M515 638h-209v-223h108v-51h-108v-364h-75v364h-107v51h107v223h-208v62h492v-62z" />
    <glyph glyph-name="tbar" unicode="&#x167;" horiz-adv-x="409" 
d="M348 55l8 -55q-40 -12 -80 -12q-136 0 -136 123v178h-84v51h84v129h-84v58h85l7 125h66v-125h127v-58h-127v-129h119v-51h-119v-175q0 -67 75 -67q27 0 59 8z" />
    <glyph glyph-name="Utilde" unicode="&#x168;" horiz-adv-x="704" 
d="M408 761q-28 0 -64 23.5t-51 23.5q-28 0 -56 -42l-43 22q39 70 99 70q27 0 63 -24t52 -24q30 0 56 43l44 -22q-37 -70 -100 -70zM605 700v-474q0 -105 -63.5 -171.5t-190.5 -66.5q-126 0 -189.5 66.5t-63.5 171.5v474h75v-475q0 -80 43.5 -128t134.5 -48q92 0 135.5 48
t43.5 128v475h75z" />
    <glyph glyph-name="utilde" unicode="&#x169;" horiz-adv-x="605" 
d="M245 682q-28 0 -56 -42l-43 22q39 70 99 70q27 0 63 -24t52 -24q30 0 56 43l44 -22q-37 -70 -100 -70q-28 0 -64 23.5t-51 23.5zM428 527h74v-527h-63l-6 74q-70 -86 -174 -86q-72 0 -119 43.5t-47 115.5v380h74v-377q0 -49 28 -76t78 -27q95 0 155 94v386z" />
    <glyph glyph-name="Umacron" unicode="&#x16a;" horiz-adv-x="704" 
d="M228 787v51h248v-51h-248zM605 700v-474q0 -105 -63.5 -171.5t-190.5 -66.5q-126 0 -189.5 66.5t-63.5 171.5v474h75v-475q0 -80 43.5 -128t134.5 -48q92 0 135.5 48t43.5 128v475h75z" />
    <glyph glyph-name="umacron" unicode="&#x16b;" horiz-adv-x="605" 
d="M427 692v-51h-248v51h248zM428 527h74v-527h-63l-6 74q-70 -86 -174 -86q-72 0 -119 43.5t-47 115.5v380h74v-377q0 -49 28 -76t78 -27q95 0 155 94v386z" />
    <glyph glyph-name="Ubreve" unicode="&#x16c;" horiz-adv-x="704" 
d="M351 763q-54 0 -91 30.5t-50 82.5l51 10q22 -73 90 -73q69 0 91 73l51 -10q-13 -52 -50.5 -82.5t-91.5 -30.5zM605 700v-474q0 -105 -63.5 -171.5t-190.5 -66.5q-126 0 -189.5 66.5t-63.5 171.5v474h75v-475q0 -80 43.5 -128t134.5 -48q92 0 135.5 48t43.5 128v475h75z
" />
    <glyph glyph-name="ubreve" unicode="&#x16d;" horiz-adv-x="605" 
d="M302 620q-54 0 -91 31t-48 84l49 10q22 -75 90 -75q69 0 91 75l50 -10q-12 -53 -49.5 -84t-91.5 -31zM428 527h74v-527h-63l-6 74q-70 -86 -174 -86q-72 0 -119 43.5t-47 115.5v380h74v-377q0 -49 28 -76t78 -27q95 0 155 94v386z" />
    <glyph glyph-name="Uring" unicode="&#x16e;" horiz-adv-x="704" 
d="M351 729q-44 0 -75 27t-31 67v15q0 40 31 67.5t75 27.5t75.5 -27.5t31.5 -67.5v-15q0 -40 -31.5 -67t-75.5 -27zM351 771q25 0 42 14.5t17 38.5v13q0 24 -17 39.5t-42 15.5q-24 0 -41 -15.5t-17 -39.5v-13q0 -24 16.5 -38.5t41.5 -14.5zM605 700v-474
q0 -105 -63.5 -171.5t-190.5 -66.5q-126 0 -189.5 66.5t-63.5 171.5v474h75v-475q0 -80 43.5 -128t134.5 -48q92 0 135.5 48t43.5 128v475h75z" />
    <glyph glyph-name="uring" unicode="&#x16f;" horiz-adv-x="605" 
d="M302 603q-44 0 -75 27t-31 67v15q0 40 31 67.5t75 27.5t75.5 -27.5t31.5 -67.5v-15q0 -40 -31.5 -67t-75.5 -27zM244 711v-13q0 -24 16.5 -38.5t41.5 -14.5t42 14.5t17 38.5v13q0 24 -17 39.5t-42 15.5q-24 0 -41 -15.5t-17 -39.5zM428 527h74v-527h-63l-6 74
q-70 -86 -174 -86q-72 0 -119 43.5t-47 115.5v380h74v-377q0 -49 28 -76t78 -27q95 0 155 94v386z" />
    <glyph glyph-name="Uhungarumlaut" unicode="&#x170;" horiz-adv-x="704" 
d="M434 737l-46 20l80 156l53 -26zM292 741l-47 19l72 152l55 -23zM605 700v-474q0 -105 -63.5 -171.5t-190.5 -66.5q-126 0 -189.5 66.5t-63.5 171.5v474h75v-475q0 -80 43.5 -128t134.5 -48q92 0 135.5 48t43.5 128v475h75z" />
    <glyph glyph-name="uhungarumlaut" unicode="&#x171;" horiz-adv-x="605" 
d="M475 761l-87 -150l-46 20l80 156zM326 763l-80 -148l-47 19l72 152zM428 527h74v-527h-63l-6 74q-70 -86 -174 -86q-72 0 -119 43.5t-47 115.5v380h74v-377q0 -49 28 -76t78 -27q95 0 155 94v386z" />
    <glyph glyph-name="Uogonek" unicode="&#x172;" horiz-adv-x="706" 
d="M530 700h75v-474q0 -78 -35.5 -136.5t-106.5 -83.5q-66 -29 -97.5 -59t-31.5 -67q0 -50 60 -50q25 0 59 7l-6 -50q-37 -7 -61 -7q-50 0 -80 25.5t-30 68.5q0 69 86 114h-11q-126 0 -189.5 66.5t-63.5 171.5v474h75v-475q0 -80 43.5 -128t134.5 -48q92 0 135.5 48
t43.5 128v475z" />
    <glyph glyph-name="uogonek" unicode="&#x173;" horiz-adv-x="605" 
d="M368 -120q0 -50 60 -50q25 0 59 7l-6 -50q-37 -7 -61 -7q-50 0 -80 25.5t-30 68.5q0 44 33.5 80.5t94.5 57.5l-5 62q-70 -86 -174 -86q-72 0 -119 43.5t-47 115.5v380h74v-377q0 -49 28 -76t78 -27q95 0 155 94v386h74v-527q-134 -40 -134 -120z" />
    <glyph glyph-name="Wcircumflex" unicode="&#x174;" horiz-adv-x="878" 
d="M439 834l-120 -88l-28 37l126 104h45l126 -104l-28 -37zM751 700h75l-129 -700h-108l-152 633l-151 -633h-109l-130 700h77l111 -638l154 638h98h1l155 -638z" />
    <glyph glyph-name="wcircumflex" unicode="&#x175;" horiz-adv-x="782" 
d="M391 691l-120 -88l-28 37l126 104h45l126 -104l-28 -37zM657 527h74l-120 -527h-98l-121 462l-124 -462h-96l-121 527h74l99 -463l124 463h90l124 -463z" />
    <glyph glyph-name="Ycircumflex" unicode="&#x176;" horiz-adv-x="564" 
d="M282 834l-120 -88l-28 37l126 104h45l126 -104l-28 -37zM548 700l-228 -408v-292h-75v292l-229 408h80l188 -345l187 345h77z" />
    <glyph glyph-name="ycircumflex" unicode="&#x177;" horiz-adv-x="540" 
d="M150 603l-28 37l126 104h45l126 -104l-28 -37l-121 88zM141 -212q-36 0 -60 11l11 51q26 -6 50 -6q36 0 58 19.5t39 71.5l21 65h-34l-183 527h78l157 -472l145 472h74l-193 -597q-27 -82 -65.5 -112t-97.5 -30z" />
    <glyph glyph-name="Ydieresis" unicode="&#x178;" horiz-adv-x="564" 
d="M174 783q-19 0 -31.5 12.5t-12.5 30.5t12.5 30.5t31.5 12.5q18 0 30 -12.5t12 -30.5t-12 -30.5t-30 -12.5zM390 783q-18 0 -30 12.5t-12 30.5t12 30.5t30 12.5q19 0 31.5 -12.5t12.5 -30.5t-12.5 -30.5t-31.5 -12.5zM548 700l-228 -408v-292h-75v292l-229 408h80
l188 -345l187 345h77z" />
    <glyph glyph-name="Zacute" unicode="&#x179;" horiz-adv-x="559" 
d="M199 749l-19 44l192 94l24 -53zM504 700v-57l-369 -581h377v-62h-460v59l369 580h-353v61h436z" />
    <glyph glyph-name="zacute" unicode="&#x17a;" horiz-adv-x="457" 
d="M140 611l-21 43l190 99l28 -53zM408 527v-55l-282 -412h290v-60h-372v56l282 411h-268v60h350z" />
    <glyph glyph-name="Zdotaccent" unicode="&#x17b;" horiz-adv-x="559" 
d="M289 766q-20 0 -33.5 14t-13.5 34t14 33.5t33 13.5q20 0 34 -13.5t14 -33.5t-14 -34t-34 -14zM504 700v-57l-369 -581h377v-62h-460v59l369 580h-353v61h436z" />
    <glyph glyph-name="zdotaccent" unicode="&#x17c;" horiz-adv-x="457" 
d="M229 630q-20 0 -33.5 14t-13.5 34t14 33.5t33 13.5q20 0 34 -13.5t14 -33.5t-14 -34t-34 -14zM408 527v-55l-282 -412h290v-60h-372v56l282 411h-268v60h350z" />
    <glyph glyph-name="Zcaron" unicode="&#x17d;" horiz-adv-x="559" 
d="M266 747l-126 104l28 37l120 -88l121 88l28 -37l-126 -104h-45zM504 700v-57l-369 -581h377v-62h-460v59l369 580h-353v61h436z" />
    <glyph glyph-name="zcaron" unicode="&#x17e;" horiz-adv-x="457" 
d="M205 604l-126 103l28 37l120 -88l121 88l28 -37l-126 -103h-45zM408 527v-55l-282 -412h290v-60h-372v56l282 411h-268v60h350z" />
    <glyph glyph-name="florin" unicode="&#x192;" horiz-adv-x="375" 
d="M294 693q-93 0 -93 -88v-78h145v-58h-145v-571q0 -53 -29 -81.5t-80 -28.5q-37 0 -61 12l6 51q20 -5 39 -5q28 0 39.5 12.5t11.5 43.5v567h-73v58h73v72q0 73 41 113t118 40q48 0 86 -12l-9 -56q-36 9 -69 9z" />
    <glyph glyph-name="Scommaaccent" unicode="&#x218;" horiz-adv-x="607" 
d="M289 -12q-155 0 -244 89l40 47q33 -25 54.5 -37.5t60.5 -23.5t89 -11q86 0 130.5 38t44.5 86v16q0 49 -29 76t-101 51l-100 33q-86 29 -124 70.5t-38 98.5v22q0 67 62 118t172 51q139 0 230 -91l-40 -44q-44 39 -87.5 56.5t-101.5 17.5q-79 0 -119.5 -33.5t-40.5 -74.5
v-21q0 -35 30.5 -62t99.5 -49l91 -29q83 -27 127 -68t44 -114v-25q0 -79 -67.5 -133t-182.5 -54zM272 -293l-34 16q33 64 34 115q-24 12 -24 38q0 19 13.5 32t33.5 13t33 -13t13 -32q0 -71 -69 -169z" />
    <glyph glyph-name="scommaaccent" unicode="&#x219;" horiz-adv-x="507" 
d="M248 -12q-118 0 -203 68l38 48q70 -57 159 -57q61 0 94.5 21.5t33.5 62.5v8q0 36 -21.5 55.5t-80.5 39.5l-70 25q-67 23 -98 53t-31 78v17q0 58 52 95t131 37q111 0 187 -64l-37 -44q-70 48 -149 48q-51 0 -80.5 -19t-29.5 -52v-8q0 -30 22 -49t79 -39l70 -25
q66 -23 98 -53.5t32 -86.5v-17q0 -66 -55.5 -104t-140.5 -38zM229 -293l-34 16q33 64 34 115q-24 12 -24 38q0 19 13.5 32t33.5 13t33 -13t13 -32q0 -71 -69 -169z" />
    <glyph glyph-name="uni021A" unicode="&#x21a;" horiz-adv-x="538" 
d="M23 700h492v-62h-209v-638h-75v638h-208v62zM270 -79q20 0 33 -13t13 -32q0 -71 -69 -169l-34 16q33 64 34 115q-24 12 -24 38q0 19 13.5 32t33.5 13z" />
    <glyph glyph-name="uni021B" unicode="&#x21b;" horiz-adv-x="391" 
d="M347 0q-42 -12 -81 -12q-136 0 -136 123v358h-84v58h86l6 125h66v-125h127v-58h-127v-355q0 -67 75 -67q27 0 59 8zM246 -79q20 0 33 -13t13 -32q0 -71 -69 -169l-34 16q33 64 34 115q-24 12 -24 38q0 19 13.5 32t33.5 13z" />
    <glyph glyph-name="uni021E" unicode="&#x21e;" horiz-adv-x="745" 
d="M350 747l-126 104l28 37l120 -88l121 88l28 -37l-126 -104h-45zM621 700v-700h-75v332h-348v-332h-75v700h75v-305h348v305h75z" />
    <glyph glyph-name="uni021F" unicode="&#x21f;" horiz-adv-x="606" 
d="M162 787h-45l-126 104l28 37l120 -88l121 88l28 -37zM344 539q76 0 122.5 -46t46.5 -130v-363h-74v357q0 122 -111 122q-94 0 -151 -94v-385h-74v740h74v-280q59 79 167 79z" />
    <glyph glyph-name="uni0237" unicode="&#x237;" horiz-adv-x="305" 
d="M202 527v-629q0 -53 -29.5 -81.5t-81.5 -28.5q-36 0 -60 12l7 51q22 -6 38 -6q28 0 40 13t12 44v567h-75v58h149z" />
    <glyph glyph-name="circumflex" unicode="&#x2c6;" horiz-adv-x="400" 
d="M80 603l-29 37l127 104h44l126 -104l-28 -37l-120 88z" />
    <glyph glyph-name="caron" unicode="&#x2c7;" horiz-adv-x="400" 
d="M178 604l-127 103l29 37l120 -88l120 88l28 -37l-126 -103h-44z" />
    <glyph glyph-name="breve" unicode="&#x2d8;" horiz-adv-x="400" 
d="M199 620q-54 0 -90.5 31t-48.5 84l49 10q22 -75 90 -75q69 0 91 75l50 -10q-12 -53 -49.5 -84t-91.5 -31z" />
    <glyph glyph-name="dotaccent" unicode="&#x2d9;" horiz-adv-x="400" 
d="M200 630q-20 0 -33.5 14t-13.5 34t13.5 33.5t33.5 13.5t34 -13.5t14 -33.5t-14 -34t-34 -14z" />
    <glyph glyph-name="ring" unicode="&#x2da;" horiz-adv-x="400" 
d="M200 603q-44 0 -75.5 27t-31.5 67v15q0 40 31.5 67.5t75.5 27.5t75.5 -27.5t31.5 -67.5v-15q0 -40 -31.5 -67t-75.5 -27zM200 645q25 0 41.5 14.5t16.5 38.5v13q0 24 -17 39.5t-41 15.5t-41 -15.5t-17 -39.5v-13q0 -24 16.5 -38.5t41.5 -14.5z" />
    <glyph glyph-name="ogonek" unicode="&#x2db;" horiz-adv-x="400" 
d="M255 -220q-50 0 -80 25.5t-30 68.5q0 54 49 95t135 57l8 -26q-134 -40 -134 -120q0 -50 60 -50q25 0 59 7l-7 -50q-35 -7 -60 -7z" />
    <glyph glyph-name="tilde" unicode="&#x2dc;" horiz-adv-x="400" 
d="M257 635q-28 0 -64 23.5t-51 23.5q-28 0 -56 -42l-43 22q39 70 99 70q27 0 63 -24t52 -24q30 0 56 43l44 -22q-38 -70 -100 -70z" />
    <glyph glyph-name="hungarumlaut" unicode="&#x2dd;" horiz-adv-x="400" 
d="M253 611l-46 20l80 156l53 -26zM111 615l-47 19l72 152l55 -23z" />
    <glyph glyph-name="gravecomb" unicode="&#x300;" horiz-adv-x="0" 
d="M-51 611l-196 89l26 53l191 -99z" />
    <glyph glyph-name="acutecomb" unicode="&#x301;" horiz-adv-x="0" 
d="M-227 611l-21 43l190 99l28 -53z" />
    <glyph glyph-name="uni0302" unicode="&#x302;" horiz-adv-x="0" 
d="M-299 603l-28 37l126 104h45l126 -104l-28 -37l-121 88z" />
    <glyph glyph-name="tildecomb" unicode="&#x303;" horiz-adv-x="0" 
d="M-126 635q-28 0 -63.5 23.5t-51.5 23.5q-28 0 -56 -42l-43 22q39 70 99 70q27 0 63 -24t52 -24q30 0 56 43l44 -22q-37 -70 -100 -70z" />
    <glyph glyph-name="uni0304" unicode="&#x304;" horiz-adv-x="0" 
d="M-278 641v51h248v-51h-248z" />
    <glyph glyph-name="uni0306" unicode="&#x306;" horiz-adv-x="0" 
d="M-165 620q-54 0 -91 31t-48 84l49 10q22 -75 90 -75q69 0 91 75l50 -10q-12 -53 -49.5 -84t-91.5 -31z" />
    <glyph glyph-name="uni0307" unicode="&#x307;" horiz-adv-x="0" 
d="M-79 630q-20 0 -33.5 14t-13.5 34t14 33.5t33 13.5q20 0 34 -13.5t14 -33.5t-14 -34t-34 -14z" />
    <glyph glyph-name="uni0308" unicode="&#x308;" horiz-adv-x="0" 
d="M-275 630q-19 0 -31.5 12.5t-12.5 30.5t12.5 30.5t31.5 12.5q18 0 30 -12.5t12 -30.5t-12 -30.5t-30 -12.5zM-59 630q-18 0 -30 12.5t-12 30.5t12 30.5t30 12.5q19 0 31.5 -12.5t12.5 -30.5t-12.5 -30.5t-31.5 -12.5z" />
    <glyph glyph-name="uni030A" unicode="&#x30a;" horiz-adv-x="0" 
d="M-128 603q-44 0 -75 27t-31 67v15q0 40 31 67.5t75 27.5t75.5 -27.5t31.5 -67.5v-15q0 -40 -31.5 -67t-75.5 -27zM-128 645q25 0 42 14.5t17 38.5v13q0 24 -17 39.5t-42 15.5q-24 0 -41 -15.5t-17 -39.5v-13q0 -24 16.5 -38.5t41.5 -14.5z" />
    <glyph glyph-name="uni030B" unicode="&#x30b;" horiz-adv-x="0" 
d="M-109 611l-46 20l80 156l53 -26zM-251 615l-47 19l72 152l55 -23z" />
    <glyph glyph-name="uni030C" unicode="&#x30c;" horiz-adv-x="0" 
d="M-201 604l-126 103l28 37l120 -88l121 88l28 -37l-126 -103h-45z" />
    <glyph glyph-name="uni0312" unicode="&#x312;" horiz-adv-x="0" 
d="M-54 828l34 -17q-31 -59 -34 -115q24 -12 24 -38q0 -19 -13.5 -31.5t-32.5 -12.5q-20 0 -33.5 12.5t-13.5 31.5q0 70 69 170z" />
    <glyph glyph-name="dotbelowcomb" unicode="&#x323;" horiz-adv-x="0" 
d="M-80 -81q20 0 33.5 -13.5t13.5 -33.5t-13.5 -34t-33.5 -14t-34 14t-14 34q0 19 14 33t34 14z" />
    <glyph glyph-name="uni0326" unicode="&#x326;" horiz-adv-x="0" 
d="M-92 -293l-34 16q33 64 34 115q-24 12 -24 38q0 19 13.5 32t33.5 13t33 -13t13 -32q0 -71 -69 -169z" />
    <glyph glyph-name="uni0327" unicode="&#x327;" horiz-adv-x="0" 
d="M-136 -229q-38 0 -75 14l11 39q33 -9 62 -9q54 0 54 37v8q0 23 -19.5 31t-69.5 9l5 108h48l-1 -72q92 -6 92 -76v-12q0 -39 -31 -58t-76 -19z" />
    <glyph glyph-name="uni0328" unicode="&#x328;" horiz-adv-x="0" 
d="M-119 -220q-50 0 -80 25.5t-30 68.5q0 54 49 95t135 57l8 -26q-134 -40 -134 -120q0 -50 60 -50q25 0 59 7l-6 -50q-37 -7 -61 -7z" />
    <glyph glyph-name="uni0335" unicode="&#x335;" horiz-adv-x="0" 
d="M-346 316v51h290v-51h-290z" />
    <glyph glyph-name="uni0336" unicode="&#x336;" horiz-adv-x="0" 
d="M-578 316v51h546v-51h-546z" />
    <glyph glyph-name="uni0394" unicode="&#x394;" horiz-adv-x="632" 
d="M364 700l236 -700h-78h-444h-46l229 700h103zM128 63h374l-190 580z" />
    <glyph glyph-name="uni03A9" unicode="&#x3a9;" horiz-adv-x="709" 
d="M515 61h113v-61h-225v54q70 16 110 71.5t40 130.5v170q0 103 -49.5 164t-149.5 61q-99 0 -148.5 -61t-49.5 -164v-170q0 -76 40 -131t110 -71v-54h-225v61h113q-113 67 -113 211v153q0 130 69 208.5t204 78.5t204.5 -78.5t69.5 -208.5v-153q0 -144 -113 -211z" />
    <glyph glyph-name="uni03BC" unicode="&#x3bc;" horiz-adv-x="615" 
d="M438 527h74v-527h-63l-6 74q-68 -86 -160 -86q-60 0 -106 39v-227h-74v727h74v-377q0 -48 28.5 -75.5t77.5 -27.5q95 0 155 94v386z" />
    <glyph glyph-name="pi" unicode="&#x3c0;" horiz-adv-x="650" 
d="M141 0v466h-48v61h464v-61h-47v-466h-73v466h-222v-466h-74z" />
    <glyph glyph-name="uni0401" unicode="&#x401;" horiz-adv-x="582" 
d="M208 783q-19 0 -31.5 12.5t-12.5 30.5t12.5 30.5t31.5 12.5q18 0 30 -12.5t12 -30.5t-12 -30.5t-30 -12.5zM424 783q-18 0 -30 12.5t-12 30.5t12 30.5t30 12.5q19 0 31.5 -12.5t12.5 -30.5t-12.5 -30.5t-31.5 -12.5zM502 639h-304v-248h282v-62h-282v-268h304v-61h-377
h-2v700h75h304v-61z" />
    <glyph glyph-name="uni0402" unicode="&#x402;" horiz-adv-x="760" 
d="M480 454q80 0 136 -44.5t56 -123.5l-1 -248q-1 -84 -32.5 -121.5t-81.5 -37.5q-47 0 -75 13l6 55q21 -7 48 -7q31 0 45.5 21.5t14.5 83.5v233q0 57 -36.5 86t-89.5 29q-47 0 -90 -19.5t-72 -52.5v-321h-75v640h-210v60h285h207v-60h-207v-251q68 65 172 65z" />
    <glyph glyph-name="uni0403" unicode="&#x403;" horiz-adv-x="541" 
d="M428 834l-197 -85l-19 44l192 94zM517 700v-64h-319v-636h-75v700h75h319z" />
    <glyph glyph-name="uni0404" unicode="&#x404;" horiz-adv-x="591" 
d="M342 49q88 0 163 56l33 -48q-85 -69 -196 -69q-124 0 -192.5 71t-68.5 190v185q0 127 71 202.5t195 75.5q114 0 198 -75l-40 -46q-73 60 -156 60q-93 0 -143 -57t-50 -158v-49h283v-63h-283v-73q0 -94 47.5 -148t138.5 -54z" />
    <glyph glyph-name="uni0405" unicode="&#x405;" horiz-adv-x="607" 
d="M289 -12q-155 0 -244 89l40 47q33 -25 54.5 -37.5t60.5 -23.5t89 -11q86 0 130.5 38t44.5 86v16q0 49 -29 76t-101 51l-100 33q-86 29 -124 70.5t-38 98.5v22q0 67 62 118t172 51q139 0 230 -91l-40 -44q-44 39 -87.5 56.5t-101.5 17.5q-79 0 -119.5 -33.5t-40.5 -74.5
v-21q0 -35 30.5 -62t99.5 -49l91 -29q83 -27 127 -68t44 -114v-25q0 -79 -67.5 -133t-182.5 -54z" />
    <glyph glyph-name="uni0406" unicode="&#x406;" horiz-adv-x="409" 
d="M326 639h-84v-578h84v-61h-159h-83v61h83v578h-83v61h158h84v-61z" />
    <glyph glyph-name="uni0407" unicode="&#x407;" horiz-adv-x="409" 
d="M139 826q0 -18 -12 -30.5t-30 -12.5q-19 0 -31.5 12.5t-12.5 30.5t12.5 30.5t31.5 12.5q18 0 30 -12.5t12 -30.5zM313 869q19 0 31.5 -12.5t12.5 -30.5t-12.5 -30.5t-31.5 -12.5q-18 0 -30 12.5t-12 30.5t12 30.5t30 12.5zM326 700v-61h-84v-578h84v-61h-159h-83v61h83
v578h-83v61h242z" />
    <glyph glyph-name="uni0408" unicode="&#x408;" horiz-adv-x="523" 
d="M424 700v-501q0 -98 -53 -154.5t-148 -56.5q-111 0 -182 65l37 45q66 -49 140 -49q60 0 95.5 37.5t35.5 110.5v442h-271v61h346z" />
    <glyph glyph-name="uni0409" unicode="&#x409;" horiz-adv-x="1008" 
d="M687 416q121 0 190.5 -46.5t69.5 -123.5v-71q0 -81 -69 -128t-191 -47h-118h-73v637h-222l-66 -462q-14 -98 -41 -140.5t-93 -42.5q-30 0 -50 10v53q15 -5 31 -5q34 0 50.5 25t27.5 101l76 524h362v-284h116zM872 178v65q0 54 -47.5 83t-135.5 29h-118v-294h118
q88 0 135.5 30t47.5 87z" />
    <glyph glyph-name="uni040A" unicode="&#x40a;" horiz-adv-x="1022" 
d="M701 416q120 0 190 -47t70 -124v-70q0 -79 -70 -127t-190 -48h-115h-59v355h-328v-355h-76v700h76v-284h328v284h76v-284h98zM886 179v63q0 54 -48 83.5t-135 29.5h-100v-294h100q88 0 135.5 30.5t47.5 87.5z" />
    <glyph glyph-name="uni040B" unicode="&#x40b;" horiz-adv-x="760" 
d="M480 454q80 0 136 -44.5t56 -123.5v-286h-76v279q0 57 -36.5 85.5t-89.5 28.5q-98 0 -162 -73v-320h-75v640h-210v60h285h207v-60h-207v-252q71 66 172 66z" />
    <glyph glyph-name="uni040C" unicode="&#x40c;" horiz-adv-x="657" 
d="M464 834l-197 -85l-19 44l192 94zM543 0l-213 326h-132v-326h-75v700h75v-311h124l195 311h82l-210 -336l241 -364h-87z" />
    <glyph glyph-name="uni040E" unicode="&#x40e;" horiz-adv-x="541" 
d="M275 762q-52 0 -90.5 27.5t-55.5 70.5l51 10q28 -57 95 -57t96 57l52 -10q-17 -43 -56 -70.5t-92 -27.5zM460 700h77l-319 -700h-77l101 216l-218 484h79l175 -405z" />
    <glyph glyph-name="uni040F" unicode="&#x40f;" horiz-adv-x="745" 
d="M621 700v-700h-223v-172h-50l-14 172h-211v700h75v-637h348v637h75z" />
    <glyph glyph-name="uni0410" unicode="&#x410;" horiz-adv-x="632" 
d="M522 0l-72 216h-273l-68 -216h-77l229 700h103l236 -700h-78zM312 645l-115 -367h233z" />
    <glyph glyph-name="uni0411" unicode="&#x411;" horiz-adv-x="663" 
d="M327 413q121 0 190.5 -47t69.5 -124v-67q0 -81 -69 -128t-191 -47h-131h-73v700h75h319v-63h-319v-224h129zM512 178v62q0 54 -47.5 83t-135.5 29h-131v-291h131q89 0 136 30t47 87z" />
    <glyph glyph-name="uni0412" unicode="&#x412;" horiz-adv-x="645" 
d="M429 360q55 -6 97.5 -42t42.5 -103v-43q0 -79 -69.5 -125.5t-190.5 -46.5h-112h-74v700h76h117q106 0 168.5 -43.5t62.5 -123.5v-44q0 -54 -34.5 -88t-84.5 -41h1zM318 641h-119v-258h148q57 0 91 28.5t34 78.5v39q0 55 -41.5 83.5t-112.5 28.5zM494 175v40
q0 51 -39.5 80t-103.5 29h-152v-265h112q89 0 136 29.5t47 86.5z" />
    <glyph glyph-name="uni0413" unicode="&#x413;" horiz-adv-x="541" 
d="M517 700v-64h-319v-636h-75v700h75h319z" />
    <glyph glyph-name="uni0414" unicode="&#x414;" horiz-adv-x="686" 
d="M550 61h94v-233h-50l-15 172h-68h-433h-5l-15 -172h-50v233h38q40 0 58 34.5t31 120.5l69 484h346v-639zM475 61v576h-205l-58 -392q-22 -152 -67 -184h330z" />
    <glyph glyph-name="uni0415" unicode="&#x415;" horiz-adv-x="582" 
d="M502 639h-304v-248h282v-62h-282v-268h304v-61h-377h-2v700h75h304v-61z" />
    <glyph glyph-name="uni0416" unicode="&#x416;" horiz-adv-x="883" 
d="M770 0l-201 326h-92v-326h-71v326h-92l-201 -326h-86l227 366l-199 334h85l180 -310h86v310h71v-310h86l181 310h85l-199 -334l226 -366h-86z" />
    <glyph glyph-name="uni0417" unicode="&#x417;" horiz-adv-x="593" 
d="M70 109q92 -60 190 -60q73 0 127 33.5t54 102.5v35q0 62 -51 92.5t-112 30.5h-92v58h92q56 0 97.5 27t41.5 80v28q0 59 -42 87t-110 28q-88 0 -182 -62l-40 46q99 77 226 77q101 0 162 -46.5t61 -124.5v-35q0 -48 -38 -84.5t-87 -45.5q53 -6 101.5 -48t48.5 -104v-41
q0 -87 -73 -141t-178 -54q-58 0 -107.5 13.5t-70 25t-52.5 33.5z" />
    <glyph glyph-name="uni0418" unicode="&#x418;" horiz-adv-x="743" 
d="M531 700h89v-700h-73v603l-336 -603h-88v700h73v-604z" />
    <glyph glyph-name="uni0419" unicode="&#x419;" horiz-adv-x="743" 
d="M370 762q-52 0 -90.5 27.5t-55.5 70.5l51 10q29 -57 95 -57q68 0 96 57l52 -10q-17 -43 -56 -70.5t-92 -27.5zM531 700h89v-700h-73v603l-336 -603h-88v700h73v-604z" />
    <glyph glyph-name="uni041A" unicode="&#x41a;" horiz-adv-x="657" 
d="M543 0l-213 326h-132v-326h-75v700h75v-311h124l195 311h82l-210 -336l241 -364h-87z" />
    <glyph glyph-name="uni041B" unicode="&#x41b;" horiz-adv-x="716" 
d="M74 -8q-30 0 -50 10v53q15 -5 31 -5q34 0 50.5 25t27.5 101l76 524h384v-700h-75v637h-244l-66 -462q-14 -98 -41 -140.5t-93 -42.5z" />
    <glyph glyph-name="uni041C" unicode="&#x41c;" horiz-adv-x="873" 
d="M655 700h94v-700h-72v587l-200 -486l1 -1h-85l-201 495v-595h-69v700h99l216 -537l218 536z" />
    <glyph glyph-name="uni041D" unicode="&#x41d;" horiz-adv-x="745" 
d="M621 700v-700h-75v332h-348v-332h-75v700h75v-305h348v305h75z" />
    <glyph glyph-name="uni041E" unicode="&#x41e;" horiz-adv-x="706" 
d="M353 712q136 0 204 -79t68 -208v-154q0 -125 -68.5 -204t-203.5 -79t-203.5 79t-68.5 204v154q0 130 68.5 208.5t203.5 78.5zM353 651q-99 0 -148 -61t-49 -164v-157q0 -98 49 -159t148 -61t148 61t49 159v157q0 102 -48.5 163.5t-148.5 61.5z" />
    <glyph glyph-name="uni041F" unicode="&#x41f;" horiz-adv-x="745" 
d="M621 700v-700h-75v637h-348v-637h-75v700h498z" />
    <glyph glyph-name="uni0420" unicode="&#x420;" horiz-adv-x="608" 
d="M326 700q110 0 174.5 -51t64.5 -144v-54q0 -93 -68 -145t-188 -52h-111v-254h-75v700h75h128zM490 454v47q0 68 -44 103t-122 35h-126v-324h109q183 0 183 139z" />
    <glyph glyph-name="uni0421" unicode="&#x421;" horiz-adv-x="580" 
d="M340 -12q-123 0 -191 71t-68 190v185q0 127 70.5 202.5t193.5 75.5q113 0 199 -75l-40 -45q-72 59 -157 59q-91 0 -141 -57t-50 -158v-185q0 -96 47.5 -149t137.5 -53t163 56l33 -48q-85 -69 -197 -69z" />
    <glyph glyph-name="uni0422" unicode="&#x422;" horiz-adv-x="538" 
d="M515 700v-62h-209v-638h-75v638h-208v62h492z" />
    <glyph glyph-name="uni0423" unicode="&#x423;" horiz-adv-x="541" 
d="M460 700h77l-319 -700h-77l101 216l-218 484h79l175 -405z" />
    <glyph glyph-name="uni0424" unicode="&#x424;" horiz-adv-x="836" 
d="M471 640q146 0 219.5 -72t73.5 -190v-59q0 -114 -76 -186.5t-217 -72.5h-17v-87h-76v87h-9q-143 0 -220 72.5t-77 186.5v59q0 118 74 190t223 72h9v87h76v-87h17zM369 121h9v458h-9q-112 0 -167 -54.5t-55 -145.5v-62q0 -88 56.5 -142t165.5 -54zM689 317v62
q0 91 -54 145.5t-164 54.5h-17v-458h17q107 0 162.5 54t55.5 142z" />
    <glyph glyph-name="uni0425" unicode="&#x425;" horiz-adv-x="620" 
d="M598 0h-85l-203 321l-204 -321h-84l240 374l-216 326h85l180 -273l182 273h82l-218 -322z" />
    <glyph glyph-name="uni0426" unicode="&#x426;" horiz-adv-x="759" 
d="M621 61h96v-233h-50l-14 172h-69h-461v700h75v-637h348v637h75v-639z" />
    <glyph glyph-name="uni0427" unicode="&#x427;" horiz-adv-x="687" 
d="M489 700h75v-700h-75v282q-83 -64 -211 -64q-207 0 -207 213v269h75v-271q0 -150 156 -150q116 0 187 65v356z" />
    <glyph glyph-name="uni0428" unicode="&#x428;" horiz-adv-x="1035" 
d="M837 700h75v-700h-789v700h75v-637h282v637h75v-637h282v637z" />
    <glyph glyph-name="uni0429" unicode="&#x429;" horiz-adv-x="1046" 
d="M912 61h92v-233h-50l-14 172h-69h-748v700h75v-637h282v637h75v-637h282v637h75v-639z" />
    <glyph glyph-name="uni042A" unicode="&#x42a;" horiz-adv-x="711" 
d="M392 416q119 0 188.5 -47t69.5 -124v-70q0 -79 -69.5 -127t-188.5 -48h-133h-73v639h-179v61h238h16v-284h131zM575 179v63q0 54 -47.5 83.5t-133.5 29.5h-133v-294h133q86 0 133.5 30.5t47.5 87.5z" />
    <glyph glyph-name="uni042B" unicode="&#x42b;" horiz-adv-x="902" 
d="M312 416q120 0 190 -47t70 -124v-70q0 -79 -70 -127t-190 -48h-116h-73v700h75v-284h114zM704 700h75v-700h-75v700zM497 179v63q0 54 -48 83.5t-135 29.5h-116v-294h116q88 0 135.5 30.5t47.5 87.5z" />
    <glyph glyph-name="uni042C" unicode="&#x42c;" horiz-adv-x="648" 
d="M329 416q119 0 188.5 -47t69.5 -124v-70q0 -79 -69.5 -127t-188.5 -48h-133h-73v700h75v-284h131zM512 179v63q0 54 -47.5 83.5t-133.5 29.5h-133v-294h133q86 0 133.5 30.5t47.5 87.5z" />
    <glyph glyph-name="uni042D" unicode="&#x42d;" horiz-adv-x="578" 
d="M247 712q117 0 184 -74.5t67 -203.5v-185q0 -116 -66 -188.5t-182 -72.5q-117 0 -197 70l34 47q75 -56 159 -56t130.5 54.5t46.5 147.5v73h-280v63h280v49q0 102 -48 158.5t-134 56.5q-79 0 -155 -60l-40 46q87 75 201 75z" />
    <glyph glyph-name="uni042E" unicode="&#x42e;" horiz-adv-x="930" 
d="M587 712q128 0 195 -79.5t67 -207.5v-156q0 -123 -67.5 -202t-194.5 -79t-194.5 79t-67.5 202v63h-127v-332h-75v700h75v-305h127v30q0 129 67.5 208t194.5 79zM774 269v156q0 103 -46.5 164.5t-140.5 61.5q-92 0 -139.5 -61.5t-47.5 -164.5v-156q0 -98 47 -159t140 -61
t140 61t47 159z" />
    <glyph glyph-name="uni042F" unicode="&#x42f;" horiz-adv-x="661" 
d="M538 700v-700h-75v285h-133q-7 1 -20 1l-131 -286h-83l141 298q-67 18 -104.5 61t-37.5 104v57q0 83 64 131.5t173 48.5h206zM331 347h132v292h-130q-75 0 -119 -32t-44 -89v-53q0 -57 42.5 -87.5t118.5 -30.5z" />
    <glyph glyph-name="uni0430" unicode="&#x430;" horiz-adv-x="556" 
d="M276 539q93 0 140 -47t47 -130v-362h-61l-5 62q-67 -74 -173 -74q-70 0 -120 40t-50 107v33q0 69 57.5 110.5t155.5 41.5h122v44q0 115 -118 115q-77 0 -159 -42l-24 50q88 52 188 52zM236 46q97 0 153 74v147h-117q-69 0 -106.5 -27t-37.5 -78v-22q0 -43 29.5 -68.5
t78.5 -25.5z" />
    <glyph glyph-name="uni0431" unicode="&#x431;" horiz-adv-x="588" 
d="M331 494q92 0 144 -59t52 -154v-59q0 -99 -60 -166.5t-171 -67.5q-108 0 -171.5 74t-63.5 193v60q0 154 52 242t185 130q104 32 144 63l30 -51q-32 -29 -150 -67q-184 -60 -184 -231q78 93 193 93zM453 224v55q0 73 -33.5 114t-100.5 41q-118 0 -184 -108v-69
q0 -101 43 -155.5t119 -54.5q78 0 117 48.5t39 128.5z" />
    <glyph glyph-name="uni0432" unicode="&#x432;" horiz-adv-x="581" 
d="M401 274q41 -6 76 -35t35 -77v-32q0 -62 -49 -96t-146 -34h-143h-71v527h74h147q77 0 124.5 -34t47.5 -91v-26q0 -39 -28 -66.5t-67 -35.5zM324 472h-147v-175h147q44 0 71 22t27 57v26q0 35 -28 52.5t-70 17.5zM438 130v32q0 40 -29.5 60.5t-80.5 20.5h-151v-189h140
q121 0 121 76z" />
    <glyph glyph-name="uni0433" unicode="&#x433;" horiz-adv-x="460" 
d="M448 527v-58h-271v-469h-74v527h74h271z" />
    <glyph glyph-name="uni0434" unicode="&#x434;" horiz-adv-x="581" 
d="M464 58h81v-208h-49l-15 150h-69h-332h-7l-15 -150h-50v208h47q33 0 52 47.5t31 152.5l34 269h292v-469zM390 58v411h-155l-27 -216q-20 -162 -70 -195h252z" />
    <glyph glyph-name="uni0435" unicode="&#x435;" horiz-adv-x="557" 
d="M497 241h-364v-2q0 -92 45 -142t126 -50q69 0 144 49l29 -48q-77 -60 -177 -60q-110 0 -174.5 70.5t-64.5 180.5v52q0 106 61 177t163 71q101 0 158 -66.5t57 -184.5q0 -29 -3 -47zM285 480q-71 0 -111 -49.5t-41 -135.5h300v7q0 83 -38.5 130.5t-109.5 47.5z" />
    <glyph glyph-name="uni0436" unicode="&#x436;" horiz-adv-x="718" 
d="M629 0l-145 250h-91v-250h-69v250h-90l-145 -250h-77l161 280l-144 247h79l125 -216h91v216h69v-216h92l125 216h79l-144 -247l162 -280h-78z" />
    <glyph glyph-name="uni0437" unicode="&#x437;" horiz-adv-x="524" 
d="M257 -12q-57 0 -108.5 17.5t-72.5 32.5t-35 29l33 48q47 -41 95 -56q39 -12 83 -12q65 0 101.5 24.5t36.5 70.5v22q0 40 -38 61t-88 21h-96v58h96q47 0 77.5 18t30.5 54v25q0 35 -33 56.5t-84 21.5q-98 0 -173 -63l-38 44q35 32 93 55.5t121 23.5q83 0 135.5 -36
t52.5 -92v-31q0 -39 -29 -69t-66 -37q39 -4 76 -36.5t37 -75.5v-33q0 -66 -60 -103.5t-147 -37.5z" />
    <glyph glyph-name="uni0438" unicode="&#x438;" horiz-adv-x="632" 
d="M455 527h74v-527h-74v423l-278 -423h-74v527h74v-419z" />
    <glyph glyph-name="uni0439" unicode="&#x439;" horiz-adv-x="632" 
d="M313 620q-52 0 -90.5 28t-56.5 72l52 10q28 -60 95 -60q64 0 96 60l51 -10q-18 -44 -56.5 -72t-90.5 -28zM455 527h74v-527h-74v423l-278 -423h-74v527h74v-419z" />
    <glyph glyph-name="uni043A" unicode="&#x43a;" horiz-adv-x="540" 
d="M441 0l-174 250h-90v-250h-74v527h74v-216h87l147 216h83l-167 -244l201 -283h-87z" />
    <glyph glyph-name="uni043B" unicode="&#x43b;" horiz-adv-x="594" 
d="M177 527h314v-527h-74v469h-178l-29 -250q-27 -227 -133 -227q-23 0 -43 8v50q14 -2 17 -2q35 0 54.5 38t32.5 134z" />
    <glyph glyph-name="uni043C" unicode="&#x43c;" horiz-adv-x="726" 
d="M538 527h85v-527h-70v422l-157 -363v-1h-63h-1l-159 369v-427h-70v527h94l168 -388z" />
    <glyph glyph-name="uni043D" unicode="&#x43d;" horiz-adv-x="620" 
d="M443 527h74v-527h-74v250h-266v-250h-74v527h74v-218h266v218z" />
    <glyph glyph-name="uni043E" unicode="&#x43e;" horiz-adv-x="591" 
d="M295 539q112 0 174 -69t62 -179v-52q0 -112 -62 -181.5t-174 -69.5t-173 69t-61 182v52q0 110 61 179t173 69zM295 479q-78 0 -119 -49.5t-41 -137.5v-52q0 -91 41 -142t119 -51q77 0 119.5 51t42.5 142v52q0 87 -42.5 137t-119.5 50z" />
    <glyph glyph-name="uni043F" unicode="&#x43f;" horiz-adv-x="616" 
d="M513 527v-527h-74v469h-262v-469h-74v527h74h336z" />
    <glyph glyph-name="uni0440" unicode="&#x440;" horiz-adv-x="597" 
d="M333 539q90 0 145 -69t55 -182v-48q0 -108 -61 -180t-155 -72q-81 0 -140 53v-241h-74v730h63l6 -64q59 73 161 73zM459 238v52q0 90 -36.5 139.5t-102.5 49.5q-93 0 -143 -78v-299q55 -55 130 -55q70 0 111 51.5t41 139.5z" />
    <glyph glyph-name="uni0441" unicode="&#x441;" horiz-adv-x="492" 
d="M285 -12q-106 0 -165 70t-59 184v44q0 113 58.5 183t166.5 70q96 0 165 -66l-38 -42q-54 48 -125 48q-73 0 -113 -51t-40 -140v-47q0 -91 39 -142t112 -51q63 0 126 46l34 -48q-72 -58 -161 -58z" />
    <glyph glyph-name="uni0442" unicode="&#x442;" horiz-adv-x="470" 
d="M458 527v-59h-186v-468h-74v468h-186v59h260h186z" />
    <glyph glyph-name="uni0443" unicode="&#x443;" horiz-adv-x="540" 
d="M141 -212q-36 0 -60 11l11 51q26 -6 50 -6q36 0 58 19.5t39 71.5l21 65h-34l-183 527h78l157 -472l145 472h74l-193 -597q-27 -82 -65.5 -112t-97.5 -30z" />
    <glyph glyph-name="uni0444" unicode="&#x444;" horiz-adv-x="822" 
d="M581 539q79 0 130 -69t51 -179v-52q0 -106 -58.5 -178.5t-137.5 -72.5q-68 0 -120 47v-235h-71v234q-52 -46 -119 -46q-79 0 -137 72.5t-58 177.5v52q0 111 50.5 179.5t129.5 68.5t134 -55v257h71v-259q55 58 135 58zM688 237v55q0 88 -32.5 137.5t-85.5 49.5
q-72 0 -124 -65v-314q48 -53 112 -53q54 0 92 52t38 138zM264 47q62 0 111 51v317q-51 64 -123 64q-53 0 -85 -49.5t-32 -138.5v-54q0 -86 37.5 -138t91.5 -52z" />
    <glyph glyph-name="uni0445" unicode="&#x445;" horiz-adv-x="529" 
d="M492 0h-84l-144 220l-147 -220h-80l180 264l-173 263h82l138 -221h1l139 221h80l-173 -262z" />
    <glyph glyph-name="uni0446" unicode="&#x446;" horiz-adv-x="644" 
d="M512 58h96v-208h-49l-15 150h-44h-62h-317h-18v527h74v-469h261v469h74v-469z" />
    <glyph glyph-name="uni0447" unicode="&#x447;" horiz-adv-x="574" 
d="M397 527h74v-527h-74v214q-67 -54 -162 -54q-174 0 -174 173v194h74v-196q0 -57 30.5 -84t96.5 -27q87 0 135 50v257z" />
    <glyph glyph-name="uni0448" unicode="&#x448;" horiz-adv-x="848" 
d="M673 527h72v-527h-72h-225h-59h-268h-18v527h73v-469h213v469h71v-469h213v469z" />
    <glyph glyph-name="uni0449" unicode="&#x449;" horiz-adv-x="877" 
d="M745 58h96v-208h-49l-15 150h-45h-59h-225h-59h-268h-18v527h73v-469h213v469h71v-469h213v469h72v-469z" />
    <glyph glyph-name="uni044A" unicode="&#x44a;" horiz-adv-x="593" 
d="M325 351q96 0 149 -36.5t53 -102.5v-74q0 -64 -54.5 -101t-147.5 -37h-115h-60v469h-138v58h138h74v-176h101zM453 147v62q0 83 -128 83h-101v-234h101q128 0 128 89z" />
    <glyph glyph-name="uni044B" unicode="&#x44b;" horiz-adv-x="779" 
d="M263 351q96 0 149 -36.5t53 -102.5v-74q0 -64 -54.5 -101t-147.5 -37h-100h-60v527h74v-176h86zM602 527h74v-527h-74v527zM391 147v62q0 84 -140 84h-74v-235h74q140 0 140 89z" />
    <glyph glyph-name="uni044C" unicode="&#x44c;" horiz-adv-x="546" 
d="M278 351q96 0 149.5 -36.5t53.5 -102.5v-74q0 -64 -55 -101t-148 -37h-115h-60v527h74v-176h101zM407 147v62q0 83 -129 83h-101v-234h101q129 0 129 89z" />
    <glyph glyph-name="uni044D" unicode="&#x44d;" horiz-adv-x="493" 
d="M212 539q97 0 158.5 -65t61.5 -175v-56q0 -118 -61.5 -186.5t-158.5 -68.5q-95 0 -166 58l34 48q64 -47 129 -47q68 0 108 49t41 142h-216v57h216v6q0 84 -43.5 131t-108.5 47q-74 0 -127 -48l-38 42q71 66 171 66z" />
    <glyph glyph-name="uni044E" unicode="&#x44e;" horiz-adv-x="795" 
d="M508 539q105 0 165.5 -69t60.5 -178v-54q0 -111 -60 -180.5t-166 -69.5q-105 0 -164.5 69.5t-59.5 180.5v12h-107v-250h-74v527h74v-218h107q5 102 64 166t160 64zM660 238v54q0 86 -41 136.5t-111 50.5t-110 -50t-40 -137v-54q0 -89 40 -140t110 -51t111 51t41 140z" />
    <glyph glyph-name="uni044F" unicode="&#x44f;" horiz-adv-x="558" 
d="M455 527v-527h-74v203h-104h-24l-92 -203h-80l99 215q-106 33 -106 126l1 46q1 66 53.5 103t148.5 37h178zM277 260h104v209h-104q-127 0 -128 -84l-1 -35q-1 -48 34.5 -69t94.5 -21z" />
    <glyph glyph-name="uni0451" unicode="&#x451;" horiz-adv-x="557" 
d="M176 630q-19 0 -31.5 12.5t-12.5 30.5t12.5 30.5t31.5 12.5q18 0 30 -12.5t12 -30.5t-12 -30.5t-30 -12.5zM392 630q-18 0 -30 12.5t-12 30.5t12 30.5t30 12.5q19 0 31.5 -12.5t12.5 -30.5t-12.5 -30.5t-31.5 -12.5zM497 241h-364v-2q0 -92 45 -142t126 -50q69 0 144 49
l29 -48q-77 -60 -177 -60q-110 0 -174.5 70.5t-64.5 180.5v52q0 106 61 177t163 71q101 0 158 -66.5t57 -184.5q0 -29 -3 -47zM285 480q-71 0 -111 -49.5t-41 -135.5h300v7q0 83 -38.5 130.5t-109.5 47.5z" />
    <glyph glyph-name="uni0452" unicode="&#x452;" horiz-adv-x="606" 
d="M512 363v-363v-77q0 -135 -109 -135q-38 0 -68 13l6 52q22 -8 45 -8q28 0 40 17.5t12 67.5v237v190q0 122 -111 122q-93 0 -151 -94v-385h-74v606h-50v51h50v83h74v-83h136v-51h-136v-145q59 78 166 78q76 0 123 -46.5t47 -129.5z" />
    <glyph glyph-name="uni0453" unicode="&#x453;" horiz-adv-x="460" 
d="M339 700l-197 -89l-21 43l190 99zM448 527v-58h-271v-469h-74v527h74h271z" />
    <glyph glyph-name="uni0454" unicode="&#x454;" horiz-adv-x="492" 
d="M285 47q62 0 128 47l33 -48q-69 -58 -163 -58q-98 0 -160 68t-62 187v51q0 113 61 179t163 66q97 0 166 -66l-38 -42q-54 48 -127 48q-66 0 -108.5 -47.5t-42.5 -130.5v-6h222v-57h-222q1 -93 41 -142t109 -49z" />
    <glyph glyph-name="uni0455" unicode="&#x455;" horiz-adv-x="507" 
d="M248 -12q-118 0 -203 68l38 48q70 -57 159 -57q61 0 94.5 21.5t33.5 62.5v8q0 36 -21.5 55.5t-80.5 39.5l-70 25q-67 23 -98 53t-31 78v17q0 58 52 95t131 37q111 0 187 -64l-37 -44q-70 48 -149 48q-51 0 -80.5 -19t-29.5 -52v-8q0 -30 22 -49t79 -39l70 -25
q66 -23 98 -53.5t32 -86.5v-17q0 -66 -55.5 -104t-140.5 -38z" />
    <glyph glyph-name="uni0456" unicode="&#x456;" horiz-adv-x="296" 
d="M152 630q-20 0 -33.5 14t-13.5 34t13.5 33.5t33.5 13.5t34 -13.5t14 -33.5t-14 -34t-34 -14zM36 527h157v-527h-74v469h-83v58z" />
    <glyph glyph-name="uni0457" unicode="&#x457;" horiz-adv-x="296" 
d="M85 673q0 -18 -12 -30.5t-30 -12.5q-19 0 -31.5 12.5t-12.5 30.5t12.5 30.5t31.5 12.5q18 0 30 -12.5t12 -30.5zM259 716q19 0 31.5 -12.5t12.5 -30.5t-12.5 -30.5t-31.5 -12.5q-18 0 -30 12.5t-12 30.5t12 30.5t30 12.5zM36 527h157v-527h-74v469h-83v58z" />
    <glyph glyph-name="uni0458" unicode="&#x458;" horiz-adv-x="305" 
d="M163 630q-20 0 -33.5 14t-13.5 34t14 33.5t33 13.5q20 0 34 -13.5t14 -33.5t-14 -34t-34 -14zM202 527v-629q0 -53 -29.5 -81.5t-81.5 -28.5q-36 0 -60 12l7 51q22 -6 38 -6q28 0 40 13t12 44v567h-75v58h149z" />
    <glyph glyph-name="uni0459" unicode="&#x459;" horiz-adv-x="812" 
d="M544 351q96 0 149 -36.5t53 -102.5v-74q0 -64 -54.5 -101t-147.5 -37h-102h-41v469h-162l-29 -250q-27 -227 -133 -227q-23 0 -43 8v50q14 -2 17 -2q35 0 54.5 38t32.5 134l39 307h298v-176h69zM672 147v62q0 84 -140 84h-57v-235h57q140 0 140 89z" />
    <glyph glyph-name="uni045A" unicode="&#x45a;" horiz-adv-x="819" 
d="M551 326q94 0 148.5 -35.5t54.5 -100.5v-51q0 -64 -55 -101.5t-148 -37.5h-99h-31v267h-244v-267h-74v527h74v-201h244v201h74v-201h56zM680 148v39q0 80 -129 80h-56v-209h56q129 0 129 90z" />
    <glyph glyph-name="uni045B" unicode="&#x45b;" horiz-adv-x="605" 
d="M342 539q76 0 123 -46.5t47 -129.5v-363h-74v357q0 122 -111 122q-93 0 -151 -94v-385h-74v606h-50v51h50v83h74v-83h136v-51h-136v-145q59 78 166 78z" />
    <glyph glyph-name="uni045C" unicode="&#x45c;" horiz-adv-x="540" 
d="M403 700l-197 -89l-21 43l190 99zM441 0l-174 250h-90v-250h-74v527h74v-216h87l147 216h83l-167 -244l201 -283h-87z" />
    <glyph glyph-name="uni045E" unicode="&#x45e;" horiz-adv-x="540" 
d="M270 620q-52 0 -90.5 28t-56.5 72l52 10q28 -60 95 -60q64 0 96 60l51 -10q-18 -44 -56.5 -72t-90.5 -28zM141 -212q-36 0 -60 11l11 51q26 -6 50 -6q36 0 58 19.5t39 71.5l21 65h-34l-183 527h78l157 -472l145 472h74l-193 -597q-27 -82 -65.5 -112t-97.5 -30z" />
    <glyph glyph-name="uni045F" unicode="&#x45f;" horiz-adv-x="615" 
d="M438 527h74v-527h-74h-106v-150h-49l-15 150h-91h-74v527h74v-469h261v469z" />
    <glyph glyph-name="uni0462" unicode="&#x462;" horiz-adv-x="690" 
d="M369 402q121 0 190.5 -46.5t69.5 -124.5v-56q0 -79 -70 -127t-190 -48h-131h-73v519h-142v57h142v124h75v-124h250v-57h-250v-117h129zM554 179v50q0 54 -48 83t-135 29h-131v-280h131q88 0 135.5 30.5t47.5 87.5z" />
    <glyph glyph-name="uni0463" unicode="&#x463;" horiz-adv-x="598" 
d="M330 343q96 0 149 -37t53 -102v-66q0 -64 -54.5 -101t-147.5 -37h-115h-60v506h-143v57h143v177h74v-177h238v-57h-238v-163h101zM458 147v55q0 82 -128 82h-101v-226h101q128 0 128 89z" />
    <glyph glyph-name="uni0472" unicode="&#x472;" horiz-adv-x="706" 
d="M353 712q136 0 204 -79t68 -208v-154q0 -125 -68.5 -204t-203.5 -79t-203.5 79t-68.5 204v154q0 130 68.5 208.5t203.5 78.5zM353 651q-99 0 -148 -61t-49 -164v-44h394v44q0 102 -48.5 163.5t-148.5 61.5zM353 49q99 0 148 61t49 159v51h-394v-51q0 -98 49 -159t148 -61
z" />
    <glyph glyph-name="uni0473" unicode="&#x473;" horiz-adv-x="591" 
d="M295 539q112 0 174 -69t62 -179v-52q0 -112 -62 -181.5t-174 -69.5t-173 69t-61 182v52q0 110 61 179t173 69zM295 479q-77 0 -118 -49t-42 -135h322q-1 86 -43.5 135t-118.5 49zM295 47q77 0 119 50.5t43 140.5h-322q0 -90 41.5 -140.5t118.5 -50.5z" />
    <glyph glyph-name="uni0474" unicode="&#x474;" horiz-adv-x="625" 
d="M265 0l-233 700h79l205 -636l199 636h78l-225 -700h-103z" />
    <glyph glyph-name="uni0475" unicode="&#x475;" horiz-adv-x="546" 
d="M503 527l-185 -527h-90l-185 527h78l153 -465l154 465h75z" />
    <glyph glyph-name="uni0490" unicode="&#x490;" horiz-adv-x="541" 
d="M453 856h64v-204v-16h-319v-636h-75v700h75h255v156z" />
    <glyph glyph-name="uni0491" unicode="&#x491;" horiz-adv-x="460" 
d="M385 686h63v-217h-271v-469h-74v527h74h208v159z" />
    <glyph glyph-name="uni0492" unicode="&#x492;" horiz-adv-x="539" 
d="M514 636h-318v-242h168v-57h-168v-337h-76v337h-97v57h97v306h76h318v-64z" />
    <glyph glyph-name="uni0493" unicode="&#x493;" horiz-adv-x="455" 
d="M443 469h-271v-191h174v-57h-174v-221h-74v221h-79v57h79v249h74h271v-58z" />
    <glyph glyph-name="uni0496" unicode="&#x496;" horiz-adv-x="946" 
d="M819 61h84v-233h-50l-14 172h-69l-201 326h-92v-326h-71v326h-92l-201 -326h-86l227 366l-199 334h85l180 -310h86v310h71v-310h86l181 310h85l-199 -334z" />
    <glyph glyph-name="uni0497" unicode="&#x497;" horiz-adv-x="789" 
d="M673 58h90v-208h-49l-15 150h-70l-145 250h-91v-250h-69v250h-90l-145 -250h-77l161 280l-144 247h79l125 -216h91v216h69v-216h92l125 216h79l-144 -247z" />
    <glyph glyph-name="uni049A" unicode="&#x49a;" horiz-adv-x="719" 
d="M589 61h87v-233h-50l-14 172h-69l-213 326h-132v-326h-75v700h75v-311h124l195 311h82l-210 -336z" />
    <glyph glyph-name="uni049B" unicode="&#x49b;" 
d="M487 58h87v-208h-49l-15 150h-69l-174 250h-90v-250h-74v527h74v-216h87l147 216h83l-167 -244z" />
    <glyph glyph-name="uni04A2" unicode="&#x4a2;" horiz-adv-x="759" 
d="M621 61h96v-233h-50l-14 172h-69h-38v332h-348v-332h-75v700h75v-305h348v305h75v-639z" />
    <glyph glyph-name="uni04A3" unicode="&#x4a3;" horiz-adv-x="649" 
d="M517 58h96v-208h-49l-15 150h-69h-37v250h-266v-250h-74v527h74v-218h266v218h74v-469z" />
    <glyph glyph-name="uni04AE" unicode="&#x4ae;" horiz-adv-x="564" 
d="M548 700l-228 -408v-292h-75v292l-229 408h80l188 -345l187 345h77z" />
    <glyph glyph-name="uni04AF" unicode="&#x4af;" horiz-adv-x="546" 
d="M427 527h76l-200 -495v-232h-66v232l-194 495h78l151 -422z" />
    <glyph glyph-name="uni04B0" unicode="&#x4b0;" horiz-adv-x="564" 
d="M548 700l-213 -379h118v-57h-133v-264h-75v264h-135v57h118l-212 379h80l188 -345l187 345h77z" />
    <glyph glyph-name="uni04B1" unicode="&#x4b1;" horiz-adv-x="546" 
d="M503 527l-186 -459h116v-57h-130v-211h-66v211h-129v57h115l-180 459h78l151 -422l155 422h76z" />
    <glyph glyph-name="uni04B2" unicode="&#x4b2;" horiz-adv-x="688" 
d="M559 61h87v-233h-50l-14 172h-69l-203 321l-204 -321h-84l240 374l-216 326h85l180 -273l182 273h82l-218 -322z" />
    <glyph glyph-name="uni04B3" unicode="&#x4b3;" horiz-adv-x="571" 
d="M452 58h93v-208h-49l-15 150h-73l-144 220l-147 -220h-80l180 264l-173 263h82l138 -221h1l139 221h80l-173 -262z" />
    <glyph glyph-name="uni04B6" unicode="&#x4b6;" horiz-adv-x="701" 
d="M564 61h95v-233h-50l-14 172h-69h-37v282q-83 -64 -211 -64q-207 0 -207 213v269h75v-271q0 -150 156 -150q116 0 187 65v356h75v-639z" />
    <glyph glyph-name="uni04B7" unicode="&#x4b7;" horiz-adv-x="603" 
d="M471 58h96v-208h-49l-15 150h-69h-37v214q-67 -54 -162 -54q-174 0 -174 173v194h74v-196q0 -57 30.5 -84t96.5 -27q87 0 135 50v257h74v-469z" />
    <glyph glyph-name="uni04BA" unicode="&#x4ba;" horiz-adv-x="651" 
d="M370 454q80 0 136 -44.5t56 -123.5v-286h-75v279q0 57 -37 85.5t-89 28.5q-99 0 -162 -73v-320h-76v700h76v-312q68 66 171 66z" />
    <glyph glyph-name="uni04BB" unicode="&#x4bb;" horiz-adv-x="606" 
d="M344 473q76 0 122.5 -46t46.5 -129v-298h-74v290q0 123 -110 123q-94 0 -152 -95v-318h-74v740h74v-345q58 78 167 78z" />
    <glyph glyph-name="uni04C0" unicode="&#x4c0;" horiz-adv-x="409" 
d="M326 639h-84v-578h84v-61h-159h-83v61h83v578h-83v61h158h84v-61z" />
    <glyph glyph-name="uni04CF" unicode="&#x4cf;" horiz-adv-x="298" 
d="M167 740v-643q0 -48 42 -48q16 0 31 4l10 -53q-29 -12 -60 -12q-45 0 -71 25.5t-26 72.5v654h74z" />
    <glyph glyph-name="uni04D8" unicode="&#x4d8;" horiz-adv-x="694" 
d="M346 -12q-137 0 -204 90t-66 235q0 47 5 74h457v36q0 106 -54.5 167t-142.5 61q-99 0 -183 -53l-40 48q108 66 230 66q118 0 191.5 -80t73.5 -210v-120q0 -152 -70 -233t-197 -81zM347 49q99 0 145 61.5t46 184.5v29h-394v-21q-1 -124 52.5 -188.5t150.5 -65.5z" />
    <glyph glyph-name="uni04D9" unicode="&#x4d9;" horiz-adv-x="569" 
d="M281 539q116 0 171.5 -68t55.5 -183v-51q0 -110 -56.5 -179.5t-170.5 -69.5q-109 0 -166.5 68t-57.5 176q0 38 3 56h378q0 191 -157 191q-92 0 -173 -57l-26 49q87 68 199 68zM280 46q83 0 120 48t38 140h-314v-15q0 -79 41 -126t115 -47z" />
    <glyph glyph-name="uni04E2" unicode="&#x4e2;" horiz-adv-x="743" 
d="M496 838v-51h-248v51h248zM531 700h89v-700h-73v603l-336 -603h-88v700h73v-604z" />
    <glyph glyph-name="uni04E3" unicode="&#x4e3;" horiz-adv-x="632" 
d="M438 692v-51h-248v51h248zM455 527h74v-527h-74v423l-278 -423h-74v527h74v-419z" />
    <glyph glyph-name="uni04E8" unicode="&#x4e8;" horiz-adv-x="706" 
d="M353 712q136 0 204 -79t68 -208v-154q0 -125 -68.5 -204t-203.5 -79t-203.5 79t-68.5 204v154q0 130 68.5 208.5t203.5 78.5zM353 651q-99 0 -148 -61t-49 -164v-44h394v44q0 102 -48.5 163.5t-148.5 61.5zM353 49q99 0 148 61t49 159v51h-394v-51q0 -98 49 -159t148 -61
z" />
    <glyph glyph-name="uni04E9" unicode="&#x4e9;" horiz-adv-x="591" 
d="M295 539q112 0 174 -69t62 -179v-52q0 -112 -62 -181.5t-174 -69.5t-173 69t-61 182v52q0 110 61 179t173 69zM295 479q-77 0 -118 -49t-42 -135h322q-1 86 -43.5 135t-118.5 49zM295 47q77 0 119 50.5t43 140.5h-322q0 -90 41.5 -140.5t118.5 -50.5z" />
    <glyph glyph-name="uni04EE" unicode="&#x4ee;" horiz-adv-x="541" 
d="M401 838v-51h-248v51h248zM460 700h77l-319 -700h-77l101 216l-218 484h79l175 -405z" />
    <glyph glyph-name="uni04EF" unicode="&#x4ef;" horiz-adv-x="540" 
d="M147 641v51h248v-51h-248zM141 -212q-36 0 -60 11l11 51q26 -6 50 -6q36 0 58 19.5t39 71.5l21 65h-34l-183 527h78l157 -472l145 472h74l-193 -597q-27 -82 -65.5 -112t-97.5 -30z" />
    <glyph glyph-name="uni1E02" unicode="&#x1e02;" horiz-adv-x="645" 
d="M321 766q-20 0 -33.5 14t-13.5 34t14 33.5t33 13.5q20 0 34 -13.5t14 -33.5t-14 -34t-34 -14zM429 360q55 -6 97.5 -42t42.5 -103v-43q0 -79 -69.5 -125.5t-190.5 -46.5h-112h-74v700h76h117q106 0 168.5 -43.5t62.5 -123.5v-44q0 -54 -34.5 -88t-84.5 -41h1zM318 641
h-119v-258h148q57 0 91 28.5t34 78.5v39q0 55 -41.5 83.5t-112.5 28.5zM494 175v40q0 51 -39.5 80t-103.5 29h-152v-265h112q89 0 136 29.5t47 86.5z" />
    <glyph glyph-name="uni1E03" unicode="&#x1e03;" horiz-adv-x="597" 
d="M141 806q-20 0 -33.5 14t-13.5 34t14 33.5t33 13.5q20 0 34 -13.5t14 -33.5t-14 -34t-34 -14zM334 539q91 0 145 -68t54 -180v-52q0 -107 -61.5 -179t-153.5 -72q-87 0 -148 64l-7 -52h-60v740h74v-270q60 69 157 69zM459 237v55q0 90 -35.5 138.5t-100.5 48.5
q-91 0 -146 -78v-291q53 -63 132 -63q67 0 108.5 51.5t41.5 138.5z" />
    <glyph glyph-name="uni1E0A" unicode="&#x1e0a;" horiz-adv-x="685" 
d="M322 766q-20 0 -33.5 14t-13.5 34t13.5 33.5t33.5 13.5t34 -13.5t14 -33.5t-14 -34t-34 -14zM322 700q138 0 210.5 -75.5t72.5 -204.5v-122q0 -139 -80 -218.5t-228 -79.5h-128h-46v700h75h124zM530 296v126q0 102 -54 159.5t-158 57.5h-120v-578h99q115 0 174 60t59 175
z" />
    <glyph glyph-name="uni1E0B" unicode="&#x1e0b;" horiz-adv-x="599" 
d="M460 806q-20 0 -33.5 14t-13.5 34t13.5 33.5t33.5 13.5t34 -13.5t14 -33.5t-14 -34t-34 -14zM422 480v260h74v-740h-60l-8 67q-60 -79 -157 -79q-94 0 -150.5 69t-56.5 180v51q0 107 58 179t154 72q88 0 146 -59zM281 47q86 0 141 84v284q-49 64 -136 64q-70 0 -109 -52
t-39 -137v-55q0 -89 38 -138.5t105 -49.5z" />
    <glyph glyph-name="uni1E1E" unicode="&#x1e1e;" horiz-adv-x="537" 
d="M322 766q-20 0 -33.5 14t-13.5 34t13.5 33.5t33.5 13.5t34 -13.5t14 -33.5t-14 -34t-34 -14zM513 639h-315v-258h273v-61h-273v-320h-75v700h75h315v-61z" />
    <glyph glyph-name="uni1E1F" unicode="&#x1e1f;" horiz-adv-x="369" 
d="M256 806q-20 0 -33.5 14t-13.5 34t13.5 33.5t33.5 13.5t34 -13.5t14 -33.5t-14 -34t-34 -14zM288 693q-93 0 -93 -88v-78h144v-58h-144v-469h-74v469h-73v58h73v72q0 73 41 113t118 40q48 0 86 -12l-10 -56q-36 9 -68 9z" />
    <glyph glyph-name="uni1E40" unicode="&#x1e40;" horiz-adv-x="873" 
d="M437 766q-20 0 -33.5 14t-13.5 34t14 33.5t33 13.5q20 0 34 -13.5t14 -33.5t-14 -34t-34 -14zM655 700h94v-700h-72v587l-200 -486l1 -1h-85l-201 495v-595h-69v700h99l216 -537l218 536z" />
    <glyph glyph-name="uni1E41" unicode="&#x1e41;" horiz-adv-x="879" 
d="M474 630q-20 0 -33.5 14t-13.5 34t13.5 33.5t33.5 13.5t34 -13.5t14 -33.5t-14 -34t-34 -14zM630 539q66 0 111 -45.5t45 -126.5v-367h-74v360q0 61 -27 90.5t-71 29.5q-79 0 -133 -94v-386h-74v366q0 56 -26.5 85t-70.5 29q-80 0 -133 -94v-386h-74v527h63l6 -69
q58 81 153 81q47 0 85 -23.5t56 -67.5q62 91 164 91z" />
    <glyph glyph-name="uni1E56" unicode="&#x1e56;" horiz-adv-x="608" 
d="M309 766q-20 0 -33.5 14t-13.5 34t14 33.5t33 13.5q20 0 34 -13.5t14 -33.5t-14 -34t-34 -14zM326 700q110 0 174.5 -51t64.5 -144v-54q0 -93 -68 -145t-188 -52h-111v-254h-75v700h75h128zM490 454v47q0 68 -44 103t-122 35h-126v-324h109q183 0 183 139z" />
    <glyph glyph-name="uni1E57" unicode="&#x1e57;" horiz-adv-x="597" 
d="M310 630q-20 0 -33.5 14t-13.5 34t13.5 33.5t33.5 13.5t34 -13.5t14 -33.5t-14 -34t-34 -14zM333 539q90 0 145 -69t55 -182v-48q0 -108 -61 -180t-155 -72q-81 0 -140 53v-241h-74v730h63l6 -64q59 73 161 73zM459 238v52q0 90 -36.5 139.5t-102.5 49.5q-93 0 -143 -78
v-299q55 -55 130 -55q70 0 111 51.5t41 139.5z" />
    <glyph glyph-name="uni1E60" unicode="&#x1e60;" horiz-adv-x="607" 
d="M302 766q-20 0 -33.5 14t-13.5 34t13.5 33.5t33.5 13.5t34 -13.5t14 -33.5t-14 -34t-34 -14zM289 -12q-155 0 -244 89l40 47q33 -25 54.5 -37.5t60.5 -23.5t89 -11q86 0 130.5 38t44.5 86v16q0 49 -29 76t-101 51l-100 33q-86 29 -124 70.5t-38 98.5v22q0 67 62 118
t172 51q139 0 230 -91l-40 -44q-44 39 -87.5 56.5t-101.5 17.5q-79 0 -119.5 -33.5t-40.5 -74.5v-21q0 -35 30.5 -62t99.5 -49l91 -29q83 -27 127 -68t44 -114v-25q0 -79 -67.5 -133t-182.5 -54z" />
    <glyph glyph-name="uni1E61" unicode="&#x1e61;" horiz-adv-x="507" 
d="M252 630q-20 0 -33.5 14t-13.5 34t13.5 33.5t33.5 13.5t34 -13.5t14 -33.5t-14 -34t-34 -14zM248 -12q-118 0 -203 68l38 48q70 -57 159 -57q61 0 94.5 21.5t33.5 62.5v8q0 36 -21.5 55.5t-80.5 39.5l-70 25q-67 23 -98 53t-31 78v17q0 58 52 95t131 37q111 0 187 -64
l-37 -44q-70 48 -149 48q-51 0 -80.5 -19t-29.5 -52v-8q0 -30 22 -49t79 -39l70 -25q66 -23 98 -53.5t32 -86.5v-17q0 -66 -55.5 -104t-140.5 -38z" />
    <glyph glyph-name="uni1E6A" unicode="&#x1e6a;" horiz-adv-x="538" 
d="M270 765q-20 0 -34 14t-14 34t14 33.5t34 13.5t33.5 -14t13.5 -33q0 -20 -13.5 -34t-33.5 -14zM515 700v-62h-209v-638h-75v638h-208v62h492z" />
    <glyph glyph-name="uni1E6B" unicode="&#x1e6b;" horiz-adv-x="391" 
d="M172 766q-20 0 -33.5 14t-13.5 34t13.5 33.5t33.5 13.5t34 -13.5t14 -33.5t-14 -34t-34 -14zM338 55l9 -55q-42 -12 -81 -12q-136 0 -136 123v358h-84v58h86l6 125h66v-125h127v-58h-127v-355q0 -67 75 -67q27 0 59 8z" />
    <glyph glyph-name="Wgrave" unicode="&#x1e80;" horiz-adv-x="878" 
d="M547 793l-19 -44l-197 85l24 53zM751 700h75l-129 -700h-108l-152 633l-151 -633h-109l-130 700h77l111 -638l154 638h98h1l155 -638z" />
    <glyph glyph-name="wgrave" unicode="&#x1e81;" horiz-adv-x="782" 
d="M500 654l-21 -43l-196 89l26 53zM657 527h74l-120 -527h-98l-121 462l-124 -462h-96l-121 527h74l99 -463l124 463h90l124 -463z" />
    <glyph glyph-name="Wacute" unicode="&#x1e82;" horiz-adv-x="878" 
d="M547 834l-197 -85l-19 44l192 94zM751 700h75l-129 -700h-108l-152 633l-151 -633h-109l-130 700h77l111 -638l154 638h98h1l155 -638z" />
    <glyph glyph-name="wacute" unicode="&#x1e83;" horiz-adv-x="782" 
d="M500 700l-197 -89l-21 43l190 99zM657 527h74l-120 -527h-98l-121 462l-124 -462h-96l-121 527h74l99 -463l124 463h90l124 -463z" />
    <glyph glyph-name="Wdieresis" unicode="&#x1e84;" horiz-adv-x="878" 
d="M331 783q-19 0 -31.5 12.5t-12.5 30.5t12.5 30.5t31.5 12.5q18 0 30 -12.5t12 -30.5t-12 -30.5t-30 -12.5zM547 783q-18 0 -30 12.5t-12 30.5t12 30.5t30 12.5q19 0 31.5 -12.5t12.5 -30.5t-12.5 -30.5t-31.5 -12.5zM751 700h75l-129 -700h-108l-152 633l-151 -633h-109
l-130 700h77l111 -638l154 638h98h1l155 -638z" />
    <glyph glyph-name="wdieresis" unicode="&#x1e85;" horiz-adv-x="782" 
d="M283 630q-19 0 -31.5 12.5t-12.5 30.5t12.5 30.5t31.5 12.5q18 0 30 -12.5t12 -30.5t-12 -30.5t-30 -12.5zM499 630q-18 0 -30 12.5t-12 30.5t12 30.5t30 12.5q19 0 31.5 -12.5t12.5 -30.5t-12.5 -30.5t-31.5 -12.5zM657 527h74l-120 -527h-98l-121 462l-124 -462h-96
l-121 527h74l99 -463l124 463h90l124 -463z" />
    <glyph glyph-name="Ygrave" unicode="&#x1ef2;" horiz-adv-x="564" 
d="M390 793l-19 -44l-197 85l24 53zM548 700l-228 -408v-292h-75v292l-229 408h80l188 -345l187 345h77z" />
    <glyph glyph-name="ygrave" unicode="&#x1ef3;" horiz-adv-x="540" 
d="M358 611l-196 89l26 53l191 -99zM141 -212q-36 0 -60 11l11 51q26 -6 50 -6q36 0 58 19.5t39 71.5l21 65h-34l-183 527h78l157 -472l145 472h74l-193 -597q-27 -82 -65.5 -112t-97.5 -30z" />
    <glyph glyph-name="uni2007" unicode="&#x2007;" 
 />
    <glyph glyph-name="uni200B" unicode="&#x200b;" horiz-adv-x="184" 
 />
    <glyph glyph-name="uni200C" unicode="&#x200c;" horiz-adv-x="0" 
d="M8 750v-900h-16v900h16z" />
    <glyph glyph-name="uni200D" unicode="&#x200d;" horiz-adv-x="0" 
d="M54 815l11 -11l-54 -54l57 -57l-11 -11l-49 49v-881h-16v881l-49 -49l-11 11l57 57l-54 54l11 11l54 -54z" />
    <glyph glyph-name="uni200E" unicode="&#x200e;" horiz-adv-x="0" 
d="M73 822l55 -72l-55 -72l-13 9l43 55h-95v-892h-16v908h111l-43 55z" />
    <glyph glyph-name="uni200F" unicode="&#x200f;" horiz-adv-x="0" 
d="M-73 822l13 -9l-43 -55h111v-908h-16v892h-95l43 -55l-13 -9l-55 72z" />
    <glyph glyph-name="endash" unicode="&#x2013;" horiz-adv-x="633" 
d="M559 373v-61h-485v61h485z" />
    <glyph glyph-name="emdash" unicode="&#x2014;" horiz-adv-x="693" 
d="M619 373v-61h-545v61h545z" />
    <glyph glyph-name="uni2015" unicode="&#x2015;" 
d="M555 373v-61h-485v61h485z" />
    <glyph glyph-name="quoteleft" unicode="&#x2018;" horiz-adv-x="225" 
d="M143 738l28 -20q-43 -60 -48 -131q27 -13 27 -43q0 -20 -14 -34t-34 -14t-34 13.5t-14 34.5q2 98 89 194z" />
    <glyph glyph-name="quoteright" unicode="&#x2019;" horiz-adv-x="225" 
d="M82 500l-28 20q42 59 49 131q-27 13 -27 43q0 20 14 34t33 14q20 0 34 -13.5t14 -34.5q-2 -98 -89 -194z" />
    <glyph glyph-name="quotesinglbase" unicode="&#x201a;" horiz-adv-x="225" 
d="M82 -155l-28 21q42 58 49 131q-27 11 -27 43q0 19 14 33t33 14q21 0 34.5 -13t13.5 -34q-2 -98 -89 -195z" />
    <glyph glyph-name="quotedblleft" unicode="&#x201c;" horiz-adv-x="398" 
d="M143 738l28 -20q-43 -60 -48 -131q27 -13 27 -43q0 -20 -14 -34t-34 -14t-34 13.5t-14 34.5q2 98 89 194zM316 738l28 -20q-42 -59 -49 -131q28 -13 28 -43q0 -20 -14 -34t-34 -14t-34 13.5t-14 34.5q2 98 89 194z" />
    <glyph glyph-name="quotedblright" unicode="&#x201d;" horiz-adv-x="398" 
d="M82 496l-28 21q42 58 49 131q-28 12 -28 42q0 20 14 34t34 14q21 0 34.5 -13.5t13.5 -34.5q-2 -97 -89 -194zM255 496l-28 21q43 59 48 131q-27 12 -27 42q0 20 14 34t34 14q21 0 34.5 -13.5t13.5 -34.5q-2 -97 -89 -194z" />
    <glyph glyph-name="quotedblbase" unicode="&#x201e;" horiz-adv-x="398" 
d="M82 -155l-28 21q42 58 49 131q-28 12 -28 43q0 19 14 33t34 14q21 0 34.5 -13t13.5 -34q-2 -98 -89 -195zM255 -155l-28 21q43 59 48 131q-27 12 -27 43q0 19 14 33t34 14q21 0 34.5 -13t13.5 -34q-2 -98 -89 -195z" />
    <glyph glyph-name="dagger" unicode="&#x2020;" 
d="M331 700v-173h171v-55h-171v-472h-62v472h-171v55h171v173h62z" />
    <glyph glyph-name="daggerdbl" unicode="&#x2021;" 
d="M502 472h-171v-244h171v-55h-171v-173h-63v173h-170v55h170v244h-170v55h170v173h63v-173h171v-55z" />
    <glyph glyph-name="bullet" unicode="&#x2022;" horiz-adv-x="304" 
d="M152 425q34 0 57 -23t23 -57q0 -35 -23 -57.5t-57 -22.5t-57 23t-23 58q0 34 23 56.5t57 22.5z" />
    <glyph glyph-name="ellipsis" unicode="&#x2026;" horiz-adv-x="640" 
d="M320 -8q-21 0 -36.5 15t-15.5 36q0 22 15.5 37t36.5 15q22 0 37 -15t15 -37t-15 -36.5t-37 -14.5zM515 -8q-22 0 -37 14.5t-15 36.5t15.5 37t36.5 15q22 0 37 -15t15 -37t-15 -36.5t-37 -14.5zM126 -8q-22 0 -37 14.5t-15 36.5t15.5 37t36.5 15q22 0 36.5 -15t14.5 -37
t-14.5 -36.5t-36.5 -14.5z" />
    <glyph glyph-name="perthousand" unicode="&#x2030;" horiz-adv-x="1292" 
d="M307 -23l-53 23l348 763l52 -23zM229 338q-74 0 -117 40t-43 108v115q0 70 43 110.5t117 40.5q70 0 112 -40.5t42 -110.5v-115q0 -67 -42 -107.5t-112 -40.5zM229 387q43 0 69.5 26.5t26.5 72.5v116q0 47 -28 74.5t-68 27.5q-47 0 -74.5 -26.5t-27.5 -75.5v-116
q0 -47 27.5 -73t74.5 -26zM690 -12q-75 0 -117.5 40t-42.5 109v115q0 70 42.5 110t117.5 40q70 0 112 -40.5t42 -109.5v-115q0 -68 -42 -108.5t-112 -40.5zM1069 -12q-74 0 -116.5 40t-42.5 109v115q0 70 42.5 110t116.5 40q71 0 112.5 -40.5t41.5 -109.5v-115
q0 -68 -41.5 -108.5t-112.5 -40.5zM690 37q43 0 69.5 26.5t26.5 72.5v117q0 47 -28 74t-68 27q-47 0 -74.5 -26.5t-27.5 -74.5v-117q0 -47 27.5 -73t74.5 -26zM1069 37q43 0 69.5 26.5t26.5 72.5v117q0 47 -28 74t-68 27q-47 0 -74 -26.5t-27 -74.5v-117q0 -47 27 -73
t74 -26z" />
    <glyph glyph-name="guilsinglleft" unicode="&#x2039;" horiz-adv-x="390" 
d="M262 52l-165 217v36l163 214l41 -27l-136 -205l138 -208z" />
    <glyph glyph-name="guilsinglright" unicode="&#x203a;" horiz-adv-x="394" 
d="M138 52l-41 27l138 208l-136 205l41 27l163 -214v-36z" />
    <glyph glyph-name="uni203D" unicode="&#x203d;" horiz-adv-x="478" 
d="M201 221l-6 428q-62 -8 -132 -63l-36 46q94 80 209 80q91 0 148.5 -46t57.5 -115v-29q0 -38 -18.5 -68t-45 -50t-53.5 -39.5t-45.5 -46t-18.5 -59.5v-38h-60zM265 377q10 15 29 33t35 31t28 34t12 45v27q0 38 -28 67t-72 35zM226 -8q-22 0 -37 14.5t-15 36.5t15.5 37
t36.5 15q22 0 36.5 -15t14.5 -37t-14.5 -36.5t-36.5 -14.5z" />
    <glyph glyph-name="fraction" unicode="&#x2044;" horiz-adv-x="198" 
d="M-24 -10l-59 21l306 740l58 -21z" />
    <glyph glyph-name="uni2070" unicode="&#x2070;" horiz-adv-x="500" 
d="M253 405q-91 0 -143.5 48.5t-52.5 135.5v175q0 88 52.5 137t143.5 49q87 0 138 -49.5t51 -136.5v-175q0 -87 -51 -135.5t-138 -48.5zM253 461q54 0 86 32t32 96v176q0 65 -32 98t-86 33q-58 0 -91.5 -33t-33.5 -98v-176q0 -64 33.5 -96t91.5 -32z" />
    <glyph glyph-name="uni2074" unicode="&#x2074;" horiz-adv-x="500" 
d="M307 415v113h-258v44l199 368h69l-192 -356h183l14 147l55 1v-148h73v-56h-73v-113h-70z" />
    <glyph glyph-name="uni2075" unicode="&#x2075;" horiz-adv-x="500" 
d="M250 404q-122 0 -194 86l43 38q32 -34 64.5 -50.5t83.5 -16.5q55 0 90.5 26.5t35.5 71.5v37q0 44 -35 69t-93 25q-44 0 -95 -17h-45v267h309v-57h-241v-157q43 17 96 17q78 0 126.5 -40t48.5 -101v-48q0 -63 -54.5 -106.5t-139.5 -43.5z" />
    <glyph glyph-name="uni2076" unicode="&#x2076;" horiz-adv-x="500" 
d="M253 404q-90 0 -142.5 56.5t-52.5 148.5v39q0 145 84 221.5t240 81.5v-56q-238 -9 -251 -203q58 69 152 69q75 0 116.5 -43.5t41.5 -110.5v-32q0 -72 -48.5 -121.5t-139.5 -49.5zM253 460q59 0 88.5 31.5t29.5 85.5v28q0 48 -26 75.5t-77 27.5q-81 0 -138 -74v-32
q0 -67 32.5 -104.5t90.5 -37.5z" />
    <glyph glyph-name="uni2077" unicode="&#x2077;" horiz-adv-x="500" 
d="M135 415l224 467h-292v58h365v-56l-220 -469h-77z" />
    <glyph glyph-name="uni2078" unicode="&#x2078;" horiz-adv-x="500" 
d="M248 404q-89 0 -144 38t-55 98v36q0 73 110 109l17 4l-16 5q-44 16 -65.5 40t-21.5 64v31q0 53 49 87.5t126 34.5q78 0 127.5 -34t49.5 -87v-31q0 -68 -89 -94l-15 -4l18 -5q53 -16 82 -44t29 -77v-36q0 -59 -56.5 -97t-145.5 -38zM260 721l19 5q79 23 79 71v27
q0 35 -32 55.5t-79 20.5q-45 0 -75.5 -19t-30.5 -53v-27q0 -30 22 -45.5t73 -28.5zM250 458q58 0 94 22.5t36 60.5v32q0 34 -28 52.5t-82 33.5l-35 10l-19 -6q-48 -15 -72.5 -33.5t-24.5 -51.5v-33q0 -41 35 -64t96 -23z" />
    <glyph glyph-name="uni2079" unicode="&#x2079;" horiz-adv-x="500" 
d="M106 404v57q249 8 262 202q-57 -69 -151 -69q-75 0 -117 43.5t-42 110.5v32q0 72 49.5 121.5t141.5 49.5q91 0 141.5 -56t50.5 -149v-38q0 -147 -85 -223t-250 -81zM232 646q79 0 137 75v32q0 69 -31 105.5t-91 36.5t-89.5 -31.5t-29.5 -85.5v-28q0 -47 26 -75.5
t78 -28.5z" />
    <glyph glyph-name="uni2080" unicode="&#x2080;" horiz-adv-x="500" 
d="M253 -170q-91 0 -143.5 48.5t-52.5 135.5v175q0 88 52.5 137t143.5 49q87 0 138 -49.5t51 -136.5v-175q0 -87 -51 -135.5t-138 -48.5zM253 -114q54 0 86 32t32 96v176q0 65 -32 98t-86 33q-58 0 -91.5 -33t-33.5 -98v-176q0 -64 33.5 -96t91.5 -32z" />
    <glyph glyph-name="uni2081" unicode="&#x2081;" horiz-adv-x="500" 
d="M96 -160v54h134v394l-120 -61l-25 46l164 92h52v-471h115v-54h-320z" />
    <glyph glyph-name="uni2082" unicode="&#x2082;" horiz-adv-x="500" 
d="M84 -160v39q0 66 25.5 108t79.5 77l84 57q48 32 64.5 51.5t16.5 49.5v18q0 34 -29.5 56.5t-80.5 22.5q-75 0 -142 -49l-32 44q81 61 179 61q80 0 128 -38t48 -94v-23q0 -41 -26 -72.5t-88 -72.5l-75 -50q-47 -31 -64.5 -58.5t-18.5 -69.5h275v-57h-344z" />
    <glyph glyph-name="uni2083" unicode="&#x2083;" horiz-adv-x="500" 
d="M248 -171q-120 0 -195 81l41 37q63 -63 150 -63q58 0 95 26t37 72v22q0 45 -39 67.5t-90 22.5h-51v51h51q47 0 77.5 19t30.5 57v18q0 41 -31.5 62t-80.5 21q-78 0 -145 -59l-37 38q82 75 189 75q74 0 125 -36t51 -92v-26q0 -37 -31 -65t-71 -34q44 -5 83 -36.5t39 -79.5
v-31q0 -63 -56.5 -105t-141.5 -42z" />
    <glyph glyph-name="uni2084" unicode="&#x2084;" horiz-adv-x="500" 
d="M307 -160v113h-258v44l199 368h69l-192 -356h183l14 147l55 1v-148h73v-56h-73v-113h-70z" />
    <glyph glyph-name="uni2085" unicode="&#x2085;" horiz-adv-x="500" 
d="M250 -171q-122 0 -194 86l43 38q32 -34 64.5 -50.5t83.5 -16.5q55 0 90.5 26.5t35.5 71.5v37q0 44 -35 69t-93 25q-44 0 -95 -17h-45v267h309v-57h-241v-157q43 17 96 17q78 0 126.5 -40t48.5 -101v-48q0 -63 -54.5 -106.5t-139.5 -43.5z" />
    <glyph glyph-name="uni2086" unicode="&#x2086;" horiz-adv-x="500" 
d="M253 -171q-90 0 -142.5 56.5t-52.5 148.5v39q0 145 84 221.5t240 81.5v-56q-238 -9 -251 -203q58 69 152 69q75 0 116.5 -43.5t41.5 -110.5v-32q0 -72 -48.5 -121.5t-139.5 -49.5zM253 -115q59 0 88.5 31.5t29.5 85.5v28q0 48 -26 75.5t-77 27.5q-81 0 -138 -74v-32
q0 -67 32.5 -104.5t90.5 -37.5z" />
    <glyph glyph-name="uni2087" unicode="&#x2087;" horiz-adv-x="500" 
d="M135 -160l224 467h-292v58h365v-56l-220 -469h-77z" />
    <glyph glyph-name="uni2088" unicode="&#x2088;" horiz-adv-x="500" 
d="M248 -171q-89 0 -144 38t-55 98v36q0 73 110 109l17 4l-16 5q-44 16 -65.5 40t-21.5 64v31q0 53 49 87.5t126 34.5q78 0 127.5 -34t49.5 -87v-31q0 -68 -89 -94l-15 -4l18 -5q53 -16 82 -44t29 -77v-36q0 -59 -56.5 -97t-145.5 -38zM260 146l19 5q79 23 79 71v27
q0 35 -32 55.5t-79 20.5q-45 0 -75.5 -19t-30.5 -53v-27q0 -30 22 -45.5t73 -28.5zM250 -117q58 0 94 22.5t36 60.5v32q0 34 -28 52.5t-82 33.5l-35 10l-19 -6q-48 -15 -72.5 -33.5t-24.5 -51.5v-33q0 -41 35 -64t96 -23z" />
    <glyph glyph-name="uni2089" unicode="&#x2089;" horiz-adv-x="500" 
d="M106 -171v57q249 8 262 202q-57 -69 -151 -69q-75 0 -117 43.5t-42 110.5v32q0 72 49.5 121.5t141.5 49.5q91 0 141.5 -56t50.5 -149v-38q0 -147 -85 -223t-250 -81zM232 71q79 0 137 75v32q0 69 -31 105.5t-91 36.5t-89.5 -31.5t-29.5 -85.5v-28q0 -47 26 -75.5
t78 -28.5z" />
    <glyph glyph-name="Euro" unicode="&#x20ac;" horiz-adv-x="637" 
d="M376 51q74 0 145 54l35 -47q-76 -70 -180 -70q-110 0 -170.5 71t-60.5 190v16h-64v43h64v104h-64v43h64q3 120 65 188.5t170 68.5q105 0 182 -77l-42 -44q-65 59 -139 59q-155 0 -160 -195h259v-43h-259v-104h259v-43h-259v-14q0 -200 155 -200z" />
    <glyph glyph-name="uni20B9" unicode="&#x20b9;" 
d="M519 700v-55h-144q60 -44 66 -104h78v-56h-77q-3 -77 -72 -123.5t-176 -48.5h-31l231 -313h-84l-230 313v60h120q159 0 165 112h-285v56h285q-6 50 -49 77t-118 27h-118v55h439z" />
    <glyph glyph-name="uni20BA" unicode="&#x20ba;" 
d="M477 184l56 -23q-32 -81 -90.5 -121t-160.5 -40h-141v240l-57 -27l-19 42l76 35v84l-56 -26l-20 42l76 36v274h76v-239l156 72l19 -42l-175 -82v-83l156 72l19 -42l-175 -81v-213h68q76 0 117.5 27t74.5 95z" />
    <glyph glyph-name="uni20BD" unicode="&#x20bd;" 
d="M336 700q114 0 177 -48.5t63 -127.5v-32q0 -88 -68.5 -137.5t-188.5 -49.5h-110v-83h202v-56h-202v-165h-75v165h-110v56h110v83h-110v57h110v338h75h127zM500 495v26q0 56 -42 88t-124 32h-125v-279h109q182 0 182 133z" />
    <glyph glyph-name="uni2105" unicode="&#x2105;" horiz-adv-x="906" 
d="M321 -10l-59 21l305 740l59 -21zM210 347q-67 0 -104 44.5t-37 116.5v28q0 72 37 116.5t105 44.5q63 0 105 -42l-29 -33q-29 26 -71 26q-44 0 -67 -30t-23 -83v-27q0 -53 22.5 -83t65.5 -30q40 0 73 26l25 -37q-44 -37 -102 -37zM681 -12q-71 0 -110 44.5t-39 115.5v32
q0 71 39 114.5t110 43.5t110.5 -43.5t39.5 -114.5v-32q0 -71 -39.5 -115.5t-110.5 -44.5zM680 36q46 0 70.5 30t24.5 83v30q0 51 -24.5 81t-70.5 30q-44 0 -67.5 -30t-23.5 -81v-30q0 -53 23.5 -83t67.5 -30z" />
    <glyph glyph-name="uni2113" unicode="&#x2113;" 
d="M264 294l-15 -128q-8 -65 5 -93.5t57 -28.5q25 0 45 6l13 -49q-40 -12 -71 -12q-70 0 -97.5 44t-16.5 132l9 77l-61 -43l-20 47l89 61l29 246q18 159 146 159q52 0 81.5 -31.5t29.5 -83.5q0 -78 -48 -142.5t-175 -160.5zM296 560l-24 -196q89 76 121 123t32 108
q0 65 -51 65q-67 0 -78 -100z" />
    <glyph glyph-name="uni2116" unicode="&#x2116;" horiz-adv-x="1105" 
d="M884 707q91 0 138 -51.5t47 -137.5v-36q0 -88 -47 -140.5t-138 -52.5t-137.5 52.5t-46.5 140.5v36q0 86 47 137.5t137 51.5zM550 95v605h68v-700h-90l-337 606v-606h-68v700h91zM999 482v37q0 137 -115 137q-114 0 -114 -137v-37q0 -139 114 -139q115 0 115 139z" />
    <glyph glyph-name="uni2117" unicode="&#x2117;" horiz-adv-x="920" 
d="M461 712q158 0 257.5 -88.5t99.5 -214.5v-108q0 -139 -98.5 -226t-260.5 -87q-153 0 -255 88.5t-102 224.5v108q0 124 104.5 213.5t254.5 89.5zM766 300v110q0 107 -84.5 181.5t-221.5 74.5q-128 0 -216.5 -75.5t-88.5 -180.5v-110q0 -118 86.5 -192t218.5 -74
q140 0 223 73.5t83 192.5zM477 560q67 0 106 -30.5t39 -85.5v-33q0 -56 -41.5 -87.5t-113.5 -31.5h-55v-152h-56v420h56h65zM566 412v30q0 72 -91 72h-63v-175h53q46 0 73.5 19t27.5 54z" />
    <glyph glyph-name="uni2120" unicode="&#x2120;" horiz-adv-x="969" 
d="M280 565q54 -17 79.5 -40t25.5 -65v-14q0 -44 -39.5 -75t-108.5 -31q-88 0 -145 51l24 36q53 -41 118 -41q46 0 70.5 17.5t24.5 42.5v8q0 25 -15 37.5t-53 24.5l-52 17q-104 35 -104 103v12q0 41 36.5 70.5t105.5 29.5q86 0 137 -51l-24 -37q-46 42 -114 42
q-41 0 -63 -17t-22 -36v-10q0 -34 68 -57zM801 740h76v-394h-60v311l-112 -254h-67l-116 263v-320h-55v394h80l126 -286z" />
    <glyph glyph-name="trademark" unicode="&#x2122;" horiz-adv-x="1000" 
d="M92 690v50h323v-50h-130v-344h-61v344h-132zM831 740h77v-394h-60v311l-112 -254h-67l-116 262v-319h-56v394h80l126 -286z" />
    <glyph glyph-name="uni2126" unicode="&#x2126;" horiz-adv-x="709" 
d="M515 61h113v-61h-225v54q70 16 110 71.5t40 130.5v170q0 103 -49.5 163.5t-149.5 60.5t-149 -60.5t-49 -163.5v-170q0 -76 40 -131t110 -71v-54h-225v61h113q-113 67 -113 211v153q0 130 69 208.5t204 78.5t204.5 -78.5t69.5 -208.5v-153q0 -144 -113 -211z" />
    <glyph glyph-name="estimated" unicode="&#x212e;" horiz-adv-x="945" 
d="M218 345v-238q32 -40 104.5 -66t149.5 -26q180 0 275 110h41q-114 -137 -317 -137q-171 0 -285.5 102t-114.5 257q0 156 117 260.5t284 104.5q107 0 198 -46.5t146.5 -131.5t56.5 -189h-655zM726 588q-97 97 -253 97q-166 0 -255 -96v-215h508v214z" />
    <glyph glyph-name="uni2153" unicode="&#x2153;" horiz-adv-x="1198" 
d="M476 -10l-59 21l306 740l58 -21zM96 215v54h134v394l-120 -61l-25 46l164 92h52v-471h115v-54h-320zM946 -11q-120 0 -195 81l41 37q63 -63 150 -63q58 0 95 26t37 72v22q0 45 -39 67.5t-90 22.5h-51v51h51q47 0 77.5 19t30.5 57v18q0 41 -31.5 62t-80.5 21
q-78 0 -145 -59l-37 38q82 75 189 75q74 0 125 -36t51 -92v-26q0 -37 -31 -65t-71 -34q44 -5 83 -36.5t39 -79.5v-31q0 -63 -56.5 -105t-141.5 -42z" />
    <glyph glyph-name="uni2154" unicode="&#x2154;" horiz-adv-x="1198" 
d="M476 -10l-59 21l306 740l58 -21zM84 215v39q0 66 25.5 108t79.5 77l84 57q48 32 64.5 51.5t16.5 49.5v18q0 34 -29.5 56.5t-80.5 22.5q-75 0 -142 -49l-32 44q81 61 179 61q80 0 128 -38t48 -94v-23q0 -41 -26 -72.5t-88 -72.5l-75 -50q-47 -31 -64.5 -58.5t-18.5 -69.5
h275v-57h-344zM946 -11q-120 0 -195 81l41 37q63 -63 150 -63q58 0 95 26t37 72v22q0 45 -39 67.5t-90 22.5h-51v51h51q47 0 77.5 19t30.5 57v18q0 41 -31.5 62t-80.5 21q-78 0 -145 -59l-37 38q82 75 189 75q74 0 125 -36t51 -92v-26q0 -37 -31 -65t-71 -34q44 -5 83 -36.5
t39 -79.5v-31q0 -63 -56.5 -105t-141.5 -42z" />
    <glyph glyph-name="uni2155" unicode="&#x2155;" horiz-adv-x="1198" 
d="M476 -10l-59 21l306 740l58 -21zM96 215v54h134v394l-120 -61l-25 46l164 92h52v-471h115v-54h-320zM948 -11q-122 0 -194 86l43 38q32 -34 64.5 -50.5t83.5 -16.5q55 0 90.5 26.5t35.5 71.5v37q0 44 -35 69t-93 25q-44 0 -95 -17h-45v267h309v-57h-241v-157q43 17 96 17
q78 0 126.5 -40t48.5 -101v-48q0 -63 -54.5 -106.5t-139.5 -43.5z" />
    <glyph glyph-name="uni2156" unicode="&#x2156;" horiz-adv-x="1198" 
d="M476 -10l-59 21l306 740l58 -21zM84 215v39q0 66 25.5 108t79.5 77l84 57q48 32 64.5 51.5t16.5 49.5v18q0 34 -29.5 56.5t-80.5 22.5q-75 0 -142 -49l-32 44q81 61 179 61q80 0 128 -38t48 -94v-23q0 -41 -26 -72.5t-88 -72.5l-75 -50q-47 -31 -64.5 -58.5t-18.5 -69.5
h275v-57h-344zM948 -11q-122 0 -194 86l43 38q32 -34 64.5 -50.5t83.5 -16.5q55 0 90.5 26.5t35.5 71.5v37q0 44 -35 69t-93 25q-44 0 -95 -17h-45v267h309v-57h-241v-157q43 17 96 17q78 0 126.5 -40t48.5 -101v-48q0 -63 -54.5 -106.5t-139.5 -43.5z" />
    <glyph glyph-name="uni2157" unicode="&#x2157;" horiz-adv-x="1198" 
d="M248 204q-120 0 -195 81l41 37q63 -63 150 -63q58 0 95 26t37 72v22q0 45 -39 67.5t-90 22.5h-51v51h51q47 0 77.5 19t30.5 57v18q0 41 -31.5 62t-80.5 21q-78 0 -145 -59l-37 38q82 75 189 75q74 0 125 -36t51 -92v-26q0 -37 -31 -65t-71 -34q44 -5 83 -36.5t39 -79.5
v-31q0 -63 -56.5 -105t-141.5 -42zM476 -10l-59 21l306 740l58 -21zM948 -11q-122 0 -194 86l43 38q32 -34 64.5 -50.5t83.5 -16.5q55 0 90.5 26.5t35.5 71.5v37q0 44 -35 69t-93 25q-44 0 -95 -17h-45v267h309v-57h-241v-157q43 17 96 17q78 0 126.5 -40t48.5 -101v-48
q0 -63 -54.5 -106.5t-139.5 -43.5z" />
    <glyph glyph-name="uni2158" unicode="&#x2158;" horiz-adv-x="1218" 
d="M496 -10l-59 21l306 740l58 -21zM307 215v113h-258v44l199 368h69l-192 -356h183l14 147l55 1v-148h73v-56h-73v-113h-70zM968 -11q-122 0 -194 86l43 38q32 -34 64.5 -50.5t83.5 -16.5q55 0 90.5 26.5t35.5 71.5v37q0 44 -35 69t-93 25q-44 0 -95 -17h-45v267h309v-57
h-241v-157q43 17 96 17q78 0 126.5 -40t48.5 -101v-48q0 -63 -54.5 -106.5t-139.5 -43.5z" />
    <glyph glyph-name="uni2159" unicode="&#x2159;" horiz-adv-x="1198" 
d="M476 -10l-59 21l306 740l58 -21zM96 215v54h134v394l-120 -61l-25 46l164 92h52v-471h115v-54h-320zM951 -11q-90 0 -142.5 56.5t-52.5 148.5v39q0 145 84 221.5t240 81.5v-56q-238 -9 -251 -203q58 69 152 69q75 0 116.5 -43.5t41.5 -110.5v-32q0 -72 -48.5 -121.5
t-139.5 -49.5zM951 45q59 0 88.5 31.5t29.5 85.5v28q0 48 -26 75.5t-77 27.5q-81 0 -138 -74v-32q0 -67 32.5 -104.5t90.5 -37.5z" />
    <glyph glyph-name="uni215A" unicode="&#x215a;" horiz-adv-x="1198" 
d="M476 -10l-59 21l306 740l58 -21zM250 204q-122 0 -194 86l43 38q32 -34 64.5 -50.5t83.5 -16.5q55 0 90.5 26.5t35.5 71.5v37q0 44 -35 69t-93 25q-44 0 -95 -17h-45v267h309v-57h-241v-157q43 17 96 17q78 0 126.5 -40t48.5 -101v-48q0 -63 -54.5 -106.5t-139.5 -43.5z
M951 -11q-90 0 -142.5 56.5t-52.5 148.5v39q0 145 84 221.5t240 81.5v-56q-238 -9 -251 -203q58 69 152 69q75 0 116.5 -43.5t41.5 -110.5v-32q0 -72 -48.5 -121.5t-139.5 -49.5zM951 45q59 0 88.5 31.5t29.5 85.5v28q0 48 -26 75.5t-77 27.5q-81 0 -138 -74v-32
q0 -67 32.5 -104.5t90.5 -37.5z" />
    <glyph glyph-name="oneeighth" unicode="&#x215b;" horiz-adv-x="1198" 
d="M476 -10l-59 21l306 740l58 -21zM96 215v54h134v394l-120 -61l-25 46l164 92h52v-471h115v-54h-320zM946 -11q-89 0 -144 38t-55 98v36q0 73 110 109l17 4l-16 5q-44 16 -65.5 40t-21.5 64v31q0 53 49 87.5t126 34.5q78 0 127.5 -34t49.5 -87v-31q0 -68 -89 -94l-15 -4
l18 -5q53 -16 82 -44t29 -77v-36q0 -59 -56.5 -97t-145.5 -38zM958 306l19 5q79 23 79 71v27q0 35 -32 55.5t-79 20.5q-45 0 -75.5 -19t-30.5 -53v-27q0 -30 22 -45.5t73 -28.5zM948 43q58 0 94 22.5t36 60.5v32q0 34 -28 52.5t-82 33.5l-35 10l-19 -6q-48 -15 -72.5 -33.5
t-24.5 -51.5v-33q0 -41 35 -64t96 -23z" />
    <glyph glyph-name="threeeighths" unicode="&#x215c;" horiz-adv-x="1198" 
d="M248 204q-120 0 -195 81l41 37q63 -63 150 -63q58 0 95 26t37 72v22q0 45 -39 67.5t-90 22.5h-51v51h51q47 0 77.5 19t30.5 57v18q0 41 -31.5 62t-80.5 21q-78 0 -145 -59l-37 38q82 75 189 75q74 0 125 -36t51 -92v-26q0 -37 -31 -65t-71 -34q44 -5 83 -36.5t39 -79.5
v-31q0 -63 -56.5 -105t-141.5 -42zM476 -10l-59 21l306 740l58 -21zM946 -11q-89 0 -144 38t-55 98v36q0 73 110 109l17 4l-16 5q-44 16 -65.5 40t-21.5 64v31q0 53 49 87.5t126 34.5q78 0 127.5 -34t49.5 -87v-31q0 -68 -89 -94l-15 -4l18 -5q53 -16 82 -44t29 -77v-36
q0 -59 -56.5 -97t-145.5 -38zM958 306l19 5q79 23 79 71v27q0 35 -32 55.5t-79 20.5q-45 0 -75.5 -19t-30.5 -53v-27q0 -30 22 -45.5t73 -28.5zM948 43q58 0 94 22.5t36 60.5v32q0 34 -28 52.5t-82 33.5l-35 10l-19 -6q-48 -15 -72.5 -33.5t-24.5 -51.5v-33q0 -41 35 -64
t96 -23z" />
    <glyph glyph-name="fiveeighths" unicode="&#x215d;" horiz-adv-x="1198" 
d="M476 -10l-59 21l306 740l58 -21zM250 204q-122 0 -194 86l43 38q32 -34 64.5 -50.5t83.5 -16.5q55 0 90.5 26.5t35.5 71.5v37q0 44 -35 69t-93 25q-44 0 -95 -17h-45v267h309v-57h-241v-157q43 17 96 17q78 0 126.5 -40t48.5 -101v-48q0 -63 -54.5 -106.5t-139.5 -43.5z
M946 -11q-89 0 -144 38t-55 98v36q0 73 110 109l17 4l-16 5q-44 16 -65.5 40t-21.5 64v31q0 53 49 87.5t126 34.5q78 0 127.5 -34t49.5 -87v-31q0 -68 -89 -94l-15 -4l18 -5q53 -16 82 -44t29 -77v-36q0 -59 -56.5 -97t-145.5 -38zM958 306l19 5q79 23 79 71v27
q0 35 -32 55.5t-79 20.5q-45 0 -75.5 -19t-30.5 -53v-27q0 -30 22 -45.5t73 -28.5zM948 43q58 0 94 22.5t36 60.5v32q0 34 -28 52.5t-82 33.5l-35 10l-19 -6q-48 -15 -72.5 -33.5t-24.5 -51.5v-33q0 -41 35 -64t96 -23z" />
    <glyph glyph-name="seveneighths" unicode="&#x215e;" horiz-adv-x="1148" 
d="M426 -10l-59 21l306 740l58 -21zM135 215l224 467h-292v58h365v-56l-220 -469h-77zM896 -11q-89 0 -144 38t-55 98v36q0 73 110 109l17 4l-16 5q-44 16 -65.5 40t-21.5 64v31q0 53 49 87.5t126 34.5q78 0 127.5 -34t49.5 -87v-31q0 -68 -89 -94l-15 -4l18 -5
q53 -16 82 -44t29 -77v-36q0 -59 -56.5 -97t-145.5 -38zM908 306l19 5q79 23 79 71v27q0 35 -32 55.5t-79 20.5q-45 0 -75.5 -19t-30.5 -53v-27q0 -30 22 -45.5t73 -28.5zM898 43q58 0 94 22.5t36 60.5v32q0 34 -28 52.5t-82 33.5l-35 10l-19 -6q-48 -15 -72.5 -33.5
t-24.5 -51.5v-33q0 -41 35 -64t96 -23z" />
    <glyph glyph-name="uni215F" unicode="&#x215f;" horiz-adv-x="698" 
d="M476 -10l-59 21l306 740l58 -21zM96 215v54h134v394l-120 -61l-25 46l164 92h52v-471h115v-54h-320z" />
    <glyph glyph-name="arrowleft" unicode="&#x2190;" horiz-adv-x="900" 
d="M391 619l47 -40l-208 -222h532v-56h-532l208 -222l-47 -40l-260 290z" />
    <glyph glyph-name="arrowup" unicode="&#x2191;" horiz-adv-x="900" 
d="M418 0v550l-230 -212l-38 43l300 270l300 -270l-39 -43l-230 212v-550h-63z" />
    <glyph glyph-name="arrowright" unicode="&#x2192;" horiz-adv-x="900" 
d="M509 619l260 -290l-260 -290l-47 40l208 222h-532v56h532l-208 222z" />
    <glyph glyph-name="arrowdown" unicode="&#x2193;" horiz-adv-x="900" 
d="M482 624v-550l230 212l38 -43l-300 -270l-300 270l39 43l230 -212v550h63z" />
    <glyph glyph-name="arrowboth" unicode="&#x2194;" horiz-adv-x="1320" 
d="M929 619l260 -290l-260 -290l-47 40l208 222h-532h-328l208 -222l-47 -40l-260 290l260 290l47 -40l-208 -222h532h328l-208 222z" />
    <glyph glyph-name="arrowupdn" unicode="&#x2195;" horiz-adv-x="900" 
d="M481 -134l230 212l39 -43l-300 -270l-300 270l38 43l230 -212v550v275l-230 -212l-38 43l300 270l300 -270l-39 -43l-230 212v-550v-275z" />
    <glyph glyph-name="uni2196" unicode="&#x2196;" horiz-adv-x="900" 
d="M655 58l-380 383l-13 -315l-60 4l20 405l396 21l4 -58l-305 -15l381 -382z" />
    <glyph glyph-name="uni2197" unicode="&#x2197;" horiz-adv-x="900" 
d="M244 94l-42 43l380 382l-305 15l4 58l396 -21l21 -405l-61 -4l-13 315z" />
    <glyph glyph-name="uni2198" unicode="&#x2198;" horiz-adv-x="900" 
d="M245 549l380 -383l13 315l60 -4l-20 -405l-396 -21l-4 58l305 15l-381 382z" />
    <glyph glyph-name="uni2199" unicode="&#x2199;" horiz-adv-x="900" 
d="M655 549l43 -43l-381 -382l305 -15l-4 -58l-396 21l-20 405l60 4l13 -315z" />
    <glyph glyph-name="uni21A9" unicode="&#x21a9;" horiz-adv-x="1097" 
d="M353 -16l-222 250l221 251l47 -41l-169 -182h572q78 0 123 40.5t45 98.5v61q0 141 -156 141l-277 1v56h278q106 0 163.5 -53t57.5 -145v-61q0 -79 -62 -137t-171 -58h-573l170 -182z" />
    <glyph glyph-name="uni21B0" unicode="&#x21b0;" horiz-adv-x="883" 
d="M724 0v417h-494l169 -182l-47 -41l-221 251l222 250l47 -40l-170 -182h550v-473h-56z" />
    <glyph glyph-name="uni21B1" unicode="&#x21b1;" horiz-adv-x="883" 
d="M159 0h-56v473h550l-170 182l47 40l222 -250l-221 -251l-47 41l169 182h-494v-417z" />
    <glyph glyph-name="uni21B2" unicode="&#x21b2;" horiz-adv-x="883" 
d="M724 709h56v-473h-550l170 -182l-47 -40l-222 250l221 251l47 -41l-169 -182h494v417z" />
    <glyph glyph-name="uni21B3" unicode="&#x21b3;" horiz-adv-x="883" 
d="M159 709v-417h494l-169 182l47 41l221 -251l-222 -250l-47 40l170 182h-550v473h56z" />
    <glyph glyph-name="uni21BA" unicode="&#x21ba;" horiz-adv-x="994" 
d="M443 -12q-150 0 -256.5 102t-106.5 256q0 156 106 261t264 105q63 0 119 -20.5t91 -46.5l-26 -35q-84 58 -184 58q-138 0 -230.5 -92.5t-92.5 -229.5q0 -135 93 -224.5t226 -89.5q129 0 216 91t87 232v71l-158 -144l-33 33l214 192l218 -196l-33 -32l-162 147v-71
q0 -161 -101 -264t-251 -103z" />
    <glyph glyph-name="uni21BB" unicode="&#x21bb;" horiz-adv-x="994" 
d="M627 -12q-150 0 -251 103t-101 264v71l-162 -147l-33 32l218 196l214 -192l-33 -33l-158 144v-71q0 -141 87 -232t216 -91q134 0 226.5 89t92.5 225q0 137 -92.5 229.5t-230.5 92.5q-100 0 -184 -58l-26 35q35 26 91 46.5t119 20.5q158 0 264 -105t106 -261
q0 -154 -106.5 -256t-256.5 -102z" />
    <glyph glyph-name="uni21C6" unicode="&#x21c6;" horiz-adv-x="968" 
d="M229 280l-209 236l209 237l41 -40l-157 -170h746v-53h-746l157 -170zM740 -53l-42 40l157 170h-745v53h745l-157 170l42 40l209 -237z" />
    <glyph glyph-name="partialdiff" unicode="&#x2202;" 
d="M137 712q191 -8 292.5 -109.5t101.5 -296.5v-51q0 -118 -65 -192.5t-173 -74.5q-111 0 -171.5 65t-60.5 160v43q0 88 52 145.5t145 57.5q126 0 198 -96q-16 273 -319 287v62zM292 50q76 0 120.5 54.5t44.5 152.5v34q-39 56 -83 82t-103 26q-68 0 -102 -39.5t-34 -105.5
v-39q0 -75 39.5 -120t117.5 -45z" />
    <glyph glyph-name="emptyset" unicode="&#x2205;" horiz-adv-x="900" 
d="M684 630q62 -50 97 -123t35 -158q0 -153 -106 -257t-259 -104q-116 0 -212 64l-59 -76l-35 25l60 78q-57 50 -89 120t-32 150q0 153 107 258t260 105q109 0 199 -57l52 69l35 -25zM132 349q0 -140 101 -233l389 503q-76 48 -171 48q-134 0 -226.5 -92t-92.5 -226zM451 33
q134 0 225.5 91t91.5 225q0 73 -29.5 137t-82.5 108l-389 -505q81 -56 184 -56z" />
    <glyph glyph-name="uni2206" unicode="&#x2206;" horiz-adv-x="632" 
d="M364 700l236 -700h-78h-444h-46l229 700h103zM128 63h374l-190 580z" />
    <glyph glyph-name="product" unicode="&#x220f;" 
d="M68 -200v900h464v-900h-74v839h-316v-839h-74z" />
    <glyph glyph-name="summation" unicode="&#x2211;" 
d="M69 -200v58l275 412l-275 412v58h462v-63h-377l254 -381v-52l-254 -381h377v-63h-462z" />
    <glyph glyph-name="minus" unicode="&#x2212;" 
d="M482 373v-61h-364v61h364z" />
    <glyph glyph-name="uni2219" unicode="&#x2219;" horiz-adv-x="251" 
d="M126 279q-22 0 -37 15t-15 37q0 21 15.5 36t36.5 15q22 0 36.5 -15t14.5 -36q0 -22 -14.5 -37t-36.5 -15z" />
    <glyph glyph-name="radical" unicode="&#x221a;" 
d="M691 895v-61h-158l-222 -834h-96l-170 456l68 21l148 -410l216 828h214z" />
    <glyph glyph-name="infinity" unicode="&#x221e;" horiz-adv-x="900" 
d="M644 532q86 0 133.5 -54.5t47.5 -138.5q0 -87 -47.5 -141t-134.5 -54q-61 0 -111.5 35t-82.5 97q-69 -132 -193 -132q-86 0 -133.5 54t-47.5 139q0 86 47.5 140.5t134.5 54.5q61 0 111.5 -35.5t81.5 -97.5q71 133 194 133zM256 198q58 0 95.5 36.5t70.5 107.5
q-59 136 -165 136q-54 0 -85 -36.5t-31 -104.5q0 -66 31.5 -102.5t83.5 -36.5zM643 197q53 0 84.5 37t31.5 105q0 66 -31.5 102.5t-84.5 36.5q-57 0 -93.5 -36t-72.5 -108q24 -57 65 -97t101 -40z" />
    <glyph glyph-name="integral" unicode="&#x222b;" 
d="M178 -212q-48 0 -86 12l9 56q36 -9 69 -9q93 0 93 88v814q0 74 40.5 113.5t118.5 39.5q47 0 85 -12l-8 -56q-38 9 -70 9q-92 0 -92 -88v-814q0 -73 -41 -113t-118 -40z" />
    <glyph glyph-name="approxequal" unicode="&#x2248;" 
d="M378 373q-39 0 -85.5 30.5t-68.5 30.5q-42 0 -74 -52l-45 22q45 82 120 82q37 0 84 -30.5t70 -30.5q44 0 72 47l44 -22q-40 -77 -117 -77zM378 199q-39 0 -85.5 30.5t-68.5 30.5q-43 0 -74 -51l-45 21q45 82 120 82q37 0 84 -30.5t70 -30.5q44 0 72 47l44 -22
q-40 -77 -117 -77z" />
    <glyph glyph-name="notequal" unicode="&#x2260;" 
d="M481 548l-56 -79h56v-58h-97l-98 -138h195v-59h-237l-77 -108l-50 31l55 77h-55v59h97l99 138h-196v58h237l78 109z" />
    <glyph glyph-name="lessequal" unicode="&#x2264;" 
d="M454 141l-336 168v68l336 168l29 -58l-294 -144l294 -147zM118 60h364v-60h-364v60z" />
    <glyph glyph-name="greaterequal" unicode="&#x2265;" 
d="M146 141l-29 55l294 147l-294 144l29 58l336 -168v-68zM482 60v-60h-364v60h364z" />
    <glyph glyph-name="uni2460" unicode="&#x2460;" horiz-adv-x="920" 
d="M459 -12q-153 0 -255 88.5t-102 224.5v108q0 124 104.5 213.5t254.5 89.5q158 0 257.5 -88.5t99.5 -214.5v-108q0 -139 -98.5 -226t-260.5 -87zM460 34q140 0 223 73.5t83 192.5v110q0 107 -84.5 181.5t-221.5 74.5q-128 0 -216.5 -75.5t-88.5 -180.5v-110
q0 -118 86.5 -192t218.5 -74zM332 137v46h114v335l-102 -52l-22 39l140 78h44v-400h98v-46h-272z" />
    <glyph glyph-name="uni2461" unicode="&#x2461;" horiz-adv-x="920" 
d="M459 -12q-153 0 -255 88.5t-102 224.5v108q0 124 104.5 213.5t254.5 89.5q158 0 257.5 -88.5t99.5 -214.5v-108q0 -139 -98.5 -226t-260.5 -87zM460 34q140 0 223 73.5t83 192.5v110q0 107 -84.5 181.5t-221.5 74.5q-128 0 -216.5 -75.5t-88.5 -180.5v-110
q0 -118 86.5 -192t218.5 -74zM320 137v32q0 57 21.5 93t66.5 65l72 49q40 27 54.5 43t14.5 42v15q0 29 -25 48.5t-69 19.5q-63 0 -120 -42l-28 38q70 51 152 51q68 0 109 -32.5t41 -79.5v-20q0 -34 -22 -60.5t-74 -61.5l-64 -43q-40 -27 -55 -50t-16 -59h234v-48h-292z" />
    <glyph glyph-name="uni2462" unicode="&#x2462;" horiz-adv-x="920" 
d="M459 -12q-153 0 -255 88.5t-102 224.5v108q0 124 104.5 213.5t254.5 89.5q158 0 257.5 -88.5t99.5 -214.5v-108q0 -139 -98.5 -226t-260.5 -87zM460 34q140 0 223 73.5t83 192.5v110q0 107 -84.5 181.5t-221.5 74.5q-128 0 -216.5 -75.5t-88.5 -180.5v-110
q0 -118 86.5 -192t218.5 -74zM459 124q-102 0 -166 69l35 31q51 -53 127 -53q49 0 80.5 22t31.5 62v18q0 38 -33 57t-76 19h-43v43h43q39 0 65.5 16.5t26.5 48.5v15q0 35 -26.5 53t-68.5 18q-68 0 -124 -50l-31 32q69 64 160 64q63 0 106.5 -30.5t43.5 -78.5v-22
q0 -32 -26 -55.5t-60 -28.5q37 -4 70 -31t33 -67v-27q0 -54 -47.5 -89.5t-120.5 -35.5z" />
    <glyph glyph-name="uni2463" unicode="&#x2463;" horiz-adv-x="920" 
d="M459 -12q-153 0 -255 88.5t-102 224.5v108q0 124 104.5 213.5t254.5 89.5q158 0 257.5 -88.5t99.5 -214.5v-108q0 -139 -98.5 -226t-260.5 -87zM460 34q140 0 223 73.5t83 192.5v110q0 107 -84.5 181.5t-221.5 74.5q-128 0 -216.5 -75.5t-88.5 -180.5v-110
q0 -118 86.5 -192t218.5 -74zM499 137v96h-220v37l170 313h58l-163 -303h156l11 125l48 1v-126h62v-47h-62v-96h-60z" />
    <glyph glyph-name="uni2464" unicode="&#x2464;" horiz-adv-x="920" 
d="M459 -12q-153 0 -255 88.5t-102 224.5v108q0 124 104.5 213.5t254.5 89.5q158 0 257.5 -88.5t99.5 -214.5v-108q0 -139 -98.5 -226t-260.5 -87zM460 34q140 0 223 73.5t83 192.5v110q0 107 -84.5 181.5t-221.5 74.5q-128 0 -216.5 -75.5t-88.5 -180.5v-110
q0 -118 86.5 -192t218.5 -74zM460 111q-101 0 -165 73l37 32q28 -29 55.5 -43t70.5 -14q47 0 77 22.5t30 60.5v32q0 38 -29.5 59.5t-78.5 21.5q-37 0 -82 -16h-38v228h263v-49h-205v-133q36 14 82 14q66 0 107 -34t41 -85v-41q0 -54 -46.5 -91t-118.5 -37z" />
    <glyph glyph-name="uni2465" unicode="&#x2465;" horiz-adv-x="920" 
d="M459 -12q-153 0 -255 88.5t-102 224.5v108q0 124 104.5 213.5t254.5 89.5q158 0 257.5 -88.5t99.5 -214.5v-108q0 -139 -98.5 -226t-260.5 -87zM460 34q140 0 223 73.5t83 192.5v110q0 107 -84.5 181.5t-221.5 74.5q-128 0 -216.5 -75.5t-88.5 -180.5v-110
q0 -118 86.5 -192t218.5 -74zM452 122q-76 0 -120.5 47.5t-44.5 125.5v34q0 123 71 188t204 69v-48q-201 -6 -213 -172q50 59 129 59q63 0 98.5 -37t35.5 -94v-28q0 -61 -41.5 -102.5t-118.5 -41.5zM452 169q51 0 76 26.5t25 72.5v24q0 41 -22 64.5t-65 23.5q-68 0 -118 -64
v-26q0 -58 27.5 -89.5t76.5 -31.5z" />
    <glyph glyph-name="uni2466" unicode="&#x2466;" horiz-adv-x="920" 
d="M459 -12q-153 0 -255 88.5t-102 224.5v108q0 124 104.5 213.5t254.5 89.5q158 0 257.5 -88.5t99.5 -214.5v-108q0 -139 -98.5 -226t-260.5 -87zM460 34q140 0 223 73.5t83 192.5v110q0 107 -84.5 181.5t-221.5 74.5q-128 0 -216.5 -75.5t-88.5 -180.5v-110
q0 -118 86.5 -192t218.5 -74zM367 117l191 397h-249v50h310v-48l-187 -399h-65z" />
    <glyph glyph-name="uni2467" unicode="&#x2467;" horiz-adv-x="920" 
d="M459 -12q-153 0 -255 88.5t-102 224.5v108q0 124 104.5 213.5t254.5 89.5q158 0 257.5 -88.5t99.5 -214.5v-108q0 -139 -98.5 -226t-260.5 -87zM460 34q140 0 223 73.5t83 192.5v110q0 107 -84.5 181.5t-221.5 74.5q-128 0 -216.5 -75.5t-88.5 -180.5v-110
q0 -118 86.5 -192t218.5 -74zM459 122q-76 0 -123 32t-47 83v31q0 63 94 92l15 4l-14 4q-38 13 -56 33.5t-18 55.5v26q0 45 41.5 74t107.5 29t108 -29t42 -73v-26q0 -58 -75 -81l-13 -3l15 -4q94 -27 94 -103v-31q0 -50 -48 -82t-123 -32zM469 391l16 4q67 21 67 61v23
q0 30 -27 47t-67 17q-38 0 -64 -16t-26 -45v-23q0 -25 19 -38.5t61 -24.5zM460 168q50 0 80.5 18.5t30.5 51.5v28q0 29 -23.5 44.5t-70.5 28.5l-29 8l-17 -5q-41 -13 -61.5 -28.5t-20.5 -43.5v-28q0 -35 30 -54.5t81 -19.5z" />
    <glyph glyph-name="uni2468" unicode="&#x2468;" horiz-adv-x="920" 
d="M459 -12q-153 0 -255 88.5t-102 224.5v108q0 124 104.5 213.5t254.5 89.5q158 0 257.5 -88.5t99.5 -214.5v-108q0 -139 -98.5 -226t-260.5 -87zM460 34q140 0 223 73.5t83 192.5v110q0 107 -84.5 181.5t-221.5 74.5q-128 0 -216.5 -75.5t-88.5 -180.5v-110
q0 -118 86.5 -192t218.5 -74zM348 120v48q212 8 222 171q-50 -58 -128 -58q-64 0 -99.5 37t-35.5 94v27q0 61 41.5 103t120.5 42q77 0 120 -47.5t43 -125.5v-33q0 -250 -284 -258zM454 326q37 0 64 15.5t53 47.5v28q0 58 -26.5 89t-77.5 31t-76 -26.5t-25 -72.5v-24
q0 -41 22 -64.5t66 -23.5z" />
    <glyph glyph-name="uni24EA" unicode="&#x24ea;" horiz-adv-x="920" 
d="M459 -12q-153 0 -255 88.5t-102 224.5v108q0 124 104.5 213.5t254.5 89.5q158 0 257.5 -88.5t99.5 -214.5v-108q0 -139 -98.5 -226t-260.5 -87zM460 34q140 0 223 73.5t83 192.5v110q0 107 -84.5 181.5t-221.5 74.5q-128 0 -216.5 -75.5t-88.5 -180.5v-110
q0 -118 86.5 -192t218.5 -74zM463 117q-77 0 -122 41.5t-45 115.5v148q0 75 45 116.5t122 41.5q74 0 117 -41.5t43 -116.5v-148q0 -74 -43 -115.5t-117 -41.5zM463 164q45 0 72.5 28t27.5 82v149q0 56 -27 83.5t-73 27.5q-50 0 -78 -28t-28 -83v-149q0 -55 28 -82.5
t78 -27.5z" />
    <glyph glyph-name="uni24FF" unicode="&#x24ff;" horiz-adv-x="920" 
d="M459 -12q-153 0 -255 88.5t-102 224.5v108q0 124 104.5 213.5t254.5 89.5q158 0 257.5 -88.5t99.5 -214.5v-108q0 -139 -98.5 -226t-260.5 -87zM463 117q74 0 117.5 42t43.5 115v149q0 74 -43.5 116t-117.5 42q-77 0 -121.5 -42t-44.5 -116v-149q0 -74 44.5 -115.5
t121.5 -41.5zM463 163q-49 0 -77.5 28t-28.5 83v149q0 56 28.5 84.5t77.5 28.5q46 0 73 -29t27 -84v-149q0 -55 -27 -83t-73 -28z" />
    <glyph glyph-name="filledbox" unicode="&#x25a0;" 
d="M110 454h379v-379h-379v379z" />
    <glyph glyph-name="uni25A1" unicode="&#x25a1;" 
d="M110 457h379v-379h-379v379zM173 394v-253h252v253h-252z" />
    <glyph glyph-name="uni25AF" unicode="&#x25af;" horiz-adv-x="664" 
d="M123 0v700h418v-700h-418zM193 68h278v564h-278v-564z" />
    <glyph glyph-name="uni25B3" unicode="&#x25b3;" horiz-adv-x="884" 
d="M784 0h-684v17l336 683h17l331 -683v-17zM198 63h489l-243 503z" />
    <glyph glyph-name="uni25B4" unicode="&#x25b4;" 
d="M298 491h4l207 -412v-4h-418v4z" />
    <glyph glyph-name="uni25B8" unicode="&#x25b8;" 
d="M508 285v-4l-412 -207h-4v418h4z" />
    <glyph glyph-name="uni25BD" unicode="&#x25bd;" horiz-adv-x="900" 
d="M784 700v-17l-330 -683h-17l-337 683v17h684zM199 637l245 -503l244 503h-489z" />
    <glyph glyph-name="uni25BE" unicode="&#x25be;" 
d="M299 71l-207 412v4h418v-4l-207 -412h-4z" />
    <glyph glyph-name="uni25C2" unicode="&#x25c2;" 
d="M92 285l412 207h4v-418h-4l-412 207v4z" />
    <glyph glyph-name="uni25C6" unicode="&#x25c6;" 
d="M300 519l240 -253l-240 -258l-240 258z" />
    <glyph glyph-name="uni25C7" unicode="&#x25c7;" 
d="M300 8l-240 258l240 253l240 -253zM300 93l160 173l-160 168l-159 -168z" />
    <glyph glyph-name="lozenge" unicode="&#x25ca;" 
d="M255 0l-217 350l217 350h89l217 -350l-217 -350h-89zM300 53l184 297l-184 297l-184 -297z" />
    <glyph glyph-name="circle" unicode="&#x25cb;" horiz-adv-x="604" 
d="M302 27q-108 0 -175 59.5t-67 146.5v62q0 96 66 155.5t176 59.5t176 -59.5t66 -155.5v-62q0 -87 -67 -146.5t-175 -59.5zM301 88q77 0 123.5 41.5t46.5 105.5v62q0 70 -46 111.5t-124 41.5q-77 0 -122 -42t-45 -111v-62q0 -64 45.5 -105.5t121.5 -41.5z" />
    <glyph glyph-name="uni25CF" unicode="&#x25cf;" 
d="M300 510q110 0 176 -59.5t66 -155.5v-62q0 -87 -67 -146.5t-175 -59.5t-175 59.5t-67 146.5v62q0 96 66 155.5t176 59.5z" />
    <glyph glyph-name="uni2605" unicode="&#x2605;" horiz-adv-x="829" 
d="M799 458l-203 -189l78 -274l-24 -15l-234 182h-5l-224 -182l-24 15l77 268l-210 195l12 25l271 -32l85 262h28l85 -263l276 33z" />
    <glyph glyph-name="uni2610" unicode="&#x2610;" horiz-adv-x="900" 
d="M100 0v700h700v-700h-700zM153 48h594v604h-594v-604z" />
    <glyph glyph-name="uni2611" unicode="&#x2611;" horiz-adv-x="900" 
d="M100 0v700h700v-700h-700zM153 48h594v604h-594v-604zM377 172l-104 246l35 14l87 -206l254 322l29 -22l-278 -354h-23z" />
    <glyph glyph-name="uni2612" unicode="&#x2612;" horiz-adv-x="900" 
d="M100 700h700v-700h-700v700zM747 48v604h-594v-604h594zM312 118l-33 25q75 120 156 234q-50 79 -102 145l34 24q56 -72 95 -133q47 65 103 137l33 -24q-69 -87 -113 -149q48 -78 82 -147l-37 -21q-30 62 -72 131q-64 -92 -146 -222z" />
    <glyph glyph-name="uni2620" unicode="&#x2620;" 
d="M147 331l10 42q-40 46 -40 73v29q0 65 52.5 109t125.5 44t125.5 -44t52.5 -109v-29q0 -27 -40 -73l10 -42q-1 -5 -3.5 -9.5t-7.5 -8.5t-8 -6t-11.5 -7t-12.5 -7l-32 -65h-5l-15 30h-7l-11 -39h-15l-16 39h-7l-15 -39h-15l-10 39h-7l-17 -30h-5l-33 65q-4 2 -12.5 7
t-11.5 7t-8 6t-7.5 8.5t-3.5 9.5zM186 421v-9q0 -14 10 -23.5t23 -9.5t23 9.5t10 23.5v9q0 15 -10.5 24.5t-22.5 9.5q-14 0 -23.5 -9t-9.5 -25zM340 421v-9q0 -14 10 -23.5t23 -9.5t23 9.5t10 23.5v9q0 15 -10.5 24.5t-22.5 9.5q-14 0 -23.5 -9t-9.5 -25zM297 385
q-22 -21 -28 -68q29 -5 57 0q-9 46 -29 68zM512 226q36 -4 36 -35q0 -13 -8 -20t-19 -7q-19 0 -49 19l-126 -64l62 -32q30 19 49 19q11 0 19 -7t8 -20q0 -31 -36 -35l-3 -7q13 -11 13 -29q0 -13 -8.5 -21t-23.5 -8q-36 0 -41 58l-91 54l-84 -53q-5 -58 -41 -58
q-15 0 -23.5 8t-8.5 21q0 18 13 29l-3 7q-36 4 -36 35q0 13 8 20t19 7q19 0 49 -19l59 33l-121 60q-30 -19 -49 -19q-11 0 -19 7t-8 20q0 31 36 35l3 7q-13 11 -13 29q0 13 8.5 21t23.5 8q36 0 41 -58l150 -80l151 82q5 58 41 58q15 0 23.5 -8t8.5 -21q0 -18 -13 -29z" />
    <glyph glyph-name="smileface" unicode="&#x263a;" 
d="M300 -3q-122 0 -197 67t-75 169v66q0 108 74.5 175t197.5 67t197.5 -67t74.5 -175v-66q0 -102 -75 -169t-197 -67zM300 32q107 0 170.5 58t63.5 145v63q0 92 -63 150t-171 58t-171 -58t-63 -150v-63q0 -87 63.5 -145t170.5 -58zM202 286q-19 0 -32.5 13.5t-13.5 32.5v12
q0 22 13 34.5t33 12.5q17 0 31 -13t14 -34v-12q0 -19 -13.5 -32.5t-31.5 -13.5zM392 286q-19 0 -32.5 13.5t-13.5 32.5v12q0 22 13 34.5t33 12.5q17 0 31 -13t14 -34v-12q0 -19 -13.5 -32.5t-31.5 -13.5zM298 110q-53 0 -89 27.5t-49 70.5l39 9q23 -72 99 -72q38 0 64.5 19
t37.5 54l38 -10q-13 -43 -50 -70.5t-90 -27.5z" />
    <glyph glyph-name="invsmileface" unicode="&#x263b;" 
d="M300 -3q-122 0 -197 67t-75 169v66q0 108 74.5 175t197.5 67t197.5 -67t74.5 -175v-66q0 -102 -75 -169t-197 -67zM208 286q18 0 31.5 13.5t13.5 32.5v12q0 21 -14 34t-31 13q-20 0 -33 -12.5t-13 -34.5v-12q0 -19 13.5 -32.5t32.5 -13.5zM386 286q18 0 31.5 13.5
t13.5 32.5v12q0 21 -14 34t-31 13q-20 0 -33 -12.5t-13 -34.5v-12q0 -19 13.5 -32.5t32.5 -13.5zM298 104q53 0 90 28.5t49 71.5l-38 7q-23 -72 -101 -72t-101 72l-38 -7q12 -43 49 -71.5t90 -28.5z" />
    <glyph glyph-name="sun" unicode="&#x263c;" 
d="M279 422v151h42v-151h-42zM409 376l-30 29l107 107l30 -29zM193 376l-107 107l30 29l107 -107zM301 180q-42 0 -70 28t-28 64v26q0 36 28 64t70 28q43 0 70.5 -28t27.5 -64v-26q0 -36 -28 -64t-70 -28zM24 265v42h151v-42h-151zM427 263v42h151v-42h-151zM116 58l-30 29
l107 107l30 -29zM486 58l-107 107l30 29l107 -107zM281 -3v151h42v-151h-42z" />
    <glyph glyph-name="female" unicode="&#x2640;" 
d="M456 378q0 -47 -36 -88t-91 -50v-78h86v-52h-86v-110h-62v110h-87v52h87v78q-55 10 -89 50.5t-34 87.5v41q0 59 43.5 102.5t111.5 43.5t112.5 -43.5t44.5 -102.5v-41zM211 378q0 -31 25 -55.5t64 -24.5q38 0 63.5 24.5t25.5 55.5v41q0 34 -25 59.5t-64 25.5t-64 -25.5
t-25 -59.5v-41z" />
    <glyph glyph-name="male" unicode="&#x2642;" 
d="M517 525l25 -212l-58 -8l-15 125l-136 -163q37 -42 37 -95v-41q0 -54 -45 -97.5t-112 -43.5t-111 43t-44 98v41q0 59 43.5 102.5t111.5 43.5q39 0 69 -15l142 169l-138 -2v55h231zM303 131v41q0 34 -25 59.5t-64 25.5t-64 -25.5t-25 -59.5v-41q0 -31 25 -55.5t64 -24.5
q38 0 63.5 24.5t25.5 55.5z" />
    <glyph glyph-name="spade" unicode="&#x2660;" 
d="M100 0v44q106 0 144 35t38 131q-44 -73 -114 -73q-38 0 -65.5 27t-27.5 64v30q0 37 29.5 81t64 78t119.5 111q8 7 12 11q136 -123 172 -166q53 -64 53 -115v-30q0 -37 -27.5 -64t-65.5 -27q-70 0 -114 73q0 -96 38 -131t144 -35v-44h-400z" />
    <glyph glyph-name="club" unicode="&#x2663;" 
d="M100 0v45q97 0 139.5 29.5t42.5 125.5q-40 -66 -111 -66q-43 0 -76 28.5t-33 73.5v27q0 33 31 63.5t79 30.5q27 0 62 -15q-51 42 -51 84v25q0 41 34.5 68.5t82.5 27.5t82.5 -27.5t34.5 -68.5v-25q0 -42 -51 -84q35 15 62 15q48 0 79 -30.5t31 -63.5v-27q0 -45 -33 -73.5
t-76 -28.5q-71 0 -111 66q0 -96 42.5 -125.5t139.5 -29.5v-45h-400z" />
    <glyph glyph-name="heart" unicode="&#x2665;" 
d="M300 64q-78 63 -128 109.5t-91 104.5t-41 104v33q0 57 35 90.5t91 33.5q49 0 79 -23t55 -69q25 46 55 69t79 23q56 0 91 -33.5t35 -90.5v-33q0 -46 -41 -104t-91 -104.5t-128 -109.5z" />
    <glyph glyph-name="diamond" unicode="&#x2666;" 
d="M300 19l-220 278l220 273l220 -273z" />
    <glyph glyph-name="musicalnote" unicode="&#x266a;" 
d="M346 522l47 -29q46 -28 64.5 -56.5t18.5 -68.5q0 -32 -22 -78l-30 12q7 24 7 40q0 68 -62 108l-23 15v-385q0 -40 -36.5 -66t-82.5 -26q-45 0 -74 18.5t-29 45.5v24q0 29 28.5 50.5t70.5 21.5q46 0 72 -24v398h51z" />
    <glyph glyph-name="musicalnotedbl" unicode="&#x266b;" 
d="M228 492l319 85v-90v-357q0 -40 -34.5 -66t-80.5 -26q-45 0 -74 18.5t-29 45.5v24q0 29 28.5 50.5t70.5 21.5q46 0 72 -24v301l-221 -59l-4 6v-342q0 -40 -34.5 -66t-80.5 -26q-45 0 -74 18.5t-29 45.5v24q0 29 28.5 50.5t70.5 21.5q46 0 72 -24v368z" />
    <glyph glyph-name="uni2713" unicode="&#x2713;" horiz-adv-x="804" 
d="M217 0l-197 464l67 26l164 -387l478 605l55 -41l-523 -667h-44z" />
    <glyph glyph-name="uni2715" unicode="&#x2715;" horiz-adv-x="800" 
d="M705 30l-50 -42l-255 315l-254 -315l-51 42l263 325l-254 315l50 42l246 -305l246 305l51 -42l-254 -315z" />
    <glyph glyph-name="uni2717" unicode="&#x2717;" 
d="M553 624q-78 -96 -180 -236q67 -107 130 -233l-58 -33q-53 106 -114 207q-106 -151 -231 -351l-54 39q123 195 249 371q-72 114 -163 231l55 37q83 -108 149 -210q88 121 164 217z" />
    <glyph glyph-name="uni2776" unicode="&#x2776;" horiz-adv-x="920" 
d="M459 -12q-153 0 -255 88.5t-102 224.5v108q0 124 104.5 213.5t254.5 89.5q158 0 257.5 -88.5t99.5 -214.5v-108q0 -139 -98.5 -226t-260.5 -87zM332 137h272v44h-98v402h-44l-140 -79l22 -38l102 53v-338h-114v-44z" />
    <glyph glyph-name="uni2777" unicode="&#x2777;" horiz-adv-x="920" 
d="M459 -12q-153 0 -255 88.5t-102 224.5v108q0 124 104.5 213.5t254.5 89.5q158 0 257.5 -88.5t99.5 -214.5v-108q0 -139 -98.5 -226t-260.5 -87zM320 137h292v48h-234q1 35 16 59t55 50l63 43q53 35 75 61t22 61v19q0 48 -41 81t-109 33q-82 0 -151 -52l25 -36
q59 41 122 41q44 0 69 -20t25 -49v-15q0 -26 -14.5 -42.5t-55.5 -43.5l-71 -48q-45 -29 -66.5 -65t-21.5 -93v-32z" />
    <glyph glyph-name="uni2778" unicode="&#x2778;" horiz-adv-x="920" 
d="M459 -12q-153 0 -255 88.5t-102 224.5v108q0 124 104.5 213.5t254.5 89.5q158 0 257.5 -88.5t99.5 -214.5v-108q0 -139 -98.5 -226t-260.5 -87zM459 124q72 0 120 35.5t48 89.5v27q0 41 -33.5 67t-76.5 31q39 4 66 27.5t27 56.5v22q0 47 -43.5 78t-106.5 31
q-92 0 -160 -64l30 -31q58 51 125 51q41 0 68.5 -19t27.5 -53v-16q0 -32 -27 -49t-66 -17h-43v-42h43q43 0 76.5 -19t33.5 -57v-19q0 -39 -32 -62t-80 -23q-73 0 -129 54l-34 -31q64 -68 166 -68z" />
    <glyph glyph-name="uni2779" unicode="&#x2779;" horiz-adv-x="920" 
d="M459 -12q-153 0 -255 88.5t-102 224.5v108q0 124 104.5 213.5t254.5 89.5q158 0 257.5 -88.5t99.5 -214.5v-108q0 -139 -98.5 -226t-260.5 -87zM499 137h60v96h62v46h-62v127h-47l-12 -127h-157l164 304h-58l-170 -313v-37h220v-96z" />
    <glyph glyph-name="uni277A" unicode="&#x277a;" horiz-adv-x="920" 
d="M459 -12q-153 0 -255 88.5t-102 224.5v108q0 124 104.5 213.5t254.5 89.5q158 0 257.5 -88.5t99.5 -214.5v-108q0 -139 -98.5 -226t-260.5 -87zM461 112q72 0 118 36.5t46 90.5v41q0 51 -41 85t-107 34q-46 0 -82 -14v134h205v47h-263v-225h39q42 14 80 14q49 0 79 -21.5
t30 -59.5v-32q0 -38 -30 -60.5t-77 -22.5q-44 0 -72.5 14t-55.5 43l-34 -32q60 -72 165 -72z" />
    <glyph glyph-name="uni277B" unicode="&#x277b;" horiz-adv-x="920" 
d="M459 -12q-153 0 -255 88.5t-102 224.5v108q0 124 104.5 213.5t254.5 89.5q158 0 257.5 -88.5t99.5 -214.5v-108q0 -139 -98.5 -226t-260.5 -87zM452 122q77 0 118.5 41.5t41.5 102.5v27q0 57 -35 94.5t-98 37.5q-81 0 -129 -61q10 167 212 175v47q-133 -4 -204 -69
t-71 -188v-34q0 -78 44.5 -125.5t120.5 -47.5zM452 168q-49 0 -76.5 32t-27.5 90v28q49 63 117 63q44 0 66 -24t22 -65v-25q0 -45 -25.5 -72t-75.5 -27z" />
    <glyph glyph-name="uni277C" unicode="&#x277c;" horiz-adv-x="920" 
d="M459 -12q-153 0 -255 88.5t-102 224.5v108q0 124 104.5 213.5t254.5 89.5q158 0 257.5 -88.5t99.5 -214.5v-108q0 -139 -98.5 -226t-260.5 -87zM367 117h65l187 399v47h-309v-48h247z" />
    <glyph glyph-name="uni277D" unicode="&#x277d;" horiz-adv-x="920" 
d="M459 -12q-153 0 -255 88.5t-102 224.5v108q0 124 104.5 213.5t254.5 89.5q158 0 257.5 -88.5t99.5 -214.5v-108q0 -139 -98.5 -226t-260.5 -87zM459 123q76 0 123.5 32t47.5 82v30q0 78 -96 105l-15 3l13 3q78 23 78 80v26q0 44 -42.5 73.5t-108.5 29.5t-107.5 -29.5
t-41.5 -75.5v-25q0 -35 18.5 -56t57.5 -34l14 -3l-15 -5q-96 -30 -96 -91v-30q0 -51 47 -83t123 -32zM471 391l-22 5q-43 11 -62.5 24.5t-19.5 38.5v23q0 29 26 45.5t65 16.5t67 -17.5t28 -47.5v-23q0 -39 -66 -62zM460 166q-52 0 -81.5 20t-29.5 55v28q0 29 20 45t60 29
l16 4l32 -8q46 -13 70 -29t24 -44v-28q0 -33 -30.5 -52.5t-80.5 -19.5z" />
    <glyph glyph-name="uni277E" unicode="&#x277e;" horiz-adv-x="920" 
d="M459 -12q-153 0 -255 88.5t-102 224.5v108q0 124 104.5 213.5t254.5 89.5q158 0 257.5 -88.5t99.5 -214.5v-108q0 -139 -98.5 -226t-260.5 -87zM347 120q285 8 285 258v33q0 79 -42 126.5t-120 47.5q-79 0 -121 -42t-42 -103v-28q0 -57 35.5 -94t98.5 -37q79 0 129 61
q-10 -168 -223 -174v-48zM455 325q-44 0 -66 24t-22 65v24q0 45 25.5 72.5t76.5 27.5q102 0 102 -122v-28q-49 -63 -116 -63z" />
    <glyph glyph-name="uni2999" unicode="&#x2999;" horiz-adv-x="248" 
d="M123 904q-30 0 -51.5 21t-21.5 52q0 30 21.5 51.5t51.5 21.5q31 0 52 -21.5t21 -51.5q0 -31 -21 -52t-52 -21zM123 598q-30 0 -51.5 21t-21.5 52q0 30 21.5 51.5t51.5 21.5q31 0 52 -21.5t21 -51.5q0 -31 -21 -52t-52 -21zM123 296q-30 0 -51.5 21t-21.5 52
q0 30 21.5 51.5t51.5 21.5q31 0 52 -21.5t21 -51.5q0 -31 -21 -52t-52 -21zM123 -32q-30 0 -51.5 21t-21.5 52q0 30 21.5 51.5t51.5 21.5q31 0 52 -21.5t21 -51.5q0 -31 -21 -52t-52 -21zM123 -350q-30 0 -51.5 21t-21.5 52q0 30 21.5 51.5t51.5 21.5q31 0 52 -21.5
t21 -51.5q0 -31 -21 -52t-52 -21z" />
    <glyph glyph-name="uniF8FF" unicode="&#xf8ff;" horiz-adv-x="1000" 
d="M417 -56l-100 70q68 100 98.5 175.5t30.5 148.5q-93 47 -93 144q0 66 48.5 114t113.5 48q69 0 115.5 -45t46.5 -115q0 -254 -260 -540z" />
    <glyph glyph-name="uniFEFF" unicode="&#xfeff;" horiz-adv-x="0" 
 />
    <glyph glyph-name="u1F310" unicode="&#x1f310;" horiz-adv-x="1200" 
d="M608 -216q-137 0 -252.5 67t-182.5 182.5t-67 251.5t67 251.5t182.5 182.5t252.5 67t252.5 -67t182.5 -182.5t67 -251.5t-67 -251.5t-182.5 -182.5t-252.5 -67zM385 521q49 122 139 206q-152 -27 -252 -146q57 -40 113 -60zM833 521q52 21 112 60q-102 118 -251 145
q88 -82 139 -205zM636 484q77 1 145 20q-52 134 -145 210v-230zM580 484v229q-93 -79 -144 -209q70 -19 144 -20zM163 310h176q3 81 28 163q-63 24 -127 67q-71 -104 -77 -230zM879 310h174q-6 125 -76 230q-65 -44 -127 -66q26 -81 29 -164zM636 310h187q-3 77 -25 147
q-75 -21 -162 -24v-123zM395 310h185v123q-84 3 -160 23q-22 -69 -25 -146zM240 30q64 43 127 67q-25 82 -28 163h-176q6 -126 77 -230zM420 114q76 20 160 23v123h-185q3 -77 25 -146zM798 113q22 70 25 147h-187v-123q87 -3 162 -24zM977 30q70 105 76 230h-174
q-3 -83 -29 -164q62 -22 127 -66zM580 -143v229q-74 -1 -144 -20q51 -130 144 -209zM636 -144q93 76 145 210q-68 19 -145 20v-230zM524 -157q-90 84 -139 206q-56 -20 -113 -60q100 -119 252 -146zM694 -156q149 27 251 145q-60 39 -112 60q-51 -123 -139 -205z" />
    <glyph glyph-name="u1F5D8" unicode="&#x1f5d8;" horiz-adv-x="1092" 
d="M801 561q-45 55 -113 88.5t-143 33.5q-128 0 -215 -90.5t-87 -227.5v-64l158 144l33 -33l-214 -192l-218 196l33 32l162 -147v64q0 158 100 259.5t248 101.5q85 0 162.5 -36.5t128.5 -98.5zM290 154q45 -55 113.5 -88.5t143.5 -33.5q130 0 216 87t86 231v63l-158 -143
l-33 32l214 192l218 -196l-33 -32l-162 147v-63q0 -164 -99.5 -263t-248.5 -99q-85 0 -162.5 37t-128.5 98z" />
    <glyph glyph-name="i.loclTRK" horiz-adv-x="296" 
d="M152 630q-20 0 -33.5 14t-13.5 34t13.5 33.5t33.5 13.5t34 -13.5t14 -33.5t-14 -34t-34 -14zM36 527h157v-527h-74v469h-83v58z" />
    <glyph glyph-name="f_i" horiz-adv-x="634" 
d="M531 527v-527h-74v469h-262v-469h-74v469h-73v58h73v42q0 84 56 133.5t170 49.5q77 0 164 -34l-20 -54q-81 29 -147 29q-149 0 -149 -118v-48h336z" />
    <glyph glyph-name="f_l" horiz-adv-x="663" 
d="M605 53l10 -53q-29 -12 -60 -12q-45 0 -71 25.5t-26 72.5v597q-102 11 -134 11q-65 0 -97 -26.5t-32 -90.5v-50h144v-58h-144v-470h-74v470h-73v58h73v45q0 180 195 180q51 0 147 -12h69v-643q0 -48 42 -48q16 0 31 4z" />
    <glyph glyph-name="uni0408.ss02" horiz-adv-x="509" 
d="M218 -12q-82 0 -134.5 42.5t-59.5 116.5h72q7 -50 39.5 -74t79.5 -24q54 0 87 33t33 95v523h75v-526q0 -84 -52.5 -135t-139.5 -51z" />
    <glyph glyph-name="zero.tf" 
d="M304 -12q-112 0 -177 64t-65 178v237q0 116 65 180.5t177 64.5q106 0 169.5 -65t63.5 -180v-237q0 -113 -63.5 -177.5t-169.5 -64.5zM304 50q70 0 114 46.5t44 132.5v240q0 88 -44 135.5t-114 47.5q-76 0 -121.5 -47t-45.5 -136v-240q0 -88 45 -133.5t122 -45.5z" />
    <glyph glyph-name="one.tf" 
d="M362 60h148v-60h-223h-171v60h171v552l-154 -84l-28 51l203 121h54v-640z" />
    <glyph glyph-name="two.tf" 
d="M171 63h348v-63h-421v44q0 89 32.5 144.5t99.5 103.5l104 75q59 41 82 69.5t23 71.5v27q0 47 -38 81t-105 34q-95 0 -180 -65l-35 46q95 80 217 80q97 0 156.5 -51.5t59.5 -123.5v-29q0 -54 -34 -99t-113 -99l-88 -61q-62 -42 -84.5 -83t-23.5 -102z" />
    <glyph glyph-name="three.tf" 
d="M289 -12q-87 0 -142.5 27.5t-98.5 76.5l46 43q75 -86 191 -86q75 0 124 36t49 102v30q0 64 -51 94.5t-114 30.5h-68v59h68q58 0 99 27t41 81v25q0 59 -42 88.5t-107 29.5q-99 0 -187 -81l-41 43q98 98 233 98q92 0 154.5 -47t62.5 -124v-35q0 -49 -37.5 -85.5
t-87.5 -44.5q54 -6 102.5 -48t48.5 -104v-41q0 -84 -69 -139.5t-174 -55.5z" />
    <glyph glyph-name="four.tf" 
d="M385 0v156h-326v53l258 491h74l-253 -483h247l15 206l59 1v-207h99v-61h-99v-156h-74z" />
    <glyph glyph-name="five.tf" 
d="M316 436q101 0 161 -53.5t60 -132.5v-66q0 -83 -67.5 -139.5t-170.5 -56.5q-84 0 -138 28.5t-100 84.5l48 40q41 -46 83 -68.5t105 -22.5q72 0 118.5 37t46.5 102v54q0 62 -46.5 97t-122.5 35q-55 0 -117 -21h-54v346h378v-64h-304v-220q52 20 120 20z" />
    <glyph glyph-name="six.tf" 
d="M338 459q93 0 145 -57.5t52 -145.5v-43q0 -95 -60.5 -160t-171.5 -65q-108 0 -173 74.5t-65 192.5v51q0 195 101 296.5t293 109.5v-62q-301 -14 -319 -286q71 95 198 95zM461 215v39q0 66 -33.5 105.5t-101.5 39.5q-60 0 -104 -26t-83 -81v-35q0 -98 44.5 -152.5
t121.5 -54.5t116.5 45t39.5 120z" />
    <glyph glyph-name="seven.tf" 
d="M524 700v-66l-279 -634h-83l286 633h-372v67h448z" />
    <glyph glyph-name="eight.tf" 
d="M392 381q74 -22 115 -61t41 -107v-48q0 -78 -69.5 -127.5t-178.5 -49.5q-111 0 -178.5 49.5t-67.5 129.5v49q0 55 39.5 90.5t117.5 60.5q-64 20 -94.5 53t-30.5 90v44q0 68 59.5 113t153.5 45q95 0 156 -44.5t61 -113.5v-44q0 -47 -30 -78t-94 -51zM159 514q0 -42 29 -65
t88 -38l41 -10h1q65 22 95 45t30 62v39q0 52 -43 80t-102 28q-58 0 -98.5 -26t-40.5 -76v-39zM473 167v47q0 48 -37 75t-103 45l-45 12l-7 -3q-37 -12 -59.5 -21t-46.5 -23.5t-35 -34.5t-11 -46v-48q0 -57 47 -89t125 -32q76 0 124 32t48 86z" />
    <glyph glyph-name="nine.tf" 
d="M300 712q111 0 173 -73.5t62 -193.5v-51q0 -196 -103.5 -297t-304.5 -109v63q316 14 332 287q-72 -97 -196 -97q-92 0 -144.5 58t-52.5 145v43q0 95 60.5 160t173.5 65zM275 300q61 0 103.5 26t81.5 82v35q0 101 -41 154t-121 53q-79 0 -118.5 -45t-39.5 -120v-39
q0 -65 34 -105.5t101 -40.5z" />
    <glyph glyph-name="zero.zero.tf" 
d="M304 712q107 0 169.5 -65t62.5 -179v-239q0 -111 -62.5 -176t-169.5 -65q-112 0 -176 64.5t-64 176.5v239q0 114 64 179t176 65zM138 470v-243q0 -83 41 -129l200 537q-32 17 -75 17q-77 0 -121.5 -47.5t-44.5 -134.5zM462 227v243q0 84 -39 131l-201 -534q36 -17 82 -17
q71 0 114.5 46.5t43.5 130.5z" />
    <glyph glyph-name="zero.zero" horiz-adv-x="632" 
d="M321 712q109 0 171.5 -65t62.5 -179v-239q0 -111 -62.5 -176t-171.5 -65q-115 0 -179.5 64.5t-64.5 176.5v239q0 114 64.5 179t179.5 65zM151 470v-243q0 -91 40 -134l205 546q-30 13 -75 13q-80 0 -125 -47.5t-45 -134.5zM481 227v243q0 94 -39 137l-204 -544
q33 -13 83 -13q73 0 116.5 46.5t43.5 130.5z" />
    <glyph glyph-name="zero.dnom" horiz-adv-x="500" 
d="M253 -10q-91 0 -143.5 48.5t-52.5 135.5v175q0 88 52.5 137t143.5 49q87 0 138 -49.5t51 -136.5v-175q0 -87 -51 -135.5t-138 -48.5zM253 46q54 0 86 32t32 96v176q0 65 -32 98t-86 33q-58 0 -91.5 -33t-33.5 -98v-176q0 -64 33.5 -96t91.5 -32z" />
    <glyph glyph-name="one.dnom" horiz-adv-x="500" 
d="M96 0v54h134v394l-120 -61l-25 46l164 92h52v-471h115v-54h-320z" />
    <glyph glyph-name="two.dnom" horiz-adv-x="500" 
d="M84 0v39q0 66 25.5 108t79.5 77l84 57q48 32 64.5 51.5t16.5 49.5v18q0 34 -29.5 56.5t-80.5 22.5q-75 0 -142 -49l-32 44q81 61 179 61q80 0 128 -38t48 -94v-23q0 -41 -26 -72.5t-88 -72.5l-75 -50q-47 -31 -64.5 -58.5t-18.5 -69.5h275v-57h-344z" />
    <glyph glyph-name="three.dnom" horiz-adv-x="500" 
d="M248 -11q-120 0 -195 81l41 37q63 -63 150 -63q58 0 95 26t37 72v22q0 45 -39 67.5t-90 22.5h-51v51h51q47 0 77.5 19t30.5 57v18q0 41 -31.5 62t-80.5 21q-78 0 -145 -59l-37 38q82 75 189 75q74 0 125 -36t51 -92v-26q0 -37 -31 -65t-71 -34q44 -5 83 -36.5t39 -79.5
v-31q0 -63 -56.5 -105t-141.5 -42z" />
    <glyph glyph-name="four.dnom" horiz-adv-x="500" 
d="M307 0v113h-258v44l199 368h69l-192 -356h183l14 147l55 1v-148h73v-56h-73v-113h-70z" />
    <glyph glyph-name="five.dnom" horiz-adv-x="500" 
d="M250 -11q-122 0 -194 86l43 38q32 -34 64.5 -50.5t83.5 -16.5q55 0 90.5 26.5t35.5 71.5v37q0 44 -35 69t-93 25q-44 0 -95 -17h-45v267h309v-57h-241v-157q43 17 96 17q78 0 126.5 -40t48.5 -101v-48q0 -63 -54.5 -106.5t-139.5 -43.5z" />
    <glyph glyph-name="six.dnom" horiz-adv-x="500" 
d="M253 -11q-90 0 -142.5 56.5t-52.5 148.5v39q0 145 84 221.5t240 81.5v-56q-238 -9 -251 -203q58 69 152 69q75 0 116.5 -43.5t41.5 -110.5v-32q0 -72 -48.5 -121.5t-139.5 -49.5zM253 45q59 0 88.5 31.5t29.5 85.5v28q0 48 -26 75.5t-77 27.5q-81 0 -138 -74v-32
q0 -67 32.5 -104.5t90.5 -37.5z" />
    <glyph glyph-name="seven.dnom" horiz-adv-x="500" 
d="M135 0l224 467h-292v58h365v-56l-220 -469h-77z" />
    <glyph glyph-name="eight.dnom" horiz-adv-x="500" 
d="M248 -11q-89 0 -144 38t-55 98v36q0 73 110 109l17 4l-16 5q-44 16 -65.5 40t-21.5 64v31q0 53 49 87.5t126 34.5q78 0 127.5 -34t49.5 -87v-31q0 -68 -89 -94l-15 -4l18 -5q53 -16 82 -44t29 -77v-36q0 -59 -56.5 -97t-145.5 -38zM260 306l19 5q79 23 79 71v27
q0 35 -32 55.5t-79 20.5q-45 0 -75.5 -19t-30.5 -53v-27q0 -30 22 -45.5t73 -28.5zM250 43q58 0 94 22.5t36 60.5v32q0 34 -28 52.5t-82 33.5l-35 10l-19 -6q-48 -15 -72.5 -33.5t-24.5 -51.5v-33q0 -41 35 -64t96 -23z" />
    <glyph glyph-name="nine.dnom" horiz-adv-x="500" 
d="M106 -11v57q249 8 262 202q-57 -69 -151 -69q-75 0 -117 43.5t-42 110.5v32q0 72 49.5 121.5t141.5 49.5q91 0 141.5 -56t50.5 -149v-38q0 -147 -85 -223t-250 -81zM232 231q79 0 137 75v32q0 69 -31 105.5t-91 36.5t-89.5 -31.5t-29.5 -85.5v-28q0 -47 26 -75.5
t78 -28.5z" />
    <glyph glyph-name="zero.numr" horiz-adv-x="500" 
d="M253 205q-91 0 -143.5 48.5t-52.5 135.5v175q0 88 52.5 137t143.5 49q87 0 138 -49.5t51 -136.5v-175q0 -87 -51 -135.5t-138 -48.5zM253 261q54 0 86 32t32 96v176q0 65 -32 98t-86 33q-58 0 -91.5 -33t-33.5 -98v-176q0 -64 33.5 -96t91.5 -32z" />
    <glyph glyph-name="one.numr" horiz-adv-x="500" 
d="M96 215v54h134v394l-120 -61l-25 46l164 92h52v-471h115v-54h-320z" />
    <glyph glyph-name="two.numr" horiz-adv-x="500" 
d="M84 215v39q0 66 25.5 108t79.5 77l84 57q48 32 64.5 51.5t16.5 49.5v18q0 34 -29.5 56.5t-80.5 22.5q-75 0 -142 -49l-32 44q81 61 179 61q80 0 128 -38t48 -94v-23q0 -41 -26 -72.5t-88 -72.5l-75 -50q-47 -31 -64.5 -58.5t-18.5 -69.5h275v-57h-344z" />
    <glyph glyph-name="three.numr" horiz-adv-x="500" 
d="M248 204q-120 0 -195 81l41 37q63 -63 150 -63q58 0 95 26t37 72v22q0 45 -39 67.5t-90 22.5h-51v51h51q47 0 77.5 19t30.5 57v18q0 41 -31.5 62t-80.5 21q-78 0 -145 -59l-37 38q82 75 189 75q74 0 125 -36t51 -92v-26q0 -37 -31 -65t-71 -34q44 -5 83 -36.5t39 -79.5
v-31q0 -63 -56.5 -105t-141.5 -42z" />
    <glyph glyph-name="four.numr" horiz-adv-x="500" 
d="M307 215v113h-258v44l199 368h69l-192 -356h183l14 147l55 1v-148h73v-56h-73v-113h-70z" />
    <glyph glyph-name="five.numr" horiz-adv-x="500" 
d="M250 204q-122 0 -194 86l43 38q32 -34 64.5 -50.5t83.5 -16.5q55 0 90.5 26.5t35.5 71.5v37q0 44 -35 69t-93 25q-44 0 -95 -17h-45v267h309v-57h-241v-157q43 17 96 17q78 0 126.5 -40t48.5 -101v-48q0 -63 -54.5 -106.5t-139.5 -43.5z" />
    <glyph glyph-name="six.numr" horiz-adv-x="500" 
d="M253 204q-90 0 -142.5 56.5t-52.5 148.5v39q0 145 84 221.5t240 81.5v-56q-238 -9 -251 -203q58 69 152 69q75 0 116.5 -43.5t41.5 -110.5v-32q0 -72 -48.5 -121.5t-139.5 -49.5zM253 260q59 0 88.5 31.5t29.5 85.5v28q0 48 -26 75.5t-77 27.5q-81 0 -138 -74v-32
q0 -67 32.5 -104.5t90.5 -37.5z" />
    <glyph glyph-name="seven.numr" horiz-adv-x="500" 
d="M135 215l224 467h-292v58h365v-56l-220 -469h-77z" />
    <glyph glyph-name="eight.numr" horiz-adv-x="500" 
d="M248 204q-89 0 -144 38t-55 98v36q0 73 110 109l17 4l-16 5q-44 16 -65.5 40t-21.5 64v31q0 53 49 87.5t126 34.5q78 0 127.5 -34t49.5 -87v-31q0 -68 -89 -94l-15 -4l18 -5q53 -16 82 -44t29 -77v-36q0 -59 -56.5 -97t-145.5 -38zM260 521l19 5q79 23 79 71v27
q0 35 -32 55.5t-79 20.5q-45 0 -75.5 -19t-30.5 -53v-27q0 -30 22 -45.5t73 -28.5zM250 258q58 0 94 22.5t36 60.5v32q0 34 -28 52.5t-82 33.5l-35 10l-19 -6q-48 -15 -72.5 -33.5t-24.5 -51.5v-33q0 -41 35 -64t96 -23z" />
    <glyph glyph-name="nine.numr" horiz-adv-x="500" 
d="M106 204v57q249 8 262 202q-57 -69 -151 -69q-75 0 -117 43.5t-42 110.5v32q0 72 49.5 121.5t141.5 49.5q91 0 141.5 -56t50.5 -149v-38q0 -147 -85 -223t-250 -81zM232 446q79 0 137 75v32q0 69 -31 105.5t-91 36.5t-89.5 -31.5t-29.5 -85.5v-28q0 -47 26 -75.5
t78 -28.5z" />
    <glyph glyph-name="periodcentered.case" horiz-adv-x="251" 
d="M126 319q-22 0 -37 15t-15 37q0 21 15.5 36t36.5 15q22 0 36.5 -15t14.5 -36q0 -22 -14.5 -37t-36.5 -15z" />
    <glyph glyph-name="bullet.case" horiz-adv-x="304" 
d="M152 465q34 0 57 -23t23 -57q0 -35 -23 -57.5t-57 -22.5t-57 23t-23 58q0 34 23 56.5t57 22.5z" />
    <glyph glyph-name="exclamdown.case" horiz-adv-x="282" 
d="M140 708q22 0 37 -14.5t15 -36.5t-15.5 -37t-36.5 -15q-22 0 -36.5 15t-14.5 37t14.5 36.5t36.5 14.5zM181 0h-82l12 479h60z" />
    <glyph glyph-name="questiondown.case" horiz-adv-x="471" 
d="M264 708q22 0 37 -14.5t15 -36.5t-15.5 -37t-36.5 -15q-22 0 -36.5 15t-14.5 37t14.5 36.5t36.5 14.5zM301 479v-34q0 -41 -19.5 -74t-47 -54.5t-55 -40.5t-47 -43.5t-19.5 -52.5v-27q0 -46 34.5 -75t91.5 -29q48 0 85.5 15t83.5 50l37 -46q-98 -80 -212 -80
q-88 0 -142 46t-54 115v29q0 39 20 69.5t48 50.5t56 39.5t48 47t20 62.5v32h72z" />
    <glyph glyph-name="braceleft.case" horiz-adv-x="400" 
d="M327 -172q-86 10 -130 44.5t-44 108.5v221q0 87 -101 88v61q101 1 101 88v220q0 74 44 108.5t130 44.5l9 -54q-54 -10 -81 -33t-27 -69v-219q0 -51 -31.5 -81.5t-81.5 -35.5q50 -5 81.5 -35.5t31.5 -81.5v-219q0 -46 27 -69t81 -33z" />
    <glyph glyph-name="braceright.case" horiz-adv-x="400" 
d="M73 -172l-9 54q54 10 81 33t27 69v219q0 51 31.5 81.5t81.5 35.5q-50 5 -81.5 35.5t-31.5 81.5v219q0 46 -27 69t-81 33l9 54q86 -10 130 -44.5t44 -108.5v-220q0 -87 101 -88v-61q-101 -1 -101 -88v-221q0 -74 -44 -108.5t-130 -44.5z" />
    <glyph glyph-name="bracketleft.case" horiz-adv-x="400" 
d="M98 -160v960h203v-61h-129v-838h129v-61h-203z" />
    <glyph glyph-name="bracketright.case" horiz-adv-x="400" 
d="M302 -160h-203v61h129v838h-129v61h203v-960z" />
    <glyph glyph-name="parenleft.case" horiz-adv-x="400" 
d="M157 210q0 -109 32.5 -179.5t126.5 -162.5l-44 -40q-105 92 -147 174.5t-42 207.5v220q0 125 42 207.5t147 174.5l44 -39q-93 -93 -126 -164t-33 -179v-220z" />
    <glyph glyph-name="parenright.case" horiz-adv-x="400" 
d="M128 812q105 -92 147 -174.5t42 -207.5v-220q0 -125 -42 -207.5t-147 -174.5l-44 40q94 92 126.5 162.5t32.5 179.5v220q0 108 -33 179t-126 164z" />
    <glyph glyph-name="emdash.case" horiz-adv-x="693" 
d="M619 413v-61h-545v61h545z" />
    <glyph glyph-name="endash.case" horiz-adv-x="633" 
d="M559 413v-61h-485v61h485z" />
    <glyph glyph-name="uni2015.case" 
d="M555 413v-61h-485v61h485z" />
    <glyph glyph-name="hyphen.case" horiz-adv-x="435" 
d="M361 413v-61h-287v61h287z" />
    <glyph glyph-name="uni00AD.case" horiz-adv-x="435" 
d="M361 413v-61h-287v61h287z" />
    <glyph glyph-name="guillemotleft.case" horiz-adv-x="608" 
d="M262 92l-165 217v36l163 214l41 -27l-136 -205l138 -208zM469 92l-164 217v36l162 214l42 -27l-136 -205l137 -208z" />
    <glyph glyph-name="guillemotright.case" horiz-adv-x="608" 
d="M138 92l-41 27l138 208l-136 205l41 27l163 -214v-36zM346 92l-41 27l137 208l-136 205l42 27l162 -214v-36z" />
    <glyph glyph-name="guilsinglleft.case" horiz-adv-x="400" 
d="M262 92l-165 217v36l163 214l41 -27l-136 -205l138 -208z" />
    <glyph glyph-name="guilsinglright.case" horiz-adv-x="400" 
d="M138 92l-41 27l138 208l-136 205l41 27l163 -214v-36z" />
    <glyph glyph-name="space.frac" horiz-adv-x="60" 
 />
    <glyph glyph-name="asciitilde.case" 
d="M378 321q-39 0 -85.5 31t-68.5 31q-42 0 -74 -52l-45 21q43 82 120 82q37 0 84 -30t70 -30q45 0 72 47l44 -22q-40 -78 -117 -78z" />
    <glyph glyph-name="caroncomb.alt" horiz-adv-x="0" 
d="M-36 522l-47 6l28 182l63 -9z" />
    <glyph glyph-name="uni0308.case" horiz-adv-x="0" 
d="M-275 783q-19 0 -31.5 12.5t-12.5 30.5t12.5 30t31.5 12q18 0 30 -12t12 -30t-12 -30.5t-30 -12.5zM-59 783q-18 0 -30 12.5t-12 30.5t12 30t30 12q19 0 31.5 -12t12.5 -30t-12.5 -30.5t-31.5 -12.5z" />
    <glyph glyph-name="uni0307.case" horiz-adv-x="0" 
d="M-74 766q-20 0 -33.5 14t-13.5 34t13.5 33.5t33.5 13.5t34 -13.5t14 -33.5t-14 -34t-34 -14z" />
    <glyph glyph-name="gravecomb.case" horiz-adv-x="0" 
d="M-46 749l-197 85l24 53l192 -94z" />
    <glyph glyph-name="acutecomb.case" horiz-adv-x="0" 
d="M-224 749l-19 44l192 94l24 -53z" />
    <glyph glyph-name="uni030B.case" horiz-adv-x="0" 
d="M-126 737l-46 20l80 156l53 -26zM-268 741l-47 19l72 152l55 -23z" />
    <glyph glyph-name="uni0302.case" horiz-adv-x="0" 
d="M-299 746l-28 37l126 104h45l126 -104l-28 -37l-121 88z" />
    <glyph glyph-name="uni030C.case" horiz-adv-x="0" 
d="M-201 747l-126 104l28 37l120 -88l121 88l28 -37l-126 -104h-45z" />
    <glyph glyph-name="uni0306.case" horiz-adv-x="0" 
d="M-164 763q-54 0 -91 30.5t-50 82.5l51 10q22 -73 90 -73q69 0 91 73l51 -10q-13 -52 -50.5 -82.5t-91.5 -30.5z" />
    <glyph glyph-name="uni030A.case" horiz-adv-x="0" 
d="M-128 729q-44 0 -75 27t-31 67v15q0 40 31 67.5t75 27.5t75.5 -27.5t31.5 -67.5v-15q0 -40 -31.5 -67t-75.5 -27zM-128 771q25 0 42 14.5t17 38.5v13q0 24 -17 39.5t-42 15.5q-24 0 -41 -15.5t-17 -39.5v-13q0 -24 16.5 -38.5t41.5 -14.5z" />
    <glyph glyph-name="tildecomb.case" horiz-adv-x="0" 
d="M-124 761q-28 0 -64 23.5t-51 23.5q-28 0 -56 -42l-43 22q39 70 99 70q27 0 63 -24t52 -24q30 0 56 43l44 -22q-37 -70 -100 -70z" />
    <glyph glyph-name="uni0304.case" horiz-adv-x="0" 
d="M-278 787v51h248v-51h-248z" />
    <glyph glyph-name="uni0312.case" horiz-adv-x="0" 
d="M-54 954l34 -16q-31 -61 -34 -115q24 -12 24 -38q0 -19 -13.5 -32t-32.5 -13q-20 0 -33.5 13t-13.5 32q0 71 69 169z" />
    <glyph glyph-name="brevecombcy.case" horiz-adv-x="0" 
d="M-152 762q-52 0 -90.5 27.5t-55.5 70.5l51 10q29 -57 95 -57q68 0 96 57l52 -10q-17 -43 -56 -70.5t-92 -27.5z" />
    <glyph glyph-name="brevecombcy" horiz-adv-x="0" 
d="M-301 620q-52 0 -90.5 28t-56.5 72l52 10q28 -60 95 -60q64 0 96 60l51 -10q-18 -44 -56.5 -72t-90.5 -28z" />
    <glyph glyph-name="blackdownTriangle" 
d="M299 71l-207 412v4h418v-4l-207 -412h-4z" />
    <glyph glyph-name="blackleftTriangleSmall" 
d="M508 285v-4l-412 -207h-4v418h4z" />
    <glyph glyph-name="blackrightTriangleSmall" 
d="M92 285l412 207h4v-418h-4l-412 207v4z" />
    </font>
</defs>
</svg>
